<svg width="60" height="60" viewBox="0 0 60 60" fill="none" xmlns="http://www.w3.org/2000/svg">
<rect x="0.75" y="0.75" width="58.5" height="58.5" rx="9.25" stroke="#6D7A79" stroke-width="1.5"/>
<path d="M27.8692 21.2219C27.7211 21.2836 26.0173 22.7838 23.7023 24.8703C19.0723 29.0434 19.1526 28.9694 19.0044 29.2842C18.8501 29.6176 18.8501 30.2472 19.0044 30.5929C19.1649 30.9448 27.1963 38.4145 27.6408 38.6182C28.0359 38.8096 28.5113 38.8034 28.9187 38.612C29.8138 38.1984 30.0854 37.0934 29.4866 36.3094C29.3755 36.1674 28.1841 35.0315 26.826 33.7783L24.369 31.5066L32.1967 31.4757L40.0306 31.4448L40.2775 31.309C40.8331 31.0127 41.1109 30.5497 41.1109 29.9324C41.1109 29.3151 40.8331 28.8521 40.2775 28.5558L40.0306 28.4199L32.2399 28.3891L24.4492 28.3582L27.0914 25.9753C30.0175 23.327 29.999 23.3517 29.999 22.6356C29.9928 21.9997 29.6657 21.475 29.1039 21.2219C28.7767 21.0738 28.1964 21.0738 27.8692 21.2219Z" fill="#3E4444"/>
</svg>
