<svg width="22" height="22" viewBox="0 0 22 22" fill="none" xmlns="http://www.w3.org/2000/svg">
<mask id="path-1-outside-1_123_233" maskUnits="userSpaceOnUse" x="0" y="-0.0114746" width="22" height="22" fill="black">
<rect fill="white" y="-0.0114746" width="22" height="22"/>
<path d="M8.61619 2.14135C7.06393 2.99737 6.55031 3.32837 6.52749 3.51098C6.459 3.93329 6.83566 3.79633 8.86729 2.66637C9.95158 2.07286 10.9217 1.58208 11.0359 1.58208C11.15 1.58208 11.4696 1.71904 11.7549 1.87883C12.0403 2.03862 13.8094 3.0202 15.6927 4.05884C17.5759 5.1089 19.2195 6.02199 19.345 6.1133C19.5276 6.23885 18.2379 6.26167 11.0701 6.26167C4.99806 6.26167 2.6126 6.22743 2.70391 6.13612C2.77239 6.06764 3.48004 5.64534 4.29041 5.2002C5.69429 4.41266 6.07094 4.07025 5.67146 3.91046C5.58015 3.87622 4.50727 4.41266 3.29742 5.08607L1.08317 6.31874L1.04893 6.93508C1.02611 7.27749 1.07176 7.69979 1.15166 7.88241C1.28862 8.22482 1.76799 8.54441 2.13323 8.54441C2.24737 8.54441 2.54412 8.84116 2.82946 9.22922L3.30884 9.91404V13.6007V17.2759L2.84088 17.9378C2.4414 18.5085 2.32726 18.5884 2.00768 18.5884C1.79082 18.5884 1.49406 18.6911 1.32286 18.8281C1.06035 19.0336 1.02611 19.1363 1.02611 19.7983C1.02611 21.1108 -0.0125376 20.9853 11.0131 20.9853C20.3951 20.9853 20.5435 20.9853 20.7717 20.757C20.9543 20.5744 21 20.3804 21 19.8211C21 19.4216 20.9543 19.045 20.9087 18.9651C20.7946 18.7939 20.2581 18.5884 19.9157 18.5884C19.7217 18.5884 19.5276 18.4172 19.1852 17.9378L18.7173 17.2759V13.6007V9.91404L19.2081 9.22922C19.482 8.84116 19.7787 8.54441 19.8929 8.54441C20.2581 8.54441 20.7375 8.22482 20.8745 7.88241C20.9543 7.69979 21 7.27749 20.9772 6.93508L20.9429 6.31874L17.4047 4.34418C12.1772 1.4337 11.3669 1.01139 11.0016 1.01139C10.7962 1.01139 9.87169 1.45653 8.61619 2.14135ZM20.4293 7.19759C20.4293 7.39163 20.3494 7.65414 20.2353 7.76828C20.0641 7.96231 19.6304 7.97372 11.0359 7.97372C1.00328 7.97372 1.59679 8.01938 1.59679 7.20901V6.83236H11.0131H20.4293V7.19759ZM6.26497 9.05802L5.89974 9.57163H4.83827H3.78821L3.51428 9.19498C3.3659 9.00095 3.1947 8.76126 3.14904 8.68137C3.08056 8.57865 3.45721 8.54441 4.84968 8.54441H6.63021L6.26497 9.05802ZM15.2247 9.30912L15.7497 10.0852V11.9228C15.7497 13.3838 15.784 13.7833 15.9095 13.8289C16.2519 13.9659 16.3204 13.6463 16.3204 11.9457V10.2565H17.1764H18.0325V13.6235V16.9905H17.1764H16.3204V15.929C16.3204 14.8676 16.2177 14.548 15.9095 14.6735C15.784 14.7192 15.7497 15.0159 15.7497 15.9519V17.1731L15.2361 17.8808L14.7225 18.5884H11.0131H7.30361L6.79 17.8808L6.27639 17.1731V13.6235V10.0852L6.80141 9.30912L7.32644 8.54441H11.0131H14.6997L15.2247 9.30912ZM18.8771 8.68137C18.8314 8.76126 18.6602 9.00095 18.5118 9.19498L18.2379 9.57163H17.1878H16.1264L15.7611 9.05802L15.3959 8.54441H17.1764C18.5689 8.54441 18.9455 8.57865 18.8771 8.68137ZM5.7057 13.6235V16.9905H4.84968H3.99366V13.6235V10.2565H4.84968H5.7057V13.6235ZM6.16225 17.9949C6.32204 18.2232 6.47042 18.4515 6.48183 18.4971C6.50466 18.5542 5.75136 18.5884 4.80402 18.5884H3.08056L3.4458 18.0748L3.81104 17.5612H4.83827H5.87691L6.16225 17.9949ZM18.5803 18.0748L18.9455 18.5884H17.2221C16.2747 18.5884 15.5214 18.5542 15.5443 18.4971C15.5671 18.4515 15.7041 18.2232 15.8639 17.9949L16.1492 17.5612H17.1878H18.2151L18.5803 18.0748ZM20.4293 19.8439V20.4146H11.0131H1.59679V19.8439V19.2732H11.0131H20.4293V19.8439Z"/>
</mask>
<path d="M8.61619 2.14135C7.06393 2.99737 6.55031 3.32837 6.52749 3.51098C6.459 3.93329 6.83566 3.79633 8.86729 2.66637C9.95158 2.07286 10.9217 1.58208 11.0359 1.58208C11.15 1.58208 11.4696 1.71904 11.7549 1.87883C12.0403 2.03862 13.8094 3.0202 15.6927 4.05884C17.5759 5.1089 19.2195 6.02199 19.345 6.1133C19.5276 6.23885 18.2379 6.26167 11.0701 6.26167C4.99806 6.26167 2.6126 6.22743 2.70391 6.13612C2.77239 6.06764 3.48004 5.64534 4.29041 5.2002C5.69429 4.41266 6.07094 4.07025 5.67146 3.91046C5.58015 3.87622 4.50727 4.41266 3.29742 5.08607L1.08317 6.31874L1.04893 6.93508C1.02611 7.27749 1.07176 7.69979 1.15166 7.88241C1.28862 8.22482 1.76799 8.54441 2.13323 8.54441C2.24737 8.54441 2.54412 8.84116 2.82946 9.22922L3.30884 9.91404V13.6007V17.2759L2.84088 17.9378C2.4414 18.5085 2.32726 18.5884 2.00768 18.5884C1.79082 18.5884 1.49406 18.6911 1.32286 18.8281C1.06035 19.0336 1.02611 19.1363 1.02611 19.7983C1.02611 21.1108 -0.0125376 20.9853 11.0131 20.9853C20.3951 20.9853 20.5435 20.9853 20.7717 20.757C20.9543 20.5744 21 20.3804 21 19.8211C21 19.4216 20.9543 19.045 20.9087 18.9651C20.7946 18.7939 20.2581 18.5884 19.9157 18.5884C19.7217 18.5884 19.5276 18.4172 19.1852 17.9378L18.7173 17.2759V13.6007V9.91404L19.2081 9.22922C19.482 8.84116 19.7787 8.54441 19.8929 8.54441C20.2581 8.54441 20.7375 8.22482 20.8745 7.88241C20.9543 7.69979 21 7.27749 20.9772 6.93508L20.9429 6.31874L17.4047 4.34418C12.1772 1.4337 11.3669 1.01139 11.0016 1.01139C10.7962 1.01139 9.87169 1.45653 8.61619 2.14135ZM20.4293 7.19759C20.4293 7.39163 20.3494 7.65414 20.2353 7.76828C20.0641 7.96231 19.6304 7.97372 11.0359 7.97372C1.00328 7.97372 1.59679 8.01938 1.59679 7.20901V6.83236H11.0131H20.4293V7.19759ZM6.26497 9.05802L5.89974 9.57163H4.83827H3.78821L3.51428 9.19498C3.3659 9.00095 3.1947 8.76126 3.14904 8.68137C3.08056 8.57865 3.45721 8.54441 4.84968 8.54441H6.63021L6.26497 9.05802ZM15.2247 9.30912L15.7497 10.0852V11.9228C15.7497 13.3838 15.784 13.7833 15.9095 13.8289C16.2519 13.9659 16.3204 13.6463 16.3204 11.9457V10.2565H17.1764H18.0325V13.6235V16.9905H17.1764H16.3204V15.929C16.3204 14.8676 16.2177 14.548 15.9095 14.6735C15.784 14.7192 15.7497 15.0159 15.7497 15.9519V17.1731L15.2361 17.8808L14.7225 18.5884H11.0131H7.30361L6.79 17.8808L6.27639 17.1731V13.6235V10.0852L6.80141 9.30912L7.32644 8.54441H11.0131H14.6997L15.2247 9.30912ZM18.8771 8.68137C18.8314 8.76126 18.6602 9.00095 18.5118 9.19498L18.2379 9.57163H17.1878H16.1264L15.7611 9.05802L15.3959 8.54441H17.1764C18.5689 8.54441 18.9455 8.57865 18.8771 8.68137ZM5.7057 13.6235V16.9905H4.84968H3.99366V13.6235V10.2565H4.84968H5.7057V13.6235ZM6.16225 17.9949C6.32204 18.2232 6.47042 18.4515 6.48183 18.4971C6.50466 18.5542 5.75136 18.5884 4.80402 18.5884H3.08056L3.4458 18.0748L3.81104 17.5612H4.83827H5.87691L6.16225 17.9949ZM18.5803 18.0748L18.9455 18.5884H17.2221C16.2747 18.5884 15.5214 18.5542 15.5443 18.4971C15.5671 18.4515 15.7041 18.2232 15.8639 17.9949L16.1492 17.5612H17.1878H18.2151L18.5803 18.0748ZM20.4293 19.8439V20.4146H11.0131H1.59679V19.8439V19.2732H11.0131H20.4293V19.8439Z" fill="black"/>
<path d="M8.61619 2.14135C7.06393 2.99737 6.55031 3.32837 6.52749 3.51098C6.459 3.93329 6.83566 3.79633 8.86729 2.66637C9.95158 2.07286 10.9217 1.58208 11.0359 1.58208C11.15 1.58208 11.4696 1.71904 11.7549 1.87883C12.0403 2.03862 13.8094 3.0202 15.6927 4.05884C17.5759 5.1089 19.2195 6.02199 19.345 6.1133C19.5276 6.23885 18.2379 6.26167 11.0701 6.26167C4.99806 6.26167 2.6126 6.22743 2.70391 6.13612C2.77239 6.06764 3.48004 5.64534 4.29041 5.2002C5.69429 4.41266 6.07094 4.07025 5.67146 3.91046C5.58015 3.87622 4.50727 4.41266 3.29742 5.08607L1.08317 6.31874L1.04893 6.93508C1.02611 7.27749 1.07176 7.69979 1.15166 7.88241C1.28862 8.22482 1.76799 8.54441 2.13323 8.54441C2.24737 8.54441 2.54412 8.84116 2.82946 9.22922L3.30884 9.91404V13.6007V17.2759L2.84088 17.9378C2.4414 18.5085 2.32726 18.5884 2.00768 18.5884C1.79082 18.5884 1.49406 18.6911 1.32286 18.8281C1.06035 19.0336 1.02611 19.1363 1.02611 19.7983C1.02611 21.1108 -0.0125376 20.9853 11.0131 20.9853C20.3951 20.9853 20.5435 20.9853 20.7717 20.757C20.9543 20.5744 21 20.3804 21 19.8211C21 19.4216 20.9543 19.045 20.9087 18.9651C20.7946 18.7939 20.2581 18.5884 19.9157 18.5884C19.7217 18.5884 19.5276 18.4172 19.1852 17.9378L18.7173 17.2759V13.6007V9.91404L19.2081 9.22922C19.482 8.84116 19.7787 8.54441 19.8929 8.54441C20.2581 8.54441 20.7375 8.22482 20.8745 7.88241C20.9543 7.69979 21 7.27749 20.9772 6.93508L20.9429 6.31874L17.4047 4.34418C12.1772 1.4337 11.3669 1.01139 11.0016 1.01139C10.7962 1.01139 9.87169 1.45653 8.61619 2.14135ZM20.4293 7.19759C20.4293 7.39163 20.3494 7.65414 20.2353 7.76828C20.0641 7.96231 19.6304 7.97372 11.0359 7.97372C1.00328 7.97372 1.59679 8.01938 1.59679 7.20901V6.83236H11.0131H20.4293V7.19759ZM6.26497 9.05802L5.89974 9.57163H4.83827H3.78821L3.51428 9.19498C3.3659 9.00095 3.1947 8.76126 3.14904 8.68137C3.08056 8.57865 3.45721 8.54441 4.84968 8.54441H6.63021L6.26497 9.05802ZM15.2247 9.30912L15.7497 10.0852V11.9228C15.7497 13.3838 15.784 13.7833 15.9095 13.8289C16.2519 13.9659 16.3204 13.6463 16.3204 11.9457V10.2565H17.1764H18.0325V13.6235V16.9905H17.1764H16.3204V15.929C16.3204 14.8676 16.2177 14.548 15.9095 14.6735C15.784 14.7192 15.7497 15.0159 15.7497 15.9519V17.1731L15.2361 17.8808L14.7225 18.5884H11.0131H7.30361L6.79 17.8808L6.27639 17.1731V13.6235V10.0852L6.80141 9.30912L7.32644 8.54441H11.0131H14.6997L15.2247 9.30912ZM18.8771 8.68137C18.8314 8.76126 18.6602 9.00095 18.5118 9.19498L18.2379 9.57163H17.1878H16.1264L15.7611 9.05802L15.3959 8.54441H17.1764C18.5689 8.54441 18.9455 8.57865 18.8771 8.68137ZM5.7057 13.6235V16.9905H4.84968H3.99366V13.6235V10.2565H4.84968H5.7057V13.6235ZM6.16225 17.9949C6.32204 18.2232 6.47042 18.4515 6.48183 18.4971C6.50466 18.5542 5.75136 18.5884 4.80402 18.5884H3.08056L3.4458 18.0748L3.81104 17.5612H4.83827H5.87691L6.16225 17.9949ZM18.5803 18.0748L18.9455 18.5884H17.2221C16.2747 18.5884 15.5214 18.5542 15.5443 18.4971C15.5671 18.4515 15.7041 18.2232 15.8639 17.9949L16.1492 17.5612H17.1878H18.2151L18.5803 18.0748ZM20.4293 19.8439V20.4146H11.0131H1.59679V19.8439V19.2732H11.0131H20.4293V19.8439Z" stroke="black" stroke-width="0.6" mask="url(#path-1-outside-1_123_233)"/>
<path d="M7.84025 12.1586L7.84068 12.1576C8.02207 11.7586 8.33828 11.3519 8.70014 11.018C9.06095 10.6851 9.47966 10.4129 9.87402 10.2956C12.216 9.57099 14.4618 11.1916 14.4618 13.6236C14.4618 14.1286 14.3913 14.5626 14.2281 14.9616C14.0648 15.3606 13.8122 15.7164 13.4591 16.0694C12.769 16.7596 12.0351 17.0602 11.0722 17.0721L11.0722 17.0721H11.0703C10.5991 17.0721 10.2189 17.0286 9.86262 16.9088C9.50582 16.7888 9.18246 16.5957 8.82014 16.3093L8.82002 16.3092C7.61183 15.3523 7.19686 13.6002 7.84025 12.1586ZM12.3071 11.3561L12.307 11.3561C11.1306 10.6654 9.51053 11.0579 8.82437 12.1836L8.82423 12.1839C7.73209 13.968 8.98558 16.2004 11.0576 16.19C13.6744 16.1572 14.5764 12.6853 12.3071 11.3561Z" fill="black" stroke="black" stroke-width="0.3"/>
<path d="M9.71897 14.4628L9.71883 14.4628L9.72141 14.4565C9.76053 14.3615 9.83905 14.3021 9.91378 14.2681C9.98937 14.2337 10.0747 14.2186 10.1543 14.2195C10.2327 14.2205 10.3192 14.2372 10.3917 14.2808C10.4686 14.327 10.5351 14.4092 10.5351 14.525C10.5351 14.5245 10.5351 14.5243 10.5351 14.5243C10.5352 14.5243 10.5358 14.5306 10.5405 14.544C10.5458 14.559 10.5543 14.5776 10.5663 14.5983C10.5694 14.6036 10.5726 14.6089 10.5759 14.6141C10.5771 14.5697 10.5775 14.5175 10.5775 14.4565C10.5775 14.3456 10.5753 14.2653 10.5683 14.2036C10.5614 14.1422 10.5507 14.1097 10.54 14.0899C10.5225 14.0575 10.4893 14.0273 10.3334 13.9696C9.86932 13.8006 9.66445 13.3297 9.66445 12.7217C9.66445 12.4665 9.773 12.1917 9.91807 11.9827C9.99145 11.877 10.0783 11.7819 10.1731 11.7119C10.2664 11.6429 10.3786 11.5901 10.4993 11.5901C10.5116 11.5901 10.5348 11.5838 10.5615 11.5604C10.5876 11.5374 10.6081 11.5054 10.6171 11.4724C10.6423 11.38 10.6956 11.2986 10.7609 11.2395C10.8247 11.1817 10.9132 11.1336 11.0129 11.1336C11.1126 11.1336 11.2011 11.1817 11.2648 11.2395C11.3301 11.2986 11.3835 11.38 11.4087 11.4724C11.4177 11.5054 11.4382 11.5374 11.4643 11.5604C11.491 11.5838 11.5142 11.5901 11.5265 11.5901C11.6407 11.5901 11.7503 11.6449 11.8391 11.7082C11.9314 11.7741 12.0198 11.8626 12.0952 11.9584C12.1707 12.0543 12.2368 12.1623 12.2814 12.2702C12.3249 12.3752 12.3541 12.4948 12.3367 12.6075L12.3368 12.6075L12.3366 12.6086C12.3003 12.8333 12.1552 12.9993 11.9502 13.0071C11.7545 13.0145 11.5851 12.8727 11.5014 12.6632L11.5013 12.6633L11.5002 12.6602C11.4875 12.6263 11.4753 12.5973 11.4639 12.5726C11.4543 12.6366 11.4482 12.7202 11.4482 12.8244C11.4482 12.9318 11.4504 13.0127 11.4558 13.0744C11.4615 13.1377 11.4698 13.1699 11.4763 13.1854C11.4763 13.1854 11.4763 13.1855 11.4764 13.1855C11.4827 13.1866 11.4947 13.188 11.5151 13.188C11.6365 13.188 11.75 13.2383 11.8458 13.3067C11.9426 13.3757 12.031 13.4699 12.1055 13.5753C12.253 13.784 12.3613 14.059 12.3613 14.3196C12.3613 14.927 12.157 15.3976 11.7047 15.5672L11.7047 15.5672L11.702 15.5682C11.6227 15.5961 11.5475 15.6409 11.4914 15.689C11.4636 15.7129 11.4427 15.7356 11.4288 15.755C11.4219 15.7645 11.4174 15.7724 11.4145 15.7784C11.4118 15.7841 11.4111 15.7869 11.4111 15.7871C11.4111 15.7871 11.4111 15.7871 11.4111 15.7871L11.4096 15.7943L11.4075 15.8014C11.3481 15.9966 11.1837 16.1046 11.0129 16.1046C10.8421 16.1046 10.6777 15.9966 10.6183 15.8014L10.6161 15.7943L10.6147 15.7871C10.6147 15.7872 10.6141 15.7844 10.6113 15.7784C10.6084 15.7724 10.6039 15.7645 10.597 15.755C10.5831 15.7356 10.5622 15.7129 10.5343 15.689C10.4783 15.6409 10.4031 15.5961 10.3238 15.5682L10.3238 15.5682L10.3205 15.567C10.1116 15.4877 9.93421 15.2997 9.82365 15.1038C9.71553 14.9123 9.64567 14.6664 9.71897 14.4628ZM10.5635 12.553C10.5617 12.5397 10.5599 12.5277 10.558 12.5169C10.5526 12.5293 10.5459 12.5498 10.5407 12.5817C10.5316 12.6378 10.531 12.7095 10.5398 12.7858C10.547 12.8473 10.5598 12.9078 10.5767 12.9612C10.5773 12.9239 10.5775 12.8823 10.5775 12.8358C10.5775 12.7164 10.5726 12.623 10.5635 12.553ZM10.6919 13.1385C10.6919 13.1385 10.6917 13.1384 10.6914 13.1382L10.6919 13.1385ZM11.4687 14.3476L11.4685 14.3454C11.4652 14.3115 11.4613 14.2805 11.4569 14.2524C11.4515 14.3009 11.4482 14.3575 11.4482 14.4223C11.4482 14.4854 11.4486 14.5398 11.4496 14.5866C11.4691 14.523 11.4791 14.4411 11.4687 14.3476ZM11.5098 14.0536C11.5098 14.0536 11.5096 14.0538 11.5091 14.0544L11.5098 14.0536Z" fill="black" stroke="black" stroke-width="0.3"/>
<path d="M10.3279 5.43605L10.3279 5.43607L10.3258 5.43496C9.82893 5.16741 9.55068 4.69241 9.55068 4.08163C9.55068 3.88504 9.56822 3.72611 9.63806 3.57072C9.7067 3.41799 9.81983 3.28239 9.98268 3.11954C10.1498 2.95239 10.2843 2.83689 10.4459 2.76912C10.608 2.70115 10.7822 2.68754 11.0133 2.68754C11.2444 2.68754 11.4185 2.70115 11.5806 2.76912C11.7422 2.83689 11.8767 2.95239 12.0438 3.11954C12.1962 3.2719 12.307 3.40569 12.3779 3.55069C12.4505 3.69935 12.4758 3.84893 12.4758 4.02456C12.4758 4.61971 12.202 5.10753 11.7908 5.37949C11.3786 5.65212 10.8383 5.70073 10.3279 5.43605ZM11.4509 3.71514L11.4509 3.71518L11.4478 3.71232C11.3294 3.60271 11.1495 3.54831 10.9715 3.558C10.7913 3.5678 10.6468 3.64047 10.5788 3.74253L10.5788 3.74256L10.5765 3.74582C10.3494 4.06755 10.4353 4.40108 10.639 4.59112C10.7418 4.687 10.8719 4.74331 11.0051 4.74522C11.1357 4.74709 11.2816 4.69687 11.4208 4.55766C11.5318 4.4467 11.5944 4.28039 11.598 4.11265C11.6017 3.94363 11.5454 3.79782 11.4509 3.71514Z" fill="black" stroke="black" stroke-width="0.3"/>
</svg>
