<svg width="22" height="22" viewBox="0 0 22 22" fill="none" xmlns="http://www.w3.org/2000/svg">
<mask id="path-1-outside-1_272_213" maskUnits="userSpaceOnUse" x="0" y="-0.0112305" width="22" height="22" fill="black">
<rect fill="white" y="-0.0112305" width="22" height="22"/>
<path d="M8.61619 2.14159C7.06393 2.99761 6.55031 3.32861 6.52749 3.51123C6.459 3.93353 6.83566 3.79657 8.86729 2.66662C9.95158 2.07311 10.9217 1.58232 11.0359 1.58232C11.15 1.58232 11.4696 1.71928 11.7549 1.87908C12.0403 2.03887 13.8094 3.02044 15.6927 4.05908C17.5759 5.10914 19.2195 6.02223 19.345 6.11354C19.5276 6.23909 18.2379 6.26192 11.0701 6.26192C4.99806 6.26192 2.6126 6.22768 2.70391 6.13637C2.77239 6.06789 3.48004 5.64558 4.29041 5.20045C5.69429 4.41291 6.07094 4.0705 5.67146 3.91071C5.58015 3.87647 4.50727 4.41291 3.29742 5.08631L1.08317 6.31899L1.04893 6.93532C1.02611 7.27773 1.07176 7.70004 1.15166 7.88266C1.28862 8.22507 1.76799 8.54465 2.13323 8.54465C2.24737 8.54465 2.54412 8.8414 2.82946 9.22947L3.30884 9.91429V13.6009V17.2761L2.84088 17.9381C2.4414 18.5088 2.32726 18.5887 2.00768 18.5887C1.79082 18.5887 1.49406 18.6914 1.32286 18.8284C1.06035 19.0338 1.02611 19.1365 1.02611 19.7985C1.02611 21.1111 -0.0125376 20.9855 11.0131 20.9855C20.3951 20.9855 20.5435 20.9855 20.7717 20.7573C20.9543 20.5746 21 20.3806 21 19.8213C21 19.4219 20.9543 19.0452 20.9087 18.9653C20.7946 18.7941 20.2581 18.5887 19.9157 18.5887C19.7217 18.5887 19.5276 18.4175 19.1852 17.9381L18.7173 17.2761V13.6009V9.91429L19.2081 9.22947C19.482 8.8414 19.7787 8.54465 19.8929 8.54465C20.2581 8.54465 20.7375 8.22507 20.8745 7.88266C20.9543 7.70004 21 7.27773 20.9772 6.93532L20.9429 6.31899L17.4047 4.34442C12.1772 1.43394 11.3669 1.01164 11.0016 1.01164C10.7962 1.01164 9.87169 1.45677 8.61619 2.14159ZM20.4293 7.19784C20.4293 7.39187 20.3494 7.65438 20.2353 7.76852C20.0641 7.96255 19.6304 7.97397 11.0359 7.97397C1.00328 7.97397 1.59679 8.01962 1.59679 7.20925V6.8326H11.0131H20.4293V7.19784ZM6.26497 9.05826L5.89974 9.57188H4.83827H3.78821L3.51428 9.19523C3.3659 9.0012 3.1947 8.76151 3.14904 8.68161C3.08056 8.57889 3.45721 8.54465 4.84968 8.54465H6.63021L6.26497 9.05826ZM15.2247 9.30936L15.7497 10.0855V11.9231C15.7497 13.384 15.784 13.7835 15.9095 13.8292C16.2519 13.9661 16.3204 13.6466 16.3204 11.9459V10.2567H17.1764H18.0325V13.6237V16.9908H17.1764H16.3204V15.9293C16.3204 14.8678 16.2177 14.5482 15.9095 14.6738C15.784 14.7194 15.7497 15.0162 15.7497 15.9521V17.1734L15.2361 17.881L14.7225 18.5887H11.0131H7.30361L6.79 17.881L6.27639 17.1734V13.6237V10.0855L6.80141 9.30936L7.32644 8.54465H11.0131H14.6997L15.2247 9.30936ZM18.8771 8.68161C18.8314 8.76151 18.6602 9.0012 18.5118 9.19523L18.2379 9.57188H17.1878H16.1264L15.7611 9.05826L15.3959 8.54465H17.1764C18.5689 8.54465 18.9455 8.57889 18.8771 8.68161ZM5.7057 13.6237V16.9908H4.84968H3.99366V13.6237V10.2567H4.84968H5.7057V13.6237ZM6.16225 17.9952C6.32204 18.2234 6.47042 18.4517 6.48183 18.4974C6.50466 18.5544 5.75136 18.5887 4.80402 18.5887H3.08056L3.4458 18.0751L3.81104 17.5614H4.83827H5.87691L6.16225 17.9952ZM18.5803 18.0751L18.9455 18.5887H17.2221C16.2747 18.5887 15.5214 18.5544 15.5443 18.4974C15.5671 18.4517 15.7041 18.2234 15.8639 17.9952L16.1492 17.5614H17.1878H18.2151L18.5803 18.0751ZM20.4293 19.8442V20.4148H11.0131H1.59679V19.8442V19.2735H11.0131H20.4293V19.8442Z"/>
</mask>
<path d="M8.61619 2.14159C7.06393 2.99761 6.55031 3.32861 6.52749 3.51123C6.459 3.93353 6.83566 3.79657 8.86729 2.66662C9.95158 2.07311 10.9217 1.58232 11.0359 1.58232C11.15 1.58232 11.4696 1.71928 11.7549 1.87908C12.0403 2.03887 13.8094 3.02044 15.6927 4.05908C17.5759 5.10914 19.2195 6.02223 19.345 6.11354C19.5276 6.23909 18.2379 6.26192 11.0701 6.26192C4.99806 6.26192 2.6126 6.22768 2.70391 6.13637C2.77239 6.06789 3.48004 5.64558 4.29041 5.20045C5.69429 4.41291 6.07094 4.0705 5.67146 3.91071C5.58015 3.87647 4.50727 4.41291 3.29742 5.08631L1.08317 6.31899L1.04893 6.93532C1.02611 7.27773 1.07176 7.70004 1.15166 7.88266C1.28862 8.22507 1.76799 8.54465 2.13323 8.54465C2.24737 8.54465 2.54412 8.8414 2.82946 9.22947L3.30884 9.91429V13.6009V17.2761L2.84088 17.9381C2.4414 18.5088 2.32726 18.5887 2.00768 18.5887C1.79082 18.5887 1.49406 18.6914 1.32286 18.8284C1.06035 19.0338 1.02611 19.1365 1.02611 19.7985C1.02611 21.1111 -0.0125376 20.9855 11.0131 20.9855C20.3951 20.9855 20.5435 20.9855 20.7717 20.7573C20.9543 20.5746 21 20.3806 21 19.8213C21 19.4219 20.9543 19.0452 20.9087 18.9653C20.7946 18.7941 20.2581 18.5887 19.9157 18.5887C19.7217 18.5887 19.5276 18.4175 19.1852 17.9381L18.7173 17.2761V13.6009V9.91429L19.2081 9.22947C19.482 8.8414 19.7787 8.54465 19.8929 8.54465C20.2581 8.54465 20.7375 8.22507 20.8745 7.88266C20.9543 7.70004 21 7.27773 20.9772 6.93532L20.9429 6.31899L17.4047 4.34442C12.1772 1.43394 11.3669 1.01164 11.0016 1.01164C10.7962 1.01164 9.87169 1.45677 8.61619 2.14159ZM20.4293 7.19784C20.4293 7.39187 20.3494 7.65438 20.2353 7.76852C20.0641 7.96255 19.6304 7.97397 11.0359 7.97397C1.00328 7.97397 1.59679 8.01962 1.59679 7.20925V6.8326H11.0131H20.4293V7.19784ZM6.26497 9.05826L5.89974 9.57188H4.83827H3.78821L3.51428 9.19523C3.3659 9.0012 3.1947 8.76151 3.14904 8.68161C3.08056 8.57889 3.45721 8.54465 4.84968 8.54465H6.63021L6.26497 9.05826ZM15.2247 9.30936L15.7497 10.0855V11.9231C15.7497 13.384 15.784 13.7835 15.9095 13.8292C16.2519 13.9661 16.3204 13.6466 16.3204 11.9459V10.2567H17.1764H18.0325V13.6237V16.9908H17.1764H16.3204V15.9293C16.3204 14.8678 16.2177 14.5482 15.9095 14.6738C15.784 14.7194 15.7497 15.0162 15.7497 15.9521V17.1734L15.2361 17.881L14.7225 18.5887H11.0131H7.30361L6.79 17.881L6.27639 17.1734V13.6237V10.0855L6.80141 9.30936L7.32644 8.54465H11.0131H14.6997L15.2247 9.30936ZM18.8771 8.68161C18.8314 8.76151 18.6602 9.0012 18.5118 9.19523L18.2379 9.57188H17.1878H16.1264L15.7611 9.05826L15.3959 8.54465H17.1764C18.5689 8.54465 18.9455 8.57889 18.8771 8.68161ZM5.7057 13.6237V16.9908H4.84968H3.99366V13.6237V10.2567H4.84968H5.7057V13.6237ZM6.16225 17.9952C6.32204 18.2234 6.47042 18.4517 6.48183 18.4974C6.50466 18.5544 5.75136 18.5887 4.80402 18.5887H3.08056L3.4458 18.0751L3.81104 17.5614H4.83827H5.87691L6.16225 17.9952ZM18.5803 18.0751L18.9455 18.5887H17.2221C16.2747 18.5887 15.5214 18.5544 15.5443 18.4974C15.5671 18.4517 15.7041 18.2234 15.8639 17.9952L16.1492 17.5614H17.1878H18.2151L18.5803 18.0751ZM20.4293 19.8442V20.4148H11.0131H1.59679V19.8442V19.2735H11.0131H20.4293V19.8442Z" fill="black"/>
<path d="M8.61619 2.14159C7.06393 2.99761 6.55031 3.32861 6.52749 3.51123C6.459 3.93353 6.83566 3.79657 8.86729 2.66662C9.95158 2.07311 10.9217 1.58232 11.0359 1.58232C11.15 1.58232 11.4696 1.71928 11.7549 1.87908C12.0403 2.03887 13.8094 3.02044 15.6927 4.05908C17.5759 5.10914 19.2195 6.02223 19.345 6.11354C19.5276 6.23909 18.2379 6.26192 11.0701 6.26192C4.99806 6.26192 2.6126 6.22768 2.70391 6.13637C2.77239 6.06789 3.48004 5.64558 4.29041 5.20045C5.69429 4.41291 6.07094 4.0705 5.67146 3.91071C5.58015 3.87647 4.50727 4.41291 3.29742 5.08631L1.08317 6.31899L1.04893 6.93532C1.02611 7.27773 1.07176 7.70004 1.15166 7.88266C1.28862 8.22507 1.76799 8.54465 2.13323 8.54465C2.24737 8.54465 2.54412 8.8414 2.82946 9.22947L3.30884 9.91429V13.6009V17.2761L2.84088 17.9381C2.4414 18.5088 2.32726 18.5887 2.00768 18.5887C1.79082 18.5887 1.49406 18.6914 1.32286 18.8284C1.06035 19.0338 1.02611 19.1365 1.02611 19.7985C1.02611 21.1111 -0.0125376 20.9855 11.0131 20.9855C20.3951 20.9855 20.5435 20.9855 20.7717 20.7573C20.9543 20.5746 21 20.3806 21 19.8213C21 19.4219 20.9543 19.0452 20.9087 18.9653C20.7946 18.7941 20.2581 18.5887 19.9157 18.5887C19.7217 18.5887 19.5276 18.4175 19.1852 17.9381L18.7173 17.2761V13.6009V9.91429L19.2081 9.22947C19.482 8.8414 19.7787 8.54465 19.8929 8.54465C20.2581 8.54465 20.7375 8.22507 20.8745 7.88266C20.9543 7.70004 21 7.27773 20.9772 6.93532L20.9429 6.31899L17.4047 4.34442C12.1772 1.43394 11.3669 1.01164 11.0016 1.01164C10.7962 1.01164 9.87169 1.45677 8.61619 2.14159ZM20.4293 7.19784C20.4293 7.39187 20.3494 7.65438 20.2353 7.76852C20.0641 7.96255 19.6304 7.97397 11.0359 7.97397C1.00328 7.97397 1.59679 8.01962 1.59679 7.20925V6.8326H11.0131H20.4293V7.19784ZM6.26497 9.05826L5.89974 9.57188H4.83827H3.78821L3.51428 9.19523C3.3659 9.0012 3.1947 8.76151 3.14904 8.68161C3.08056 8.57889 3.45721 8.54465 4.84968 8.54465H6.63021L6.26497 9.05826ZM15.2247 9.30936L15.7497 10.0855V11.9231C15.7497 13.384 15.784 13.7835 15.9095 13.8292C16.2519 13.9661 16.3204 13.6466 16.3204 11.9459V10.2567H17.1764H18.0325V13.6237V16.9908H17.1764H16.3204V15.9293C16.3204 14.8678 16.2177 14.5482 15.9095 14.6738C15.784 14.7194 15.7497 15.0162 15.7497 15.9521V17.1734L15.2361 17.881L14.7225 18.5887H11.0131H7.30361L6.79 17.881L6.27639 17.1734V13.6237V10.0855L6.80141 9.30936L7.32644 8.54465H11.0131H14.6997L15.2247 9.30936ZM18.8771 8.68161C18.8314 8.76151 18.6602 9.0012 18.5118 9.19523L18.2379 9.57188H17.1878H16.1264L15.7611 9.05826L15.3959 8.54465H17.1764C18.5689 8.54465 18.9455 8.57889 18.8771 8.68161ZM5.7057 13.6237V16.9908H4.84968H3.99366V13.6237V10.2567H4.84968H5.7057V13.6237ZM6.16225 17.9952C6.32204 18.2234 6.47042 18.4517 6.48183 18.4974C6.50466 18.5544 5.75136 18.5887 4.80402 18.5887H3.08056L3.4458 18.0751L3.81104 17.5614H4.83827H5.87691L6.16225 17.9952ZM18.5803 18.0751L18.9455 18.5887H17.2221C16.2747 18.5887 15.5214 18.5544 15.5443 18.4974C15.5671 18.4517 15.7041 18.2234 15.8639 17.9952L16.1492 17.5614H17.1878H18.2151L18.5803 18.0751ZM20.4293 19.8442V20.4148H11.0131H1.59679V19.8442V19.2735H11.0131H20.4293V19.8442Z" stroke="black" stroke-width="0.6" mask="url(#path-1-outside-1_272_213)"/>
<mask id="path-2-outside-2_272_213" maskUnits="userSpaceOnUse" x="6.68896" y="9.92236" width="8" height="8" fill="black">
<rect fill="white" x="6.68896" y="9.92236" width="8" height="8"/>
<path d="M9.91755 10.4394C9.18708 10.6563 8.31964 11.4666 7.97723 12.2199C7.36089 13.601 7.76037 15.2788 8.91315 16.1919C9.6208 16.7512 10.1458 16.9224 11.0703 16.9224C11.9948 16.9109 12.6911 16.6256 13.3531 15.9636C14.0379 15.2788 14.3118 14.6054 14.3118 13.6238C14.3118 11.2954 12.166 9.74318 9.91755 10.4394ZM12.3829 11.227C14.7798 12.6308 13.8324 16.306 11.0589 16.3403C8.8675 16.3517 7.54351 13.9891 8.69629 12.1058C9.42676 10.9074 11.1388 10.4965 12.3829 11.227Z"/>
</mask>
<path d="M9.91755 10.4394C9.18708 10.6563 8.31964 11.4666 7.97723 12.2199C7.36089 13.601 7.76037 15.2788 8.91315 16.1919C9.6208 16.7512 10.1458 16.9224 11.0703 16.9224C11.9948 16.9109 12.6911 16.6256 13.3531 15.9636C14.0379 15.2788 14.3118 14.6054 14.3118 13.6238C14.3118 11.2954 12.166 9.74318 9.91755 10.4394ZM12.3829 11.227C14.7798 12.6308 13.8324 16.306 11.0589 16.3403C8.8675 16.3517 7.54351 13.9891 8.69629 12.1058C9.42676 10.9074 11.1388 10.4965 12.3829 11.227Z" fill="black"/>
<path d="M9.91755 10.4394C9.18708 10.6563 8.31964 11.4666 7.97723 12.2199C7.36089 13.601 7.76037 15.2788 8.91315 16.1919C9.6208 16.7512 10.1458 16.9224 11.0703 16.9224C11.9948 16.9109 12.6911 16.6256 13.3531 15.9636C14.0379 15.2788 14.3118 14.6054 14.3118 13.6238C14.3118 11.2954 12.166 9.74318 9.91755 10.4394ZM12.3829 11.227C14.7798 12.6308 13.8324 16.306 11.0589 16.3403C8.8675 16.3517 7.54351 13.9891 8.69629 12.1058C9.42676 10.9074 11.1388 10.4965 12.3829 11.227Z" stroke="black" stroke-width="0.6" mask="url(#path-2-outside-2_272_213)"/>
<mask id="path-3-outside-3_272_213" maskUnits="userSpaceOnUse" x="8.81445" y="10.9551" width="4" height="6" fill="black">
<rect fill="white" x="8.81445" y="10.9551" width="4" height="6"/>
<path d="M10.7618 11.5123C10.7275 11.6379 10.6134 11.7406 10.4993 11.7406C10.1911 11.7406 9.81445 12.2884 9.81445 12.7222C9.81445 13.3043 10.0085 13.6923 10.3851 13.8293C10.6933 13.9434 10.7275 14.0119 10.7275 14.457C10.7275 14.8908 10.7047 14.9478 10.5563 14.8223C10.465 14.7424 10.3851 14.6054 10.3851 14.5255C10.3851 14.3201 9.94 14.3201 9.86011 14.5141C9.75738 14.7994 10.0427 15.3016 10.3737 15.4272C10.5678 15.4957 10.739 15.6441 10.7618 15.7582C10.8417 16.0207 11.1841 16.0207 11.264 15.7582C11.2868 15.6441 11.458 15.4957 11.6521 15.4272C12.0173 15.2902 12.2113 14.9022 12.2113 14.3201C12.2113 13.8749 11.8347 13.3385 11.5151 13.3385C11.3325 13.3385 11.2982 13.2586 11.2982 12.8249C11.2982 12.2542 11.4694 12.1515 11.6406 12.608C11.7776 12.9504 12.1314 12.939 12.1885 12.5852C12.2341 12.2884 11.8004 11.7406 11.5265 11.7406C11.4124 11.7406 11.2982 11.6379 11.264 11.5123C11.2297 11.3868 11.1156 11.284 11.0129 11.284C10.9102 11.284 10.796 11.3868 10.7618 11.5123ZM10.7275 12.8363C10.7275 13.2928 10.7047 13.3499 10.5563 13.2244C10.3851 13.076 10.3167 12.5281 10.465 12.3912C10.6476 12.2085 10.7275 12.3455 10.7275 12.8363ZM11.6178 14.3315C11.6406 14.5369 11.5836 14.731 11.4808 14.8223C11.3211 14.9478 11.2982 14.9022 11.2982 14.4228C11.2982 13.8179 11.5607 13.738 11.6178 14.3315Z"/>
</mask>
<path d="M10.7618 11.5123C10.7275 11.6379 10.6134 11.7406 10.4993 11.7406C10.1911 11.7406 9.81445 12.2884 9.81445 12.7222C9.81445 13.3043 10.0085 13.6923 10.3851 13.8293C10.6933 13.9434 10.7275 14.0119 10.7275 14.457C10.7275 14.8908 10.7047 14.9478 10.5563 14.8223C10.465 14.7424 10.3851 14.6054 10.3851 14.5255C10.3851 14.3201 9.94 14.3201 9.86011 14.5141C9.75738 14.7994 10.0427 15.3016 10.3737 15.4272C10.5678 15.4957 10.739 15.6441 10.7618 15.7582C10.8417 16.0207 11.1841 16.0207 11.264 15.7582C11.2868 15.6441 11.458 15.4957 11.6521 15.4272C12.0173 15.2902 12.2113 14.9022 12.2113 14.3201C12.2113 13.8749 11.8347 13.3385 11.5151 13.3385C11.3325 13.3385 11.2982 13.2586 11.2982 12.8249C11.2982 12.2542 11.4694 12.1515 11.6406 12.608C11.7776 12.9504 12.1314 12.939 12.1885 12.5852C12.2341 12.2884 11.8004 11.7406 11.5265 11.7406C11.4124 11.7406 11.2982 11.6379 11.264 11.5123C11.2297 11.3868 11.1156 11.284 11.0129 11.284C10.9102 11.284 10.796 11.3868 10.7618 11.5123ZM10.7275 12.8363C10.7275 13.2928 10.7047 13.3499 10.5563 13.2244C10.3851 13.076 10.3167 12.5281 10.465 12.3912C10.6476 12.2085 10.7275 12.3455 10.7275 12.8363ZM11.6178 14.3315C11.6406 14.5369 11.5836 14.731 11.4808 14.8223C11.3211 14.9478 11.2982 14.9022 11.2982 14.4228C11.2982 13.8179 11.5607 13.738 11.6178 14.3315Z" fill="black"/>
<path d="M10.7618 11.5123C10.7275 11.6379 10.6134 11.7406 10.4993 11.7406C10.1911 11.7406 9.81445 12.2884 9.81445 12.7222C9.81445 13.3043 10.0085 13.6923 10.3851 13.8293C10.6933 13.9434 10.7275 14.0119 10.7275 14.457C10.7275 14.8908 10.7047 14.9478 10.5563 14.8223C10.465 14.7424 10.3851 14.6054 10.3851 14.5255C10.3851 14.3201 9.94 14.3201 9.86011 14.5141C9.75738 14.7994 10.0427 15.3016 10.3737 15.4272C10.5678 15.4957 10.739 15.6441 10.7618 15.7582C10.8417 16.0207 11.1841 16.0207 11.264 15.7582C11.2868 15.6441 11.458 15.4957 11.6521 15.4272C12.0173 15.2902 12.2113 14.9022 12.2113 14.3201C12.2113 13.8749 11.8347 13.3385 11.5151 13.3385C11.3325 13.3385 11.2982 13.2586 11.2982 12.8249C11.2982 12.2542 11.4694 12.1515 11.6406 12.608C11.7776 12.9504 12.1314 12.939 12.1885 12.5852C12.2341 12.2884 11.8004 11.7406 11.5265 11.7406C11.4124 11.7406 11.2982 11.6379 11.264 11.5123C11.2297 11.3868 11.1156 11.284 11.0129 11.284C10.9102 11.284 10.796 11.3868 10.7618 11.5123ZM10.7275 12.8363C10.7275 13.2928 10.7047 13.3499 10.5563 13.2244C10.3851 13.076 10.3167 12.5281 10.465 12.3912C10.6476 12.2085 10.7275 12.3455 10.7275 12.8363ZM11.6178 14.3315C11.6406 14.5369 11.5836 14.731 11.4808 14.8223C11.3211 14.9478 11.2982 14.9022 11.2982 14.4228C11.2982 13.8179 11.5607 13.738 11.6178 14.3315Z" stroke="black" stroke-width="0.6" mask="url(#path-3-outside-3_272_213)"/>
<mask id="path-4-outside-4_272_213" maskUnits="userSpaceOnUse" x="8.70068" y="2.46143" width="4" height="4" fill="black">
<rect fill="white" x="8.70068" y="2.46143" width="4" height="4"/>
<path d="M10.0887 3.22585C9.76917 3.54543 9.70068 3.70522 9.70068 4.08187C9.70068 4.64114 9.95178 5.06344 10.3969 5.30313C11.3214 5.7825 12.3258 5.12051 12.3258 4.0248C12.3258 3.70522 12.2345 3.5226 11.9378 3.22585C11.6068 2.89485 11.4698 2.83778 11.0133 2.83778C10.5567 2.83778 10.4197 2.89485 10.0887 3.22585ZM11.5497 3.6025C11.8236 3.84218 11.8122 4.37863 11.5269 4.66397C10.8649 5.32596 9.90613 4.43569 10.454 3.65956C10.6594 3.3514 11.2415 3.31716 11.5497 3.6025Z"/>
</mask>
<path d="M10.0887 3.22585C9.76917 3.54543 9.70068 3.70522 9.70068 4.08187C9.70068 4.64114 9.95178 5.06344 10.3969 5.30313C11.3214 5.7825 12.3258 5.12051 12.3258 4.0248C12.3258 3.70522 12.2345 3.5226 11.9378 3.22585C11.6068 2.89485 11.4698 2.83778 11.0133 2.83778C10.5567 2.83778 10.4197 2.89485 10.0887 3.22585ZM11.5497 3.6025C11.8236 3.84218 11.8122 4.37863 11.5269 4.66397C10.8649 5.32596 9.90613 4.43569 10.454 3.65956C10.6594 3.3514 11.2415 3.31716 11.5497 3.6025Z" fill="black"/>
<path d="M10.0887 3.22585C9.76917 3.54543 9.70068 3.70522 9.70068 4.08187C9.70068 4.64114 9.95178 5.06344 10.3969 5.30313C11.3214 5.7825 12.3258 5.12051 12.3258 4.0248C12.3258 3.70522 12.2345 3.5226 11.9378 3.22585C11.6068 2.89485 11.4698 2.83778 11.0133 2.83778C10.5567 2.83778 10.4197 2.89485 10.0887 3.22585ZM11.5497 3.6025C11.8236 3.84218 11.8122 4.37863 11.5269 4.66397C10.8649 5.32596 9.90613 4.43569 10.454 3.65956C10.6594 3.3514 11.2415 3.31716 11.5497 3.6025Z" stroke="black" stroke-width="0.6" mask="url(#path-4-outside-4_272_213)"/>
</svg>
