<svg width="25" height="25" viewBox="0 0 25 25" fill="none" xmlns="http://www.w3.org/2000/svg">
<path d="M20.2637 1.02051C19.8437 1.15234 19.4531 1.47949 19.248 1.87988C19.0918 2.19238 19.0527 2.7002 19.1602 3.05176L19.2334 3.2959L19.1016 3.44238C18.54 4.04785 16.4941 6.19629 16.1963 6.48438L15.835 6.8457L15.6445 6.79199C15.1416 6.65039 14.5752 6.79199 14.1699 7.1582C14.0332 7.27539 13.9111 7.37305 13.8867 7.37305C13.8672 7.37305 13.2959 7.2168 12.6123 7.02637C11.7969 6.79199 11.377 6.65527 11.377 6.61133C11.377 6.46973 11.2109 6.06934 11.0693 5.87402C10.752 5.42969 10.1025 5.13672 9.59473 5.2002C8.63769 5.31738 7.96875 6.28418 8.19824 7.20703C8.25684 7.43164 8.25195 7.44141 8.12012 7.56348C7.76367 7.88574 6.87012 8.70605 6.02051 9.4873C5.50781 9.96094 5.05859 10.3516 5.01953 10.3516C4.98535 10.3516 4.8584 10.3174 4.73633 10.2734C4.58008 10.2197 4.41895 10.2002 4.19434 10.2197C3.61328 10.2686 3.16406 10.5664 2.87598 11.0938C2.72461 11.377 2.70996 11.4355 2.70996 11.8164C2.70996 12.1387 2.73437 12.2852 2.81738 12.4609C2.96387 12.7832 3.28613 13.1104 3.6084 13.2666C3.84277 13.3838 3.94043 13.4033 4.29687 13.4033C4.6582 13.4033 4.74609 13.3838 4.99512 13.2568C5.35645 13.0762 5.67383 12.7246 5.81055 12.3633C5.91309 12.0947 5.92285 11.8994 5.84961 11.2939C5.83496 11.1865 6.14746 10.8838 8.2373 8.97461L9.02344 8.25684L9.25293 8.33008C9.54101 8.43262 10.2051 8.40332 10.4346 8.28613C10.5225 8.2373 10.7129 8.10547 10.8594 7.9834L11.123 7.76855L12.3584 8.12012L13.5889 8.47168L13.6963 8.79883C14.0137 9.79004 15.0195 10.2246 15.9473 9.76562C16.6357 9.42871 16.9775 8.68164 16.7822 7.94434L16.709 7.66113L16.9043 7.43164C17.0117 7.30469 17.7686 6.49414 18.5889 5.62988C20.0244 4.11133 20.0781 4.05762 20.2051 4.10645C20.3662 4.16992 20.9717 4.16992 21.1816 4.10645C21.6064 3.97949 21.9971 3.6377 22.1826 3.22754C22.3291 2.89062 22.3291 2.26074 22.1728 1.91895C22.0215 1.57715 21.6309 1.21582 21.2744 1.08398C20.9863 0.976562 20.5127 0.947266 20.2637 1.02051ZM21.0547 2.24609C21.1865 2.37793 21.2012 2.42188 21.1768 2.59277C21.1377 2.88574 20.9814 3.02734 20.6982 3.02734C20.5029 3.02734 20.4492 3.00781 20.3418 2.87598C20.0684 2.54883 20.2783 2.09961 20.7031 2.09961C20.8643 2.09961 20.9375 2.12891 21.0547 2.24609ZM10.127 6.50879C10.2979 6.7334 10.293 6.94824 10.1123 7.13379C9.90723 7.33887 9.61426 7.33398 9.41894 7.12402C9.2334 6.92871 9.22852 6.7041 9.4043 6.49902C9.51172 6.36719 9.56055 6.34766 9.76562 6.34766C9.98047 6.34766 10.0195 6.36719 10.127 6.50879ZM15.5518 7.97852C15.9326 8.35938 15.5957 8.94531 15.083 8.79395C14.6826 8.67188 14.6191 8.13477 14.9805 7.93945C15.1855 7.82715 15.415 7.8418 15.5518 7.97852ZM4.64844 11.4746C4.83398 11.7041 4.81934 11.9824 4.61426 12.1875C4.41406 12.3877 4.01367 12.3145 3.87695 12.0557C3.76953 11.8457 3.79395 11.6895 3.96484 11.4941C4.11133 11.3281 4.13574 11.3184 4.34082 11.3428C4.4873 11.3574 4.58984 11.4014 4.64844 11.4746Z" fill="black"/>
<path d="M19.8973 8.49609C19.3357 8.5791 18.8475 8.94043 18.574 9.47754L18.4471 9.73633L18.4227 15.6006C18.3982 21.8164 18.4178 22.8125 18.5887 23.1982C18.7107 23.4668 19.1111 23.8477 19.448 23.999C19.6922 24.1162 19.7459 24.1211 20.7029 24.1211C21.6551 24.1211 21.7137 24.1162 21.9529 24.0039C22.2898 23.8477 22.5779 23.5791 22.7781 23.2324L22.949 22.9443V16.2988V9.6582L22.7781 9.375C22.5877 9.0625 22.3826 8.8623 22.0457 8.66699C21.865 8.55957 21.7283 8.52539 21.323 8.49121C20.7371 8.44238 20.2391 8.44727 19.8973 8.49609ZM21.5037 9.93652L21.6307 10.0537L21.6209 16.3379L21.6062 22.6172L21.4891 22.7148C21.3768 22.8027 21.3035 22.8076 20.6687 22.793C20.0779 22.7783 19.9607 22.7637 19.8875 22.6904C19.8045 22.6074 19.7996 22.2998 19.7947 16.8066C19.7898 13.6182 19.8045 10.7715 19.8191 10.4736C19.8582 9.80469 19.8387 9.81445 20.7322 9.81445C21.3475 9.81445 21.3768 9.81934 21.5037 9.93652Z" fill="black"/>
<path d="M8.84278 12.7002C8.39844 12.7734 7.80762 13.2422 7.63672 13.6523C7.50489 13.9746 7.47559 14.7998 7.47559 18.335C7.47071 22.1533 7.5 22.876 7.66602 23.2178C7.79785 23.4912 8.1836 23.8525 8.51074 23.999C8.75489 24.1162 8.8086 24.1211 9.76563 24.1211C10.7227 24.1211 10.7764 24.1162 11.0205 23.999C11.3477 23.8525 11.7334 23.4912 11.8652 23.2178C12.0313 22.8809 12.0605 22.1533 12.0605 18.3838C12.0605 14.8193 12.0313 13.9844 11.8897 13.6328C11.7969 13.4033 11.3428 12.9541 11.0645 12.8223C10.9668 12.7783 10.7617 12.7197 10.6055 12.6953C10.2637 12.6367 9.2041 12.6416 8.84278 12.7002ZM10.5518 14.1064L10.6689 14.1992V18.4082V22.6172L10.5518 22.7148C10.4395 22.8027 10.3662 22.8076 9.73145 22.793C9.14063 22.7783 9.02344 22.7637 8.9502 22.6904C8.86719 22.6074 8.86231 22.3633 8.84766 18.5303C8.84278 16.2891 8.85254 14.3848 8.87696 14.2969C8.94043 14.0527 9.06739 14.0137 9.79492 14.0137C10.3564 14.0137 10.4541 14.0234 10.5518 14.1064Z" fill="black"/>
<path d="M14.0576 14.4678C13.584 14.668 13.3301 14.9023 13.0811 15.3809L12.9687 15.6006L12.9639 19.165C12.9639 22.4316 12.9687 22.7539 13.0518 23.0078C13.1641 23.374 13.5254 23.7695 13.9258 23.9697L14.2236 24.1211H15.2344H16.2451L16.5381 23.9746C17.0898 23.7012 17.4121 23.2324 17.4854 22.6123C17.5049 22.4072 17.5195 20.7324 17.5098 18.8916L17.4902 15.542L17.3584 15.3271C17.1582 15.0098 16.8018 14.6582 16.5283 14.5117C16.2891 14.3848 16.2549 14.3799 15.3076 14.3652C14.375 14.3555 14.3164 14.3604 14.0576 14.4678ZM15.8398 15.708C16.1768 15.7617 16.167 15.6494 16.1523 19.3408L16.1377 22.6172L16.0205 22.7148C15.9082 22.8027 15.835 22.8076 15.2002 22.793C14.6094 22.7783 14.4922 22.7637 14.4189 22.6904C14.3359 22.6074 14.3311 22.4023 14.3311 19.2432C14.3311 15.6592 14.3262 15.7568 14.5654 15.708C14.7412 15.6738 15.6348 15.6738 15.8398 15.708Z" fill="black"/>
<path d="M3.27125 17.2021C2.85132 17.3193 2.40699 17.6904 2.19703 18.1006C2.01636 18.4521 1.99195 18.8477 2.01148 20.8691C2.03101 22.4756 2.05054 22.8174 2.1189 23.0322C2.22632 23.374 2.6023 23.7793 2.98804 23.9697L3.28589 24.1211H4.29664H5.30738L5.60523 23.9697C6.00562 23.7695 6.36695 23.374 6.47925 23.0078C6.55738 22.7588 6.56714 22.4951 6.56714 20.6299C6.56714 18.7158 6.55738 18.5059 6.47925 18.2715C6.35718 17.9248 5.94214 17.4805 5.57593 17.2998C5.30738 17.168 5.2732 17.1631 4.39429 17.1533C3.77906 17.1436 3.41773 17.1582 3.27125 17.2021ZM5.12183 18.6328C5.21949 18.7598 5.22437 18.8135 5.22437 20.6641V22.5635L5.09742 22.6904C4.97535 22.8125 4.97046 22.8125 4.24781 22.7979C3.84742 22.7881 3.5105 22.7637 3.49097 22.7441C3.3982 22.6514 3.3689 22.1875 3.3689 20.6543C3.3689 18.7793 3.38355 18.6133 3.53492 18.5547C3.59351 18.5303 3.94996 18.5107 4.33082 18.5107C5.01929 18.5059 5.02418 18.5059 5.12183 18.6328Z" fill="black"/>
</svg>
