<svg width="40" height="30" viewBox="0 0 40 30" fill="none" xmlns="http://www.w3.org/2000/svg">
<path d="M34.9517 0.378063C34.6699 0.456331 34.263 0.620695 34.0516 0.738096C33.8012 0.878979 30.5609 4.06449 24.3073 10.3181L14.9308 19.679L10.7669 15.5229C8.47364 13.2375 6.42302 11.2495 6.21952 11.1164C4.94375 10.2555 3.1201 10.2477 1.81303 11.093C0.451165 11.9774 -0.253248 13.6523 0.0833048 15.2333C0.349416 16.47 0.0519973 16.1256 6.53259 22.6218C10.5164 26.6135 12.5749 28.6172 12.8566 28.7894C13.7019 29.2981 14.9229 29.4703 15.9013 29.2198C17.044 28.9224 16.4257 29.5094 28.2833 17.6518C35.2961 10.639 39.3269 6.55341 39.46 6.32643C39.8669 5.60637 40 5.10545 40 4.22102C40 3.00787 39.6713 2.19388 38.8573 1.37989C37.8633 0.385891 36.3527 0.00237656 34.9517 0.378063Z" fill="#849493"/>
</svg>
