<svg width="23" height="26" viewBox="0 0 23 26" fill="none" xmlns="http://www.w3.org/2000/svg">
<path d="M12.2107 2.1348L12.2112 2.13494C13.8579 2.60976 14.8539 4.61661 14.3054 6.49305C14.0311 7.42441 13.5242 8.0853 12.7815 8.49219L12.7809 8.49253C12.3164 8.7491 12.001 8.83313 11.504 8.83313C11.007 8.83313 10.6915 8.7491 10.227 8.49253L10.2266 8.49233C9.62104 8.15942 9.16201 7.64201 8.86231 6.94809L8.86218 6.94778C8.74009 6.66643 8.66939 6.46131 8.62762 6.24144C8.58554 6.01985 8.57117 5.77461 8.57117 5.41062C8.57117 5.11231 8.57351 4.96028 8.58961 4.83148C8.6052 4.70675 8.63426 4.59955 8.6978 4.39108L8.69813 4.38997C9.04293 3.23468 9.79893 2.43067 10.7864 2.13435L12.2107 2.1348ZM12.2107 2.1348C12.0168 2.07835 11.7579 2.04787 11.4932 2.04787M12.2107 2.1348L11.4932 2.04787M11.4932 2.04787C11.2282 2.04787 10.9732 2.07839 10.7864 2.13433L11.4932 2.04787ZM7.61064 4.31029L7.61087 4.30934C7.726 3.83175 7.98381 3.1973 8.23477 2.80151C8.78401 1.92404 9.72705 1.20948 10.6564 0.984736C10.8744 0.929821 11.186 0.905106 11.4861 0.904508C11.787 0.903908 12.0997 0.927519 12.3203 0.97945C13.5568 1.26805 14.604 2.22839 15.1375 3.52566L15.1377 3.52637C15.2757 3.86549 15.3651 4.13497 15.4188 4.42729C15.4723 4.71847 15.4887 5.02423 15.4887 5.43405C15.4887 5.84661 15.4712 6.15929 15.4167 6.45499C15.362 6.75202 15.2715 7.02403 15.1331 7.35719L15.1329 7.35761C14.9022 7.90929 14.6557 8.28949 14.2473 8.73684L14.247 8.73715C13.4934 9.55907 12.5755 9.97356 11.504 9.97356C10.7846 9.97356 10.1812 9.80985 9.59733 9.44141C8.62143 8.82937 7.90453 7.77963 7.61084 6.55867L7.61084 6.55868L7.61064 6.55782C7.54191 6.26643 7.50996 5.84453 7.50996 5.43405C7.50996 5.02358 7.54191 4.60168 7.61064 4.31029Z" fill="black" stroke="black" stroke-width="0.4"/>
<path d="M11.0977 2.74752L11.0977 2.74753C11.0032 2.88429 10.9761 3.03455 10.9761 3.22673C10.9761 3.27762 10.9759 3.31179 10.9747 3.33682C10.968 3.33974 10.9603 3.34302 10.9512 3.34687C10.6128 3.48688 10.3785 3.79331 10.2666 4.13095C10.1543 4.46985 10.1564 4.86491 10.319 5.20604C10.4211 5.42039 10.5592 5.5905 10.7614 5.72859C10.7649 5.73094 10.7683 5.73329 10.7718 5.73562C10.686 5.69109 10.5907 5.6746 10.4923 5.69545C10.3967 5.71571 10.3153 5.76753 10.2471 5.82865M11.0977 2.74752L10.9761 7.38816V7.50545M11.0977 2.74752L11.0984 2.74651C11.1394 2.68788 11.192 2.627 11.2711 2.58681C11.349 2.54721 11.43 2.53935 11.5042 2.53935C11.6706 2.53935 11.8207 2.604 11.9179 2.75074C12.0046 2.88161 12.0322 3.05337 12.0322 3.2361C12.0322 3.2681 12.0325 3.29482 12.0332 3.31716C12.0593 3.32665 12.0831 3.33725 12.1032 3.34679C12.1648 3.37605 12.2308 3.415 12.2938 3.45726C12.4149 3.53856 12.5508 3.64972 12.6284 3.75422L12.6289 3.75495C12.8116 4.00342 12.9054 4.28644 12.8871 4.52714C12.8778 4.64855 12.8385 4.77218 12.7516 4.86826C12.6609 4.96859 12.535 5.02007 12.394 5.02007C12.2783 5.02007 12.1641 4.99342 12.0656 4.91255C11.9731 4.83659 11.9165 4.7303 11.8746 4.61849C11.8385 4.52234 11.8047 4.4798 11.774 4.45622C11.7433 4.43266 11.6927 4.41041 11.588 4.40061L11.5874 4.40055C11.4617 4.38841 11.3863 4.40342 11.3425 4.42426C11.3055 4.44188 11.2775 4.46963 11.2569 4.52453C11.2148 4.63796 11.2442 4.7069 11.2988 4.7496C11.2991 4.74978 11.2997 4.75006 11.3004 4.75044C11.3048 4.75274 11.3166 4.7588 11.339 4.76884C11.3694 4.78241 11.4096 4.799 11.4575 4.81773C11.5525 4.85485 11.6719 4.8981 11.7924 4.93944C12.0545 5.02273 12.2523 5.10296 12.408 5.20535C12.5705 5.31218 12.6786 5.43733 12.7714 5.59498L12.7714 5.59497L12.7731 5.59801C12.8554 5.74359 12.904 5.94245 12.924 6.13112C12.944 6.32094 12.9381 6.5292 12.8897 6.69814C12.7937 7.03297 12.5241 7.32674 12.1871 7.49261C12.1871 7.49261 12.187 7.49262 12.187 7.49263L12.0322 7.56885V7.66933C12.0322 7.83771 11.9964 7.99792 11.9101 8.1228C11.8194 8.25405 11.6806 8.33336 11.515 8.33786C11.3393 8.34493 11.1902 8.26784 11.0952 8.12386C11.0083 7.99203 10.9761 7.81933 10.9761 7.63653V7.50545M11.0977 2.74752L10.9761 7.50545M10.2471 5.82865L10.3806 5.97758L10.2473 5.82851C10.2472 5.82856 10.2472 5.82861 10.2471 5.82865ZM10.2471 5.82865C10.1205 5.94201 10.078 6.0998 10.0793 6.24746C10.0806 6.39445 10.1242 6.54967 10.1913 6.6952C10.3251 6.98514 10.5738 7.28193 10.8861 7.45511M10.8861 7.45511L10.8858 7.45493L10.9834 7.28038L10.8865 7.45531C10.8863 7.45524 10.8862 7.45518 10.8861 7.45511ZM10.8861 7.45511L10.9761 7.50545M10.8437 5.78089C10.9704 5.87535 11.0748 6.03241 11.169 6.2132L11.1691 6.21356C11.2219 6.31539 11.2804 6.3774 11.342 6.41533C11.4033 6.45309 11.4821 6.47584 11.5903 6.47584C11.7089 6.47584 11.7816 6.44598 11.8206 6.41443C11.8545 6.38691 11.8782 6.34638 11.8782 6.2775C11.8782 6.22374 11.8662 6.20309 11.838 6.17945C11.7939 6.14245 11.7046 6.0988 11.5246 6.04849C11.2507 5.97333 11.0267 5.88941 10.8437 5.78089Z" fill="black" stroke="black" stroke-width="0.4"/>
<path d="M5.80457 10.4523C5.35762 10.4383 5.07468 10.518 4.74254 10.7616C4.13567 11.2068 3.79943 12.0504 3.91424 12.8377C4.11927 14.2623 5.46013 15.0543 6.56727 14.4076L6.46632 14.2349C5.97986 14.519 5.44558 14.4882 5.00427 14.2272C4.56062 13.9649 4.20667 13.4656 4.1122 12.8092L4.11215 12.8088C4.00724 12.0894 4.31784 11.3212 4.86084 10.9229L4.86085 10.9229C5.01268 10.8115 5.1455 10.7431 5.28607 10.7025C5.4277 10.6615 5.58779 10.6456 5.79829 10.6522L5.7992 10.6523C5.97438 10.657 6.05936 10.664 6.13208 10.6825C6.20295 10.7005 6.27221 10.7319 6.41064 10.8064C6.77222 11.0026 7.0339 11.3028 7.20674 11.7193L7.20703 11.72C7.59919 12.6551 7.2517 13.7756 6.46639 14.2349L5.80457 10.4523ZM5.80457 10.4523C6.15312 10.4617 6.22693 10.4805 6.50576 10.6304L5.80457 10.4523ZM6.92404 9.80268L6.92404 9.80267L6.92559 9.80351C7.83932 10.3027 8.42387 11.3835 8.42387 12.5237C8.42387 13.3319 8.15056 14.0921 7.6568 14.6564C7.21051 15.1665 6.74043 15.4392 6.10341 15.5555C4.8099 15.795 3.50188 14.7803 3.13827 13.3608C2.73036 11.7784 3.56168 10.0652 5.02491 9.5874C5.19436 9.53206 5.43013 9.5029 5.65667 9.49561C5.88421 9.48829 6.12595 9.50228 6.30948 9.54531L6.30985 9.54539C6.45415 9.57951 6.7265 9.697 6.92404 9.80268Z" fill="black" stroke="black" stroke-width="0.4"/>
<path d="M16.6257 9.56119L16.6243 9.56159C15.8781 9.77222 15.178 10.4288 14.8539 11.2047L14.8534 11.2057L14.8534 11.2057C14.6514 11.697 14.5842 12.018 14.5842 12.5377V12.5383C14.5885 13.9347 15.422 15.1575 16.6566 15.509C16.6566 15.509 16.6566 15.509 16.6567 15.5091L16.7114 15.3167C17.0231 15.4057 17.6176 15.3917 17.9211 15.2933L16.6257 9.56119ZM16.6257 9.56119C16.8048 9.51207 17.05 9.49192 17.2819 9.49374C17.5134 9.49556 17.7571 9.51948 17.9327 9.57165C18.9197 9.86267 19.6658 10.7439 19.9043 11.8486L16.6257 9.56119ZM17.7474 10.7157L17.7468 10.7155C17.6309 10.6739 17.4565 10.6473 17.2756 10.6435C17.0931 10.6396 16.9326 10.6595 16.8405 10.6921C16.1487 10.9434 15.6858 11.594 15.6482 12.4018L15.6482 12.4024C15.6253 12.8612 15.7089 13.2256 15.9011 13.5636L15.9014 13.564C16.198 14.0884 16.6579 14.373 17.1241 14.4225C17.5893 14.4719 18.0796 14.2896 18.4467 13.8407C18.6472 13.5939 18.739 13.4294 18.8119 13.1838L18.8121 13.183C19.1318 12.1217 18.629 11.0296 17.7474 10.7157Z" fill="black" stroke="black" stroke-width="0.4"/>
<path d="M8.80246 13.7616L8.80246 13.7615C8.79812 12.4085 9.63821 11.1427 10.832 10.7901C11.008 10.7378 11.256 10.714 11.4909 10.7128C11.7256 10.7116 11.9753 10.7328 12.1541 10.7852C13.5571 11.1889 14.4301 12.8145 14.1444 14.3639C13.9529 15.4131 13.2511 16.3103 12.333 16.6567L12.333 16.6567L12.3319 16.6571C11.8196 16.8471 11.188 16.8471 10.6756 16.6571L10.6756 16.6571L10.6745 16.6567C9.56977 16.2392 8.8068 15.0374 8.80246 13.7616ZM11.9215 11.9138L11.9215 11.9138L11.9201 11.9133C11.5567 11.8004 11.0706 11.8645 10.7101 12.0851L10.7101 12.0851L10.7078 12.0865C10.6285 12.1336 10.5036 12.2459 10.3759 12.3906C10.2502 12.5332 10.1405 12.686 10.0836 12.8003L10.0834 12.8007C9.49563 13.9752 10.1377 15.4171 11.2668 15.6358C11.8162 15.7407 12.3424 15.4938 12.702 15.0382C13.0617 14.5823 13.2404 13.9316 13.0885 13.2715L13.0882 13.2705C12.9417 12.6178 12.4618 12.0773 11.9215 11.9138Z" fill="black" stroke="black" stroke-width="0.4"/>
<path d="M3.80851 15.7909L3.80628 15.7914C2.30702 16.1151 1.18352 17.3625 0.887971 18.9973C0.887964 18.9973 0.887957 18.9973 0.887951 18.9974L1.08476 19.033L3.80851 15.7909ZM3.80851 15.7909C3.9447 15.7631 4.25023 15.7478 4.61274 15.7395C4.98435 15.7309 5.43901 15.7295 5.88956 15.7342C6.34008 15.7389 6.7882 15.7497 7.14667 15.766C7.32575 15.7741 7.48397 15.7836 7.60961 15.7945C7.72818 15.8048 7.83638 15.8177 7.90262 15.8371L7.90262 15.8371L7.90441 15.8376C8.49534 16.0164 9.20576 16.4673 9.57723 16.902L9.57724 16.902L9.57907 16.9042C9.61875 16.952 9.64129 16.9785 9.65868 16.996C9.6594 16.9967 9.66008 16.9974 9.66072 16.9981C9.68097 16.9967 9.70958 16.9925 9.76269 16.9844C9.81253 16.9762 9.90017 16.9709 10.0015 16.9667C10.1091 16.9622 10.2466 16.9585 10.4032 16.9555C10.7168 16.9497 11.1107 16.9467 11.5041 16.9467C11.8976 16.9467 12.2915 16.9497 12.605 16.9555C12.7617 16.9585 12.8992 16.9622 13.0068 16.9667C13.1081 16.9709 13.1958 16.9762 13.2456 16.9844C13.2987 16.9925 13.3273 16.9967 13.3476 16.9981C13.3482 16.9974 13.3489 16.9967 13.3496 16.996C13.367 16.9785 13.3895 16.952 13.4292 16.9042L13.4292 16.9041M3.80851 15.7909L13.4292 16.9041M7.90655 25.0955H7.95721H11.5041H15.0511H15.1017L15.1463 25.0714L15.3789 24.9454C15.7227 24.7645 16.0598 24.3987 16.221 24.0419L16.2856 23.9044L18.4967 23.8911L18.5115 23.891C19.6652 23.8841 20.2519 23.8806 20.5738 23.8651C20.7347 23.8574 20.8424 23.8463 20.9264 23.8265C21.0175 23.805 21.0745 23.7744 21.1267 23.7464L21.1283 23.7455L7.90655 25.0955ZM7.90655 25.0955L7.86199 25.0714M7.90655 25.0955L7.86199 25.0714M7.86199 25.0714L7.62933 24.9454C7.28556 24.7645 6.94848 24.3987 6.78731 24.0419L6.72271 23.9044L7.86199 25.0714ZM13.4292 16.9041L13.4314 16.9016M13.4292 16.9041L13.4314 16.9016M13.4314 16.9016C13.5586 16.7536 13.7642 16.5779 13.9768 16.4219C14.1902 16.2654 14.4262 16.1172 14.6201 16.0296M13.4314 16.9016L19.5001 15.8622M21.0229 18.9273C21.0229 18.9275 21.0229 18.9276 21.023 18.9277L21.2141 18.8689C21.3208 19.2204 21.3249 19.2485 21.3372 20.6122C21.3536 22.1681 21.3413 22.2899 21.1075 22.5852L21.0229 18.9273ZM21.0229 18.9273C21.074 19.0961 21.0972 19.175 21.1115 19.3753C21.1268 19.5888 21.131 19.9287 21.1372 20.614L21.1372 20.6143C21.1454 21.3987 21.1459 21.8023 21.1175 22.0485C21.1037 22.1672 21.0843 22.2378 21.0611 22.291C21.0377 22.3444 21.0059 22.3913 20.9507 22.461L20.9504 22.4614C20.9398 22.4749 20.9301 22.4873 20.9211 22.4987C20.859 22.578 20.8328 22.6114 20.7953 22.6386C20.7616 22.6631 20.7051 22.6903 20.559 22.7104C20.2654 22.7508 19.7225 22.7508 18.5718 22.7507L18.4258 22.7507H16.4255L16.4115 21.622L16.3951 20.3005L16.3948 20.2729L16.387 20.2464L16.2517 19.7872L16.2514 19.7862C15.9445 18.7632 15.31 17.8916 14.5069 17.4302L14.5065 17.43C14.5011 17.4269 14.4958 17.4238 14.4906 17.4207C14.5222 17.397 14.5573 17.3717 14.5948 17.3458C14.7372 17.2474 14.8979 17.1502 15.0042 17.1008L15.0044 17.1007C15.2355 16.9929 15.3779 16.9402 15.6789 16.9124C15.9961 16.8831 16.4782 16.8827 17.3868 16.8898L17.3871 16.8898C18.1181 16.8945 18.542 16.9004 18.8096 16.9136C19.0749 16.9267 19.1711 16.9465 19.2523 16.9733C20.0716 17.2497 20.723 17.9532 21.0229 18.9273ZM11.6261 18.1082C11.1694 18.1059 10.7418 18.1059 10.42 18.1082C10.259 18.1094 10.1251 18.1112 10.0277 18.1135C9.97884 18.1146 9.94018 18.1159 9.91224 18.1172C9.88774 18.1184 9.8787 18.1194 9.87868 18.1192C9.87868 18.1192 9.87891 18.1192 9.87935 18.1191L9.87668 18.1195C8.82862 18.2962 7.94235 19.1992 7.70227 20.3656C7.68645 20.4474 7.67128 20.6585 7.66027 20.9532C7.64948 21.2419 7.6431 21.5938 7.64157 21.9434C7.64004 22.2931 7.64336 22.6387 7.65185 22.9147C7.6561 23.0529 7.66161 23.1721 7.6683 23.2651C7.67532 23.3626 7.68276 23.4161 7.68725 23.434C7.70969 23.5162 7.7756 23.6311 7.86797 23.7377C7.96304 23.8474 8.05651 23.9143 8.11114 23.9327C8.10761 23.9315 8.10554 23.9309 8.10556 23.9308C8.10562 23.9306 8.11762 23.9329 8.15031 23.9358C8.18904 23.9392 8.24397 23.9425 8.31731 23.9454C8.46361 23.9513 8.67509 23.9557 8.96029 23.9586C9.53024 23.9644 10.388 23.9644 11.5935 23.9598C11.5935 23.9598 11.5936 23.9598 11.5936 23.9598L14.911 23.946L15.0324 23.8493C15.0324 23.8492 15.0325 23.8491 15.0326 23.8491C15.1156 23.7822 15.2075 23.6641 15.2656 23.5313L15.2656 23.5313L15.2673 23.5275L15.3636 23.3191V21.9947C15.3636 21.2128 15.3572 20.7932 15.3191 20.4895C15.2825 20.1978 15.2168 20.0137 15.0845 19.7021C14.7862 19.0121 14.1524 18.4213 13.4707 18.1917C13.3892 18.1649 13.2939 18.1451 13.0319 18.132C12.7675 18.1188 12.3488 18.1129 11.6261 18.1082ZM11.6261 18.1082C11.626 18.1082 11.626 18.1082 11.6259 18.1082L11.6272 17.9082L11.6261 18.1082ZM22.0933 18.8264C22.1262 18.9608 22.1491 19.2263 22.1656 19.5341C22.1825 19.8503 22.1935 20.2325 22.1978 20.6135C22.2022 20.9944 22.2 21.376 22.1905 21.691C22.1813 21.9971 22.1647 22.2611 22.1353 22.3936L22.0931 18.8258C22.0932 18.826 22.0932 18.8262 22.0933 18.8264ZM22.0933 18.8264C21.7429 17.3669 20.8009 16.2799 19.5001 15.8622M22.0933 18.8264C22.0933 18.8266 22.0934 18.8268 22.0934 18.827L19.5001 15.8622M19.5001 15.8622C19.1466 15.7468 19.0307 15.7447 17.3064 15.7447C16.3338 15.7447 15.8123 15.7468 15.4642 15.7827C15.0979 15.8204 14.9133 15.897 14.6201 16.0296M14.6201 16.0296L14.7023 16.2112L14.6202 16.0296C14.6202 16.0296 14.6201 16.0296 14.6201 16.0296ZM7.49253 16.9321L7.49253 16.9321L7.49105 16.9318C7.39569 16.9104 7.24652 16.8943 6.96644 16.885C6.68862 16.8758 6.29315 16.8734 5.71094 16.8758C5.29146 16.8781 4.89772 16.8828 4.60038 16.888C4.45161 16.8907 4.3274 16.8934 4.23637 16.8961C4.19078 16.8974 4.15413 16.8987 4.12714 16.9C4.10504 16.901 4.09377 16.9017 4.08984 16.902C4.08936 16.9021 4.08899 16.9021 4.08872 16.9021C3.14498 17.0538 2.33913 17.7994 2.00148 18.8816L2.00129 18.8822L1.88316 19.2568L1.87113 20.614L1.87112 20.6143C1.86286 21.3983 1.86343 21.8021 1.89232 22.0481C1.90627 22.1669 1.92582 22.2378 1.94913 22.2914C1.97247 22.3451 2.00404 22.3922 2.05828 22.4619C2.06872 22.4752 2.0783 22.4874 2.08715 22.4987C2.14929 22.578 2.17551 22.6114 2.21294 22.6386C2.24667 22.6631 2.3032 22.6903 2.44931 22.7104C2.74289 22.7508 3.28575 22.7508 4.43645 22.7507C4.48408 22.7507 4.53275 22.7507 4.58249 22.7507H6.58282L6.59678 21.622V21.622L6.61318 20.3005L6.61352 20.2729L6.62132 20.2464L6.75663 19.7872L6.75692 19.7862C7.06381 18.7633 7.69815 17.8919 8.49684 17.4305L8.49682 17.4304L8.49995 17.4287C8.50359 17.4267 8.5072 17.4247 8.51079 17.4227C8.49604 17.4107 8.48082 17.3985 8.46528 17.3861C8.1729 17.1607 7.85192 17.01 7.49253 16.9321Z" fill="black" stroke="black" stroke-width="0.4"/>
</svg>
