<svg width="22" height="25" viewBox="0 0 22 25" fill="none" xmlns="http://www.w3.org/2000/svg">
<path d="M11.6744 2.22778L11.6749 2.22793C13.2372 2.67843 14.184 4.58371 13.6629 6.36664C13.4023 7.25161 12.9209 7.87881 12.2161 8.26495L12.2155 8.26528C11.7745 8.50891 11.4756 8.58848 11.004 8.58848C10.5323 8.58848 10.2334 8.50891 9.7924 8.26529L9.79204 8.26509C9.2173 7.94914 8.78151 7.45806 8.49685 6.79896L8.49671 6.79864C8.38058 6.53102 8.31354 6.33639 8.27395 6.12795C8.23403 5.9178 8.22035 5.68495 8.22035 5.33847C8.22035 5.05422 8.22259 4.91006 8.23784 4.78809C8.25258 4.6702 8.28002 4.5688 8.34053 4.37026L8.34087 4.36915C8.66848 3.27143 9.38641 2.50848 10.3233 2.22734L11.6744 2.22778ZM11.6744 2.22778C11.4909 2.17435 11.2452 2.14538 10.9937 2.14538M11.6744 2.22778L10.9937 2.14538M10.9937 2.14538C10.7419 2.14538 10.5 2.17439 10.3233 2.22732L10.9937 2.14538ZM7.28676 4.28835L7.28699 4.2874C7.39685 3.83168 7.64275 3.22646 7.88239 2.84852C8.40663 2.011 9.30671 1.3288 10.1945 1.1141C10.4032 1.06153 10.7009 1.03798 10.987 1.03741C11.2739 1.03684 11.5725 1.05934 11.7837 1.10906C12.9647 1.38474 13.9642 2.30178 14.4732 3.53965L14.4735 3.54036C14.605 3.86364 14.6905 4.12096 14.7417 4.40024C14.7928 4.6784 14.8085 4.97027 14.8085 5.36079C14.8085 5.75393 14.7918 6.05238 14.7398 6.33484C14.6875 6.61862 14.601 6.87835 14.469 7.196L14.4689 7.19642C14.2487 7.72289 14.0134 8.0859 13.6237 8.51272L13.6234 8.51303C12.9039 9.29768 12.0273 9.69365 11.004 9.69365C10.3172 9.69365 9.74075 9.53731 9.18304 9.18538C8.25128 8.60101 7.56718 7.59903 7.28697 6.43408L7.28697 6.43408L7.28676 6.43322C7.22106 6.15467 7.19062 5.75202 7.19062 5.36079C7.19062 4.96956 7.22106 4.56691 7.28676 4.28835Z" fill="white" stroke="white" stroke-width="0.4"/>
<path d="M10.6097 2.79577L10.609 2.79679L10.609 2.79679C10.5174 2.92932 10.4915 3.07466 10.4915 3.25859C10.4915 3.30321 10.4913 3.3341 10.4904 3.35706C10.4854 3.35921 10.4799 3.36157 10.4736 3.36422C10.4734 3.36435 10.4731 3.36447 10.4728 3.36459L10.5509 3.54869C10.0315 3.76292 9.7855 4.51273 10.0471 5.06169L10.6097 2.79577ZM10.6097 2.79577C10.6491 2.73938 10.7003 2.67995 10.7777 2.64065C10.8539 2.60195 10.9327 2.59442 11.0039 2.59442C11.1651 2.59442 11.3113 2.65717 11.406 2.8C11.4901 2.92697 11.5164 3.09282 11.5164 3.26751C11.5164 3.29493 11.5166 3.31821 11.5172 3.33801C11.5401 3.34661 11.5609 3.35595 11.5785 3.36433C11.6378 3.39245 11.701 3.4298 11.7612 3.47023C11.8769 3.54788 12.0074 3.65447 12.0822 3.75528L12.0828 3.75601C12.2578 3.99399 12.3482 4.26574 12.3305 4.4978C12.3216 4.61489 12.2836 4.73484 12.199 4.82834C12.1106 4.92608 11.9881 4.97605 11.8514 4.97605C11.7398 4.97605 11.6286 4.9503 11.5326 4.87149C11.4426 4.79759 11.3879 4.69454 11.3478 4.58742C11.3138 4.49673 11.2824 4.45805 11.2551 4.43708C11.2278 4.41615 11.1816 4.39529 11.0829 4.38605L11.0823 4.38599C10.9635 4.37452 10.8937 4.38886 10.8541 4.4077C10.8213 4.4233 10.7962 4.4477 10.7773 4.4979C10.7387 4.6021 10.7657 4.6631 10.8135 4.70092C10.8161 4.70219 10.8269 4.70798 10.8506 4.71857C10.8793 4.73141 10.9174 4.74714 10.963 4.76495C11.0533 4.80024 11.1668 4.84136 11.2814 4.8807C11.5312 4.96008 11.7206 5.0368 11.87 5.13503C12.0261 5.23771 12.1301 5.35805 12.219 5.50924L12.219 5.50922M10.6097 2.79577L12.219 5.50922M12.219 5.50922L12.2208 5.51226M12.219 5.50922L12.2208 5.51226M12.2208 5.51226C12.3 5.65249 12.3465 5.84332 12.3656 6.02368C12.3848 6.20518 12.3792 6.40485 12.3326 6.56732C12.2403 6.88921 11.9815 7.17095 11.6585 7.32989L11.5164 7.39987V7.48964C11.5164 7.65121 11.482 7.80589 11.3984 7.92693C11.3103 8.05433 11.1754 8.13147 11.0146 8.13585C10.844 8.1427 10.6988 8.06767 10.6065 7.92776C10.5223 7.80001 10.4915 7.63339 10.4915 7.4584V7.33915L10.4107 7.29394M12.2208 5.51226L10.4107 7.29394M10.4107 7.29394C10.1112 7.1279 9.87314 6.84361 9.74498 6.56589C9.68064 6.42647 9.63866 6.27728 9.63743 6.13556C9.63619 5.99316 9.67715 5.83986 9.8004 5.72952L10.4107 7.29394ZM10.235 5.60866C10.0711 5.48369 9.95476 5.33281 9.8666 5.14774L9.80056 5.72937C9.86623 5.67055 9.94515 5.62017 10.0383 5.60043C10.1061 5.58605 10.1725 5.58989 10.235 5.60866ZM10.4502 5.7438C10.5421 5.83496 10.621 5.95994 10.6931 6.09845L10.6933 6.0988C10.743 6.19461 10.7976 6.25221 10.8545 6.28724C10.9111 6.3221 10.9843 6.34345 11.0859 6.34345C11.1974 6.34345 11.2644 6.31538 11.2993 6.28709C11.3292 6.26284 11.3507 6.22705 11.3507 6.16409C11.3507 6.11534 11.3402 6.09849 11.3157 6.078C11.2754 6.04415 11.192 6.00301 11.0208 5.95515C10.7981 5.89404 10.6096 5.82674 10.4502 5.7438Z" fill="white" stroke="white" stroke-width="0.4"/>
<path d="M5.57574 10.1401C5.15007 10.1267 4.88061 10.2026 4.56428 10.4347C3.9863 10.8587 3.66607 11.662 3.77542 12.4119C3.97068 13.7686 5.2477 14.5229 6.30211 13.907L6.20116 13.7344C5.74107 14.0031 5.23592 13.974 4.81839 13.727C4.39852 13.4787 4.06297 13.0058 3.97338 12.3834L3.97333 12.383C3.87389 11.7011 4.16847 10.9731 4.68258 10.5959L4.68259 10.5959C4.82651 10.4903 4.95201 10.4258 5.08457 10.3875C5.21819 10.3488 5.3696 10.3337 5.56945 10.34L5.57036 10.34C5.73724 10.3445 5.8172 10.3513 5.8853 10.3686C5.95158 10.3854 6.01666 10.4148 6.14851 10.4857C6.49071 10.6715 6.73849 10.9555 6.90234 11.3504L6.90263 11.3511C7.27448 12.2378 6.94457 13.2996 6.20124 13.7343L5.57574 10.1401ZM5.57574 10.1401C5.90768 10.149 5.97798 10.1669 6.24354 10.3097L5.57574 10.1401ZM6.64639 9.51299L6.64639 9.51298L6.64794 9.51383C7.52164 9.99117 8.07983 11.024 8.07983 12.1128C8.07983 12.8847 7.81882 13.611 7.34693 14.1503C6.92056 14.6376 6.47098 14.8984 5.86208 15.0097C4.62401 15.2389 3.37438 14.2679 3.02717 12.9124C2.63763 11.4013 3.43126 9.76412 4.83024 9.30731C4.99287 9.25421 5.21843 9.22639 5.43457 9.21943C5.65171 9.21244 5.88286 9.22576 6.05877 9.267L6.05915 9.26709C6.19778 9.29987 6.45803 9.41222 6.64639 9.51299Z" fill="white" stroke="white" stroke-width="0.4"/>
<path d="M15.8778 9.28266L15.8792 9.28227L17.1154 14.7506C16.8265 14.8443 16.2602 14.8577 15.9634 14.7729L15.9086 14.9652C15.9086 14.9652 15.9086 14.9652 15.9086 14.9652C14.7281 14.6291 13.9321 13.4603 13.9279 12.1269V12.1263C13.9279 11.63 13.9922 11.323 14.1851 10.8541L14.1851 10.8541L14.1855 10.853C14.4952 10.1118 15.164 9.48415 15.8778 9.28266ZM17.1292 9.29229C18.0731 9.5706 18.7858 10.413 19.0136 11.4679L17.129 9.29223C17.1291 9.29225 17.1292 9.29227 17.1292 9.29229ZM16.9468 10.4L16.9463 10.3998C16.8372 10.3606 16.6722 10.3354 16.5005 10.3317C16.3273 10.3281 16.1757 10.347 16.0896 10.3775C15.4346 10.6154 14.996 11.2314 14.9604 11.9972L14.9603 11.9979C14.9386 12.4332 15.0179 12.7784 15.2 13.0985L15.2002 13.0989C15.4813 13.5959 15.9167 13.865 16.3575 13.9118C16.7972 13.9585 17.261 13.7863 17.6087 13.3612C17.7991 13.1268 17.8857 12.9713 17.9547 12.7388L17.9549 12.738C18.2582 11.7312 17.7808 10.6969 16.9468 10.4Z" fill="white" stroke="white" stroke-width="0.4"/>
<path d="M10.3611 10.4527C10.53 10.4025 10.7673 10.3798 10.9915 10.3786C11.2154 10.3775 11.4542 10.3977 11.6258 10.4479C12.9676 10.8341 13.801 12.3877 13.528 13.8673C13.3451 14.8694 12.6747 15.7267 11.7969 16.0579L11.7969 16.0579L11.7958 16.0583C11.3057 16.2401 10.7018 16.2401 10.2118 16.0583L10.2118 16.0583L10.2106 16.0579C9.15435 15.6587 8.42575 14.5103 8.4216 13.2918L8.4216 13.2917C8.41746 11.9997 9.21954 10.79 10.3611 10.4527ZM10.3611 10.4527C10.3611 10.4527 10.361 10.4527 10.361 10.4527L10.418 10.6444L10.3614 10.4526C10.3613 10.4527 10.3612 10.4527 10.3611 10.4527ZM11.3989 11.541L11.3989 11.541L11.3975 11.5406C11.0541 11.434 10.5941 11.4945 10.2529 11.7032L10.2529 11.7032L10.2506 11.7046C10.1763 11.7487 10.0582 11.8548 9.93683 11.9924C9.81733 12.1279 9.71345 12.2727 9.65979 12.3805L9.6596 12.3809C9.10208 13.4949 9.71192 14.8605 10.7799 15.0674C11.299 15.1665 11.7968 14.9334 12.1375 14.5017C12.4784 14.0697 12.6478 13.4529 12.5038 12.8271L12.5035 12.8261C12.3646 12.2074 11.9097 11.6957 11.3989 11.541Z" fill="white" stroke="white" stroke-width="0.4"/>
<path d="M3.67287 15.2151L3.67064 15.2156C2.23855 15.5249 1.16601 16.7162 0.883935 18.2764C0.829436 18.576 0.802607 19.2984 0.800181 19.9767C0.798953 20.3199 0.803976 20.6588 0.815546 20.937C0.826743 21.2063 0.84466 21.4415 0.875181 21.5615L0.875408 21.5624L0.87541 21.5624C1.01286 22.0925 1.34964 22.547 1.80529 22.7948L1.80708 22.7957L1.80708 22.7957L2.02578 22.9118L2.06918 22.9348L2.11832 22.9351L4.3443 22.9485L6.44414 22.9611L6.50308 23.0865C6.65741 23.4281 6.97984 23.7781 7.30916 23.9515L7.5307 24.0714L7.57525 24.0955H7.62591H11.0039H14.382H14.4326L14.4772 24.0714L14.6987 23.9515C15.028 23.7781 15.3505 23.4281 15.5048 23.0865L15.5638 22.9611L17.6636 22.9485L17.6783 22.9484C18.7765 22.9418 19.3354 22.9384 19.6422 22.9237C19.7955 22.9164 19.8988 22.9058 19.9797 22.8866C20.0677 22.8659 20.1228 22.8363 20.1727 22.8095L20.1743 22.8087L20.0797 22.6324M3.67287 15.2151L14.05 15.6253M3.67287 15.2151C3.80359 15.1885 4.09554 15.1739 4.44049 15.166C4.79453 15.1578 5.22765 15.1564 5.65683 15.1609C6.08596 15.1654 6.51286 15.1757 6.85441 15.1912C7.02501 15.1989 7.17585 15.208 7.29569 15.2184C7.40847 15.2282 7.51245 15.2405 7.57659 15.2593L7.57659 15.2593L7.57838 15.2598C8.14276 15.4306 8.82096 15.861 9.17603 16.2764L9.17604 16.2764L9.17787 16.2786C9.21485 16.3232 9.2359 16.348 9.25195 16.3643M3.67287 15.2151L9.02399 16.4064M20.0797 22.6324L20.1719 22.8099C20.6579 22.5575 21.0171 22.0684 21.1382 21.5148C21.1664 21.3875 21.1822 21.1351 21.191 20.8439C21.2 20.5437 21.2021 20.1802 21.1979 19.8173C21.1938 19.4543 21.1833 19.0902 21.1672 18.7889C21.1516 18.496 21.1297 18.2422 21.0981 18.1131C20.7637 16.7205 19.8645 15.6824 18.6223 15.2833C18.2837 15.1728 18.1715 15.1709 16.5299 15.1709C15.6039 15.1709 15.1066 15.1729 14.7744 15.2071C14.4242 15.2432 14.2473 15.3166 13.9676 15.4431M20.0797 22.6324C19.8884 22.7351 19.8845 22.7351 17.6639 22.7485L17.6624 22.7485L15.4364 22.7619L18.5606 15.4736C19.7283 15.8485 20.5835 16.8259 20.9037 18.1604C21.0092 18.5888 21.0365 21.0525 20.9428 21.472C20.8334 21.9719 20.5093 22.4093 20.0797 22.6324ZM13.9676 15.4431L14.05 15.6253M13.9676 15.4431C13.9676 15.4431 13.9677 15.4431 13.9677 15.4431L14.05 15.6253M13.9676 15.4431C13.7821 15.5269 13.5568 15.6685 13.3533 15.8178C13.1505 15.9665 12.954 16.1343 12.8322 16.276L12.83 16.2786L12.83 16.2786C12.793 16.3232 12.772 16.348 12.7559 16.3643M14.05 15.6253C13.7142 15.7771 13.1987 16.1564 12.9839 16.4064C12.8394 16.5804 12.8355 16.5804 12.6324 16.5492M12.7559 16.3643C12.7586 16.3645 12.7611 16.3647 12.7634 16.3648C12.7691 16.3651 12.7715 16.365 12.7715 16.365C12.7715 16.365 12.7648 16.3655 12.7556 16.3692C12.7484 16.3721 12.7445 16.375 12.7445 16.375C12.7446 16.3749 12.7478 16.3725 12.7548 16.3655C12.7552 16.3651 12.7555 16.3647 12.7559 16.3643ZM12.7559 16.3643C12.7374 16.3628 12.711 16.3589 12.664 16.3517M12.664 16.3517C12.6645 16.3518 12.665 16.3519 12.6656 16.352L12.6324 16.5492M12.664 16.3517C12.6636 16.3516 12.6632 16.3516 12.6628 16.3515L12.6324 16.5492M12.664 16.3517C12.6158 16.3438 12.5318 16.3387 12.4355 16.3347C12.3328 16.3304 12.2018 16.3269 12.0526 16.3241C11.7539 16.3185 11.3787 16.3157 11.0039 16.3157C10.6292 16.3157 10.254 16.3185 9.95529 16.3241C9.80607 16.3269 9.67507 16.3304 9.57244 16.3347C9.47614 16.3387 9.39209 16.3438 9.34392 16.3517M12.6324 16.5492C12.3669 16.5046 9.64102 16.5046 9.37546 16.5492M9.37546 16.5492L9.34505 16.3515C9.34467 16.3516 9.3443 16.3516 9.34392 16.3517M9.37546 16.5492C9.17239 16.5804 9.16848 16.5804 9.02399 16.4064M9.37546 16.5492L9.34231 16.352C9.34284 16.3519 9.34338 16.3518 9.34392 16.3517M9.34392 16.3517C9.29692 16.3589 9.27049 16.3628 9.25195 16.3643M9.02399 16.4064C8.69595 16.0225 8.05158 15.6119 7.52047 15.4513C7.18462 15.3531 4.15025 15.3218 3.71286 15.4111C2.36945 15.7012 1.35019 16.8214 1.08072 18.3121L9.02399 16.4064ZM9.25195 16.3643C9.25234 16.3647 9.25273 16.3651 9.25311 16.3655C9.26 16.3724 9.26323 16.3749 9.26335 16.375C9.26349 16.3751 9.25955 16.3721 9.25234 16.3692C9.24319 16.3655 9.23656 16.365 9.23636 16.365C9.23624 16.365 9.23862 16.3651 9.24447 16.3648C9.24683 16.3647 9.24931 16.3645 9.25195 16.3643ZM20.15 21.6952C20.3726 21.414 20.3843 21.298 20.3687 19.8162L20.15 21.6952ZM20.15 21.6952C20.0889 21.7727 20.0454 21.833 19.9903 21.8799C19.7921 22.0488 19.4454 22.0433 17.596 22.0433H15.5028L20.15 21.6952ZM13.7323 16.886C13.7301 16.8883 13.7292 16.8894 13.7293 16.8894C13.7294 16.8893 13.7345 16.883 13.7403 16.8717L13.7352 16.8816L13.7326 16.8856M13.7323 16.886L13.7326 16.8856M13.7323 16.886C13.7313 16.8877 13.7302 16.8893 13.7291 16.891L13.7326 16.8856M13.7323 16.886L13.7326 16.8856M7.18134 16.3207L7.18134 16.3207L7.17986 16.3203C7.08998 16.3002 6.94866 16.2849 6.68201 16.276C6.41764 16.2672 6.04121 16.2649 5.48684 16.2672C5.0873 16.2694 4.71228 16.2738 4.4291 16.2789C4.28743 16.2814 4.16918 16.284 4.08253 16.2865C4.03914 16.2878 4.00429 16.2891 3.97866 16.2902C3.95861 16.2911 3.94812 16.2918 3.94416 16.2921C3.94355 16.2921 3.9431 16.2922 3.94279 16.2922C3.04831 16.4361 2.28353 17.1431 1.96288 18.1709L1.96269 18.1714L1.85062 18.5268L1.83917 19.818L1.83916 19.8183C1.83129 20.5652 1.83186 20.949 1.85929 21.1826C1.8725 21.2951 1.89095 21.3617 1.91267 21.4116C1.93441 21.4617 1.96388 21.5057 2.01537 21.5719C2.02528 21.5845 2.03436 21.5961 2.04273 21.6068C2.10221 21.6826 2.12627 21.7133 2.16077 21.7383C2.1911 21.7603 2.24319 21.786 2.3816 21.805C2.66053 21.8434 3.17699 21.8434 4.27443 21.8433C4.31927 21.8433 4.36509 21.8433 4.4119 21.8433H6.30756L6.32074 20.7778V20.7778L6.33636 19.5192L6.33671 19.4916L6.3445 19.4651L6.47337 19.0277L6.47366 19.0268C6.76649 18.0507 7.37193 17.2186 8.13508 16.7777L8.13507 16.7777L8.13616 16.7771C8.12562 16.7686 8.11485 16.7599 8.10392 16.7512C7.82657 16.5374 7.52218 16.3945 7.18134 16.3207ZM15.3427 19.0842C15.0615 18.147 14.4835 17.3615 13.7689 16.9509C13.6439 16.8795 13.5502 16.7991 13.5619 16.7813C13.6048 16.6965 14.0266 16.4064 14.257 16.2993L15.3427 19.0842ZM20.1687 19.8183L20.1687 19.818C20.1628 19.1651 20.1589 18.8418 20.1443 18.6389C20.1307 18.4491 20.1089 18.3747 20.0603 18.2143C19.7755 17.289 19.1571 16.6217 18.3802 16.3595C18.304 16.3345 18.2133 16.3157 17.961 16.3032C17.7065 16.2906 17.303 16.285 16.6067 16.2806L16.6064 16.2806C15.7408 16.2738 15.2823 16.2742 14.9808 16.302C14.6955 16.3284 14.5609 16.3781 14.3416 16.4805L14.3413 16.4806C14.2408 16.5274 14.0883 16.6196 13.9529 16.7131C13.9217 16.7347 13.8923 16.7557 13.8654 16.7757C13.8663 16.7762 13.8672 16.7767 13.8681 16.7772L13.8685 16.7775C14.6358 17.2183 15.2414 18.0506 15.5342 19.0268L15.5345 19.0277L15.6634 19.4651L15.6712 19.4916L15.6715 19.5192L15.6871 20.7778L15.7003 21.8433H17.596L17.7335 21.8433C18.8309 21.8434 19.3474 21.8434 19.6263 21.805C19.7647 21.786 19.8168 21.7603 19.8471 21.7383C19.8816 21.7133 19.9057 21.6826 19.9652 21.6068C19.9736 21.5959 19.9828 21.5842 19.9929 21.5714L19.9932 21.571C20.0457 21.5048 20.0753 21.4609 20.097 21.4112C20.1187 21.3617 20.137 21.2955 20.15 21.183C20.177 20.9493 20.1766 20.5656 20.1687 19.8183ZM14.5776 22.5924L14.5775 22.5924L14.5792 22.5887L14.6701 22.3921V21.1328C14.6701 20.388 14.6639 19.989 14.6278 19.7005C14.5931 19.424 14.5309 19.2496 14.4051 18.9532C14.122 18.2984 13.5204 17.7378 12.8739 17.52C12.7975 17.4949 12.7077 17.4761 12.4584 17.4636C12.2069 17.451 11.8083 17.4454 11.1198 17.441C10.685 17.4387 10.2779 17.4387 9.97148 17.441C9.81814 17.4421 9.69076 17.4437 9.59803 17.4459C9.55154 17.447 9.5148 17.4482 9.48831 17.4495C9.4655 17.4506 9.45705 17.4515 9.45703 17.4514C9.45703 17.4514 9.45731 17.4513 9.45785 17.4512L9.45556 17.4516C8.46179 17.6191 7.62045 18.4757 7.39246 19.5832C7.37756 19.6602 7.36313 19.8604 7.35263 20.1413C7.34236 20.4161 7.33628 20.7512 7.33483 21.0841C7.33337 21.417 7.33653 21.746 7.34462 22.0088C7.34866 22.1403 7.3539 22.2537 7.36026 22.342C7.36695 22.4349 7.37398 22.4849 7.37802 22.5011C7.3989 22.5776 7.46071 22.6857 7.54812 22.7866C7.63487 22.8867 7.71935 22.9481 7.76983 22.9675C7.77265 22.9678 7.78456 22.9697 7.81066 22.972C7.84732 22.9753 7.89946 22.9783 7.96925 22.9811C8.10844 22.9867 8.30973 22.9909 8.58133 22.9937C9.12406 22.9993 9.94095 22.9993 11.089 22.9948C11.089 22.9948 11.0891 22.9948 11.0891 22.9948L14.2453 22.9817L14.3582 22.8917C14.3583 22.8916 14.3584 22.8915 14.3585 22.8914C14.4362 22.8288 14.5228 22.7176 14.5776 22.5924Z" fill="white" stroke="white" stroke-width="0.4"/>
</svg>
