<svg width="23" height="26" viewBox="0 0 23 26" fill="none" xmlns="http://www.w3.org/2000/svg">
<mask id="path-1-outside-1_272_162" maskUnits="userSpaceOnUse" x="6.70996" y="-0.226562" width="9" height="11" fill="black">
<rect fill="white" x="6.70996" y="-0.226562" width="9" height="11"/>
<path d="M10.7044 1.17878C9.83095 1.38966 8.92884 2.06918 8.40397 2.90802C8.16614 3.28292 7.91601 3.89683 7.8053 4.35609C7.67818 4.89501 7.67818 5.97286 7.8053 6.51178C8.08823 7.68804 8.77712 8.6909 9.70383 9.272C10.2533 9.61879 10.8192 9.77344 11.504 9.77344C12.5168 9.77344 13.382 9.38448 14.0996 8.60186C14.4932 8.17073 14.7269 7.80988 14.9484 7.28033C15.219 6.62894 15.2887 6.24935 15.2887 5.43393C15.2887 4.6232 15.2231 4.26705 14.9525 3.60159C14.4399 2.35504 13.4394 1.4459 12.2748 1.17409C11.8771 1.08037 11.0939 1.08037 10.7044 1.17878ZM12.2666 1.94265C14.0381 2.45345 15.0714 4.58571 14.4973 6.54927C14.2103 7.52402 13.6731 8.23165 12.8776 8.66747C12.3856 8.93928 12.037 9.033 11.504 9.033C10.9709 9.033 10.6223 8.93928 10.1303 8.66747C9.4824 8.31131 8.99444 7.75833 8.67871 7.02727C8.42857 6.45086 8.37117 6.14625 8.37117 5.4105C8.37117 4.82003 8.37937 4.74973 8.50648 4.33265C8.86733 3.12359 9.66693 2.26131 10.729 1.94265C11.1513 1.81612 11.832 1.81612 12.2666 1.94265Z"/>
</mask>
<path d="M10.7044 1.17878C9.83095 1.38966 8.92884 2.06918 8.40397 2.90802C8.16614 3.28292 7.91601 3.89683 7.8053 4.35609C7.67818 4.89501 7.67818 5.97286 7.8053 6.51178C8.08823 7.68804 8.77712 8.6909 9.70383 9.272C10.2533 9.61879 10.8192 9.77344 11.504 9.77344C12.5168 9.77344 13.382 9.38448 14.0996 8.60186C14.4932 8.17073 14.7269 7.80988 14.9484 7.28033C15.219 6.62894 15.2887 6.24935 15.2887 5.43393C15.2887 4.6232 15.2231 4.26705 14.9525 3.60159C14.4399 2.35504 13.4394 1.4459 12.2748 1.17409C11.8771 1.08037 11.0939 1.08037 10.7044 1.17878ZM12.2666 1.94265C14.0381 2.45345 15.0714 4.58571 14.4973 6.54927C14.2103 7.52402 13.6731 8.23165 12.8776 8.66747C12.3856 8.93928 12.037 9.033 11.504 9.033C10.9709 9.033 10.6223 8.93928 10.1303 8.66747C9.4824 8.31131 8.99444 7.75833 8.67871 7.02727C8.42857 6.45086 8.37117 6.14625 8.37117 5.4105C8.37117 4.82003 8.37937 4.74973 8.50648 4.33265C8.86733 3.12359 9.66693 2.26131 10.729 1.94265C11.1513 1.81612 11.832 1.81612 12.2666 1.94265Z" fill="black"/>
<path d="M10.7044 1.17878C9.83095 1.38966 8.92884 2.06918 8.40397 2.90802C8.16614 3.28292 7.91601 3.89683 7.8053 4.35609C7.67818 4.89501 7.67818 5.97286 7.8053 6.51178C8.08823 7.68804 8.77712 8.6909 9.70383 9.272C10.2533 9.61879 10.8192 9.77344 11.504 9.77344C12.5168 9.77344 13.382 9.38448 14.0996 8.60186C14.4932 8.17073 14.7269 7.80988 14.9484 7.28033C15.219 6.62894 15.2887 6.24935 15.2887 5.43393C15.2887 4.6232 15.2231 4.26705 14.9525 3.60159C14.4399 2.35504 13.4394 1.4459 12.2748 1.17409C11.8771 1.08037 11.0939 1.08037 10.7044 1.17878ZM12.2666 1.94265C14.0381 2.45345 15.0714 4.58571 14.4973 6.54927C14.2103 7.52402 13.6731 8.23165 12.8776 8.66747C12.3856 8.93928 12.037 9.033 11.504 9.033C10.9709 9.033 10.6223 8.93928 10.1303 8.66747C9.4824 8.31131 8.99444 7.75833 8.67871 7.02727C8.42857 6.45086 8.37117 6.14625 8.37117 5.4105C8.37117 4.82003 8.37937 4.74973 8.50648 4.33265C8.86733 3.12359 9.66693 2.26131 10.729 1.94265C11.1513 1.81612 11.832 1.81612 12.2666 1.94265Z" stroke="black" stroke-width="0.8" mask="url(#path-1-outside-1_272_162)"/>
<mask id="path-2-outside-2_272_162" maskUnits="userSpaceOnUse" x="9.2793" y="2.13818" width="4" height="7" fill="black">
<rect fill="white" x="9.2793" y="2.13818" width="4" height="7"/>
<path d="M11.2622 2.86108C11.2007 2.95012 11.1761 3.05321 11.1761 3.22661C11.1761 3.46561 11.172 3.47029 11.0285 3.53122C10.4831 3.75616 10.2248 4.54345 10.4995 5.11987C10.6758 5.49009 10.9629 5.68691 11.578 5.85562C11.947 5.95871 12.0782 6.0665 12.0782 6.27738C12.0782 6.52576 11.8896 6.67572 11.5903 6.67572C11.3155 6.67572 11.1228 6.55856 10.9916 6.3055C10.7743 5.88842 10.5897 5.79001 10.3806 5.97746C10.0977 6.23052 10.4421 6.98033 10.9834 7.28025L11.1761 7.38803V7.63641C11.1761 7.96445 11.295 8.14721 11.5083 8.13784C11.7092 8.13315 11.8322 7.95507 11.8322 7.66921V7.44427L12.0987 7.31305C12.394 7.16778 12.6195 6.91472 12.6974 6.64291C12.7753 6.37111 12.7261 5.92122 12.599 5.69628C12.4391 5.42448 12.2463 5.29326 11.7297 5.12924C11.4836 5.04489 11.2376 4.95116 11.1843 4.91367C11.0449 4.81057 10.9998 4.64187 11.0695 4.45442C11.1433 4.25759 11.3155 4.17324 11.6067 4.20136C11.8568 4.22479 11.9757 4.31851 12.0618 4.54814C12.1356 4.74497 12.2258 4.81995 12.394 4.81995C12.7548 4.81995 12.7917 4.31383 12.4678 3.87332C12.353 3.71867 12.0126 3.48904 11.8937 3.48904C11.8445 3.48904 11.8322 3.4328 11.8322 3.23598C11.8322 2.89857 11.7256 2.73923 11.5042 2.73923C11.3811 2.73923 11.3278 2.76735 11.2622 2.86108Z"/>
</mask>
<path d="M11.2622 2.86108C11.2007 2.95012 11.1761 3.05321 11.1761 3.22661C11.1761 3.46561 11.172 3.47029 11.0285 3.53122C10.4831 3.75616 10.2248 4.54345 10.4995 5.11987C10.6758 5.49009 10.9629 5.68691 11.578 5.85562C11.947 5.95871 12.0782 6.0665 12.0782 6.27738C12.0782 6.52576 11.8896 6.67572 11.5903 6.67572C11.3155 6.67572 11.1228 6.55856 10.9916 6.3055C10.7743 5.88842 10.5897 5.79001 10.3806 5.97746C10.0977 6.23052 10.4421 6.98033 10.9834 7.28025L11.1761 7.38803V7.63641C11.1761 7.96445 11.295 8.14721 11.5083 8.13784C11.7092 8.13315 11.8322 7.95507 11.8322 7.66921V7.44427L12.0987 7.31305C12.394 7.16778 12.6195 6.91472 12.6974 6.64291C12.7753 6.37111 12.7261 5.92122 12.599 5.69628C12.4391 5.42448 12.2463 5.29326 11.7297 5.12924C11.4836 5.04489 11.2376 4.95116 11.1843 4.91367C11.0449 4.81057 10.9998 4.64187 11.0695 4.45442C11.1433 4.25759 11.3155 4.17324 11.6067 4.20136C11.8568 4.22479 11.9757 4.31851 12.0618 4.54814C12.1356 4.74497 12.2258 4.81995 12.394 4.81995C12.7548 4.81995 12.7917 4.31383 12.4678 3.87332C12.353 3.71867 12.0126 3.48904 11.8937 3.48904C11.8445 3.48904 11.8322 3.4328 11.8322 3.23598C11.8322 2.89857 11.7256 2.73923 11.5042 2.73923C11.3811 2.73923 11.3278 2.76735 11.2622 2.86108Z" fill="black"/>
<path d="M11.2622 2.86108C11.2007 2.95012 11.1761 3.05321 11.1761 3.22661C11.1761 3.46561 11.172 3.47029 11.0285 3.53122C10.4831 3.75616 10.2248 4.54345 10.4995 5.11987C10.6758 5.49009 10.9629 5.68691 11.578 5.85562C11.947 5.95871 12.0782 6.0665 12.0782 6.27738C12.0782 6.52576 11.8896 6.67572 11.5903 6.67572C11.3155 6.67572 11.1228 6.55856 10.9916 6.3055C10.7743 5.88842 10.5897 5.79001 10.3806 5.97746C10.0977 6.23052 10.4421 6.98033 10.9834 7.28025L11.1761 7.38803V7.63641C11.1761 7.96445 11.295 8.14721 11.5083 8.13784C11.7092 8.13315 11.8322 7.95507 11.8322 7.66921V7.44427L12.0987 7.31305C12.394 7.16778 12.6195 6.91472 12.6974 6.64291C12.7753 6.37111 12.7261 5.92122 12.599 5.69628C12.4391 5.42448 12.2463 5.29326 11.7297 5.12924C11.4836 5.04489 11.2376 4.95116 11.1843 4.91367C11.0449 4.81057 10.9998 4.64187 11.0695 4.45442C11.1433 4.25759 11.3155 4.17324 11.6067 4.20136C11.8568 4.22479 11.9757 4.31851 12.0618 4.54814C12.1356 4.74497 12.2258 4.81995 12.394 4.81995C12.7548 4.81995 12.7917 4.31383 12.4678 3.87332C12.353 3.71867 12.0126 3.48904 11.8937 3.48904C11.8445 3.48904 11.8322 3.4328 11.8322 3.23598C11.8322 2.89857 11.7256 2.73923 11.5042 2.73923C11.3811 2.73923 11.3278 2.76735 11.2622 2.86108Z" stroke="black" stroke-width="0.8" mask="url(#path-2-outside-2_272_162)"/>
<mask id="path-3-outside-3_272_162" maskUnits="userSpaceOnUse" x="2.23438" y="8.39014" width="7" height="8" fill="black">
<rect fill="white" x="2.23438" y="8.39014" width="7" height="8"/>
<path d="M5.08699 9.7774C3.73792 10.2179 2.94652 11.8159 3.33197 13.3109C3.67641 14.6558 4.90246 15.5743 6.06701 15.3588C6.65748 15.251 7.08803 15.0026 7.50628 14.5246C7.96554 13.9997 8.22387 13.2874 8.22387 12.5236C8.22387 11.4457 7.6703 10.4382 6.8297 9.97891C6.63698 9.87581 6.38275 9.76802 6.26383 9.73991C5.94399 9.66493 5.37402 9.68367 5.08699 9.7774ZM6.50576 10.6303C6.91171 10.8506 7.20285 11.188 7.39147 11.6425C7.81792 12.6595 7.44888 13.892 6.56727 14.4075C5.46013 15.0542 4.11927 14.2622 3.91424 12.8375C3.79943 12.0502 4.13567 11.2067 4.74254 10.7615C5.07468 10.5178 5.35762 10.4382 5.80457 10.4522C6.15312 10.4616 6.22693 10.4803 6.50576 10.6303Z"/>
</mask>
<path d="M5.08699 9.7774C3.73792 10.2179 2.94652 11.8159 3.33197 13.3109C3.67641 14.6558 4.90246 15.5743 6.06701 15.3588C6.65748 15.251 7.08803 15.0026 7.50628 14.5246C7.96554 13.9997 8.22387 13.2874 8.22387 12.5236C8.22387 11.4457 7.6703 10.4382 6.8297 9.97891C6.63698 9.87581 6.38275 9.76802 6.26383 9.73991C5.94399 9.66493 5.37402 9.68367 5.08699 9.7774ZM6.50576 10.6303C6.91171 10.8506 7.20285 11.188 7.39147 11.6425C7.81792 12.6595 7.44888 13.892 6.56727 14.4075C5.46013 15.0542 4.11927 14.2622 3.91424 12.8375C3.79943 12.0502 4.13567 11.2067 4.74254 10.7615C5.07468 10.5178 5.35762 10.4382 5.80457 10.4522C6.15312 10.4616 6.22693 10.4803 6.50576 10.6303Z" fill="black"/>
<path d="M5.08699 9.7774C3.73792 10.2179 2.94652 11.8159 3.33197 13.3109C3.67641 14.6558 4.90246 15.5743 6.06701 15.3588C6.65748 15.251 7.08803 15.0026 7.50628 14.5246C7.96554 13.9997 8.22387 13.2874 8.22387 12.5236C8.22387 11.4457 7.6703 10.4382 6.8297 9.97891C6.63698 9.87581 6.38275 9.76802 6.26383 9.73991C5.94399 9.66493 5.37402 9.68367 5.08699 9.7774ZM6.50576 10.6303C6.91171 10.8506 7.20285 11.188 7.39147 11.6425C7.81792 12.6595 7.44888 13.892 6.56727 14.4075C5.46013 15.0542 4.11927 14.2622 3.91424 12.8375C3.79943 12.0502 4.13567 11.2067 4.74254 10.7615C5.07468 10.5178 5.35762 10.4382 5.80457 10.4522C6.15312 10.4616 6.22693 10.4803 6.50576 10.6303Z" stroke="black" stroke-width="0.8" mask="url(#path-3-outside-3_272_162)"/>
<mask id="path-4-outside-4_272_162" maskUnits="userSpaceOnUse" x="13.7842" y="8.37598" width="7" height="8" fill="black">
<rect fill="white" x="13.7842" y="8.37598" width="7" height="8"/>
<path d="M16.6786 9.75407C15.9979 9.94621 15.3418 10.5554 15.0384 11.2818C14.8457 11.7504 14.7842 12.0457 14.7842 12.5377C14.7883 13.8593 15.5756 14.9933 16.7114 15.3167C17.0231 15.4057 17.6176 15.3917 17.9211 15.2933C18.7658 15.0121 19.4424 14.2389 19.6884 13.2735C19.7745 12.9267 19.7868 12.2472 19.7089 11.891C19.4834 10.846 18.7822 10.0306 17.876 9.76344C17.5766 9.6744 16.9862 9.66972 16.6786 9.75407ZM17.8145 10.5273C18.815 10.8835 19.348 12.0972 19.0036 13.2407C18.9216 13.5172 18.815 13.7046 18.6017 13.967C17.7857 14.9652 16.3793 14.8153 15.7273 13.6624C15.5141 13.2875 15.4239 12.8845 15.4485 12.3925C15.4895 11.5114 15.9979 10.7851 16.7729 10.5039C17.0231 10.4148 17.5274 10.4242 17.8145 10.5273Z"/>
</mask>
<path d="M16.6786 9.75407C15.9979 9.94621 15.3418 10.5554 15.0384 11.2818C14.8457 11.7504 14.7842 12.0457 14.7842 12.5377C14.7883 13.8593 15.5756 14.9933 16.7114 15.3167C17.0231 15.4057 17.6176 15.3917 17.9211 15.2933C18.7658 15.0121 19.4424 14.2389 19.6884 13.2735C19.7745 12.9267 19.7868 12.2472 19.7089 11.891C19.4834 10.846 18.7822 10.0306 17.876 9.76344C17.5766 9.6744 16.9862 9.66972 16.6786 9.75407ZM17.8145 10.5273C18.815 10.8835 19.348 12.0972 19.0036 13.2407C18.9216 13.5172 18.815 13.7046 18.6017 13.967C17.7857 14.9652 16.3793 14.8153 15.7273 13.6624C15.5141 13.2875 15.4239 12.8845 15.4485 12.3925C15.4895 11.5114 15.9979 10.7851 16.7729 10.5039C17.0231 10.4148 17.5274 10.4242 17.8145 10.5273Z" fill="black"/>
<path d="M16.6786 9.75407C15.9979 9.94621 15.3418 10.5554 15.0384 11.2818C14.8457 11.7504 14.7842 12.0457 14.7842 12.5377C14.7883 13.8593 15.5756 14.9933 16.7114 15.3167C17.0231 15.4057 17.6176 15.3917 17.9211 15.2933C18.7658 15.0121 19.4424 14.2389 19.6884 13.2735C19.7745 12.9267 19.7868 12.2472 19.7089 11.891C19.4834 10.846 18.7822 10.0306 17.876 9.76344C17.5766 9.6744 16.9862 9.66972 16.6786 9.75407ZM17.8145 10.5273C18.815 10.8835 19.348 12.0972 19.0036 13.2407C18.9216 13.5172 18.815 13.7046 18.6017 13.967C17.7857 14.9652 16.3793 14.8153 15.7273 13.6624C15.5141 13.2875 15.4239 12.8845 15.4485 12.3925C15.4895 11.5114 15.9979 10.7851 16.7729 10.5039C17.0231 10.4148 17.5274 10.4242 17.8145 10.5273Z" stroke="black" stroke-width="0.8" mask="url(#path-4-outside-4_272_162)"/>
<mask id="path-5-outside-5_272_162" maskUnits="userSpaceOnUse" x="8.00244" y="9.59961" width="7" height="8" fill="black">
<rect fill="white" x="8.00244" y="9.59961" width="7" height="8"/>
<path d="M10.8887 10.9819C9.79385 11.3053 8.99836 12.4815 9.00246 13.7609C9.00656 14.9653 9.72825 16.0853 10.7452 16.4696C11.2126 16.643 11.7949 16.643 12.2624 16.4696C13.1071 16.1509 13.7672 15.3167 13.9477 14.3279C14.2183 12.8611 13.3859 11.3474 12.0983 10.9772C11.7949 10.8882 11.188 10.8929 10.8887 10.9819ZM11.9794 11.7224C12.5986 11.9098 13.1235 12.5143 13.2834 13.2267C13.6155 14.67 12.5043 16.0759 11.229 15.8322C9.94557 15.5839 9.26899 13.9811 9.90457 12.7112C10.0399 12.4394 10.3925 12.041 10.6058 11.9145C11.0117 11.6661 11.5571 11.5911 11.9794 11.7224Z"/>
</mask>
<path d="M10.8887 10.9819C9.79385 11.3053 8.99836 12.4815 9.00246 13.7609C9.00656 14.9653 9.72825 16.0853 10.7452 16.4696C11.2126 16.643 11.7949 16.643 12.2624 16.4696C13.1071 16.1509 13.7672 15.3167 13.9477 14.3279C14.2183 12.8611 13.3859 11.3474 12.0983 10.9772C11.7949 10.8882 11.188 10.8929 10.8887 10.9819ZM11.9794 11.7224C12.5986 11.9098 13.1235 12.5143 13.2834 13.2267C13.6155 14.67 12.5043 16.0759 11.229 15.8322C9.94557 15.5839 9.26899 13.9811 9.90457 12.7112C10.0399 12.4394 10.3925 12.041 10.6058 11.9145C11.0117 11.6661 11.5571 11.5911 11.9794 11.7224Z" fill="black"/>
<path d="M10.8887 10.9819C9.79385 11.3053 8.99836 12.4815 9.00246 13.7609C9.00656 14.9653 9.72825 16.0853 10.7452 16.4696C11.2126 16.643 11.7949 16.643 12.2624 16.4696C13.1071 16.1509 13.7672 15.3167 13.9477 14.3279C14.2183 12.8611 13.3859 11.3474 12.0983 10.9772C11.7949 10.8882 11.188 10.8929 10.8887 10.9819ZM11.9794 11.7224C12.5986 11.9098 13.1235 12.5143 13.2834 13.2267C13.6155 14.67 12.5043 16.0759 11.229 15.8322C9.94557 15.5839 9.26899 13.9811 9.90457 12.7112C10.0399 12.4394 10.3925 12.041 10.6058 11.9145C11.0117 11.6661 11.5571 11.5911 11.9794 11.7224Z" stroke="black" stroke-width="0.8" mask="url(#path-5-outside-5_272_162)"/>
<mask id="path-6-outside-6_272_162" maskUnits="userSpaceOnUse" x="0" y="14.8955" width="23" height="11" fill="black">
<rect fill="white" y="14.8955" width="23" height="11"/>
<path d="M3.8485 15.9869C2.43793 16.2915 1.3677 17.4677 1.08476 19.033C0.978148 19.6187 0.969947 21.99 1.07246 22.393C1.20368 22.8991 1.52352 23.3256 1.94587 23.5552L2.1755 23.6771L4.51278 23.6911L6.85007 23.7052L6.96899 23.9582C7.1125 24.2769 7.42004 24.6096 7.72348 24.769L7.95721 24.8955H11.5041H15.0511L15.2848 24.769C15.5882 24.6096 15.8958 24.2769 16.0393 23.9582L16.1582 23.7052L18.4955 23.6911C20.8287 23.6771 20.8328 23.6771 21.0337 23.5693C21.4848 23.335 21.8251 22.8757 21.9399 22.3509C22.0383 21.9103 22.0096 19.3235 21.8989 18.8736C21.5627 17.4724 20.6647 16.4461 19.4386 16.0525C19.1229 15.9494 19.0491 15.9447 17.3064 15.9447C15.3504 15.9447 15.2725 15.9541 14.7025 16.2118C14.3499 16.3711 13.8086 16.7695 13.5831 17.0319C13.4314 17.2147 13.4273 17.2147 13.2141 17.1819C12.9352 17.135 10.0731 17.135 9.79423 17.1819C9.58101 17.2147 9.57691 17.2147 9.42519 17.0319C9.08075 16.6289 8.40416 16.1978 7.84649 16.029C7.49385 15.9259 4.30776 15.8931 3.8485 15.9869ZM7.53486 16.7367C7.9244 16.821 8.27295 16.985 8.58868 17.2287C8.724 17.3365 8.83882 17.4349 8.83882 17.4443C8.83882 17.4584 8.7322 17.5287 8.59689 17.6036C7.85059 18.0348 7.24372 18.8596 6.94848 19.8437L6.81317 20.3029L6.79676 21.6245L6.78036 22.9507H4.58249C2.10169 22.9507 2.196 22.9601 1.90076 22.5852C1.67113 22.2899 1.65473 22.1681 1.67113 20.6122L1.68343 19.2251L1.81055 18.8221C2.16729 17.6786 3.0284 16.8679 4.06173 16.7039C4.13144 16.6945 4.86953 16.6804 5.71013 16.6758C6.87467 16.6711 7.30523 16.6851 7.53486 16.7367ZM19.3156 16.7835C20.2054 17.0835 20.8984 17.8426 21.2141 18.8689C21.3208 19.2204 21.3249 19.2485 21.3372 20.6122C21.3536 22.1681 21.3413 22.2899 21.1075 22.5852C20.8123 22.9601 20.9066 22.9507 18.4258 22.9507H16.2279L16.2115 21.6245L16.1951 20.3029L16.0598 19.8437C15.7646 18.8596 15.1577 18.0348 14.4073 17.6036C14.2761 17.5287 14.1777 17.4443 14.19 17.4256C14.2351 17.3365 14.6779 17.0319 14.9199 16.9194C15.4119 16.6898 15.58 16.6758 17.3884 16.6898C18.8481 16.6992 19.1024 16.7132 19.3156 16.7835ZM13.5339 18.002C14.272 18.2503 14.9486 18.883 15.2684 19.6234C15.539 20.2608 15.5636 20.4388 15.5636 21.9947V23.3631L15.4488 23.6115C15.3791 23.7708 15.2684 23.9161 15.1577 24.0051L14.9814 24.1457L11.5944 24.1598C9.18326 24.1691 8.15813 24.1598 8.04742 24.1223C7.83829 24.052 7.55946 23.7286 7.49385 23.4849C7.41594 23.185 7.42824 20.7247 7.50615 20.3264C7.76038 19.0892 8.7035 18.1144 9.84344 17.9223C9.91315 17.9082 10.7127 17.9036 11.6272 17.9082C13.0705 17.9176 13.3207 17.9317 13.5339 18.002Z"/>
</mask>
<path d="M3.8485 15.9869C2.43793 16.2915 1.3677 17.4677 1.08476 19.033C0.978148 19.6187 0.969947 21.99 1.07246 22.393C1.20368 22.8991 1.52352 23.3256 1.94587 23.5552L2.1755 23.6771L4.51278 23.6911L6.85007 23.7052L6.96899 23.9582C7.1125 24.2769 7.42004 24.6096 7.72348 24.769L7.95721 24.8955H11.5041H15.0511L15.2848 24.769C15.5882 24.6096 15.8958 24.2769 16.0393 23.9582L16.1582 23.7052L18.4955 23.6911C20.8287 23.6771 20.8328 23.6771 21.0337 23.5693C21.4848 23.335 21.8251 22.8757 21.9399 22.3509C22.0383 21.9103 22.0096 19.3235 21.8989 18.8736C21.5627 17.4724 20.6647 16.4461 19.4386 16.0525C19.1229 15.9494 19.0491 15.9447 17.3064 15.9447C15.3504 15.9447 15.2725 15.9541 14.7025 16.2118C14.3499 16.3711 13.8086 16.7695 13.5831 17.0319C13.4314 17.2147 13.4273 17.2147 13.2141 17.1819C12.9352 17.135 10.0731 17.135 9.79423 17.1819C9.58101 17.2147 9.57691 17.2147 9.42519 17.0319C9.08075 16.6289 8.40416 16.1978 7.84649 16.029C7.49385 15.9259 4.30776 15.8931 3.8485 15.9869ZM7.53486 16.7367C7.9244 16.821 8.27295 16.985 8.58868 17.2287C8.724 17.3365 8.83882 17.4349 8.83882 17.4443C8.83882 17.4584 8.7322 17.5287 8.59689 17.6036C7.85059 18.0348 7.24372 18.8596 6.94848 19.8437L6.81317 20.3029L6.79676 21.6245L6.78036 22.9507H4.58249C2.10169 22.9507 2.196 22.9601 1.90076 22.5852C1.67113 22.2899 1.65473 22.1681 1.67113 20.6122L1.68343 19.2251L1.81055 18.8221C2.16729 17.6786 3.0284 16.8679 4.06173 16.7039C4.13144 16.6945 4.86953 16.6804 5.71013 16.6758C6.87467 16.6711 7.30523 16.6851 7.53486 16.7367ZM19.3156 16.7835C20.2054 17.0835 20.8984 17.8426 21.2141 18.8689C21.3208 19.2204 21.3249 19.2485 21.3372 20.6122C21.3536 22.1681 21.3413 22.2899 21.1075 22.5852C20.8123 22.9601 20.9066 22.9507 18.4258 22.9507H16.2279L16.2115 21.6245L16.1951 20.3029L16.0598 19.8437C15.7646 18.8596 15.1577 18.0348 14.4073 17.6036C14.2761 17.5287 14.1777 17.4443 14.19 17.4256C14.2351 17.3365 14.6779 17.0319 14.9199 16.9194C15.4119 16.6898 15.58 16.6758 17.3884 16.6898C18.8481 16.6992 19.1024 16.7132 19.3156 16.7835ZM13.5339 18.002C14.272 18.2503 14.9486 18.883 15.2684 19.6234C15.539 20.2608 15.5636 20.4388 15.5636 21.9947V23.3631L15.4488 23.6115C15.3791 23.7708 15.2684 23.9161 15.1577 24.0051L14.9814 24.1457L11.5944 24.1598C9.18326 24.1691 8.15813 24.1598 8.04742 24.1223C7.83829 24.052 7.55946 23.7286 7.49385 23.4849C7.41594 23.185 7.42824 20.7247 7.50615 20.3264C7.76038 19.0892 8.7035 18.1144 9.84344 17.9223C9.91315 17.9082 10.7127 17.9036 11.6272 17.9082C13.0705 17.9176 13.3207 17.9317 13.5339 18.002Z" fill="black"/>
<path d="M3.8485 15.9869C2.43793 16.2915 1.3677 17.4677 1.08476 19.033C0.978148 19.6187 0.969947 21.99 1.07246 22.393C1.20368 22.8991 1.52352 23.3256 1.94587 23.5552L2.1755 23.6771L4.51278 23.6911L6.85007 23.7052L6.96899 23.9582C7.1125 24.2769 7.42004 24.6096 7.72348 24.769L7.95721 24.8955H11.5041H15.0511L15.2848 24.769C15.5882 24.6096 15.8958 24.2769 16.0393 23.9582L16.1582 23.7052L18.4955 23.6911C20.8287 23.6771 20.8328 23.6771 21.0337 23.5693C21.4848 23.335 21.8251 22.8757 21.9399 22.3509C22.0383 21.9103 22.0096 19.3235 21.8989 18.8736C21.5627 17.4724 20.6647 16.4461 19.4386 16.0525C19.1229 15.9494 19.0491 15.9447 17.3064 15.9447C15.3504 15.9447 15.2725 15.9541 14.7025 16.2118C14.3499 16.3711 13.8086 16.7695 13.5831 17.0319C13.4314 17.2147 13.4273 17.2147 13.2141 17.1819C12.9352 17.135 10.0731 17.135 9.79423 17.1819C9.58101 17.2147 9.57691 17.2147 9.42519 17.0319C9.08075 16.6289 8.40416 16.1978 7.84649 16.029C7.49385 15.9259 4.30776 15.8931 3.8485 15.9869ZM7.53486 16.7367C7.9244 16.821 8.27295 16.985 8.58868 17.2287C8.724 17.3365 8.83882 17.4349 8.83882 17.4443C8.83882 17.4584 8.7322 17.5287 8.59689 17.6036C7.85059 18.0348 7.24372 18.8596 6.94848 19.8437L6.81317 20.3029L6.79676 21.6245L6.78036 22.9507H4.58249C2.10169 22.9507 2.196 22.9601 1.90076 22.5852C1.67113 22.2899 1.65473 22.1681 1.67113 20.6122L1.68343 19.2251L1.81055 18.8221C2.16729 17.6786 3.0284 16.8679 4.06173 16.7039C4.13144 16.6945 4.86953 16.6804 5.71013 16.6758C6.87467 16.6711 7.30523 16.6851 7.53486 16.7367ZM19.3156 16.7835C20.2054 17.0835 20.8984 17.8426 21.2141 18.8689C21.3208 19.2204 21.3249 19.2485 21.3372 20.6122C21.3536 22.1681 21.3413 22.2899 21.1075 22.5852C20.8123 22.9601 20.9066 22.9507 18.4258 22.9507H16.2279L16.2115 21.6245L16.1951 20.3029L16.0598 19.8437C15.7646 18.8596 15.1577 18.0348 14.4073 17.6036C14.2761 17.5287 14.1777 17.4443 14.19 17.4256C14.2351 17.3365 14.6779 17.0319 14.9199 16.9194C15.4119 16.6898 15.58 16.6758 17.3884 16.6898C18.8481 16.6992 19.1024 16.7132 19.3156 16.7835ZM13.5339 18.002C14.272 18.2503 14.9486 18.883 15.2684 19.6234C15.539 20.2608 15.5636 20.4388 15.5636 21.9947V23.3631L15.4488 23.6115C15.3791 23.7708 15.2684 23.9161 15.1577 24.0051L14.9814 24.1457L11.5944 24.1598C9.18326 24.1691 8.15813 24.1598 8.04742 24.1223C7.83829 24.052 7.55946 23.7286 7.49385 23.4849C7.41594 23.185 7.42824 20.7247 7.50615 20.3264C7.76038 19.0892 8.7035 18.1144 9.84344 17.9223C9.91315 17.9082 10.7127 17.9036 11.6272 17.9082C13.0705 17.9176 13.3207 17.9317 13.5339 18.002Z" stroke="black" stroke-width="0.8" mask="url(#path-6-outside-6_272_162)"/>
</svg>
