<svg width="26" height="25" viewBox="0 0 26 25" fill="none" xmlns="http://www.w3.org/2000/svg">
<mask id="path-1-outside-1_123_189" maskUnits="userSpaceOnUse" x="0" y="-0.508179" width="26" height="26" fill="black">
<rect fill="white" y="-0.508179" width="26" height="26"/>
<path d="M7.02344 4.04555C3.80313 5.98992 1.12656 7.62506 1.08438 7.67659C1.00938 7.76561 1 7.89211 1 8.82916V9.87864L1.11719 9.99109C1.2625 10.141 1.38438 10.1363 1.64219 9.99109L1.84375 9.86927V16.958C1.84375 21.3574 1.8625 24.1076 1.89063 24.206C1.91406 24.2904 1.97031 24.3887 2.01719 24.4262C2.0875 24.4778 3.97188 24.4871 13.4359 24.4918H24.7703L24.8828 24.3747L25 24.2622V21.7978V19.3334L24.8828 19.221C24.7844 19.1179 24.7281 19.1038 24.4609 19.1038H24.1563V14.4889V9.86927L24.3578 9.99109C24.6156 10.1363 24.7375 10.141 24.8828 9.99109L25 9.87864V8.82447C25 7.79841 24.9953 7.7703 24.8969 7.65785C24.8359 7.59226 22.975 6.44907 20.7578 5.11847C18.5406 3.78318 15.9109 2.19958 14.9172 1.59519C13.8625 0.962685 13.0563 0.503534 12.9953 0.508219C12.9344 0.508219 10.2484 2.10119 7.02344 4.04555ZM18.6672 4.68274C21.7516 6.54277 24.2781 8.06547 24.2875 8.07015C24.2922 8.07484 24.2922 8.31378 24.2875 8.59958L24.2734 9.11495L23.0078 8.35595C21.4 7.38611 15.2406 3.67074 14.0172 2.93047C13.2859 2.48538 13.0609 2.37293 12.9625 2.38699C12.8922 2.40104 10.3375 3.91905 7.28125 5.76503L1.72656 9.11964L1.7125 8.5949C1.70781 8.3091 1.71719 8.06547 1.73594 8.0561C1.75469 8.05141 4.28125 6.52872 7.35156 4.67337C10.4219 2.82271 12.9578 1.30471 12.9953 1.30002C13.0281 1.30002 15.5828 2.82271 18.6672 4.68274ZM18.2313 6.29446L23.4063 9.41949V14.2593V19.1038H22.6797H21.9531V16.8784V14.6482L21.8359 14.5357C21.7281 14.4233 21.7 14.4186 21.0625 14.4186H20.4063V13.3644V12.3103H20.7484C21.1328 12.3056 21.2313 12.254 21.2969 12.0245C21.3578 11.8183 21.3578 10.6939 21.2969 10.4877C21.2125 10.1832 21.8594 10.2066 13 10.2066C4.14063 10.2066 4.7875 10.1832 4.70313 10.4877C4.64219 10.6939 4.64219 11.8183 4.70313 12.0245C4.76875 12.254 4.86719 12.3056 5.25625 12.3103H5.59375V18.0497V23.789H4.09375H2.59375V16.6066V9.41949L7.76406 6.29914C10.6047 4.58435 12.9578 3.17879 12.9953 3.1741C13.0281 3.1741 15.3859 4.57967 18.2313 6.29446ZM20.5938 11.2561V11.6075H13H5.40625V11.2561V10.9047H13H20.5938V11.2561ZM19.6563 13.3644V14.4186H17.5234H15.3859L15.2734 14.5357L15.1563 14.6482V16.8784V19.1038H13.75H12.3391L12.2266 19.221L12.1094 19.3334V21.5636V23.789H9.22656H6.34375V18.0497V12.3103H13H19.6563V13.3644ZM17.2656 15.707C17.2656 16.2693 17.2703 16.3021 17.3828 16.4098L17.4953 16.527H18.5547H19.6141L19.7266 16.4098C19.8391 16.3021 19.8438 16.2693 19.8438 15.707V15.1214H20.5469H21.25V17.1126V19.1038H18.5547H15.8594V17.1126V15.1214H16.5625H17.2656V15.707ZM19.1406 15.4728V15.8242H18.5547H17.9688V15.4728V15.1214H18.5547H19.1406V15.4728ZM14.2188 20.3923C14.2188 20.9545 14.2234 20.9873 14.3359 21.095L14.4484 21.2122H15.5078H16.5672L16.6797 21.095C16.7922 20.9873 16.7969 20.9545 16.7969 20.3923V19.8066H17.5H18.2031V21.7978V23.789H15.5078H12.8125V21.7978V19.8066H13.5156H14.2188V20.3923ZM16.0938 20.158V20.5094H15.5078H14.9219V20.158V19.8066H15.5078H16.0938V20.158ZM20.3125 20.3923C20.3125 20.9545 20.3172 20.9873 20.4297 21.095L20.5422 21.2122H21.6016H22.6609L22.7734 21.095C22.8859 20.9873 22.8906 20.9545 22.8906 20.3923V19.8066H23.5938H24.2969V21.7978V23.789H21.6016H18.9063V21.7978V19.8066H19.6094H20.3125V20.3923ZM22.1875 20.158V20.5094H21.6016H21.0156V20.158V19.8066H21.6016H22.1875V20.158Z"/>
</mask>
<path d="M7.02344 4.04555C3.80313 5.98992 1.12656 7.62506 1.08438 7.67659C1.00938 7.76561 1 7.89211 1 8.82916V9.87864L1.11719 9.99109C1.2625 10.141 1.38438 10.1363 1.64219 9.99109L1.84375 9.86927V16.958C1.84375 21.3574 1.8625 24.1076 1.89063 24.206C1.91406 24.2904 1.97031 24.3887 2.01719 24.4262C2.0875 24.4778 3.97188 24.4871 13.4359 24.4918H24.7703L24.8828 24.3747L25 24.2622V21.7978V19.3334L24.8828 19.221C24.7844 19.1179 24.7281 19.1038 24.4609 19.1038H24.1563V14.4889V9.86927L24.3578 9.99109C24.6156 10.1363 24.7375 10.141 24.8828 9.99109L25 9.87864V8.82447C25 7.79841 24.9953 7.7703 24.8969 7.65785C24.8359 7.59226 22.975 6.44907 20.7578 5.11847C18.5406 3.78318 15.9109 2.19958 14.9172 1.59519C13.8625 0.962685 13.0563 0.503534 12.9953 0.508219C12.9344 0.508219 10.2484 2.10119 7.02344 4.04555ZM18.6672 4.68274C21.7516 6.54277 24.2781 8.06547 24.2875 8.07015C24.2922 8.07484 24.2922 8.31378 24.2875 8.59958L24.2734 9.11495L23.0078 8.35595C21.4 7.38611 15.2406 3.67074 14.0172 2.93047C13.2859 2.48538 13.0609 2.37293 12.9625 2.38699C12.8922 2.40104 10.3375 3.91905 7.28125 5.76503L1.72656 9.11964L1.7125 8.5949C1.70781 8.3091 1.71719 8.06547 1.73594 8.0561C1.75469 8.05141 4.28125 6.52872 7.35156 4.67337C10.4219 2.82271 12.9578 1.30471 12.9953 1.30002C13.0281 1.30002 15.5828 2.82271 18.6672 4.68274ZM18.2313 6.29446L23.4063 9.41949V14.2593V19.1038H22.6797H21.9531V16.8784V14.6482L21.8359 14.5357C21.7281 14.4233 21.7 14.4186 21.0625 14.4186H20.4063V13.3644V12.3103H20.7484C21.1328 12.3056 21.2313 12.254 21.2969 12.0245C21.3578 11.8183 21.3578 10.6939 21.2969 10.4877C21.2125 10.1832 21.8594 10.2066 13 10.2066C4.14063 10.2066 4.7875 10.1832 4.70313 10.4877C4.64219 10.6939 4.64219 11.8183 4.70313 12.0245C4.76875 12.254 4.86719 12.3056 5.25625 12.3103H5.59375V18.0497V23.789H4.09375H2.59375V16.6066V9.41949L7.76406 6.29914C10.6047 4.58435 12.9578 3.17879 12.9953 3.1741C13.0281 3.1741 15.3859 4.57967 18.2313 6.29446ZM20.5938 11.2561V11.6075H13H5.40625V11.2561V10.9047H13H20.5938V11.2561ZM19.6563 13.3644V14.4186H17.5234H15.3859L15.2734 14.5357L15.1563 14.6482V16.8784V19.1038H13.75H12.3391L12.2266 19.221L12.1094 19.3334V21.5636V23.789H9.22656H6.34375V18.0497V12.3103H13H19.6563V13.3644ZM17.2656 15.707C17.2656 16.2693 17.2703 16.3021 17.3828 16.4098L17.4953 16.527H18.5547H19.6141L19.7266 16.4098C19.8391 16.3021 19.8438 16.2693 19.8438 15.707V15.1214H20.5469H21.25V17.1126V19.1038H18.5547H15.8594V17.1126V15.1214H16.5625H17.2656V15.707ZM19.1406 15.4728V15.8242H18.5547H17.9688V15.4728V15.1214H18.5547H19.1406V15.4728ZM14.2188 20.3923C14.2188 20.9545 14.2234 20.9873 14.3359 21.095L14.4484 21.2122H15.5078H16.5672L16.6797 21.095C16.7922 20.9873 16.7969 20.9545 16.7969 20.3923V19.8066H17.5H18.2031V21.7978V23.789H15.5078H12.8125V21.7978V19.8066H13.5156H14.2188V20.3923ZM16.0938 20.158V20.5094H15.5078H14.9219V20.158V19.8066H15.5078H16.0938V20.158ZM20.3125 20.3923C20.3125 20.9545 20.3172 20.9873 20.4297 21.095L20.5422 21.2122H21.6016H22.6609L22.7734 21.095C22.8859 20.9873 22.8906 20.9545 22.8906 20.3923V19.8066H23.5938H24.2969V21.7978V23.789H21.6016H18.9063V21.7978V19.8066H19.6094H20.3125V20.3923ZM22.1875 20.158V20.5094H21.6016H21.0156V20.158V19.8066H21.6016H22.1875V20.158Z" fill="black"/>
<path d="M7.02344 4.04555C3.80313 5.98992 1.12656 7.62506 1.08438 7.67659C1.00938 7.76561 1 7.89211 1 8.82916V9.87864L1.11719 9.99109C1.2625 10.141 1.38438 10.1363 1.64219 9.99109L1.84375 9.86927V16.958C1.84375 21.3574 1.8625 24.1076 1.89063 24.206C1.91406 24.2904 1.97031 24.3887 2.01719 24.4262C2.0875 24.4778 3.97188 24.4871 13.4359 24.4918H24.7703L24.8828 24.3747L25 24.2622V21.7978V19.3334L24.8828 19.221C24.7844 19.1179 24.7281 19.1038 24.4609 19.1038H24.1563V14.4889V9.86927L24.3578 9.99109C24.6156 10.1363 24.7375 10.141 24.8828 9.99109L25 9.87864V8.82447C25 7.79841 24.9953 7.7703 24.8969 7.65785C24.8359 7.59226 22.975 6.44907 20.7578 5.11847C18.5406 3.78318 15.9109 2.19958 14.9172 1.59519C13.8625 0.962685 13.0563 0.503534 12.9953 0.508219C12.9344 0.508219 10.2484 2.10119 7.02344 4.04555ZM18.6672 4.68274C21.7516 6.54277 24.2781 8.06547 24.2875 8.07015C24.2922 8.07484 24.2922 8.31378 24.2875 8.59958L24.2734 9.11495L23.0078 8.35595C21.4 7.38611 15.2406 3.67074 14.0172 2.93047C13.2859 2.48538 13.0609 2.37293 12.9625 2.38699C12.8922 2.40104 10.3375 3.91905 7.28125 5.76503L1.72656 9.11964L1.7125 8.5949C1.70781 8.3091 1.71719 8.06547 1.73594 8.0561C1.75469 8.05141 4.28125 6.52872 7.35156 4.67337C10.4219 2.82271 12.9578 1.30471 12.9953 1.30002C13.0281 1.30002 15.5828 2.82271 18.6672 4.68274ZM18.2313 6.29446L23.4063 9.41949V14.2593V19.1038H22.6797H21.9531V16.8784V14.6482L21.8359 14.5357C21.7281 14.4233 21.7 14.4186 21.0625 14.4186H20.4063V13.3644V12.3103H20.7484C21.1328 12.3056 21.2313 12.254 21.2969 12.0245C21.3578 11.8183 21.3578 10.6939 21.2969 10.4877C21.2125 10.1832 21.8594 10.2066 13 10.2066C4.14063 10.2066 4.7875 10.1832 4.70313 10.4877C4.64219 10.6939 4.64219 11.8183 4.70313 12.0245C4.76875 12.254 4.86719 12.3056 5.25625 12.3103H5.59375V18.0497V23.789H4.09375H2.59375V16.6066V9.41949L7.76406 6.29914C10.6047 4.58435 12.9578 3.17879 12.9953 3.1741C13.0281 3.1741 15.3859 4.57967 18.2313 6.29446ZM20.5938 11.2561V11.6075H13H5.40625V11.2561V10.9047H13H20.5938V11.2561ZM19.6563 13.3644V14.4186H17.5234H15.3859L15.2734 14.5357L15.1563 14.6482V16.8784V19.1038H13.75H12.3391L12.2266 19.221L12.1094 19.3334V21.5636V23.789H9.22656H6.34375V18.0497V12.3103H13H19.6563V13.3644ZM17.2656 15.707C17.2656 16.2693 17.2703 16.3021 17.3828 16.4098L17.4953 16.527H18.5547H19.6141L19.7266 16.4098C19.8391 16.3021 19.8438 16.2693 19.8438 15.707V15.1214H20.5469H21.25V17.1126V19.1038H18.5547H15.8594V17.1126V15.1214H16.5625H17.2656V15.707ZM19.1406 15.4728V15.8242H18.5547H17.9688V15.4728V15.1214H18.5547H19.1406V15.4728ZM14.2188 20.3923C14.2188 20.9545 14.2234 20.9873 14.3359 21.095L14.4484 21.2122H15.5078H16.5672L16.6797 21.095C16.7922 20.9873 16.7969 20.9545 16.7969 20.3923V19.8066H17.5H18.2031V21.7978V23.789H15.5078H12.8125V21.7978V19.8066H13.5156H14.2188V20.3923ZM16.0938 20.158V20.5094H15.5078H14.9219V20.158V19.8066H15.5078H16.0938V20.158ZM20.3125 20.3923C20.3125 20.9545 20.3172 20.9873 20.4297 21.095L20.5422 21.2122H21.6016H22.6609L22.7734 21.095C22.8859 20.9873 22.8906 20.9545 22.8906 20.3923V19.8066H23.5938H24.2969V21.7978V23.789H21.6016H18.9063V21.7978V19.8066H19.6094H20.3125V20.3923ZM22.1875 20.158V20.5094H21.6016H21.0156V20.158V19.8066H21.6016H22.1875V20.158Z" stroke="black" stroke-width="0.8" mask="url(#path-1-outside-1_123_189)"/>
<path d="M11.6137 10.6883L11.6137 10.6883L11.6172 10.6849C11.6355 10.6675 11.6646 10.6406 11.7079 10.617C11.7501 10.594 11.796 10.5794 11.8467 10.5689C11.9426 10.5491 12.086 10.5385 12.3165 10.5315C12.7828 10.5173 13.6665 10.5173 15.3901 10.5173H15.4001H15.4101C17.1337 10.5173 18.0173 10.5173 18.4837 10.5315C18.7142 10.5385 18.8576 10.5491 18.9535 10.5689C19.0042 10.5794 19.0501 10.594 19.0923 10.617C19.1356 10.6406 19.1647 10.6675 19.183 10.6849L19.183 10.6849L19.1865 10.6883C19.3043 10.8061 19.3688 10.9644 19.3688 11.139C19.3688 11.3136 19.3043 11.4719 19.1865 11.5897L19.1865 11.5897L19.183 11.5931C19.1647 11.6105 19.1356 11.6374 19.0923 11.661C19.0501 11.684 19.0042 11.6986 18.9535 11.7091C18.8576 11.7289 18.7142 11.7395 18.4837 11.7465C18.0173 11.7607 17.1337 11.7607 15.4101 11.7607H15.4001H15.3901C13.6665 11.7607 12.7828 11.7607 12.3165 11.7465C12.086 11.7395 11.9426 11.7289 11.8467 11.7091C11.796 11.6986 11.7501 11.684 11.7079 11.661C11.6646 11.6374 11.6355 11.6105 11.6172 11.5931L11.6172 11.5931L11.6137 11.5897C11.4959 11.4719 11.4313 11.3136 11.4313 11.139C11.4313 10.9644 11.4959 10.8061 11.6137 10.6883Z" fill="black" stroke="black" stroke-width="0.4"/>
</svg>
