<svg width="22" height="22" viewBox="0 0 22 22" fill="none" xmlns="http://www.w3.org/2000/svg">
<mask id="path-1-outside-1_389_215" maskUnits="userSpaceOnUse" x="0" y="-0.0136719" width="22" height="22" fill="black">
<rect fill="white" y="-0.0136719" width="22" height="22"/>
<path d="M6.01953 3.94777C3.33594 5.56807 1.10547 6.93069 1.07031 6.97364C1.00781 7.04782 1 7.15324 1 7.93411V8.80868L1.09766 8.90238C1.21875 9.02732 1.32031 9.02342 1.53516 8.90238L1.70312 8.80087V14.7081C1.70312 18.3743 1.71875 20.6662 1.74219 20.7482C1.76172 20.8184 1.80859 20.9004 1.84766 20.9317C1.90625 20.9746 3.47656 20.9824 11.3633 20.9863H20.8086L20.9023 20.8887L21 20.795V18.7413V16.6876L20.9023 16.5939C20.8203 16.508 20.7734 16.4963 20.5508 16.4963H20.2969V12.6506V8.80087L20.4648 8.90238C20.6797 9.02342 20.7812 9.02732 20.9023 8.90238L21 8.80868V7.9302C21 7.07515 20.9961 7.05173 20.9141 6.95802C20.8633 6.90336 19.3125 5.9507 17.4648 4.84187C15.6172 3.72913 13.4258 2.40946 12.5977 1.9058C11.7188 1.37871 11.0469 0.996088 10.9961 0.999992C10.9453 0.999992 8.70703 2.32747 6.01953 3.94777ZM15.7227 4.47876C18.293 6.02879 20.3984 7.2977 20.4062 7.3016C20.4102 7.30551 20.4102 7.50463 20.4062 7.74279L20.3945 8.17227L19.3398 7.53977C18 6.73157 12.8672 3.63542 11.8477 3.01854C11.2383 2.64763 11.0508 2.55392 10.9688 2.56563C10.9102 2.57735 8.78125 3.84235 6.23438 5.38067L1.60547 8.17618L1.59375 7.73889C1.58984 7.50072 1.59766 7.2977 1.61328 7.28989C1.62891 7.28599 3.73438 6.01707 6.29297 4.47095C8.85156 2.92874 10.9648 1.66373 10.9961 1.65983C11.0234 1.65983 13.1523 2.92874 15.7227 4.47876ZM15.3594 5.82186L19.6719 8.42605V12.4592V16.4963H19.0664H18.4609V14.6418V12.7833L18.3633 12.6896C18.2734 12.5959 18.25 12.592 17.7188 12.592H17.1719V11.7135V10.835H17.457C17.7773 10.8311 17.8594 10.7882 17.9141 10.5969C17.9648 10.4251 17.9648 9.48804 17.9141 9.31624C17.8438 9.06246 18.3828 9.08198 11 9.08198C3.61719 9.08198 4.15625 9.06246 4.08594 9.31624C4.03516 9.48804 4.03516 10.4251 4.08594 10.5969C4.14062 10.7882 4.22266 10.8311 4.54688 10.835H4.82812V15.6179V20.4007H3.57812H2.32812V14.4153V8.42605L6.63672 5.82576C9.00391 4.39677 10.9648 3.22547 10.9961 3.22156C11.0234 3.22156 12.9883 4.39287 15.3594 5.82186ZM17.3281 9.95656V10.2494H11H4.67188V9.95656V9.66373H11H17.3281V9.95656ZM16.5469 11.7135V12.592H14.7695H12.9883L12.8945 12.6896L12.7969 12.7833V14.6418V16.4963H11.625H10.4492L10.3555 16.5939L10.2578 16.6876V18.5461V20.4007H7.85547H5.45312V15.6179V10.835H11H16.5469V11.7135ZM14.5547 13.6657C14.5547 14.1342 14.5586 14.1615 14.6523 14.2513L14.7461 14.3489H15.6289H16.5117L16.6055 14.2513C16.6992 14.1615 16.7031 14.1342 16.7031 13.6657V13.1776H17.2891H17.875V14.837V16.4963H15.6289H13.3828V14.837V13.1776H13.9688H14.5547V13.6657ZM16.1172 13.4705V13.7633H15.6289H15.1406V13.4705V13.1776H15.6289H16.1172V13.4705ZM12.0156 17.57C12.0156 18.0385 12.0195 18.0659 12.1133 18.1557L12.207 18.2533H13.0898H13.9727L14.0664 18.1557C14.1602 18.0659 14.1641 18.0385 14.1641 17.57V17.082H14.75H15.3359V18.7413V20.4007H13.0898H10.8438V18.7413V17.082H11.4297H12.0156V17.57ZM13.5781 17.3748V17.6676H13.0898H12.6016V17.3748V17.082H13.0898H13.5781V17.3748ZM17.0938 17.57C17.0938 18.0385 17.0977 18.0659 17.1914 18.1557L17.2852 18.2533H18.168H19.0508L19.1445 18.1557C19.2383 18.0659 19.2422 18.0385 19.2422 17.57V17.082H19.8281H20.4141V18.7413V20.4007H18.168H15.9219V18.7413V17.082H16.5078H17.0938V17.57ZM18.6562 17.3748V17.6676H18.168H17.6797V17.3748V17.082H18.168H18.6562V17.3748Z"/>
</mask>
<path d="M6.01953 3.94777C3.33594 5.56807 1.10547 6.93069 1.07031 6.97364C1.00781 7.04782 1 7.15324 1 7.93411V8.80868L1.09766 8.90238C1.21875 9.02732 1.32031 9.02342 1.53516 8.90238L1.70312 8.80087V14.7081C1.70312 18.3743 1.71875 20.6662 1.74219 20.7482C1.76172 20.8184 1.80859 20.9004 1.84766 20.9317C1.90625 20.9746 3.47656 20.9824 11.3633 20.9863H20.8086L20.9023 20.8887L21 20.795V18.7413V16.6876L20.9023 16.5939C20.8203 16.508 20.7734 16.4963 20.5508 16.4963H20.2969V12.6506V8.80087L20.4648 8.90238C20.6797 9.02342 20.7812 9.02732 20.9023 8.90238L21 8.80868V7.9302C21 7.07515 20.9961 7.05173 20.9141 6.95802C20.8633 6.90336 19.3125 5.9507 17.4648 4.84187C15.6172 3.72913 13.4258 2.40946 12.5977 1.9058C11.7188 1.37871 11.0469 0.996088 10.9961 0.999992C10.9453 0.999992 8.70703 2.32747 6.01953 3.94777ZM15.7227 4.47876C18.293 6.02879 20.3984 7.2977 20.4062 7.3016C20.4102 7.30551 20.4102 7.50463 20.4062 7.74279L20.3945 8.17227L19.3398 7.53977C18 6.73157 12.8672 3.63542 11.8477 3.01854C11.2383 2.64763 11.0508 2.55392 10.9688 2.56563C10.9102 2.57735 8.78125 3.84235 6.23438 5.38067L1.60547 8.17618L1.59375 7.73889C1.58984 7.50072 1.59766 7.2977 1.61328 7.28989C1.62891 7.28599 3.73438 6.01707 6.29297 4.47095C8.85156 2.92874 10.9648 1.66373 10.9961 1.65983C11.0234 1.65983 13.1523 2.92874 15.7227 4.47876ZM15.3594 5.82186L19.6719 8.42605V12.4592V16.4963H19.0664H18.4609V14.6418V12.7833L18.3633 12.6896C18.2734 12.5959 18.25 12.592 17.7188 12.592H17.1719V11.7135V10.835H17.457C17.7773 10.8311 17.8594 10.7882 17.9141 10.5969C17.9648 10.4251 17.9648 9.48804 17.9141 9.31624C17.8438 9.06246 18.3828 9.08198 11 9.08198C3.61719 9.08198 4.15625 9.06246 4.08594 9.31624C4.03516 9.48804 4.03516 10.4251 4.08594 10.5969C4.14062 10.7882 4.22266 10.8311 4.54688 10.835H4.82812V15.6179V20.4007H3.57812H2.32812V14.4153V8.42605L6.63672 5.82576C9.00391 4.39677 10.9648 3.22547 10.9961 3.22156C11.0234 3.22156 12.9883 4.39287 15.3594 5.82186ZM17.3281 9.95656V10.2494H11H4.67188V9.95656V9.66373H11H17.3281V9.95656ZM16.5469 11.7135V12.592H14.7695H12.9883L12.8945 12.6896L12.7969 12.7833V14.6418V16.4963H11.625H10.4492L10.3555 16.5939L10.2578 16.6876V18.5461V20.4007H7.85547H5.45312V15.6179V10.835H11H16.5469V11.7135ZM14.5547 13.6657C14.5547 14.1342 14.5586 14.1615 14.6523 14.2513L14.7461 14.3489H15.6289H16.5117L16.6055 14.2513C16.6992 14.1615 16.7031 14.1342 16.7031 13.6657V13.1776H17.2891H17.875V14.837V16.4963H15.6289H13.3828V14.837V13.1776H13.9688H14.5547V13.6657ZM16.1172 13.4705V13.7633H15.6289H15.1406V13.4705V13.1776H15.6289H16.1172V13.4705ZM12.0156 17.57C12.0156 18.0385 12.0195 18.0659 12.1133 18.1557L12.207 18.2533H13.0898H13.9727L14.0664 18.1557C14.1602 18.0659 14.1641 18.0385 14.1641 17.57V17.082H14.75H15.3359V18.7413V20.4007H13.0898H10.8438V18.7413V17.082H11.4297H12.0156V17.57ZM13.5781 17.3748V17.6676H13.0898H12.6016V17.3748V17.082H13.0898H13.5781V17.3748ZM17.0938 17.57C17.0938 18.0385 17.0977 18.0659 17.1914 18.1557L17.2852 18.2533H18.168H19.0508L19.1445 18.1557C19.2383 18.0659 19.2422 18.0385 19.2422 17.57V17.082H19.8281H20.4141V18.7413V20.4007H18.168H15.9219V18.7413V17.082H16.5078H17.0938V17.57ZM18.6562 17.3748V17.6676H18.168H17.6797V17.3748V17.082H18.168H18.6562V17.3748Z" fill="white"/>
<path d="M6.01953 3.94777C3.33594 5.56807 1.10547 6.93069 1.07031 6.97364C1.00781 7.04782 1 7.15324 1 7.93411V8.80868L1.09766 8.90238C1.21875 9.02732 1.32031 9.02342 1.53516 8.90238L1.70312 8.80087V14.7081C1.70312 18.3743 1.71875 20.6662 1.74219 20.7482C1.76172 20.8184 1.80859 20.9004 1.84766 20.9317C1.90625 20.9746 3.47656 20.9824 11.3633 20.9863H20.8086L20.9023 20.8887L21 20.795V18.7413V16.6876L20.9023 16.5939C20.8203 16.508 20.7734 16.4963 20.5508 16.4963H20.2969V12.6506V8.80087L20.4648 8.90238C20.6797 9.02342 20.7812 9.02732 20.9023 8.90238L21 8.80868V7.9302C21 7.07515 20.9961 7.05173 20.9141 6.95802C20.8633 6.90336 19.3125 5.9507 17.4648 4.84187C15.6172 3.72913 13.4258 2.40946 12.5977 1.9058C11.7188 1.37871 11.0469 0.996088 10.9961 0.999992C10.9453 0.999992 8.70703 2.32747 6.01953 3.94777ZM15.7227 4.47876C18.293 6.02879 20.3984 7.2977 20.4062 7.3016C20.4102 7.30551 20.4102 7.50463 20.4062 7.74279L20.3945 8.17227L19.3398 7.53977C18 6.73157 12.8672 3.63542 11.8477 3.01854C11.2383 2.64763 11.0508 2.55392 10.9688 2.56563C10.9102 2.57735 8.78125 3.84235 6.23438 5.38067L1.60547 8.17618L1.59375 7.73889C1.58984 7.50072 1.59766 7.2977 1.61328 7.28989C1.62891 7.28599 3.73438 6.01707 6.29297 4.47095C8.85156 2.92874 10.9648 1.66373 10.9961 1.65983C11.0234 1.65983 13.1523 2.92874 15.7227 4.47876ZM15.3594 5.82186L19.6719 8.42605V12.4592V16.4963H19.0664H18.4609V14.6418V12.7833L18.3633 12.6896C18.2734 12.5959 18.25 12.592 17.7188 12.592H17.1719V11.7135V10.835H17.457C17.7773 10.8311 17.8594 10.7882 17.9141 10.5969C17.9648 10.4251 17.9648 9.48804 17.9141 9.31624C17.8438 9.06246 18.3828 9.08198 11 9.08198C3.61719 9.08198 4.15625 9.06246 4.08594 9.31624C4.03516 9.48804 4.03516 10.4251 4.08594 10.5969C4.14062 10.7882 4.22266 10.8311 4.54688 10.835H4.82812V15.6179V20.4007H3.57812H2.32812V14.4153V8.42605L6.63672 5.82576C9.00391 4.39677 10.9648 3.22547 10.9961 3.22156C11.0234 3.22156 12.9883 4.39287 15.3594 5.82186ZM17.3281 9.95656V10.2494H11H4.67188V9.95656V9.66373H11H17.3281V9.95656ZM16.5469 11.7135V12.592H14.7695H12.9883L12.8945 12.6896L12.7969 12.7833V14.6418V16.4963H11.625H10.4492L10.3555 16.5939L10.2578 16.6876V18.5461V20.4007H7.85547H5.45312V15.6179V10.835H11H16.5469V11.7135ZM14.5547 13.6657C14.5547 14.1342 14.5586 14.1615 14.6523 14.2513L14.7461 14.3489H15.6289H16.5117L16.6055 14.2513C16.6992 14.1615 16.7031 14.1342 16.7031 13.6657V13.1776H17.2891H17.875V14.837V16.4963H15.6289H13.3828V14.837V13.1776H13.9688H14.5547V13.6657ZM16.1172 13.4705V13.7633H15.6289H15.1406V13.4705V13.1776H15.6289H16.1172V13.4705ZM12.0156 17.57C12.0156 18.0385 12.0195 18.0659 12.1133 18.1557L12.207 18.2533H13.0898H13.9727L14.0664 18.1557C14.1602 18.0659 14.1641 18.0385 14.1641 17.57V17.082H14.75H15.3359V18.7413V20.4007H13.0898H10.8438V18.7413V17.082H11.4297H12.0156V17.57ZM13.5781 17.3748V17.6676H13.0898H12.6016V17.3748V17.082H13.0898H13.5781V17.3748ZM17.0938 17.57C17.0938 18.0385 17.0977 18.0659 17.1914 18.1557L17.2852 18.2533H18.168H19.0508L19.1445 18.1557C19.2383 18.0659 19.2422 18.0385 19.2422 17.57V17.082H19.8281H20.4141V18.7413V20.4007H18.168H15.9219V18.7413V17.082H16.5078H17.0938V17.57ZM18.6562 17.3748V17.6676H18.168H17.6797V17.3748V17.082H18.168H18.6562V17.3748Z" stroke="white" stroke-width="0.8" mask="url(#path-1-outside-1_389_215)"/>
<path d="M9.82111 9.45979L9.82107 9.45975L9.8246 9.45639C9.8404 9.44135 9.86721 9.41645 9.90721 9.39467C9.94617 9.37345 9.98774 9.36038 10.0321 9.35121C10.1152 9.33406 10.2375 9.32517 10.4293 9.31935C10.8185 9.30755 11.5551 9.30755 12.9901 9.30755H13H13.0099C14.4449 9.30755 15.1815 9.30755 15.5707 9.31935C15.7625 9.32517 15.8848 9.33406 15.9679 9.35121C16.0123 9.36038 16.0538 9.37345 16.0928 9.39467C16.1328 9.41645 16.1596 9.44135 16.1754 9.45639L16.1754 9.45635L16.1789 9.45979C16.2836 9.56441 16.3406 9.70498 16.3406 9.85894C16.3406 10.0129 16.2836 10.1535 16.1789 10.2581L16.1789 10.2581L16.1754 10.2615C16.1596 10.2765 16.1328 10.3014 16.0928 10.3232C16.0538 10.3444 16.0123 10.3575 15.9679 10.3667C15.8848 10.3838 15.7625 10.3927 15.5707 10.3985C15.1815 10.4103 14.4449 10.4103 13.0099 10.4103H13H12.9901C11.5551 10.4103 10.8185 10.4103 10.4293 10.3985C10.2375 10.3927 10.1152 10.3838 10.0321 10.3667C9.98774 10.3575 9.94617 10.3444 9.90721 10.3232C9.86721 10.3014 9.8404 10.2765 9.8246 10.2615L9.82456 10.2615L9.82111 10.2581C9.71644 10.1535 9.65937 10.0129 9.65937 9.85894C9.65937 9.70498 9.71644 9.56441 9.82111 9.45979Z" fill="white" stroke="white" stroke-width="0.4"/>
</svg>
