<svg width="20" height="20" viewBox="0 0 20 20" fill="none" xmlns="http://www.w3.org/2000/svg">
<path d="M15.8208 3.11725C15.6063 2.08022 14.7978 1.27168 13.7608 1.05725L6.22734 1.06076L6.18434 0.86544C6.18449 0.865408 6.18463 0.865377 6.18478 0.865345C6.22611 0.856308 6.29014 0.850773 6.35773 0.846357C6.43119 0.841557 6.52583 0.837189 6.63779 0.833199C6.86196 0.825212 7.16041 0.818583 7.50767 0.813274C8.20246 0.802652 9.09632 0.797268 9.99005 0.797047C10.8838 0.796827 11.7783 0.801773 12.4743 0.811844C12.8223 0.816877 13.1215 0.823202 13.3465 0.830839C13.4589 0.834654 13.554 0.838833 13.6279 0.84342C13.6967 0.847691 13.7603 0.852976 13.801 0.861336L13.8013 0.861391C14.9162 1.09195 15.7857 1.96127 16.0165 3.07616M15.8208 3.11725L16.0164 3.07556C16.0164 3.07576 16.0165 3.07596 16.0165 3.07616M15.8208 3.11725L16.0166 3.07675C16.0166 3.07655 16.0165 3.07635 16.0165 3.07616M15.8208 3.11725C15.8665 3.33169 15.877 3.61643 15.877 4.46363V5.33582L3.9357 15.2273M16.0165 3.07616C16.0675 3.3159 16.077 3.6255 16.077 4.46363V5.33582H16.2461C16.9058 5.33582 17.4088 5.47466 17.9091 5.80064L17.9093 5.80075C18.5519 6.22036 18.9941 6.87449 19.1488 7.62577L19.1491 7.62691C19.1776 7.76934 19.1907 7.93024 19.1964 8.31525C19.2022 8.70173 19.2004 9.32711 19.1951 10.4054M4.19195 3.11725C4.14625 3.32817 4.1357 3.61995 4.1357 4.46363V5.33582H3.9357M4.19195 3.11725L1.8015 6.30217C2.33935 5.77486 2.95454 5.53582 3.76659 5.53582H3.9357V5.33582M4.19195 3.11725L3.99607 3.07686C3.99614 3.07654 3.9962 3.07621 3.99627 3.07589M4.19195 3.11725L3.99648 3.0749C3.99641 3.07523 3.99634 3.07556 3.99627 3.07589M3.9357 5.33582V4.46363C3.9357 3.62998 3.94515 3.31257 3.99627 3.07589M3.9357 5.33582H3.76659C2.90694 5.33582 2.23999 5.59219 1.66149 6.15935L1.66138 6.15946C1.24668 6.56662 0.984514 7.04503 0.867424 7.61155L3.99627 3.07589M3.9357 15.2273V16.2928C3.9357 16.698 3.93922 17.0322 3.94588 17.2807C3.95228 17.5197 3.96179 17.7004 3.97848 17.7815L3.97884 17.7832L3.97885 17.7832C4.12545 18.4647 4.67062 19.0099 5.35214 19.1565M3.9357 15.2273H3.76659C2.88732 15.2273 2.18743 14.9448 1.61256 14.3548L1.61255 14.3548L1.6111 14.3533C1.22069 13.9441 0.980839 13.496 0.86748 12.9518C0.853089 12.8828 0.843524 12.7522 0.835834 12.5955C0.827798 12.4319 0.821158 12.2214 0.815867 11.9805C0.805279 11.4985 0.8 10.8904 0.8 10.2829C0.8 9.67531 0.805279 9.06704 0.815867 8.58458C0.821158 8.34348 0.827797 8.13273 0.835833 7.96875C0.84353 7.81166 0.853097 7.68083 0.867416 7.61159L3.9357 15.2273ZM5.35214 19.1565L5.3942 18.961L5.35194 19.1565C5.35201 19.1565 5.35207 19.1565 5.35214 19.1565ZM5.35214 19.1565C5.37675 19.1618 5.40753 19.1642 5.42915 19.1656C5.456 19.1675 5.48999 19.1692 5.52986 19.1707C5.60982 19.1739 5.71821 19.1768 5.85028 19.1794C6.11469 19.1847 6.47772 19.1891 6.90603 19.1926C7.76287 19.1997 8.88332 19.2032 10.0037 19.2032C11.1241 19.2032 12.245 19.1997 13.1027 19.1926C13.5315 19.1891 13.8951 19.1847 14.1601 19.1794C14.2925 19.1768 14.4013 19.1739 14.4816 19.1707C14.5216 19.1692 14.5558 19.1675 14.5828 19.1656C14.605 19.1641 14.6354 19.1618 14.6597 19.1567L14.6599 19.1567C15.3354 19.0136 15.891 18.4537 16.034 17.7828L16.034 17.7827C16.0437 17.7369 16.0497 17.6666 16.0544 17.5886C16.0594 17.5058 16.0635 17.3997 16.0668 17.2741C16.0735 17.0225 16.077 16.6875 16.077 16.2928V15.2273H16.2461C16.6624 15.2273 17.0849 15.1578 17.4043 15.0346L17.4059 15.034C18.0605 14.7752 18.6646 14.1922 18.963 13.5312L18.963 13.5311C18.9692 13.5175 18.9752 13.5041 18.9813 13.4909C19.0242 13.3963 19.0636 13.3096 19.0935 13.2091C19.1284 13.0914 19.1491 12.9604 19.1626 12.7687C19.1874 12.4162 19.1897 11.8212 19.1942 10.6557C19.1945 10.575 19.1948 10.4916 19.1951 10.4054M19.1951 10.4054L18.9951 10.4046M19.1951 10.4054C19.1951 10.4054 19.1951 10.4055 19.1951 10.4056L18.9951 10.4046M18.9951 10.4046C19.0057 8.24616 19.0022 7.9122 18.953 7.66613L17.3324 14.848C17.937 14.609 18.503 14.0641 18.7807 13.4489C18.8205 13.3607 18.8525 13.2927 18.8784 13.2224C18.9896 12.9198 18.9866 12.5753 18.9951 10.4046ZM2.67836 13.3574L2.67764 13.3567C2.47577 13.1548 2.35484 12.9364 2.29634 12.6744C2.29617 12.6731 2.2955 12.6684 2.29457 12.6589C2.29333 12.6463 2.29201 12.6293 2.29065 12.6076C2.28793 12.5643 2.28533 12.5064 2.28289 12.4353C2.27801 12.2932 2.27391 12.1028 2.27063 11.8794C2.26405 11.4328 2.26076 10.8581 2.26076 10.2829C2.26076 9.70762 2.26405 9.13269 2.27063 8.68572C2.27391 8.46211 2.27801 8.27139 2.28289 8.12899C2.28533 8.05768 2.28793 7.9996 2.29065 7.95608C2.29201 7.93428 2.29334 7.91716 2.29458 7.90443C2.29568 7.89306 2.29643 7.88834 2.29645 7.88805C2.35132 7.62416 2.47127 7.40927 2.67412 7.20642C2.87211 7.00843 3.05969 6.90093 3.31378 6.83599C3.31679 6.83576 3.326 6.83491 3.34441 6.83387C3.37335 6.83224 3.41441 6.83058 3.46761 6.82892C3.5737 6.82563 3.7234 6.8225 3.91109 6.81956C4.28621 6.81368 4.80992 6.8086 5.43319 6.80437C6.67956 6.79592 8.32223 6.79087 9.96653 6.78955C11.6108 6.78823 13.2564 6.79065 14.5084 6.79713C15.1346 6.80037 15.6619 6.80462 16.0413 6.80992C16.2311 6.81257 16.3832 6.81548 16.4918 6.81863C16.5462 6.8202 16.5887 6.82181 16.6192 6.82342C16.6437 6.82472 16.654 6.82576 16.6556 6.82579C16.6563 6.8258 16.6553 6.82563 16.6532 6.82518L2.67836 13.3574ZM2.67836 13.3574C2.83178 13.5124 2.98256 13.6131 3.15593 13.6769C3.33156 13.7416 3.54163 13.7727 3.81932 13.7727H3.9357M2.67836 13.3574L3.9357 13.7727M3.9357 13.7727V13.0938V12.415H3.92478C3.70124 12.415 3.49504 12.3506 3.34087 12.2225C3.18388 12.0921 3.09202 11.9041 3.09202 11.6877C3.09202 11.5556 3.13723 11.4257 3.20295 11.3188C3.26867 11.212 3.36416 11.113 3.48198 11.0527C3.48206 11.0527 3.48214 11.0527 3.48222 11.0526L3.9357 13.7727ZM16.077 12.415H16.0879C16.3115 12.415 16.5177 12.3506 16.6719 12.2225C16.8288 12.0921 16.9207 11.9041 16.9207 11.6877C16.9207 11.5556 16.8755 11.4257 16.8098 11.3188C16.744 11.2119 16.6484 11.1129 16.5305 11.0526L16.4395 11.2307L16.077 12.415ZM16.077 12.415V13.0938V13.7727H16.1934C16.7062 13.7727 17.0364 13.6511 17.3218 13.3842C17.3991 13.311 17.4867 13.1932 17.5624 13.0574C17.6382 12.9217 17.6938 12.783 17.7166 12.6735L17.9124 12.7142L17.7164 12.6745C17.7159 12.6768 17.7168 12.673 17.7181 12.6587C17.7194 12.646 17.7207 12.6288 17.7221 12.607C17.7248 12.5635 17.7274 12.5054 17.7298 12.4341C17.7347 12.2917 17.7388 12.101 17.7421 11.8774C17.7487 11.4304 17.752 10.8555 17.752 10.2802C17.752 9.70498 17.7487 9.13028 17.7421 8.68375C17.7388 8.46036 17.7347 8.26992 17.7298 8.12785C17.7274 8.05671 17.7248 7.99883 17.7221 7.95551C17.7207 7.93382 17.7194 7.91683 17.7182 7.90423L16.077 12.415ZM13.5227 2.28999L13.5223 2.28991C13.5226 2.28997 13.522 2.28991 13.5204 2.28975C13.5132 2.28905 13.4865 2.28646 13.4298 2.28365C13.3681 2.28057 13.284 2.2777 13.1802 2.27506C12.9728 2.26978 12.6906 2.26554 12.3581 2.2623C11.6932 2.25583 10.8301 2.25341 9.968 2.25473C9.10586 2.25605 8.2454 2.2611 7.58585 2.26954C7.25594 2.27377 6.97707 2.27884 6.77364 2.28468C6.67178 2.28761 6.58999 2.2907 6.53064 2.29391C6.50085 2.29552 6.47808 2.29709 6.4619 2.29856C6.45323 2.29934 6.44835 2.29994 6.4463 2.30019C6.19025 2.36503 6.00178 2.47261 5.80279 2.67161C5.59958 2.87481 5.47956 3.0901 5.42483 3.35463L5.42485 3.35463L5.42436 3.35685C5.4169 3.39097 5.40713 3.51727 5.40032 3.73432C5.39382 3.94158 5.39031 4.21179 5.39031 4.51636V5.33582H10.0064H14.6224V4.51636C14.6224 4.20472 14.6189 3.93543 14.6124 3.73043C14.6056 3.51685 14.5959 3.3927 14.5881 3.35571C14.4744 2.82779 14.0457 2.4001 13.5227 2.28999ZM14.5732 17.5744L14.5732 17.5744L14.5751 17.5707L14.5764 17.5682C14.5844 17.5531 14.5892 17.544 14.595 17.5058C14.6028 17.4539 14.6093 17.3632 14.6137 17.1843C14.6224 16.8298 14.6224 16.1681 14.6224 14.8691V12.415H10.0064H5.39031V14.8691C5.39031 16.1396 5.39121 16.8017 5.39992 17.1624C5.40845 17.5156 5.42578 17.5481 5.43464 17.5648C5.43511 17.5656 5.43556 17.5665 5.43599 17.5673C5.45395 17.6033 5.50674 17.6602 5.5634 17.6938L5.6565 17.745H10.0028C12.1747 17.745 13.2728 17.745 13.8456 17.7363C14.1338 17.7319 14.2812 17.7253 14.3635 17.7165C14.4036 17.7122 14.4215 17.7081 14.4292 17.7058C14.4343 17.7044 14.437 17.7034 14.4499 17.6968L14.4499 17.6968L14.4517 17.6959C14.5044 17.6695 14.5469 17.6271 14.5732 17.5744Z" fill="black" stroke="black" stroke-width="0.4"/>
<path d="M5.79834 7.76703C5.89682 7.81739 5.97973 7.90202 6.03786 7.99655C6.09599 8.09107 6.13398 8.20302 6.13398 8.31303C6.13398 8.42304 6.09599 8.53499 6.03786 8.6295C5.97983 8.72387 5.89711 8.80837 5.79886 8.85876C5.763 8.87766 5.72682 8.89397 5.67791 8.9062C5.63054 8.91805 5.57447 8.92525 5.49892 8.93003C5.34905 8.93951 5.10422 8.94033 4.66298 8.94033C4.22175 8.94033 3.97692 8.93951 3.82705 8.93003C3.75149 8.92525 3.69543 8.91805 3.64806 8.9062C3.59914 8.89397 3.56297 8.87766 3.52711 8.85876C3.42886 8.80837 3.34614 8.72387 3.2881 8.6295C3.22998 8.53499 3.19199 8.42304 3.19199 8.31303C3.19199 8.20623 3.23017 8.09454 3.2867 8.0005C3.34286 7.90706 3.42326 7.82087 3.51896 7.77139C3.59533 7.72895 3.66241 7.70931 3.81712 7.69912C3.96778 7.6892 4.21431 7.68748 4.65556 7.68572H4.65595C5.10071 7.68572 5.34641 7.68655 5.49671 7.69603C5.57251 7.70081 5.6286 7.70801 5.67616 7.71981C5.72535 7.73202 5.76185 7.74829 5.79834 7.76703ZM5.79834 7.76703C5.79837 7.76704 5.7984 7.76706 5.79843 7.76707L5.75275 7.85603L5.79826 7.76699C5.79829 7.767 5.79831 7.76702 5.79834 7.76703Z" fill="black" stroke="black" stroke-width="0.2"/>
<path d="M8.30863 14.4835C8.21015 14.4332 8.12724 14.3485 8.06911 14.254C8.01098 14.1595 7.973 14.0476 7.973 13.9375C7.973 13.8307 8.01118 13.719 8.0677 13.625C8.12397 13.5314 8.20458 13.445 8.30052 13.3956C8.33746 13.3756 8.37499 13.359 8.43404 13.3469C8.48984 13.3355 8.56353 13.3284 8.67319 13.3235C8.89294 13.3137 9.27801 13.312 9.99917 13.3102H9.99942C10.7258 13.3102 11.1101 13.3111 11.329 13.3204C11.4383 13.3251 11.5115 13.332 11.5675 13.3434C11.627 13.3554 11.6651 13.3719 11.7034 13.3911L11.7034 13.3911L11.7042 13.3915C11.8027 13.4419 11.8856 13.5265 11.9438 13.6211C12.0019 13.7156 12.0399 13.8275 12.0399 13.9375C12.0399 14.0476 12.0019 14.1595 11.9438 14.254C11.8857 14.3485 11.8028 14.4331 11.7043 14.4835M8.30863 14.4835C8.34649 14.503 8.3843 14.5196 8.44367 14.5317C8.49951 14.543 8.57262 14.55 8.68172 14.5546C8.90019 14.564 9.28354 14.5648 10.0064 14.5648C10.7294 14.5648 11.1127 14.564 11.3312 14.5546C11.4403 14.55 11.5134 14.543 11.5692 14.5317C11.6286 14.5196 11.6665 14.5029 11.7043 14.4835M8.30863 14.4835C8.30866 14.4836 8.30869 14.4836 8.30872 14.4836L8.35423 14.3945L8.30855 14.4835C8.30857 14.4835 8.3086 14.4835 8.30863 14.4835ZM11.7043 14.4835L11.6587 14.3945L11.7042 14.4836C11.7042 14.4836 11.7043 14.4835 11.7043 14.4835Z" fill="black" stroke="black" stroke-width="0.2"/>
<path d="M8.30863 16.7335C8.21015 16.6832 8.12724 16.5985 8.06911 16.504C8.01098 16.4095 7.973 16.2976 7.973 16.1875C7.973 16.0807 8.01118 15.969 8.0677 15.875C8.12397 15.7814 8.20458 15.695 8.30052 15.6456C8.33746 15.6256 8.37499 15.609 8.43404 15.5969C8.48984 15.5855 8.56353 15.5784 8.67319 15.5735C8.89294 15.5637 9.27801 15.562 9.99917 15.5602H9.99942C10.7258 15.5602 11.1101 15.5611 11.329 15.5704C11.4383 15.5751 11.5115 15.582 11.5675 15.5934C11.627 15.6054 11.6651 15.6219 11.7034 15.6411L11.7034 15.6411L11.7042 15.6415C11.8027 15.6919 11.8856 15.7765 11.9438 15.8711C12.0019 15.9656 12.0399 16.0775 12.0399 16.1875C12.0399 16.2976 12.0019 16.4095 11.9438 16.504C11.8857 16.5985 11.8028 16.6831 11.7043 16.7335M8.30863 16.7335C8.34649 16.753 8.3843 16.7696 8.44367 16.7817C8.49951 16.793 8.57262 16.8 8.68172 16.8046C8.90019 16.814 9.28354 16.8148 10.0064 16.8148C10.7294 16.8148 11.1127 16.814 11.3312 16.8046C11.4403 16.8 11.5134 16.793 11.5692 16.7817C11.6286 16.7696 11.6665 16.7529 11.7043 16.7335M8.30863 16.7335C8.30866 16.7336 8.30869 16.7336 8.30872 16.7336L8.35423 16.6445L8.30855 16.7335C8.30857 16.7335 8.3086 16.7335 8.30863 16.7335ZM11.7043 16.7335L11.6587 16.6445L11.7042 16.7336C11.7042 16.7336 11.7043 16.7335 11.7043 16.7335Z" fill="black" stroke="black" stroke-width="0.2"/>
</svg>
