<svg width="42" height="42" viewBox="0 0 42 42" fill="none" xmlns="http://www.w3.org/2000/svg">
<mask id="path-1-outside-1_204_120" maskUnits="userSpaceOnUse" x="0" y="-0.0257568" width="42" height="42" fill="black">
<rect fill="white" y="-0.0257568" width="42" height="42"/>
<path d="M4.02563 1.12644C2.61798 1.50126 1.5185 2.62573 1.14368 4.05004C0.952106 4.76637 0.952106 37.2008 1.14368 37.9172C1.5185 39.3581 2.6263 40.4743 4.05895 40.8491C4.49208 40.9574 6.49945 40.974 21.0092 40.974C38.9589 40.974 37.8761 40.999 38.8506 40.5076C39.442 40.2077 40.175 39.4831 40.4915 38.9C41.0329 37.8838 40.9996 38.8167 40.9996 23.7573C40.9996 12.2045 40.9829 10.0222 40.883 9.79729C40.7331 9.45579 32.4537 1.19308 32.1455 1.07647C31.9872 1.01817 27.5477 0.993174 18.1939 1.0015C6.49112 1.0015 4.40878 1.01816 4.02563 1.12644ZM13.0297 8.00648C13.0546 12.3377 13.0546 12.3627 13.2462 12.7376C13.5377 13.3373 13.8709 13.6871 14.4456 13.9953L14.9704 14.2785H21.0092H27.0479L27.4727 14.0536C28.1058 13.7204 28.364 13.4705 28.6805 12.8875L28.9637 12.3627L28.9887 8.00648L29.0137 3.65857H30.0715H31.1293L34.7359 7.26517L38.3342 10.8634L38.3175 24.1654C38.2926 37.4507 38.2926 37.4674 38.1176 37.6923C37.7095 38.242 37.6345 38.267 35.9104 38.292L34.3361 38.317V33.4193C34.3361 29.3379 34.3111 28.4384 34.2112 28.0386C33.8364 26.5976 32.7286 25.4814 31.2959 25.1066C30.5629 24.9234 11.4637 24.9151 10.7391 25.1066C9.29811 25.4814 8.18198 26.5893 7.80716 28.0219C7.69888 28.4384 7.68222 29.288 7.68222 33.4193V38.317L6.10797 38.292C4.3838 38.267 4.30883 38.242 3.90069 37.6923L3.72578 37.4674L3.70079 21.2085C3.69246 12.2628 3.70079 4.833 3.72578 4.68308C3.78408 4.3499 4.13392 3.92511 4.47542 3.77518C4.66699 3.69188 5.60821 3.6669 8.86498 3.65857H13.0047L13.0297 8.00648ZM26.34 7.65665V11.6547H21.0092H15.6784V7.65665V3.65857H21.0092H26.34V7.65665ZM31.0544 27.8636C31.1793 27.9553 31.3625 28.1385 31.4542 28.2635C31.6291 28.4883 31.6291 28.5883 31.6541 33.4027L31.6707 38.3086H21.0092H10.3476V33.5276C10.3476 30.3375 10.3809 28.6633 10.4392 28.505C10.5558 28.1968 10.8307 27.897 11.1389 27.7637C11.3471 27.6721 13.1379 27.6554 21.1091 27.6721C30.7795 27.6887 30.8295 27.6887 31.0544 27.8636Z"/>
</mask>
<path d="M4.02563 1.12644C2.61798 1.50126 1.5185 2.62573 1.14368 4.05004C0.952106 4.76637 0.952106 37.2008 1.14368 37.9172C1.5185 39.3581 2.6263 40.4743 4.05895 40.8491C4.49208 40.9574 6.49945 40.974 21.0092 40.974C38.9589 40.974 37.8761 40.999 38.8506 40.5076C39.442 40.2077 40.175 39.4831 40.4915 38.9C41.0329 37.8838 40.9996 38.8167 40.9996 23.7573C40.9996 12.2045 40.9829 10.0222 40.883 9.79729C40.7331 9.45579 32.4537 1.19308 32.1455 1.07647C31.9872 1.01817 27.5477 0.993174 18.1939 1.0015C6.49112 1.0015 4.40878 1.01816 4.02563 1.12644ZM13.0297 8.00648C13.0546 12.3377 13.0546 12.3627 13.2462 12.7376C13.5377 13.3373 13.8709 13.6871 14.4456 13.9953L14.9704 14.2785H21.0092H27.0479L27.4727 14.0536C28.1058 13.7204 28.364 13.4705 28.6805 12.8875L28.9637 12.3627L28.9887 8.00648L29.0137 3.65857H30.0715H31.1293L34.7359 7.26517L38.3342 10.8634L38.3175 24.1654C38.2926 37.4507 38.2926 37.4674 38.1176 37.6923C37.7095 38.242 37.6345 38.267 35.9104 38.292L34.3361 38.317V33.4193C34.3361 29.3379 34.3111 28.4384 34.2112 28.0386C33.8364 26.5976 32.7286 25.4814 31.2959 25.1066C30.5629 24.9234 11.4637 24.9151 10.7391 25.1066C9.29811 25.4814 8.18198 26.5893 7.80716 28.0219C7.69888 28.4384 7.68222 29.288 7.68222 33.4193V38.317L6.10797 38.292C4.3838 38.267 4.30883 38.242 3.90069 37.6923L3.72578 37.4674L3.70079 21.2085C3.69246 12.2628 3.70079 4.833 3.72578 4.68308C3.78408 4.3499 4.13392 3.92511 4.47542 3.77518C4.66699 3.69188 5.60821 3.6669 8.86498 3.65857H13.0047L13.0297 8.00648ZM26.34 7.65665V11.6547H21.0092H15.6784V7.65665V3.65857H21.0092H26.34V7.65665ZM31.0544 27.8636C31.1793 27.9553 31.3625 28.1385 31.4542 28.2635C31.6291 28.4883 31.6291 28.5883 31.6541 33.4027L31.6707 38.3086H21.0092H10.3476V33.5276C10.3476 30.3375 10.3809 28.6633 10.4392 28.505C10.5558 28.1968 10.8307 27.897 11.1389 27.7637C11.3471 27.6721 13.1379 27.6554 21.1091 27.6721C30.7795 27.6887 30.8295 27.6887 31.0544 27.8636Z" fill="black"/>
<path d="M4.02563 1.12644L4.16163 1.60765L4.15429 1.60961L4.02563 1.12644ZM1.14368 4.05004L1.62722 4.17729L1.62671 4.17923L1.14368 4.05004ZM1.14368 37.9172L1.62672 37.788L1.62758 37.7913L1.14368 37.9172ZM4.05895 40.8491L3.93768 41.3342L3.9324 41.3328L4.05895 40.8491ZM38.8506 40.5076L39.0767 40.9535L39.0758 40.954L38.8506 40.5076ZM40.4915 38.9L40.9328 39.1351L40.9309 39.1386L40.4915 38.9ZM40.883 9.79729L40.4261 10.0004L40.4252 9.99829L40.883 9.79729ZM32.1455 1.07647L32.3184 0.607281L32.3225 0.608828L32.1455 1.07647ZM18.1939 1.0015L18.1943 1.5015H18.1939V1.0015ZM13.0297 8.00648L12.5297 8.00937L12.5297 8.00936L13.0297 8.00648ZM13.2462 12.7376L13.6915 12.5099L13.6959 12.519L13.2462 12.7376ZM14.4456 13.9953L14.6819 13.5546L14.6831 13.5553L14.4456 13.9953ZM14.9704 14.2785V14.7785H14.8441L14.7329 14.7185L14.9704 14.2785ZM27.0479 14.2785L27.2819 14.7204L27.1721 14.7785H27.0479V14.2785ZM27.4727 14.0536L27.2388 13.6117L27.2399 13.6111L27.4727 14.0536ZM28.6805 12.8875L29.1205 13.1249L29.1199 13.126L28.6805 12.8875ZM28.9637 12.3627L29.4637 12.3656L29.463 12.4904L29.4037 12.6002L28.9637 12.3627ZM28.9887 8.00648L28.4887 8.00361L28.4887 8.00361L28.9887 8.00648ZM29.0137 3.65857L28.5137 3.65569L28.5165 3.15857H29.0137V3.65857ZM31.1293 3.65857V3.15857H31.3364L31.4829 3.30501L31.1293 3.65857ZM34.7359 7.26517L35.0895 6.91162L35.0895 6.91162L34.7359 7.26517ZM38.3342 10.8634L38.6878 10.5099L38.8345 10.6566L38.8342 10.8641L38.3342 10.8634ZM38.3175 24.1654L38.8175 24.166L38.8175 24.1664L38.3175 24.1654ZM38.1176 37.6923L37.7161 37.3941L37.723 37.3853L38.1176 37.6923ZM35.9104 38.292L35.9024 37.792L35.9031 37.792L35.9104 38.292ZM34.3361 38.317L34.3441 38.8169L33.8361 38.825V38.317H34.3361ZM34.2112 28.0386L34.6951 27.9127L34.6963 27.9173L34.2112 28.0386ZM31.2959 25.1066L31.4172 24.6215L31.4225 24.6229L31.2959 25.1066ZM10.7391 25.1066L10.8669 25.59L10.865 25.5905L10.7391 25.1066ZM7.80716 28.0219L7.32325 27.8961L7.32344 27.8953L7.80716 28.0219ZM7.68222 38.317H8.18222V38.825L7.67428 38.8169L7.68222 38.317ZM6.10797 38.292L6.11522 37.792L6.11591 37.792L6.10797 38.292ZM3.90069 37.6923L4.29547 37.3852L4.30215 37.3942L3.90069 37.6923ZM3.72578 37.4674L3.3311 37.7743L3.22604 37.6393L3.22578 37.4681L3.72578 37.4674ZM3.70079 21.2085L3.20079 21.2093L3.20079 21.209L3.70079 21.2085ZM3.72578 4.68308L3.23257 4.60087L3.23326 4.59689L3.72578 4.68308ZM4.47542 3.77518L4.27442 3.31735L4.27606 3.31664L4.47542 3.77518ZM8.86498 3.65857L8.86371 3.15857H8.86498V3.65857ZM13.0047 3.65857V3.15857H13.5018L13.5047 3.65569L13.0047 3.65857ZM26.34 11.6547H26.84V12.1547H26.34V11.6547ZM15.6784 11.6547V12.1547H15.1784V11.6547H15.6784ZM15.6784 3.65857H15.1784V3.15857H15.6784V3.65857ZM26.34 3.65857V3.15857H26.84V3.65857H26.34ZM31.0544 27.8636L30.7587 28.2668L30.753 28.2627L30.7474 28.2583L31.0544 27.8636ZM31.4542 28.2635L31.0595 28.5704L31.0552 28.5648L31.051 28.5591L31.4542 28.2635ZM31.6541 33.4027L32.1541 33.4001L32.1541 33.401L31.6541 33.4027ZM31.6707 38.3086L32.1707 38.3069L32.1724 38.8086H31.6707V38.3086ZM10.3476 38.3086V38.8086H9.84761V38.3086H10.3476ZM10.4392 28.505L9.97004 28.3321L9.97159 28.3281L10.4392 28.505ZM11.1389 27.7637L11.3403 28.2214L11.3374 28.2226L11.1389 27.7637ZM21.1091 27.6721L21.1083 28.1721L21.1081 28.1721L21.1091 27.6721ZM4.15429 1.60961C2.92536 1.93684 1.95765 2.92163 1.62722 4.17729L0.660144 3.9228C1.07935 2.32982 2.31059 1.06569 3.89698 0.643279L4.15429 1.60961ZM1.62671 4.17923C1.63589 4.14486 1.63179 4.14434 1.62513 4.24217C1.62001 4.31721 1.61481 4.4229 1.60965 4.55946C1.59935 4.83178 1.58969 5.21356 1.58073 5.69094C1.56282 6.64497 1.54787 7.97132 1.53591 9.54704C1.51197 12.698 1.5 16.8405 1.5 20.9836C1.5 25.1267 1.51197 29.2692 1.53591 32.4202C1.54787 33.9959 1.56282 35.3222 1.58073 36.2763C1.58969 36.7536 1.59935 37.1354 1.60965 37.4077C1.61481 37.5443 1.62001 37.65 1.62513 37.725C1.63179 37.8229 1.63589 37.8223 1.62671 37.788L0.660657 38.0463C0.639494 37.9672 0.632 37.86 0.627438 37.793C0.621325 37.7032 0.615676 37.5861 0.610363 37.4455C0.599706 37.1637 0.589908 36.7745 0.580909 36.295C0.562896 35.3354 0.547913 34.0047 0.535935 32.4278C0.511975 29.2734 0.5 25.1282 0.5 20.9836C0.5 16.839 0.511975 12.6938 0.535935 9.53945C0.547913 7.96252 0.562896 6.6318 0.580909 5.67217C0.589908 5.19272 0.599706 4.80351 0.610363 4.52167C0.615676 4.38115 0.621325 4.26396 0.627438 4.17421C0.632 4.10724 0.639494 3.99999 0.660657 3.92086L1.62671 4.17923ZM1.62758 37.7913C1.9573 39.0589 2.92975 40.0368 4.18551 40.3654L3.9324 41.3328C2.32286 40.9117 1.0797 39.6574 0.659784 38.043L1.62758 37.7913ZM4.18022 40.364C4.2286 40.3761 4.38149 40.3975 4.86735 40.4146C5.33561 40.4311 6.0745 40.4433 7.25907 40.4522C9.62647 40.4699 13.7536 40.474 21.0092 40.474V41.474C13.755 41.474 9.6236 41.4699 7.2516 41.4522C6.06648 41.4433 5.31546 41.431 4.83209 41.414C4.36632 41.3975 4.10586 41.3762 3.93768 41.3342L4.18022 40.364ZM21.0092 40.474C29.99 40.474 34.1963 40.4802 36.2824 40.4253C37.3343 40.3976 37.8075 40.3546 38.0726 40.2986C38.3057 40.2493 38.3361 40.2071 38.6255 40.0611L39.0758 40.954C38.8779 41.0538 38.6782 41.1927 38.2793 41.277C37.9124 41.3545 37.3517 41.3974 36.3088 41.4249C34.2053 41.4803 29.9781 41.474 21.0092 41.474V40.474ZM38.6245 40.0616C38.8596 39.9424 39.1494 39.7228 39.4237 39.4533C39.6976 39.1842 39.9246 38.8963 40.0521 38.6615L40.9309 39.1386C40.7419 39.4868 40.4441 39.8527 40.1246 40.1667C39.8054 40.4802 39.4331 40.7729 39.0767 40.9535L38.6245 40.0616ZM40.0502 38.6649C40.21 38.365 40.2609 38.3143 40.3144 38.1012C40.3729 37.8682 40.4191 37.468 40.4489 36.5782C40.5078 34.8129 40.4996 31.2948 40.4996 23.7573H41.4996C41.4996 31.2792 41.508 34.8243 41.4483 36.6116C41.4187 37.498 41.3718 37.9963 41.2842 38.3448C41.1917 38.7132 41.0437 38.9269 40.9328 39.1351L40.0502 38.6649ZM40.4996 23.7573C40.4996 17.9802 40.4954 14.5487 40.4788 12.5334C40.4705 11.5248 40.459 10.8763 40.4437 10.4675C40.436 10.2623 40.4276 10.125 40.419 10.0359C40.4078 9.91969 40.4004 9.94247 40.4261 10.0004L41.3399 9.59422C41.3906 9.70833 41.4056 9.84851 41.4144 9.93979C41.4258 10.0582 41.4351 10.2185 41.443 10.4301C41.4589 10.8547 41.4704 11.516 41.4788 12.5252C41.4954 14.5455 41.4996 17.9816 41.4996 23.7573H40.4996ZM40.4252 9.99829C40.4497 10.0542 40.4775 10.0834 40.4518 10.0507C40.4394 10.0348 40.4182 10.0092 40.3862 9.97242C40.3229 9.8996 40.2307 9.79819 40.1114 9.67027C39.8737 9.41529 39.5397 9.06702 39.1395 8.65564C38.3397 7.83353 37.2829 6.76689 36.2204 5.70645C35.1579 4.64599 34.0912 3.59341 33.2717 2.79935C32.8616 2.402 32.5154 2.07125 32.2631 1.83715C32.1366 1.71966 32.0369 1.6295 31.966 1.56833C31.9301 1.53733 31.906 1.51758 31.8918 1.50664C31.8845 1.50102 31.8843 1.50116 31.8892 1.50444C31.8918 1.50617 31.8988 1.51069 31.909 1.51645C31.9176 1.52129 31.9388 1.53285 31.9686 1.54411L32.3225 0.608828C32.3823 0.631487 32.4277 0.661616 32.4422 0.671245C32.4645 0.686002 32.4853 0.701471 32.5027 0.714914C32.5379 0.742102 32.5778 0.775408 32.6195 0.811424C32.7039 0.884268 32.8138 0.983917 32.9434 1.10419C33.2035 1.3456 33.5558 1.68218 33.9676 2.08119C34.7919 2.87985 35.8622 3.93616 36.9268 4.99865C37.9914 6.06114 39.0518 7.1315 39.8562 7.95833C40.2581 8.37143 40.5979 8.72562 40.8428 8.98833C40.9649 9.11926 41.0663 9.2305 41.1409 9.31629C41.1778 9.35881 41.2117 9.39904 41.2394 9.43445C41.2539 9.453 41.3069 9.51901 41.3408 9.5963L40.4252 9.99829ZM31.9727 1.54564C32.0071 1.55832 32.0337 1.56344 32.0388 1.56443C32.0437 1.56539 32.0473 1.56599 32.0493 1.5663C32.0514 1.56663 32.0526 1.56679 32.0528 1.56681C32.0529 1.56683 32.0509 1.56657 32.046 1.56609C32.0413 1.56563 32.035 1.56506 32.0267 1.56442C31.9924 1.56175 31.9392 1.55879 31.8641 1.55576C31.715 1.54974 31.4965 1.5441 31.2053 1.53891C30.6238 1.52855 29.7642 1.52024 28.6153 1.51399C26.3181 1.50151 22.871 1.49734 18.1943 1.5015L18.1934 0.501504C22.8706 0.497339 26.3202 0.501503 28.6207 0.514007C29.7707 0.520257 30.6353 0.528599 31.2231 0.539068C31.5165 0.544294 31.7439 0.550098 31.9044 0.556575C31.9841 0.55979 32.0516 0.563339 32.1043 0.567436C32.1302 0.569453 32.1576 0.571985 32.1835 0.575392C32.1942 0.57681 32.2548 0.583882 32.3184 0.607299L31.9727 1.54564ZM18.1939 1.5015C12.3417 1.5015 8.89791 1.50567 6.86926 1.52335C5.8541 1.53219 5.19864 1.54439 4.77478 1.56086C4.56261 1.56911 4.41425 1.57822 4.31068 1.58784C4.25916 1.59263 4.22208 1.59724 4.19592 1.60129C4.16887 1.60549 4.15961 1.60816 4.16161 1.6076L3.88966 0.645289C4.05377 0.598908 4.31953 0.577802 4.73594 0.561618C5.176 0.544514 5.84438 0.532241 6.86054 0.523387C8.89453 0.505664 12.3433 0.501504 18.1939 0.501504V1.5015ZM13.5296 8.0036C13.5422 10.1765 13.5485 11.2513 13.575 11.8329C13.5883 12.1253 13.6057 12.2626 13.6231 12.3406C13.6361 12.3991 13.6479 12.4247 13.6914 12.51L12.801 12.9651C12.7488 12.8629 12.6887 12.7449 12.647 12.558C12.6097 12.3905 12.5897 12.1806 12.576 11.8784C12.5483 11.2711 12.5421 10.1677 12.5297 8.00937L13.5296 8.0036ZM13.6959 12.519C13.9427 13.0266 14.2024 13.2975 14.6819 13.5546L14.2094 14.4359C13.5395 14.0767 13.1328 13.6479 12.7965 12.9561L13.6959 12.519ZM14.6831 13.5553L15.2079 13.8385L14.7329 14.7185L14.2082 14.4353L14.6831 13.5553ZM14.9704 13.7785H21.0092V14.7785H14.9704V13.7785ZM21.0092 13.7785H27.0479V14.7785H21.0092V13.7785ZM26.814 13.8366L27.2388 13.6117L27.7067 14.4955L27.2819 14.7204L26.814 13.8366ZM27.2399 13.6111C27.5377 13.4544 27.7135 13.3345 27.8479 13.2046C27.9805 13.0766 28.0957 12.9168 28.2411 12.6489L29.1199 13.126C28.9488 13.4413 28.7766 13.6979 28.5427 13.9239C28.3106 14.148 28.0408 14.3196 27.7056 14.496L27.2399 13.6111ZM28.2405 12.65L28.5237 12.1253L29.4037 12.6002L29.1205 13.1249L28.2405 12.65ZM28.4637 12.3599L28.4887 8.00361L29.4887 8.00935L29.4637 12.3656L28.4637 12.3599ZM28.4887 8.00361L28.5137 3.65569L29.5137 3.66144L29.4887 8.00936L28.4887 8.00361ZM29.0137 3.15857H30.0715V4.15857H29.0137V3.15857ZM30.0715 3.15857H31.1293V4.15857H30.0715V3.15857ZM31.4829 3.30501L35.0895 6.91162L34.3824 7.61872L30.7758 4.01212L31.4829 3.30501ZM35.0895 6.91162L38.6878 10.5099L37.9807 11.217L34.3824 7.61872L35.0895 6.91162ZM38.8342 10.8641L38.8175 24.166L37.8175 24.1648L37.8342 10.8628L38.8342 10.8641ZM38.8175 24.1664C38.8051 30.8065 38.7988 34.1368 38.7738 35.8339C38.7613 36.6763 38.7442 37.1371 38.7165 37.4037C38.7027 37.5361 38.6836 37.6532 38.6473 37.7567C38.6032 37.8827 38.5436 37.9591 38.5123 37.9992L37.723 37.3853C37.7355 37.3692 37.7141 37.3959 37.7035 37.4261C37.7009 37.4337 37.7106 37.4088 37.7218 37.3005C37.7441 37.0855 37.7613 36.6697 37.7739 35.8191C37.7988 34.1304 37.8051 30.8096 37.8176 24.1645L38.8175 24.1664ZM38.5191 37.9903C38.4206 38.123 38.3099 38.2701 38.1725 38.3905C38.0197 38.5243 37.8492 38.6138 37.6395 38.6712C37.2771 38.7704 36.7464 38.7799 35.9176 38.7919L35.9031 37.792C36.7986 37.7791 37.1674 37.7636 37.3755 37.7066C37.4511 37.6859 37.4836 37.6645 37.5136 37.6383C37.5589 37.5985 37.6107 37.5364 37.7162 37.3942L38.5191 37.9903ZM35.9183 38.7919L34.3441 38.8169L34.3282 37.817L35.9024 37.792L35.9183 38.7919ZM33.8361 38.317V33.4193H34.8361V38.317H33.8361ZM33.8361 33.4193C33.8361 31.3775 33.8299 30.1383 33.8113 29.3603C33.7923 28.5668 33.7605 28.2973 33.7261 28.1598L34.6963 27.9173C34.7618 28.1797 34.7925 28.5598 34.811 29.3364C34.8299 30.1284 34.8361 31.3797 34.8361 33.4193H33.8361ZM33.7273 28.1644C33.3976 26.8968 32.4251 25.9189 31.1694 25.5903L31.4225 24.6229C33.032 25.044 34.2752 26.2983 34.6951 27.9127L33.7273 28.1644ZM31.1746 25.5917C31.1854 25.5944 31.123 25.5847 30.9243 25.5735C30.7505 25.5638 30.5125 25.5546 30.2173 25.5459C29.6276 25.5287 28.8219 25.5141 27.8704 25.5023C25.9681 25.4788 23.4915 25.4666 21.0143 25.4661C18.537 25.4656 16.061 25.4767 14.1598 25.5C13.2089 25.5116 12.404 25.5263 11.8153 25.5439C11.5206 25.5527 11.2833 25.5622 11.1102 25.5722C11.0234 25.5772 10.9564 25.5822 10.9082 25.5869C10.8492 25.5927 10.8458 25.5956 10.8669 25.59L10.6113 24.6232C10.6777 24.6057 10.7555 24.597 10.8112 24.5916C10.8778 24.5851 10.9593 24.5793 11.0524 24.5739C11.2391 24.5631 11.4871 24.5533 11.7854 24.5443C12.3828 24.5265 13.1946 24.5117 14.1476 24.5001C16.0543 24.4767 18.5348 24.4655 21.0145 24.4661C23.4942 24.4666 25.9751 24.4788 27.8828 24.5024C28.8363 24.5142 29.6485 24.5289 30.2465 24.5464C30.5451 24.5551 30.7933 24.5647 30.9801 24.5751C31.1421 24.5842 31.3148 24.596 31.4172 24.6216L31.1746 25.5917ZM10.865 25.5905C9.59736 25.9202 8.61942 26.8927 8.29088 28.1485L7.32344 27.8953C7.74454 26.2858 8.99886 25.0427 10.6132 24.6227L10.865 25.5905ZM8.29107 28.1477C8.25383 28.291 8.22183 28.5501 8.20395 29.3389C8.18641 30.1129 8.18222 31.3519 8.18222 33.4193H7.18222C7.18222 31.3554 7.18636 30.1039 7.20421 29.3162C7.22173 28.5432 7.25221 28.1693 7.32325 27.8961L8.29107 28.1477ZM8.18222 33.4193V38.317H7.18222V33.4193H8.18222ZM7.67428 38.8169L6.10004 38.7919L6.11591 37.792L7.69015 37.817L7.67428 38.8169ZM6.10073 38.7919C5.27199 38.7799 4.74125 38.7704 4.37881 38.6712C4.16916 38.6138 3.99862 38.5243 3.84582 38.3905C3.70847 38.2701 3.59778 38.123 3.49924 37.9903L4.30215 37.3942C4.40768 37.5364 4.45941 37.5985 4.50478 37.6383C4.53471 37.6645 4.5672 37.6859 4.64282 37.7066C4.85095 37.7636 5.21978 37.7791 6.11522 37.792L6.10073 38.7919ZM3.50602 37.9992L3.3311 37.7743L4.12045 37.1604L4.29537 37.3853L3.50602 37.9992ZM3.22578 37.4681L3.20079 21.2093L4.20079 21.2077L4.22578 37.4666L3.22578 37.4681ZM3.20079 21.209C3.19663 16.7359 3.19663 12.6416 3.20079 9.64667C3.20287 8.14929 3.206 6.92628 3.21017 6.068C3.21225 5.63901 3.2146 5.30031 3.21722 5.06375C3.21853 4.94568 3.21992 4.85166 3.22141 4.78405C3.22215 4.75051 3.22296 4.72142 3.22388 4.69832C3.22416 4.69131 3.22548 4.64348 3.23258 4.60088L4.21898 4.76528C4.22451 4.73204 4.2243 4.7078 4.22309 4.73825C4.22251 4.7526 4.22186 4.77484 4.22117 4.80613C4.2198 4.8682 4.21845 4.95791 4.21716 5.07482C4.21457 5.30822 4.21224 5.64445 4.21015 6.07286C4.20599 6.92939 4.20287 8.15104 4.20079 9.64806C4.19663 12.6419 4.19663 16.7354 4.20079 21.208L3.20079 21.209ZM3.23326 4.59689C3.28256 4.31519 3.43934 4.04752 3.60871 3.84222C3.78065 3.63382 4.01287 3.43219 4.27442 3.31736L4.67641 4.233C4.59647 4.2681 4.48302 4.35383 4.38009 4.4786C4.27459 4.60648 4.2273 4.71779 4.21829 4.76927L3.23326 4.59689ZM4.27606 3.31664C4.41031 3.25827 4.58577 3.23811 4.74157 3.2248C4.92257 3.20934 5.1717 3.19786 5.50748 3.18894C6.18075 3.17105 7.23611 3.16273 8.86371 3.15857L8.86626 4.15857C7.23709 4.16273 6.19345 4.17107 5.53403 4.18859C5.20346 4.19737 4.97781 4.20827 4.82668 4.22118C4.65035 4.23624 4.63632 4.25044 4.67478 4.23371L4.27606 3.31664ZM8.86498 3.15857H13.0047V4.15857H8.86498V3.15857ZM13.5047 3.65569L13.5296 8.00361L12.5297 8.00936L12.5047 3.66144L13.5047 3.65569ZM26.84 7.65665V11.6547H25.84V7.65665H26.84ZM26.34 12.1547H21.0092V11.1547H26.34V12.1547ZM21.0092 12.1547H15.6784V11.1547H21.0092V12.1547ZM15.1784 11.6547V7.65665H16.1784V11.6547H15.1784ZM15.1784 7.65665V3.65857H16.1784V7.65665H15.1784ZM15.6784 3.15857H21.0092V4.15857H15.6784V3.15857ZM21.0092 3.15857H26.34V4.15857H21.0092V3.15857ZM26.84 3.65857V7.65665H25.84V3.65857H26.84ZM31.35 27.4604C31.5161 27.5822 31.7356 27.8017 31.8574 27.9678L31.051 28.5591C30.9895 28.4753 30.8425 28.3283 30.7587 28.2668L31.35 27.4604ZM31.8488 27.9565C31.8761 27.9915 31.9199 28.0491 31.9594 28.1282C31.999 28.2077 32.0254 28.2904 32.0445 28.3792C32.0797 28.5427 32.0975 28.7662 32.11 29.0929C32.1354 29.7585 32.1416 30.999 32.1541 33.4001L31.1541 33.4053C31.1416 30.9919 31.1353 29.7753 31.1107 29.1311C31.0982 28.8029 31.0817 28.6584 31.0669 28.5894C31.061 28.562 31.0585 28.5624 31.0645 28.5746C31.0704 28.5863 31.076 28.5916 31.0595 28.5704L31.8488 27.9565ZM32.1541 33.401L32.1707 38.3069L31.1707 38.3103L31.1541 33.4044L32.1541 33.401ZM31.6707 38.8086H21.0092V37.8086H31.6707V38.8086ZM21.0092 38.8086H10.3476V37.8086H21.0092V38.8086ZM9.84761 38.3086V33.5276H10.8476V38.3086H9.84761ZM9.84761 33.5276C9.84761 31.9315 9.85594 30.7118 9.87164 29.87C9.87948 29.4497 9.88923 29.1199 9.90093 28.8832C9.90675 28.7654 9.91329 28.6657 9.92087 28.5873C9.92599 28.5343 9.9364 28.4235 9.97006 28.3321L10.9084 28.6779C10.9275 28.6261 10.9241 28.6022 10.9162 28.6835C10.9108 28.7394 10.9052 28.8214 10.8997 28.9326C10.8888 29.1541 10.8792 29.4719 10.8715 29.8887C10.8559 30.7211 10.8476 31.9336 10.8476 33.5276H9.84761ZM9.97159 28.3281C10.1335 27.9001 10.5016 27.4945 10.9404 27.3048L11.3374 28.2226C11.1598 28.2994 10.9782 28.4936 10.9069 28.6819L9.97159 28.3281ZM10.9375 27.306C11.0436 27.2594 11.1678 27.2442 11.2461 27.2357C11.3463 27.2248 11.4768 27.2161 11.6416 27.2089C11.9726 27.1943 12.4725 27.1841 13.2083 27.1773C14.6818 27.1637 17.1253 27.1637 21.1102 27.1721L21.1081 28.1721C17.1218 28.1637 14.6843 28.1637 13.2175 28.1773C12.4832 28.184 11.9981 28.1941 11.6857 28.2079C11.5288 28.2148 11.423 28.2224 11.3542 28.2298C11.2636 28.2397 11.2863 28.2451 11.3403 28.2213L10.9375 27.306ZM21.11 27.1721C25.9419 27.1804 28.3783 27.1845 29.6334 27.2086C30.254 27.2205 30.6114 27.2374 30.8312 27.2666C30.9436 27.2815 31.0483 27.3029 31.1454 27.3419C31.2545 27.3857 31.3249 27.4406 31.3613 27.469L30.7474 28.2583C30.7276 28.2429 30.7473 28.2596 30.7728 28.2699C30.7864 28.2753 30.7747 28.2679 30.6997 28.2579C30.5447 28.2374 30.243 28.2205 29.6142 28.2084C28.3705 28.1846 25.9468 28.1804 21.1083 28.1721L21.11 27.1721Z" fill="black" mask="url(#path-1-outside-1_204_120)"/>
</svg>
