<svg width="24" height="24" viewBox="0 0 24 24" fill="none" xmlns="http://www.w3.org/2000/svg">
<mask id="path-1-outside-1_123_227" maskUnits="userSpaceOnUse" x="0" y="0.136475" width="24" height="20" fill="black">
<rect fill="white" y="0.136475" width="24" height="20"/>
<path d="M1.62526 1.07559C1.53074 1.10996 1.37177 1.22166 1.27295 1.32478C0.830421 1.79309 0.937832 2.46763 1.50926 2.82423C1.65963 2.91875 1.71978 2.92305 2.6564 2.94453L3.64458 2.96601L3.92385 3.0992C4.24608 3.25387 4.53394 3.52025 4.68002 3.80811C4.76165 3.97568 7.27507 13.6426 7.27507 13.8016C7.27507 13.8231 6.78957 14.1195 6.19666 14.459C5.33308 14.9488 5.0667 15.1206 4.87336 15.3183C4.43083 15.7651 4.19453 16.401 4.23749 17.0153C4.30623 17.9563 4.85188 18.6781 5.76272 19.0261L6.00762 19.1206L13.419 19.1335C19.202 19.1421 20.8733 19.1335 21.0236 19.0905C21.3888 18.9917 21.7111 18.5578 21.7111 18.1711C21.7111 17.7973 21.3845 17.3505 21.0451 17.2559C20.9248 17.2216 18.7379 17.2087 13.6209 17.2087H6.36852L6.2654 17.1013C6.14081 16.981 6.12792 16.8263 6.23103 16.6974C6.274 16.6501 6.84113 16.3107 7.48989 15.9412L8.67141 15.2753H11.4039C14.0291 15.2753 14.1537 15.271 14.42 15.1894C14.7208 15.0948 15.0602 14.8585 15.2278 14.6265C15.2793 14.5535 15.3695 14.3816 15.4211 14.2484L15.5199 14.0078L17.4232 13.9864C19.0473 13.9649 19.3566 13.952 19.5414 13.8875C20.0956 13.7028 20.637 13.2345 20.8819 12.7318C20.9721 12.5385 21.3029 11.3312 22.0075 8.56856C22.5532 6.42894 23 4.64592 23 4.60295C23 4.56429 22.9527 4.48265 22.8926 4.4268L22.7895 4.31939H14.8196H6.85402L6.80246 4.09168C6.77238 3.97138 6.69505 3.69211 6.62631 3.48159C6.22244 2.21414 5.11396 1.26463 3.79496 1.0541C3.36102 0.989657 1.83579 1.00255 1.62526 1.07559ZM3.82503 1.72005C4.16445 1.7845 4.75736 2.03799 4.95499 2.20555L5.0624 2.29577L4.84329 2.51919L4.61987 2.7383L4.43083 2.6266C3.9883 2.36881 3.80785 2.33014 2.77241 2.30436C1.82719 2.27859 1.81001 2.27859 1.72838 2.17547C1.61667 2.03799 1.62526 1.88761 1.75415 1.76301C1.85727 1.6556 1.86586 1.6556 2.67359 1.6556C3.21494 1.6556 3.59732 1.67709 3.82503 1.72005ZM5.63813 2.89727C5.92169 3.29684 6.01192 3.61048 7.31803 8.72323C8.46518 13.2216 8.62414 13.8059 8.71867 13.8875L8.82608 13.9864H11.8336C13.4834 13.9864 14.8368 13.9992 14.8368 14.0207C14.8368 14.1153 14.5962 14.3859 14.4157 14.489L14.2138 14.6093L11.3352 14.6308L8.45658 14.6523L7.2364 15.3397C6.41148 15.8037 5.95177 16.0916 5.81428 16.2205C5.53501 16.4955 5.45338 16.8005 5.56079 17.1872C5.62094 17.4063 5.96036 17.7457 6.18807 17.8059C6.29978 17.8403 8.61985 17.8531 13.6037 17.8531H20.8561L20.9592 17.9606C21.0967 18.0937 21.0967 18.257 20.9592 18.3945L20.8561 18.4976L13.4748 18.489L6.09355 18.4761L5.83147 18.3558C5.50064 18.2012 5.16982 17.8703 5.01085 17.5309C4.90773 17.3118 4.89055 17.2173 4.89055 16.8864C4.89055 16.5513 4.90773 16.4654 5.01085 16.2377C5.19559 15.8424 5.47057 15.6061 6.28689 15.1421C7.97109 14.1969 7.91094 14.2313 7.96249 14.0895C7.99257 14.0207 7.66604 12.6888 6.7552 9.1228C5.35456 3.63196 5.38034 3.73508 5.20419 3.42144L5.07529 3.18943L5.28152 2.9832C5.39753 2.8672 5.50064 2.77267 5.51783 2.77267C5.53501 2.77267 5.59087 2.82853 5.63813 2.89727ZM9.56936 5.07986C9.61662 5.30327 9.89589 7.16792 9.89589 7.24526C9.89589 7.32259 9.84003 7.32689 8.76163 7.32689H7.62737L7.58011 7.14214C7.55433 7.04333 7.42544 6.54494 7.29655 6.03367C7.16766 5.52669 7.05165 5.07556 7.03447 5.03689C7.00869 4.96815 7.10751 4.96385 8.27613 4.96385H9.54358L9.56936 5.07986ZM12.7487 5.25171C12.7616 5.41498 12.7831 5.77588 12.796 6.05944C12.8089 6.34301 12.8303 6.74258 12.8432 6.9488L12.869 7.32689H12.1816C11.5543 7.32689 11.4899 7.33548 11.3825 7.41712C11.3008 7.48156 11.2707 7.54601 11.2707 7.64912C11.2707 7.75224 11.3008 7.81668 11.3825 7.88113C11.4899 7.96276 11.5543 7.97135 12.1988 7.97135H12.9034L12.9077 8.21625C12.9077 8.35374 12.9335 8.88649 12.9592 9.40207L13.0108 10.3344H12.0226H11.0301L10.695 8.13032C10.5103 6.92303 10.3255 5.71143 10.2826 5.44505L10.2095 4.96385H11.4684H12.7229L12.7487 5.25171ZM15.9109 5.03689C15.9109 5.25171 15.8207 6.98747 15.7992 7.14214L15.7777 7.32689H14.6477H13.5135L13.4877 6.97029C13.4748 6.77695 13.4533 6.36449 13.4404 6.05944C13.4276 5.7501 13.4061 5.38061 13.3932 5.23023L13.3674 4.96385H14.6391C15.8207 4.96385 15.9109 4.96815 15.9109 5.03689ZM19.0774 5.05838C19.0645 5.11423 18.9828 5.64699 18.8926 6.23989L18.7293 7.32689H17.5822H16.4351L16.4522 7.0777C16.478 6.72109 16.5554 5.21734 16.5554 5.07986V4.96385H17.8271H19.0988L19.0774 5.05838ZM21.9646 6.12389C21.8013 6.76406 21.6681 7.29682 21.6681 7.30541C21.6681 7.3183 21.1568 7.32689 20.5296 7.32689C19.898 7.32689 19.391 7.3097 19.391 7.28822C19.391 7.26674 19.4683 6.75547 19.5629 6.14537C19.6574 5.53528 19.7347 5.024 19.7347 5.00252C19.7347 4.98104 20.2932 4.96385 20.9979 4.96385H22.261L21.9646 6.12389ZM10.0248 7.99284C10.0248 8.00573 10.1021 8.517 10.1966 9.13139C10.2912 9.74578 10.3685 10.2656 10.3685 10.2914C10.3685 10.3172 10.0334 10.3344 9.38032 10.3344H8.39643L8.35347 10.1711C8.33199 10.0852 8.20309 9.58681 8.06991 9.06694C7.93672 8.54708 7.82071 8.08736 7.80782 8.04439C7.78634 7.97565 7.85938 7.97135 8.90341 7.97135C9.5221 7.97135 10.0248 7.97995 10.0248 7.99284ZM15.709 8.90368C15.6832 9.41925 15.6574 9.95201 15.6574 10.0895L15.6531 10.3344L14.6563 10.3258L13.6553 10.3129L13.6037 9.38918C13.5779 8.8822 13.5564 8.35374 13.5522 8.21625L13.5479 7.97135H14.6563H15.7605L15.709 8.90368ZM18.6176 8.01432C18.6176 8.0401 18.5403 8.55997 18.4458 9.17436C18.3513 9.78874 18.2739 10.3 18.2739 10.3129C18.2739 10.3258 17.8314 10.3344 17.2857 10.3344H16.2976V10.2356C16.2976 10.0165 16.3921 8.07447 16.4093 8.02291C16.4265 7.95417 18.6176 7.94558 18.6176 8.01432ZM21.4791 8.04439C21.4662 8.08736 21.3459 8.54708 21.217 9.06694C21.0838 9.58681 20.9549 10.0852 20.9334 10.1711L20.8905 10.3344H19.9023H18.9098L18.9313 10.2356C18.9442 10.184 19.0258 9.65126 19.116 9.05406L19.2793 7.97135H20.3921C21.4275 7.97135 21.5005 7.97565 21.4791 8.04439ZM10.6435 12.0616C10.7337 12.6588 10.8153 13.1915 10.8282 13.2431L10.8497 13.3419H10.0119C9.24713 13.3419 9.16979 13.3333 9.14831 13.2646C9.13542 13.2259 9.00653 12.7275 8.86475 12.1604C8.71867 11.5932 8.58977 11.0949 8.58118 11.0519C8.5597 10.9832 8.62414 10.9789 9.5221 10.9789H10.4802L10.6435 12.0616ZM13.0495 11.1593C13.0709 11.3183 13.1612 13.054 13.1612 13.2646C13.1612 13.3376 13.0924 13.3419 12.3234 13.3419C11.8637 13.3419 11.4856 13.3247 11.4856 13.3032C11.4856 13.2817 11.4082 12.7705 11.3137 12.1604C11.2192 11.5503 11.1419 11.039 11.1419 11.0175C11.1419 10.996 11.5672 10.9789 12.0828 10.9789H13.028L13.0495 11.1593ZM15.593 11.3526C15.5801 11.5632 15.5586 11.9627 15.5457 12.2463C15.5328 12.5299 15.5113 12.8908 15.4984 13.0497L15.4727 13.3419H14.6391H13.8056V13.2259C13.8056 13.0884 13.7283 11.5847 13.7025 11.2238L13.6853 10.9789H14.652H15.6187L15.593 11.3526ZM18.145 11.0605C18.145 11.1378 17.8658 13.0025 17.8185 13.2216L17.7927 13.3419H16.9592H16.1257L16.1472 13.0068C16.173 12.6588 16.2546 11.1335 16.2546 11.0347C16.2546 10.9917 16.4436 10.9789 17.1998 10.9789C18.0935 10.9789 18.145 10.9832 18.145 11.0605ZM20.7057 11.0519C20.6928 11.0949 20.6241 11.3698 20.551 11.6663C20.478 11.9627 20.3792 12.2893 20.3319 12.3924C20.0698 12.9896 19.4469 13.3634 18.7594 13.3333L18.463 13.3204L18.6434 12.1604C18.7422 11.5202 18.8239 10.996 18.8282 10.9874C18.8325 10.9832 19.2578 10.9789 19.782 10.9789C20.6627 10.9789 20.7272 10.9832 20.7057 11.0519Z"/>
</mask>
<path d="M1.62526 1.07559C1.53074 1.10996 1.37177 1.22166 1.27295 1.32478C0.830421 1.79309 0.937832 2.46763 1.50926 2.82423C1.65963 2.91875 1.71978 2.92305 2.6564 2.94453L3.64458 2.96601L3.92385 3.0992C4.24608 3.25387 4.53394 3.52025 4.68002 3.80811C4.76165 3.97568 7.27507 13.6426 7.27507 13.8016C7.27507 13.8231 6.78957 14.1195 6.19666 14.459C5.33308 14.9488 5.0667 15.1206 4.87336 15.3183C4.43083 15.7651 4.19453 16.401 4.23749 17.0153C4.30623 17.9563 4.85188 18.6781 5.76272 19.0261L6.00762 19.1206L13.419 19.1335C19.202 19.1421 20.8733 19.1335 21.0236 19.0905C21.3888 18.9917 21.7111 18.5578 21.7111 18.1711C21.7111 17.7973 21.3845 17.3505 21.0451 17.2559C20.9248 17.2216 18.7379 17.2087 13.6209 17.2087H6.36852L6.2654 17.1013C6.14081 16.981 6.12792 16.8263 6.23103 16.6974C6.274 16.6501 6.84113 16.3107 7.48989 15.9412L8.67141 15.2753H11.4039C14.0291 15.2753 14.1537 15.271 14.42 15.1894C14.7208 15.0948 15.0602 14.8585 15.2278 14.6265C15.2793 14.5535 15.3695 14.3816 15.4211 14.2484L15.5199 14.0078L17.4232 13.9864C19.0473 13.9649 19.3566 13.952 19.5414 13.8875C20.0956 13.7028 20.637 13.2345 20.8819 12.7318C20.9721 12.5385 21.3029 11.3312 22.0075 8.56856C22.5532 6.42894 23 4.64592 23 4.60295C23 4.56429 22.9527 4.48265 22.8926 4.4268L22.7895 4.31939H14.8196H6.85402L6.80246 4.09168C6.77238 3.97138 6.69505 3.69211 6.62631 3.48159C6.22244 2.21414 5.11396 1.26463 3.79496 1.0541C3.36102 0.989657 1.83579 1.00255 1.62526 1.07559ZM3.82503 1.72005C4.16445 1.7845 4.75736 2.03799 4.95499 2.20555L5.0624 2.29577L4.84329 2.51919L4.61987 2.7383L4.43083 2.6266C3.9883 2.36881 3.80785 2.33014 2.77241 2.30436C1.82719 2.27859 1.81001 2.27859 1.72838 2.17547C1.61667 2.03799 1.62526 1.88761 1.75415 1.76301C1.85727 1.6556 1.86586 1.6556 2.67359 1.6556C3.21494 1.6556 3.59732 1.67709 3.82503 1.72005ZM5.63813 2.89727C5.92169 3.29684 6.01192 3.61048 7.31803 8.72323C8.46518 13.2216 8.62414 13.8059 8.71867 13.8875L8.82608 13.9864H11.8336C13.4834 13.9864 14.8368 13.9992 14.8368 14.0207C14.8368 14.1153 14.5962 14.3859 14.4157 14.489L14.2138 14.6093L11.3352 14.6308L8.45658 14.6523L7.2364 15.3397C6.41148 15.8037 5.95177 16.0916 5.81428 16.2205C5.53501 16.4955 5.45338 16.8005 5.56079 17.1872C5.62094 17.4063 5.96036 17.7457 6.18807 17.8059C6.29978 17.8403 8.61985 17.8531 13.6037 17.8531H20.8561L20.9592 17.9606C21.0967 18.0937 21.0967 18.257 20.9592 18.3945L20.8561 18.4976L13.4748 18.489L6.09355 18.4761L5.83147 18.3558C5.50064 18.2012 5.16982 17.8703 5.01085 17.5309C4.90773 17.3118 4.89055 17.2173 4.89055 16.8864C4.89055 16.5513 4.90773 16.4654 5.01085 16.2377C5.19559 15.8424 5.47057 15.6061 6.28689 15.1421C7.97109 14.1969 7.91094 14.2313 7.96249 14.0895C7.99257 14.0207 7.66604 12.6888 6.7552 9.1228C5.35456 3.63196 5.38034 3.73508 5.20419 3.42144L5.07529 3.18943L5.28152 2.9832C5.39753 2.8672 5.50064 2.77267 5.51783 2.77267C5.53501 2.77267 5.59087 2.82853 5.63813 2.89727ZM9.56936 5.07986C9.61662 5.30327 9.89589 7.16792 9.89589 7.24526C9.89589 7.32259 9.84003 7.32689 8.76163 7.32689H7.62737L7.58011 7.14214C7.55433 7.04333 7.42544 6.54494 7.29655 6.03367C7.16766 5.52669 7.05165 5.07556 7.03447 5.03689C7.00869 4.96815 7.10751 4.96385 8.27613 4.96385H9.54358L9.56936 5.07986ZM12.7487 5.25171C12.7616 5.41498 12.7831 5.77588 12.796 6.05944C12.8089 6.34301 12.8303 6.74258 12.8432 6.9488L12.869 7.32689H12.1816C11.5543 7.32689 11.4899 7.33548 11.3825 7.41712C11.3008 7.48156 11.2707 7.54601 11.2707 7.64912C11.2707 7.75224 11.3008 7.81668 11.3825 7.88113C11.4899 7.96276 11.5543 7.97135 12.1988 7.97135H12.9034L12.9077 8.21625C12.9077 8.35374 12.9335 8.88649 12.9592 9.40207L13.0108 10.3344H12.0226H11.0301L10.695 8.13032C10.5103 6.92303 10.3255 5.71143 10.2826 5.44505L10.2095 4.96385H11.4684H12.7229L12.7487 5.25171ZM15.9109 5.03689C15.9109 5.25171 15.8207 6.98747 15.7992 7.14214L15.7777 7.32689H14.6477H13.5135L13.4877 6.97029C13.4748 6.77695 13.4533 6.36449 13.4404 6.05944C13.4276 5.7501 13.4061 5.38061 13.3932 5.23023L13.3674 4.96385H14.6391C15.8207 4.96385 15.9109 4.96815 15.9109 5.03689ZM19.0774 5.05838C19.0645 5.11423 18.9828 5.64699 18.8926 6.23989L18.7293 7.32689H17.5822H16.4351L16.4522 7.0777C16.478 6.72109 16.5554 5.21734 16.5554 5.07986V4.96385H17.8271H19.0988L19.0774 5.05838ZM21.9646 6.12389C21.8013 6.76406 21.6681 7.29682 21.6681 7.30541C21.6681 7.3183 21.1568 7.32689 20.5296 7.32689C19.898 7.32689 19.391 7.3097 19.391 7.28822C19.391 7.26674 19.4683 6.75547 19.5629 6.14537C19.6574 5.53528 19.7347 5.024 19.7347 5.00252C19.7347 4.98104 20.2932 4.96385 20.9979 4.96385H22.261L21.9646 6.12389ZM10.0248 7.99284C10.0248 8.00573 10.1021 8.517 10.1966 9.13139C10.2912 9.74578 10.3685 10.2656 10.3685 10.2914C10.3685 10.3172 10.0334 10.3344 9.38032 10.3344H8.39643L8.35347 10.1711C8.33199 10.0852 8.20309 9.58681 8.06991 9.06694C7.93672 8.54708 7.82071 8.08736 7.80782 8.04439C7.78634 7.97565 7.85938 7.97135 8.90341 7.97135C9.5221 7.97135 10.0248 7.97995 10.0248 7.99284ZM15.709 8.90368C15.6832 9.41925 15.6574 9.95201 15.6574 10.0895L15.6531 10.3344L14.6563 10.3258L13.6553 10.3129L13.6037 9.38918C13.5779 8.8822 13.5564 8.35374 13.5522 8.21625L13.5479 7.97135H14.6563H15.7605L15.709 8.90368ZM18.6176 8.01432C18.6176 8.0401 18.5403 8.55997 18.4458 9.17436C18.3513 9.78874 18.2739 10.3 18.2739 10.3129C18.2739 10.3258 17.8314 10.3344 17.2857 10.3344H16.2976V10.2356C16.2976 10.0165 16.3921 8.07447 16.4093 8.02291C16.4265 7.95417 18.6176 7.94558 18.6176 8.01432ZM21.4791 8.04439C21.4662 8.08736 21.3459 8.54708 21.217 9.06694C21.0838 9.58681 20.9549 10.0852 20.9334 10.1711L20.8905 10.3344H19.9023H18.9098L18.9313 10.2356C18.9442 10.184 19.0258 9.65126 19.116 9.05406L19.2793 7.97135H20.3921C21.4275 7.97135 21.5005 7.97565 21.4791 8.04439ZM10.6435 12.0616C10.7337 12.6588 10.8153 13.1915 10.8282 13.2431L10.8497 13.3419H10.0119C9.24713 13.3419 9.16979 13.3333 9.14831 13.2646C9.13542 13.2259 9.00653 12.7275 8.86475 12.1604C8.71867 11.5932 8.58977 11.0949 8.58118 11.0519C8.5597 10.9832 8.62414 10.9789 9.5221 10.9789H10.4802L10.6435 12.0616ZM13.0495 11.1593C13.0709 11.3183 13.1612 13.054 13.1612 13.2646C13.1612 13.3376 13.0924 13.3419 12.3234 13.3419C11.8637 13.3419 11.4856 13.3247 11.4856 13.3032C11.4856 13.2817 11.4082 12.7705 11.3137 12.1604C11.2192 11.5503 11.1419 11.039 11.1419 11.0175C11.1419 10.996 11.5672 10.9789 12.0828 10.9789H13.028L13.0495 11.1593ZM15.593 11.3526C15.5801 11.5632 15.5586 11.9627 15.5457 12.2463C15.5328 12.5299 15.5113 12.8908 15.4984 13.0497L15.4727 13.3419H14.6391H13.8056V13.2259C13.8056 13.0884 13.7283 11.5847 13.7025 11.2238L13.6853 10.9789H14.652H15.6187L15.593 11.3526ZM18.145 11.0605C18.145 11.1378 17.8658 13.0025 17.8185 13.2216L17.7927 13.3419H16.9592H16.1257L16.1472 13.0068C16.173 12.6588 16.2546 11.1335 16.2546 11.0347C16.2546 10.9917 16.4436 10.9789 17.1998 10.9789C18.0935 10.9789 18.145 10.9832 18.145 11.0605ZM20.7057 11.0519C20.6928 11.0949 20.6241 11.3698 20.551 11.6663C20.478 11.9627 20.3792 12.2893 20.3319 12.3924C20.0698 12.9896 19.4469 13.3634 18.7594 13.3333L18.463 13.3204L18.6434 12.1604C18.7422 11.5202 18.8239 10.996 18.8282 10.9874C18.8325 10.9832 19.2578 10.9789 19.782 10.9789C20.6627 10.9789 20.7272 10.9832 20.7057 11.0519Z" fill="black"/>
<path d="M1.62526 1.07559C1.53074 1.10996 1.37177 1.22166 1.27295 1.32478C0.830421 1.79309 0.937832 2.46763 1.50926 2.82423C1.65963 2.91875 1.71978 2.92305 2.6564 2.94453L3.64458 2.96601L3.92385 3.0992C4.24608 3.25387 4.53394 3.52025 4.68002 3.80811C4.76165 3.97568 7.27507 13.6426 7.27507 13.8016C7.27507 13.8231 6.78957 14.1195 6.19666 14.459C5.33308 14.9488 5.0667 15.1206 4.87336 15.3183C4.43083 15.7651 4.19453 16.401 4.23749 17.0153C4.30623 17.9563 4.85188 18.6781 5.76272 19.0261L6.00762 19.1206L13.419 19.1335C19.202 19.1421 20.8733 19.1335 21.0236 19.0905C21.3888 18.9917 21.7111 18.5578 21.7111 18.1711C21.7111 17.7973 21.3845 17.3505 21.0451 17.2559C20.9248 17.2216 18.7379 17.2087 13.6209 17.2087H6.36852L6.2654 17.1013C6.14081 16.981 6.12792 16.8263 6.23103 16.6974C6.274 16.6501 6.84113 16.3107 7.48989 15.9412L8.67141 15.2753H11.4039C14.0291 15.2753 14.1537 15.271 14.42 15.1894C14.7208 15.0948 15.0602 14.8585 15.2278 14.6265C15.2793 14.5535 15.3695 14.3816 15.4211 14.2484L15.5199 14.0078L17.4232 13.9864C19.0473 13.9649 19.3566 13.952 19.5414 13.8875C20.0956 13.7028 20.637 13.2345 20.8819 12.7318C20.9721 12.5385 21.3029 11.3312 22.0075 8.56856C22.5532 6.42894 23 4.64592 23 4.60295C23 4.56429 22.9527 4.48265 22.8926 4.4268L22.7895 4.31939H14.8196H6.85402L6.80246 4.09168C6.77238 3.97138 6.69505 3.69211 6.62631 3.48159C6.22244 2.21414 5.11396 1.26463 3.79496 1.0541C3.36102 0.989657 1.83579 1.00255 1.62526 1.07559ZM3.82503 1.72005C4.16445 1.7845 4.75736 2.03799 4.95499 2.20555L5.0624 2.29577L4.84329 2.51919L4.61987 2.7383L4.43083 2.6266C3.9883 2.36881 3.80785 2.33014 2.77241 2.30436C1.82719 2.27859 1.81001 2.27859 1.72838 2.17547C1.61667 2.03799 1.62526 1.88761 1.75415 1.76301C1.85727 1.6556 1.86586 1.6556 2.67359 1.6556C3.21494 1.6556 3.59732 1.67709 3.82503 1.72005ZM5.63813 2.89727C5.92169 3.29684 6.01192 3.61048 7.31803 8.72323C8.46518 13.2216 8.62414 13.8059 8.71867 13.8875L8.82608 13.9864H11.8336C13.4834 13.9864 14.8368 13.9992 14.8368 14.0207C14.8368 14.1153 14.5962 14.3859 14.4157 14.489L14.2138 14.6093L11.3352 14.6308L8.45658 14.6523L7.2364 15.3397C6.41148 15.8037 5.95177 16.0916 5.81428 16.2205C5.53501 16.4955 5.45338 16.8005 5.56079 17.1872C5.62094 17.4063 5.96036 17.7457 6.18807 17.8059C6.29978 17.8403 8.61985 17.8531 13.6037 17.8531H20.8561L20.9592 17.9606C21.0967 18.0937 21.0967 18.257 20.9592 18.3945L20.8561 18.4976L13.4748 18.489L6.09355 18.4761L5.83147 18.3558C5.50064 18.2012 5.16982 17.8703 5.01085 17.5309C4.90773 17.3118 4.89055 17.2173 4.89055 16.8864C4.89055 16.5513 4.90773 16.4654 5.01085 16.2377C5.19559 15.8424 5.47057 15.6061 6.28689 15.1421C7.97109 14.1969 7.91094 14.2313 7.96249 14.0895C7.99257 14.0207 7.66604 12.6888 6.7552 9.1228C5.35456 3.63196 5.38034 3.73508 5.20419 3.42144L5.07529 3.18943L5.28152 2.9832C5.39753 2.8672 5.50064 2.77267 5.51783 2.77267C5.53501 2.77267 5.59087 2.82853 5.63813 2.89727ZM9.56936 5.07986C9.61662 5.30327 9.89589 7.16792 9.89589 7.24526C9.89589 7.32259 9.84003 7.32689 8.76163 7.32689H7.62737L7.58011 7.14214C7.55433 7.04333 7.42544 6.54494 7.29655 6.03367C7.16766 5.52669 7.05165 5.07556 7.03447 5.03689C7.00869 4.96815 7.10751 4.96385 8.27613 4.96385H9.54358L9.56936 5.07986ZM12.7487 5.25171C12.7616 5.41498 12.7831 5.77588 12.796 6.05944C12.8089 6.34301 12.8303 6.74258 12.8432 6.9488L12.869 7.32689H12.1816C11.5543 7.32689 11.4899 7.33548 11.3825 7.41712C11.3008 7.48156 11.2707 7.54601 11.2707 7.64912C11.2707 7.75224 11.3008 7.81668 11.3825 7.88113C11.4899 7.96276 11.5543 7.97135 12.1988 7.97135H12.9034L12.9077 8.21625C12.9077 8.35374 12.9335 8.88649 12.9592 9.40207L13.0108 10.3344H12.0226H11.0301L10.695 8.13032C10.5103 6.92303 10.3255 5.71143 10.2826 5.44505L10.2095 4.96385H11.4684H12.7229L12.7487 5.25171ZM15.9109 5.03689C15.9109 5.25171 15.8207 6.98747 15.7992 7.14214L15.7777 7.32689H14.6477H13.5135L13.4877 6.97029C13.4748 6.77695 13.4533 6.36449 13.4404 6.05944C13.4276 5.7501 13.4061 5.38061 13.3932 5.23023L13.3674 4.96385H14.6391C15.8207 4.96385 15.9109 4.96815 15.9109 5.03689ZM19.0774 5.05838C19.0645 5.11423 18.9828 5.64699 18.8926 6.23989L18.7293 7.32689H17.5822H16.4351L16.4522 7.0777C16.478 6.72109 16.5554 5.21734 16.5554 5.07986V4.96385H17.8271H19.0988L19.0774 5.05838ZM21.9646 6.12389C21.8013 6.76406 21.6681 7.29682 21.6681 7.30541C21.6681 7.3183 21.1568 7.32689 20.5296 7.32689C19.898 7.32689 19.391 7.3097 19.391 7.28822C19.391 7.26674 19.4683 6.75547 19.5629 6.14537C19.6574 5.53528 19.7347 5.024 19.7347 5.00252C19.7347 4.98104 20.2932 4.96385 20.9979 4.96385H22.261L21.9646 6.12389ZM10.0248 7.99284C10.0248 8.00573 10.1021 8.517 10.1966 9.13139C10.2912 9.74578 10.3685 10.2656 10.3685 10.2914C10.3685 10.3172 10.0334 10.3344 9.38032 10.3344H8.39643L8.35347 10.1711C8.33199 10.0852 8.20309 9.58681 8.06991 9.06694C7.93672 8.54708 7.82071 8.08736 7.80782 8.04439C7.78634 7.97565 7.85938 7.97135 8.90341 7.97135C9.5221 7.97135 10.0248 7.97995 10.0248 7.99284ZM15.709 8.90368C15.6832 9.41925 15.6574 9.95201 15.6574 10.0895L15.6531 10.3344L14.6563 10.3258L13.6553 10.3129L13.6037 9.38918C13.5779 8.8822 13.5564 8.35374 13.5522 8.21625L13.5479 7.97135H14.6563H15.7605L15.709 8.90368ZM18.6176 8.01432C18.6176 8.0401 18.5403 8.55997 18.4458 9.17436C18.3513 9.78874 18.2739 10.3 18.2739 10.3129C18.2739 10.3258 17.8314 10.3344 17.2857 10.3344H16.2976V10.2356C16.2976 10.0165 16.3921 8.07447 16.4093 8.02291C16.4265 7.95417 18.6176 7.94558 18.6176 8.01432ZM21.4791 8.04439C21.4662 8.08736 21.3459 8.54708 21.217 9.06694C21.0838 9.58681 20.9549 10.0852 20.9334 10.1711L20.8905 10.3344H19.9023H18.9098L18.9313 10.2356C18.9442 10.184 19.0258 9.65126 19.116 9.05406L19.2793 7.97135H20.3921C21.4275 7.97135 21.5005 7.97565 21.4791 8.04439ZM10.6435 12.0616C10.7337 12.6588 10.8153 13.1915 10.8282 13.2431L10.8497 13.3419H10.0119C9.24713 13.3419 9.16979 13.3333 9.14831 13.2646C9.13542 13.2259 9.00653 12.7275 8.86475 12.1604C8.71867 11.5932 8.58977 11.0949 8.58118 11.0519C8.5597 10.9832 8.62414 10.9789 9.5221 10.9789H10.4802L10.6435 12.0616ZM13.0495 11.1593C13.0709 11.3183 13.1612 13.054 13.1612 13.2646C13.1612 13.3376 13.0924 13.3419 12.3234 13.3419C11.8637 13.3419 11.4856 13.3247 11.4856 13.3032C11.4856 13.2817 11.4082 12.7705 11.3137 12.1604C11.2192 11.5503 11.1419 11.039 11.1419 11.0175C11.1419 10.996 11.5672 10.9789 12.0828 10.9789H13.028L13.0495 11.1593ZM15.593 11.3526C15.5801 11.5632 15.5586 11.9627 15.5457 12.2463C15.5328 12.5299 15.5113 12.8908 15.4984 13.0497L15.4727 13.3419H14.6391H13.8056V13.2259C13.8056 13.0884 13.7283 11.5847 13.7025 11.2238L13.6853 10.9789H14.652H15.6187L15.593 11.3526ZM18.145 11.0605C18.145 11.1378 17.8658 13.0025 17.8185 13.2216L17.7927 13.3419H16.9592H16.1257L16.1472 13.0068C16.173 12.6588 16.2546 11.1335 16.2546 11.0347C16.2546 10.9917 16.4436 10.9789 17.1998 10.9789C18.0935 10.9789 18.145 10.9832 18.145 11.0605ZM20.7057 11.0519C20.6928 11.0949 20.6241 11.3698 20.551 11.6663C20.478 11.9627 20.3792 12.2893 20.3319 12.3924C20.0698 12.9896 19.4469 13.3634 18.7594 13.3333L18.463 13.3204L18.6434 12.1604C18.7422 11.5202 18.8239 10.996 18.8282 10.9874C18.8325 10.9832 19.2578 10.9789 19.782 10.9789C20.6627 10.9789 20.7272 10.9832 20.7057 11.0519Z" stroke="black" stroke-width="0.4" mask="url(#path-1-outside-1_123_227)"/>
<path d="M8.01091 19.7327L8.0109 19.7327L8.01265 19.7323C8.1162 19.7076 8.34143 19.6951 8.51899 19.7083C9.14954 19.7407 9.6791 20.1031 9.96044 20.6883C10.0213 20.8144 10.0593 20.9044 10.0802 21.0099C10.1006 21.1133 10.1036 21.2269 10.1036 21.3977C10.1036 21.5686 10.1006 21.6822 10.0802 21.7856C10.0593 21.891 10.0213 21.9811 9.96047 22.1071C9.77891 22.4838 9.49616 22.7669 9.12306 22.9444C8.99715 23.0052 8.90713 23.0432 8.80171 23.064C8.69837 23.0845 8.58478 23.0874 8.4139 23.0874C8.24834 23.0874 8.13483 23.0833 8.03299 23.0642C7.92909 23.0448 7.84189 23.0107 7.72753 22.9579L7.72753 22.9579L7.72702 22.9577C7.36668 22.7889 7.01865 22.4412 6.85393 22.0889L6.85393 22.0889L6.85372 22.0884C6.80078 21.9737 6.76677 21.8855 6.74737 21.7806C6.72836 21.6778 6.72422 21.5634 6.72422 21.3977C6.72422 21.2301 6.72834 21.1165 6.74743 21.0151C6.76691 20.9116 6.80109 20.8254 6.85372 20.7114L6.85388 20.711C7.07222 20.2425 7.52961 19.8565 8.01091 19.7327ZM8.41696 22.2661C8.61939 22.2647 8.82726 22.1771 9.0136 21.9928C9.21456 21.7918 9.29603 21.5463 9.27096 21.3117C9.24586 21.0768 9.11291 20.8441 8.86817 20.6722C8.77542 20.6087 8.64409 20.5645 8.50233 20.5481C8.36083 20.5318 8.21812 20.5443 8.10462 20.5851C8.01556 20.6184 7.89936 20.7049 7.79542 20.815C7.69096 20.9256 7.61458 21.0435 7.59082 21.128C7.54058 21.311 7.53548 21.4667 7.57139 21.6052C7.60723 21.7434 7.68609 21.873 7.81752 22.0005C8.00577 22.1828 8.21452 22.2675 8.41696 22.2661Z" fill="black" stroke="black" stroke-width="0.2"/>
<path d="M7.99131 21.3977C7.99131 21.346 8.01016 21.2903 8.03277 21.2445C8.05568 21.198 8.08829 21.1498 8.12797 21.1122C8.16561 21.0725 8.21383 21.0399 8.26029 21.017C8.30615 20.9944 8.3618 20.9755 8.41354 20.9755C8.52208 20.9755 8.62664 21.0408 8.69854 21.1127C8.77043 21.1846 8.83577 21.2892 8.83577 21.3977C8.83577 21.5063 8.77043 21.6108 8.69854 21.6827C8.62664 21.7546 8.52208 21.82 8.41354 21.82C8.305 21.82 8.20044 21.7546 8.12855 21.6827C8.05665 21.6108 7.99131 21.5063 7.99131 21.3977Z" fill="black" stroke="black" stroke-width="0.2"/>
<path d="M19.0524 19.7327L19.0524 19.7327L19.0542 19.7323C19.1577 19.7076 19.3829 19.6951 19.5605 19.7083C20.191 19.7407 20.7206 20.1031 21.0019 20.6883C21.0628 20.8144 21.1008 20.9044 21.1217 21.0099C21.1421 21.1133 21.1451 21.2269 21.1451 21.3977C21.1451 21.5686 21.1421 21.6822 21.1217 21.7856C21.1009 21.891 21.0628 21.9811 21.002 22.1071C20.8204 22.4838 20.5377 22.7669 20.1646 22.9444C20.0387 23.0052 19.9486 23.0432 19.8432 23.064C19.7399 23.0845 19.6263 23.0874 19.4554 23.0874C19.2898 23.0874 19.1763 23.0833 19.0745 23.0642C18.9706 23.0448 18.8834 23.0107 18.769 22.9579L18.769 22.9579L18.7685 22.9577C18.4082 22.7889 18.0602 22.4412 17.8954 22.0889L17.8954 22.0889L17.8952 22.0884C17.8423 21.9737 17.8083 21.8855 17.7889 21.7806C17.7699 21.6778 17.7657 21.5634 17.7657 21.3977C17.7657 21.2301 17.7698 21.1165 17.7889 21.0151C17.8084 20.9116 17.8426 20.8254 17.8952 20.7114L17.8954 20.711C18.1137 20.2425 18.5711 19.8565 19.0524 19.7327ZM19.4585 22.2661C19.6609 22.2647 19.8688 22.1771 20.0551 21.9928C20.2561 21.7918 20.3375 21.5463 20.3125 21.3117C20.2874 21.0768 20.1544 20.8441 19.9097 20.6722C19.8169 20.6087 19.6856 20.5645 19.5438 20.5481C19.4023 20.5318 19.2596 20.5443 19.1461 20.5851C19.0571 20.6184 18.9409 20.7049 18.8369 20.815C18.7325 20.9256 18.6561 21.0435 18.6323 21.128C18.5821 21.311 18.577 21.4667 18.6129 21.6052C18.6487 21.7434 18.7276 21.873 18.859 22.0005C19.0473 22.1828 19.256 22.2675 19.4585 22.2661Z" fill="black" stroke="black" stroke-width="0.2"/>
<path d="M19.0333 21.3977C19.0333 21.346 19.0521 21.2903 19.0748 21.2445C19.0977 21.198 19.1303 21.1498 19.17 21.1122C19.2076 21.0725 19.2558 21.0399 19.3023 21.017C19.3481 20.9944 19.4038 20.9755 19.4555 20.9755C19.5641 20.9755 19.6686 21.0408 19.7405 21.1127C19.8124 21.1846 19.8778 21.2892 19.8778 21.3977C19.8778 21.5063 19.8124 21.6108 19.7405 21.6827C19.6686 21.7546 19.5641 21.82 19.4555 21.82C19.347 21.82 19.2424 21.7546 19.1705 21.6827C19.0986 21.6108 19.0333 21.5063 19.0333 21.3977Z" fill="black" stroke="black" stroke-width="0.2"/>
</svg>
