<svg width="22" height="22" viewBox="0 0 22 22" fill="none" xmlns="http://www.w3.org/2000/svg">
<mask id="path-1-outside-1_123_227" maskUnits="userSpaceOnUse" x="0" y="0.486572" width="22" height="18" fill="black">
<rect fill="white" y="0.486572" width="22" height="18"/>
<path d="M1.56842 1.06758C1.48249 1.09883 1.33797 1.20038 1.24814 1.29412C0.845838 1.71986 0.943484 2.33307 1.46296 2.65726C1.59967 2.74319 1.65435 2.74709 2.50582 2.76662L3.40417 2.78615L3.65805 2.90723C3.95098 3.04784 4.21268 3.29001 4.34548 3.5517C4.41969 3.70403 6.70461 12.4922 6.70461 12.6367C6.70461 12.6562 6.26325 12.9257 5.72424 13.2343C4.93916 13.6796 4.697 13.8358 4.52124 14.0155C4.11894 14.4217 3.90411 14.9997 3.94317 15.5583C4.00567 16.4136 4.50171 17.0698 5.32975 17.3862L5.55238 17.4721L12.29 17.4839C17.5472 17.4917 19.0666 17.4839 19.2033 17.4448C19.5353 17.355 19.8282 16.9605 19.8282 16.6089C19.8282 16.2691 19.5314 15.8629 19.2228 15.777C19.1135 15.7457 17.1254 15.734 12.4735 15.734H5.88047L5.78673 15.6364C5.67346 15.527 5.66174 15.3864 5.75549 15.2692C5.79454 15.2263 6.31012 14.9177 6.8999 14.5818L7.97401 13.9764H10.4581C12.8446 13.9764 12.9579 13.9725 13.2 13.8983C13.4734 13.8124 13.782 13.5975 13.9343 13.3866C13.9812 13.3202 14.0632 13.164 14.1101 13.0429L14.1999 12.8242L15.9302 12.8046C17.4066 12.7851 17.6878 12.7734 17.8558 12.7148C18.3596 12.5469 18.8518 12.1211 19.0744 11.6641C19.1564 11.4884 19.4572 10.3908 20.0978 7.87937C20.5938 5.93426 21 4.31334 21 4.27428C21 4.23913 20.957 4.16492 20.9024 4.11414L20.8086 4.01649H13.5633H6.32183L6.27496 3.80948C6.24762 3.70012 6.17732 3.44624 6.11482 3.25485C5.74767 2.10263 4.73997 1.23944 3.54087 1.04805C3.14638 0.989464 1.75981 1.00118 1.56842 1.06758ZM3.56821 1.65346C3.87677 1.71204 4.41578 1.94249 4.59545 2.09482L4.6931 2.17684L4.4939 2.37994L4.29079 2.57914L4.11894 2.47759C3.71663 2.24324 3.55259 2.20809 2.61128 2.18465C1.75199 2.16122 1.73637 2.16122 1.66216 2.06748C1.56061 1.94249 1.56842 1.80578 1.68559 1.69252C1.77933 1.59487 1.78715 1.59487 2.52145 1.59487C3.01358 1.59487 3.3612 1.6144 3.56821 1.65346ZM5.21648 2.72366C5.47426 3.0869 5.55629 3.37203 6.74366 8.01999C7.78652 12.1094 7.93104 12.6406 8.01697 12.7148L8.11462 12.8046H10.8487C12.3486 12.8046 13.5789 12.8164 13.5789 12.8359C13.5789 12.9218 13.3602 13.1679 13.1961 13.2616L13.0125 13.371L10.3956 13.3905L7.77871 13.4101L6.66945 14.035C5.91953 14.4568 5.50161 14.7185 5.37662 14.8357C5.12274 15.0857 5.04853 15.363 5.14617 15.7145C5.20086 15.9137 5.50942 16.2223 5.71643 16.2769C5.81798 16.3082 7.92714 16.3199 12.4579 16.3199H19.051L19.1447 16.4176C19.2697 16.5386 19.2697 16.6871 19.1447 16.812L19.051 16.9058L12.3407 16.898L5.6305 16.8863L5.39224 16.7769C5.09149 16.6363 4.79074 16.3355 4.64623 16.027C4.55249 15.8278 4.53686 15.7418 4.53686 15.4411C4.53686 15.1364 4.55249 15.0583 4.64623 14.8513C4.81418 14.492 5.06415 14.2772 5.80626 13.8553C7.33735 12.996 7.28267 13.0273 7.32954 12.8984C7.35688 12.8359 7.06004 11.6251 6.232 8.38323C4.95869 3.39156 4.98213 3.4853 4.82199 3.20017L4.70481 2.98926L4.89229 2.80178C4.99775 2.69632 5.09149 2.61039 5.10711 2.61039C5.12274 2.61039 5.17351 2.66116 5.21648 2.72366ZM8.79033 4.70783C8.83329 4.91093 9.08717 6.60607 9.08717 6.67637C9.08717 6.74668 9.0364 6.75059 8.05603 6.75059H7.02489L6.98192 6.58263C6.95849 6.4928 6.84131 6.03972 6.72413 5.57493C6.60696 5.11404 6.5015 4.70392 6.48588 4.66877C6.46244 4.60628 6.55228 4.60237 7.61467 4.60237H8.76689L8.79033 4.70783ZM11.6807 4.86406C11.6924 5.01248 11.7119 5.34058 11.7236 5.59836C11.7353 5.85615 11.7549 6.21939 11.7666 6.40687L11.79 6.75059H11.1651C10.5948 6.75059 10.5362 6.7584 10.4386 6.83261C10.3644 6.8912 10.337 6.94978 10.337 7.04352C10.337 7.13726 10.3644 7.19585 10.4386 7.25444C10.5362 7.32865 10.5948 7.33646 11.1807 7.33646H11.8213L11.8252 7.5591C11.8252 7.68408 11.8486 8.16841 11.872 8.63711L11.9189 9.48468H11.0206H10.1183L9.81366 7.48098C9.64571 6.38344 9.47776 5.28199 9.4387 5.03983L9.3723 4.60237H10.5167H11.6572L11.6807 4.86406ZM14.5554 4.66877C14.5554 4.86406 14.4733 6.44202 14.4538 6.58263L14.4343 6.75059H13.407H12.3759L12.3525 6.4264C12.3407 6.25064 12.3212 5.87568 12.3095 5.59836C12.2978 5.31714 12.2782 4.98124 12.2665 4.84453L12.2431 4.60237H13.3992C14.4733 4.60237 14.5554 4.60628 14.5554 4.66877ZM17.434 4.6883C17.4222 4.73907 17.348 5.2234 17.266 5.76241L17.1176 6.75059H16.0747H15.0319L15.0475 6.52405C15.0709 6.19986 15.1412 4.83282 15.1412 4.70783V4.60237H16.2974H17.4535L17.434 4.6883ZM20.0587 5.65695C19.9103 6.23892 19.7892 6.72324 19.7892 6.73106C19.7892 6.74277 19.3244 6.75059 18.7541 6.75059C18.18 6.75059 17.7191 6.73496 17.7191 6.71543C17.7191 6.6959 17.7894 6.23111 17.8753 5.67648C17.9613 5.12185 18.0316 4.65705 18.0316 4.63752C18.0316 4.61799 18.5393 4.60237 19.1799 4.60237H20.3282L20.0587 5.65695ZM9.20435 7.35599C9.20435 7.36771 9.27465 7.8325 9.36058 8.39104C9.44651 8.94958 9.51681 9.42218 9.51681 9.44562C9.51681 9.46905 9.21216 9.48468 8.61847 9.48468H7.72403L7.68497 9.33626C7.66544 9.25814 7.54827 8.80506 7.42719 8.33245C7.30611 7.85985 7.20065 7.44192 7.18893 7.40286C7.1694 7.34037 7.2358 7.33646 8.18492 7.33646C8.74736 7.33646 9.20435 7.34427 9.20435 7.35599ZM14.3718 8.18403C14.3483 8.65273 14.3249 9.13706 14.3249 9.26204L14.321 9.48468L13.4148 9.47687L12.5048 9.46515L12.4579 8.62539C12.4345 8.1645 12.415 7.68408 12.411 7.5591L12.4071 7.33646H13.4148H14.4187L14.3718 8.18403ZM17.016 7.37552C17.016 7.39896 16.9457 7.87156 16.8598 8.4301C16.7739 8.98864 16.7036 9.45343 16.7036 9.46515C16.7036 9.47687 16.3013 9.48468 15.8052 9.48468H14.9069V9.39484C14.9069 9.19565 14.9928 7.4302 15.0084 7.38333C15.0241 7.32084 17.016 7.31303 17.016 7.37552ZM19.6173 7.40286C19.6056 7.44192 19.4962 7.85985 19.3791 8.33245C19.258 8.80506 19.1408 9.25814 19.1213 9.33626L19.0822 9.48468H18.1839H17.2816L17.3012 9.39484C17.3129 9.34797 17.3871 8.86365 17.4691 8.32074L17.6175 7.33646H18.6292C19.5705 7.33646 19.6369 7.34037 19.6173 7.40286ZM9.76679 11.0548C9.84881 11.5977 9.92302 12.0821 9.93474 12.1289L9.95427 12.2188H9.19263C8.49739 12.2188 8.42708 12.211 8.40755 12.1485C8.39584 12.1133 8.27866 11.6602 8.14977 11.1447C8.01697 10.6291 7.89979 10.176 7.89198 10.137C7.87245 10.0745 7.93104 10.0706 8.74736 10.0706H9.61837L9.76679 11.0548ZM11.9541 10.2346C11.9736 10.3791 12.0556 11.9571 12.0556 12.1485C12.0556 12.2149 11.9931 12.2188 11.294 12.2188C10.876 12.2188 10.5323 12.2031 10.5323 12.1836C10.5323 12.1641 10.462 11.6993 10.3761 11.1447C10.2902 10.59 10.2199 10.1252 10.2199 10.1057C10.2199 10.0862 10.6065 10.0706 11.0752 10.0706H11.9345L11.9541 10.2346ZM14.2663 10.4104C14.2546 10.6017 14.2351 10.965 14.2234 11.2228C14.2116 11.4806 14.1921 11.8087 14.1804 11.9532L14.157 12.2188H13.3992H12.6415V12.1133C12.6415 11.9883 12.5712 10.6213 12.5478 10.2932L12.5321 10.0706H13.4109H14.2898L14.2663 10.4104ZM16.5864 10.1448C16.5864 10.2151 16.3325 11.9102 16.2896 12.1094L16.2661 12.2188H15.5084H14.7506L14.7702 11.9141C14.7936 11.5977 14.8678 10.2112 14.8678 10.1213C14.8678 10.0823 15.0397 10.0706 15.7271 10.0706C16.5395 10.0706 16.5864 10.0745 16.5864 10.1448ZM18.9143 10.137C18.9026 10.176 18.8401 10.426 18.7737 10.6955C18.7073 10.965 18.6174 11.2618 18.5745 11.3556C18.3362 11.8985 17.7699 12.2383 17.1449 12.211L16.8754 12.1992L17.0395 11.1447C17.1293 10.5627 17.2035 10.0862 17.2074 10.0784C17.2113 10.0745 17.598 10.0706 18.0745 10.0706C18.8752 10.0706 18.9338 10.0745 18.9143 10.137Z"/>
</mask>
<path d="M1.56842 1.06758C1.48249 1.09883 1.33797 1.20038 1.24814 1.29412C0.845838 1.71986 0.943484 2.33307 1.46296 2.65726C1.59967 2.74319 1.65435 2.74709 2.50582 2.76662L3.40417 2.78615L3.65805 2.90723C3.95098 3.04784 4.21268 3.29001 4.34548 3.5517C4.41969 3.70403 6.70461 12.4922 6.70461 12.6367C6.70461 12.6562 6.26325 12.9257 5.72424 13.2343C4.93916 13.6796 4.697 13.8358 4.52124 14.0155C4.11894 14.4217 3.90411 14.9997 3.94317 15.5583C4.00567 16.4136 4.50171 17.0698 5.32975 17.3862L5.55238 17.4721L12.29 17.4839C17.5472 17.4917 19.0666 17.4839 19.2033 17.4448C19.5353 17.355 19.8282 16.9605 19.8282 16.6089C19.8282 16.2691 19.5314 15.8629 19.2228 15.777C19.1135 15.7457 17.1254 15.734 12.4735 15.734H5.88047L5.78673 15.6364C5.67346 15.527 5.66174 15.3864 5.75549 15.2692C5.79454 15.2263 6.31012 14.9177 6.8999 14.5818L7.97401 13.9764H10.4581C12.8446 13.9764 12.9579 13.9725 13.2 13.8983C13.4734 13.8124 13.782 13.5975 13.9343 13.3866C13.9812 13.3202 14.0632 13.164 14.1101 13.0429L14.1999 12.8242L15.9302 12.8046C17.4066 12.7851 17.6878 12.7734 17.8558 12.7148C18.3596 12.5469 18.8518 12.1211 19.0744 11.6641C19.1564 11.4884 19.4572 10.3908 20.0978 7.87937C20.5938 5.93426 21 4.31334 21 4.27428C21 4.23913 20.957 4.16492 20.9024 4.11414L20.8086 4.01649H13.5633H6.32183L6.27496 3.80948C6.24762 3.70012 6.17732 3.44624 6.11482 3.25485C5.74767 2.10263 4.73997 1.23944 3.54087 1.04805C3.14638 0.989464 1.75981 1.00118 1.56842 1.06758ZM3.56821 1.65346C3.87677 1.71204 4.41578 1.94249 4.59545 2.09482L4.6931 2.17684L4.4939 2.37994L4.29079 2.57914L4.11894 2.47759C3.71663 2.24324 3.55259 2.20809 2.61128 2.18465C1.75199 2.16122 1.73637 2.16122 1.66216 2.06748C1.56061 1.94249 1.56842 1.80578 1.68559 1.69252C1.77933 1.59487 1.78715 1.59487 2.52145 1.59487C3.01358 1.59487 3.3612 1.6144 3.56821 1.65346ZM5.21648 2.72366C5.47426 3.0869 5.55629 3.37203 6.74366 8.01999C7.78652 12.1094 7.93104 12.6406 8.01697 12.7148L8.11462 12.8046H10.8487C12.3486 12.8046 13.5789 12.8164 13.5789 12.8359C13.5789 12.9218 13.3602 13.1679 13.1961 13.2616L13.0125 13.371L10.3956 13.3905L7.77871 13.4101L6.66945 14.035C5.91953 14.4568 5.50161 14.7185 5.37662 14.8357C5.12274 15.0857 5.04853 15.363 5.14617 15.7145C5.20086 15.9137 5.50942 16.2223 5.71643 16.2769C5.81798 16.3082 7.92714 16.3199 12.4579 16.3199H19.051L19.1447 16.4176C19.2697 16.5386 19.2697 16.6871 19.1447 16.812L19.051 16.9058L12.3407 16.898L5.6305 16.8863L5.39224 16.7769C5.09149 16.6363 4.79074 16.3355 4.64623 16.027C4.55249 15.8278 4.53686 15.7418 4.53686 15.4411C4.53686 15.1364 4.55249 15.0583 4.64623 14.8513C4.81418 14.492 5.06415 14.2772 5.80626 13.8553C7.33735 12.996 7.28267 13.0273 7.32954 12.8984C7.35688 12.8359 7.06004 11.6251 6.232 8.38323C4.95869 3.39156 4.98213 3.4853 4.82199 3.20017L4.70481 2.98926L4.89229 2.80178C4.99775 2.69632 5.09149 2.61039 5.10711 2.61039C5.12274 2.61039 5.17351 2.66116 5.21648 2.72366ZM8.79033 4.70783C8.83329 4.91093 9.08717 6.60607 9.08717 6.67637C9.08717 6.74668 9.0364 6.75059 8.05603 6.75059H7.02489L6.98192 6.58263C6.95849 6.4928 6.84131 6.03972 6.72413 5.57493C6.60696 5.11404 6.5015 4.70392 6.48588 4.66877C6.46244 4.60628 6.55228 4.60237 7.61467 4.60237H8.76689L8.79033 4.70783ZM11.6807 4.86406C11.6924 5.01248 11.7119 5.34058 11.7236 5.59836C11.7353 5.85615 11.7549 6.21939 11.7666 6.40687L11.79 6.75059H11.1651C10.5948 6.75059 10.5362 6.7584 10.4386 6.83261C10.3644 6.8912 10.337 6.94978 10.337 7.04352C10.337 7.13726 10.3644 7.19585 10.4386 7.25444C10.5362 7.32865 10.5948 7.33646 11.1807 7.33646H11.8213L11.8252 7.5591C11.8252 7.68408 11.8486 8.16841 11.872 8.63711L11.9189 9.48468H11.0206H10.1183L9.81366 7.48098C9.64571 6.38344 9.47776 5.28199 9.4387 5.03983L9.3723 4.60237H10.5167H11.6572L11.6807 4.86406ZM14.5554 4.66877C14.5554 4.86406 14.4733 6.44202 14.4538 6.58263L14.4343 6.75059H13.407H12.3759L12.3525 6.4264C12.3407 6.25064 12.3212 5.87568 12.3095 5.59836C12.2978 5.31714 12.2782 4.98124 12.2665 4.84453L12.2431 4.60237H13.3992C14.4733 4.60237 14.5554 4.60628 14.5554 4.66877ZM17.434 4.6883C17.4222 4.73907 17.348 5.2234 17.266 5.76241L17.1176 6.75059H16.0747H15.0319L15.0475 6.52405C15.0709 6.19986 15.1412 4.83282 15.1412 4.70783V4.60237H16.2974H17.4535L17.434 4.6883ZM20.0587 5.65695C19.9103 6.23892 19.7892 6.72324 19.7892 6.73106C19.7892 6.74277 19.3244 6.75059 18.7541 6.75059C18.18 6.75059 17.7191 6.73496 17.7191 6.71543C17.7191 6.6959 17.7894 6.23111 17.8753 5.67648C17.9613 5.12185 18.0316 4.65705 18.0316 4.63752C18.0316 4.61799 18.5393 4.60237 19.1799 4.60237H20.3282L20.0587 5.65695ZM9.20435 7.35599C9.20435 7.36771 9.27465 7.8325 9.36058 8.39104C9.44651 8.94958 9.51681 9.42218 9.51681 9.44562C9.51681 9.46905 9.21216 9.48468 8.61847 9.48468H7.72403L7.68497 9.33626C7.66544 9.25814 7.54827 8.80506 7.42719 8.33245C7.30611 7.85985 7.20065 7.44192 7.18893 7.40286C7.1694 7.34037 7.2358 7.33646 8.18492 7.33646C8.74736 7.33646 9.20435 7.34427 9.20435 7.35599ZM14.3718 8.18403C14.3483 8.65273 14.3249 9.13706 14.3249 9.26204L14.321 9.48468L13.4148 9.47687L12.5048 9.46515L12.4579 8.62539C12.4345 8.1645 12.415 7.68408 12.411 7.5591L12.4071 7.33646H13.4148H14.4187L14.3718 8.18403ZM17.016 7.37552C17.016 7.39896 16.9457 7.87156 16.8598 8.4301C16.7739 8.98864 16.7036 9.45343 16.7036 9.46515C16.7036 9.47687 16.3013 9.48468 15.8052 9.48468H14.9069V9.39484C14.9069 9.19565 14.9928 7.4302 15.0084 7.38333C15.0241 7.32084 17.016 7.31303 17.016 7.37552ZM19.6173 7.40286C19.6056 7.44192 19.4962 7.85985 19.3791 8.33245C19.258 8.80506 19.1408 9.25814 19.1213 9.33626L19.0822 9.48468H18.1839H17.2816L17.3012 9.39484C17.3129 9.34797 17.3871 8.86365 17.4691 8.32074L17.6175 7.33646H18.6292C19.5705 7.33646 19.6369 7.34037 19.6173 7.40286ZM9.76679 11.0548C9.84881 11.5977 9.92302 12.0821 9.93474 12.1289L9.95427 12.2188H9.19263C8.49739 12.2188 8.42708 12.211 8.40755 12.1485C8.39584 12.1133 8.27866 11.6602 8.14977 11.1447C8.01697 10.6291 7.89979 10.176 7.89198 10.137C7.87245 10.0745 7.93104 10.0706 8.74736 10.0706H9.61837L9.76679 11.0548ZM11.9541 10.2346C11.9736 10.3791 12.0556 11.9571 12.0556 12.1485C12.0556 12.2149 11.9931 12.2188 11.294 12.2188C10.876 12.2188 10.5323 12.2031 10.5323 12.1836C10.5323 12.1641 10.462 11.6993 10.3761 11.1447C10.2902 10.59 10.2199 10.1252 10.2199 10.1057C10.2199 10.0862 10.6065 10.0706 11.0752 10.0706H11.9345L11.9541 10.2346ZM14.2663 10.4104C14.2546 10.6017 14.2351 10.965 14.2234 11.2228C14.2116 11.4806 14.1921 11.8087 14.1804 11.9532L14.157 12.2188H13.3992H12.6415V12.1133C12.6415 11.9883 12.5712 10.6213 12.5478 10.2932L12.5321 10.0706H13.4109H14.2898L14.2663 10.4104ZM16.5864 10.1448C16.5864 10.2151 16.3325 11.9102 16.2896 12.1094L16.2661 12.2188H15.5084H14.7506L14.7702 11.9141C14.7936 11.5977 14.8678 10.2112 14.8678 10.1213C14.8678 10.0823 15.0397 10.0706 15.7271 10.0706C16.5395 10.0706 16.5864 10.0745 16.5864 10.1448ZM18.9143 10.137C18.9026 10.176 18.8401 10.426 18.7737 10.6955C18.7073 10.965 18.6174 11.2618 18.5745 11.3556C18.3362 11.8985 17.7699 12.2383 17.1449 12.211L16.8754 12.1992L17.0395 11.1447C17.1293 10.5627 17.2035 10.0862 17.2074 10.0784C17.2113 10.0745 17.598 10.0706 18.0745 10.0706C18.8752 10.0706 18.9338 10.0745 18.9143 10.137Z" fill="black"/>
<path d="M1.56842 1.06758C1.48249 1.09883 1.33797 1.20038 1.24814 1.29412C0.845838 1.71986 0.943484 2.33307 1.46296 2.65726C1.59967 2.74319 1.65435 2.74709 2.50582 2.76662L3.40417 2.78615L3.65805 2.90723C3.95098 3.04784 4.21268 3.29001 4.34548 3.5517C4.41969 3.70403 6.70461 12.4922 6.70461 12.6367C6.70461 12.6562 6.26325 12.9257 5.72424 13.2343C4.93916 13.6796 4.697 13.8358 4.52124 14.0155C4.11894 14.4217 3.90411 14.9997 3.94317 15.5583C4.00567 16.4136 4.50171 17.0698 5.32975 17.3862L5.55238 17.4721L12.29 17.4839C17.5472 17.4917 19.0666 17.4839 19.2033 17.4448C19.5353 17.355 19.8282 16.9605 19.8282 16.6089C19.8282 16.2691 19.5314 15.8629 19.2228 15.777C19.1135 15.7457 17.1254 15.734 12.4735 15.734H5.88047L5.78673 15.6364C5.67346 15.527 5.66174 15.3864 5.75549 15.2692C5.79454 15.2263 6.31012 14.9177 6.8999 14.5818L7.97401 13.9764H10.4581C12.8446 13.9764 12.9579 13.9725 13.2 13.8983C13.4734 13.8124 13.782 13.5975 13.9343 13.3866C13.9812 13.3202 14.0632 13.164 14.1101 13.0429L14.1999 12.8242L15.9302 12.8046C17.4066 12.7851 17.6878 12.7734 17.8558 12.7148C18.3596 12.5469 18.8518 12.1211 19.0744 11.6641C19.1564 11.4884 19.4572 10.3908 20.0978 7.87937C20.5938 5.93426 21 4.31334 21 4.27428C21 4.23913 20.957 4.16492 20.9024 4.11414L20.8086 4.01649H13.5633H6.32183L6.27496 3.80948C6.24762 3.70012 6.17732 3.44624 6.11482 3.25485C5.74767 2.10263 4.73997 1.23944 3.54087 1.04805C3.14638 0.989464 1.75981 1.00118 1.56842 1.06758ZM3.56821 1.65346C3.87677 1.71204 4.41578 1.94249 4.59545 2.09482L4.6931 2.17684L4.4939 2.37994L4.29079 2.57914L4.11894 2.47759C3.71663 2.24324 3.55259 2.20809 2.61128 2.18465C1.75199 2.16122 1.73637 2.16122 1.66216 2.06748C1.56061 1.94249 1.56842 1.80578 1.68559 1.69252C1.77933 1.59487 1.78715 1.59487 2.52145 1.59487C3.01358 1.59487 3.3612 1.6144 3.56821 1.65346ZM5.21648 2.72366C5.47426 3.0869 5.55629 3.37203 6.74366 8.01999C7.78652 12.1094 7.93104 12.6406 8.01697 12.7148L8.11462 12.8046H10.8487C12.3486 12.8046 13.5789 12.8164 13.5789 12.8359C13.5789 12.9218 13.3602 13.1679 13.1961 13.2616L13.0125 13.371L10.3956 13.3905L7.77871 13.4101L6.66945 14.035C5.91953 14.4568 5.50161 14.7185 5.37662 14.8357C5.12274 15.0857 5.04853 15.363 5.14617 15.7145C5.20086 15.9137 5.50942 16.2223 5.71643 16.2769C5.81798 16.3082 7.92714 16.3199 12.4579 16.3199H19.051L19.1447 16.4176C19.2697 16.5386 19.2697 16.6871 19.1447 16.812L19.051 16.9058L12.3407 16.898L5.6305 16.8863L5.39224 16.7769C5.09149 16.6363 4.79074 16.3355 4.64623 16.027C4.55249 15.8278 4.53686 15.7418 4.53686 15.4411C4.53686 15.1364 4.55249 15.0583 4.64623 14.8513C4.81418 14.492 5.06415 14.2772 5.80626 13.8553C7.33735 12.996 7.28267 13.0273 7.32954 12.8984C7.35688 12.8359 7.06004 11.6251 6.232 8.38323C4.95869 3.39156 4.98213 3.4853 4.82199 3.20017L4.70481 2.98926L4.89229 2.80178C4.99775 2.69632 5.09149 2.61039 5.10711 2.61039C5.12274 2.61039 5.17351 2.66116 5.21648 2.72366ZM8.79033 4.70783C8.83329 4.91093 9.08717 6.60607 9.08717 6.67637C9.08717 6.74668 9.0364 6.75059 8.05603 6.75059H7.02489L6.98192 6.58263C6.95849 6.4928 6.84131 6.03972 6.72413 5.57493C6.60696 5.11404 6.5015 4.70392 6.48588 4.66877C6.46244 4.60628 6.55228 4.60237 7.61467 4.60237H8.76689L8.79033 4.70783ZM11.6807 4.86406C11.6924 5.01248 11.7119 5.34058 11.7236 5.59836C11.7353 5.85615 11.7549 6.21939 11.7666 6.40687L11.79 6.75059H11.1651C10.5948 6.75059 10.5362 6.7584 10.4386 6.83261C10.3644 6.8912 10.337 6.94978 10.337 7.04352C10.337 7.13726 10.3644 7.19585 10.4386 7.25444C10.5362 7.32865 10.5948 7.33646 11.1807 7.33646H11.8213L11.8252 7.5591C11.8252 7.68408 11.8486 8.16841 11.872 8.63711L11.9189 9.48468H11.0206H10.1183L9.81366 7.48098C9.64571 6.38344 9.47776 5.28199 9.4387 5.03983L9.3723 4.60237H10.5167H11.6572L11.6807 4.86406ZM14.5554 4.66877C14.5554 4.86406 14.4733 6.44202 14.4538 6.58263L14.4343 6.75059H13.407H12.3759L12.3525 6.4264C12.3407 6.25064 12.3212 5.87568 12.3095 5.59836C12.2978 5.31714 12.2782 4.98124 12.2665 4.84453L12.2431 4.60237H13.3992C14.4733 4.60237 14.5554 4.60628 14.5554 4.66877ZM17.434 4.6883C17.4222 4.73907 17.348 5.2234 17.266 5.76241L17.1176 6.75059H16.0747H15.0319L15.0475 6.52405C15.0709 6.19986 15.1412 4.83282 15.1412 4.70783V4.60237H16.2974H17.4535L17.434 4.6883ZM20.0587 5.65695C19.9103 6.23892 19.7892 6.72324 19.7892 6.73106C19.7892 6.74277 19.3244 6.75059 18.7541 6.75059C18.18 6.75059 17.7191 6.73496 17.7191 6.71543C17.7191 6.6959 17.7894 6.23111 17.8753 5.67648C17.9613 5.12185 18.0316 4.65705 18.0316 4.63752C18.0316 4.61799 18.5393 4.60237 19.1799 4.60237H20.3282L20.0587 5.65695ZM9.20435 7.35599C9.20435 7.36771 9.27465 7.8325 9.36058 8.39104C9.44651 8.94958 9.51681 9.42218 9.51681 9.44562C9.51681 9.46905 9.21216 9.48468 8.61847 9.48468H7.72403L7.68497 9.33626C7.66544 9.25814 7.54827 8.80506 7.42719 8.33245C7.30611 7.85985 7.20065 7.44192 7.18893 7.40286C7.1694 7.34037 7.2358 7.33646 8.18492 7.33646C8.74736 7.33646 9.20435 7.34427 9.20435 7.35599ZM14.3718 8.18403C14.3483 8.65273 14.3249 9.13706 14.3249 9.26204L14.321 9.48468L13.4148 9.47687L12.5048 9.46515L12.4579 8.62539C12.4345 8.1645 12.415 7.68408 12.411 7.5591L12.4071 7.33646H13.4148H14.4187L14.3718 8.18403ZM17.016 7.37552C17.016 7.39896 16.9457 7.87156 16.8598 8.4301C16.7739 8.98864 16.7036 9.45343 16.7036 9.46515C16.7036 9.47687 16.3013 9.48468 15.8052 9.48468H14.9069V9.39484C14.9069 9.19565 14.9928 7.4302 15.0084 7.38333C15.0241 7.32084 17.016 7.31303 17.016 7.37552ZM19.6173 7.40286C19.6056 7.44192 19.4962 7.85985 19.3791 8.33245C19.258 8.80506 19.1408 9.25814 19.1213 9.33626L19.0822 9.48468H18.1839H17.2816L17.3012 9.39484C17.3129 9.34797 17.3871 8.86365 17.4691 8.32074L17.6175 7.33646H18.6292C19.5705 7.33646 19.6369 7.34037 19.6173 7.40286ZM9.76679 11.0548C9.84881 11.5977 9.92302 12.0821 9.93474 12.1289L9.95427 12.2188H9.19263C8.49739 12.2188 8.42708 12.211 8.40755 12.1485C8.39584 12.1133 8.27866 11.6602 8.14977 11.1447C8.01697 10.6291 7.89979 10.176 7.89198 10.137C7.87245 10.0745 7.93104 10.0706 8.74736 10.0706H9.61837L9.76679 11.0548ZM11.9541 10.2346C11.9736 10.3791 12.0556 11.9571 12.0556 12.1485C12.0556 12.2149 11.9931 12.2188 11.294 12.2188C10.876 12.2188 10.5323 12.2031 10.5323 12.1836C10.5323 12.1641 10.462 11.6993 10.3761 11.1447C10.2902 10.59 10.2199 10.1252 10.2199 10.1057C10.2199 10.0862 10.6065 10.0706 11.0752 10.0706H11.9345L11.9541 10.2346ZM14.2663 10.4104C14.2546 10.6017 14.2351 10.965 14.2234 11.2228C14.2116 11.4806 14.1921 11.8087 14.1804 11.9532L14.157 12.2188H13.3992H12.6415V12.1133C12.6415 11.9883 12.5712 10.6213 12.5478 10.2932L12.5321 10.0706H13.4109H14.2898L14.2663 10.4104ZM16.5864 10.1448C16.5864 10.2151 16.3325 11.9102 16.2896 12.1094L16.2661 12.2188H15.5084H14.7506L14.7702 11.9141C14.7936 11.5977 14.8678 10.2112 14.8678 10.1213C14.8678 10.0823 15.0397 10.0706 15.7271 10.0706C16.5395 10.0706 16.5864 10.0745 16.5864 10.1448ZM18.9143 10.137C18.9026 10.176 18.8401 10.426 18.7737 10.6955C18.7073 10.965 18.6174 11.2618 18.5745 11.3556C18.3362 11.8985 17.7699 12.2383 17.1449 12.211L16.8754 12.1992L17.0395 11.1447C17.1293 10.5627 17.2035 10.0862 17.2074 10.0784C17.2113 10.0745 17.598 10.0706 18.0745 10.0706C18.8752 10.0706 18.9338 10.0745 18.9143 10.137Z" stroke="black" stroke-width="0.4" mask="url(#path-1-outside-1_123_227)"/>
<path d="M7.37147 18.0198L7.37146 18.0198L7.37321 18.0193C7.46855 17.9966 7.67425 17.9853 7.83618 17.9973C8.41284 18.027 8.89709 18.3585 9.15422 18.8934C9.2096 19.0081 9.24463 19.0909 9.26382 19.1879C9.28259 19.2829 9.28525 19.387 9.28525 19.5423C9.28525 19.6975 9.28259 19.8016 9.26382 19.8966C9.24463 19.9937 9.20962 20.0764 9.15425 20.1911C8.98831 20.5354 8.72978 20.7942 8.38871 20.9565C8.27412 21.0118 8.19142 21.0468 8.0944 21.066C7.99946 21.0848 7.89535 21.0874 7.74008 21.0874C7.58956 21.0874 7.48562 21.0837 7.39213 21.0662C7.29658 21.0483 7.21651 21.017 7.1123 20.9689L7.1123 20.9689L7.11179 20.9686C6.78231 20.8143 6.46436 20.4966 6.3137 20.1744L6.3137 20.1744L6.31349 20.174C6.26523 20.0694 6.23396 19.9884 6.21612 19.892C6.19867 19.7976 6.19492 19.6928 6.19492 19.5423C6.19492 19.3899 6.19865 19.2858 6.21618 19.1927C6.2341 19.0975 6.26554 19.0184 6.31349 18.9145L6.31364 18.9141C6.51323 18.4859 6.93118 18.133 7.37147 18.0198ZM7.74281 20.3225C7.92409 20.3213 8.11088 20.2429 8.27886 20.0768C8.45971 19.8958 8.53267 19.6754 8.51019 19.465C8.48768 19.2543 8.3684 19.045 8.14787 18.8901C8.06508 18.8334 7.94723 18.7936 7.81943 18.7789C7.6919 18.7642 7.56363 18.7755 7.46204 18.812C7.38294 18.8416 7.27846 18.9191 7.18444 19.0187C7.08989 19.1188 7.02161 19.2247 7.00059 19.2995C6.95524 19.4647 6.95081 19.6045 6.98297 19.7286C7.01505 19.8523 7.08573 19.9687 7.20429 20.0837C7.37398 20.248 7.56152 20.3238 7.74281 20.3225Z" fill="black" stroke="black" stroke-width="0.2"/>
<path d="M7.34678 19.5423C7.34678 19.4933 7.36455 19.4412 7.38541 19.3989C7.40657 19.356 7.43673 19.3113 7.47368 19.2762C7.50876 19.2393 7.55347 19.2091 7.59638 19.188C7.63867 19.1671 7.6907 19.1493 7.73972 19.1493C7.84181 19.1493 7.93905 19.2106 8.00523 19.2768C8.07141 19.3429 8.13265 19.4402 8.13265 19.5423C8.13265 19.6444 8.07141 19.7416 8.00523 19.8078C7.93905 19.874 7.84181 19.9352 7.73972 19.9352C7.63762 19.9352 7.54039 19.874 7.4742 19.8078C7.40802 19.7416 7.34678 19.6444 7.34678 19.5423Z" fill="black" stroke="black" stroke-width="0.2"/>
<path d="M17.4091 18.0198L17.4091 18.0198L17.4108 18.0193C17.5062 17.9966 17.7118 17.9853 17.8738 17.9973C18.4504 18.027 18.9347 18.3585 19.1918 18.8934C19.2472 19.0081 19.2822 19.0909 19.3014 19.1879C19.3202 19.2829 19.3228 19.387 19.3228 19.5423C19.3228 19.6975 19.3202 19.8016 19.3014 19.8966C19.2822 19.9937 19.2472 20.0764 19.1918 20.1911C19.0259 20.5354 18.7674 20.7942 18.4263 20.9565C18.3117 21.0118 18.229 21.0468 18.132 21.066C18.0371 21.0848 17.9329 21.0874 17.7777 21.0874C17.6272 21.0874 17.5232 21.0837 17.4297 21.0662C17.3342 21.0483 17.2541 21.017 17.1499 20.9689L17.1499 20.9689L17.1494 20.9686C16.8199 20.8143 16.502 20.4966 16.3513 20.1744L16.3513 20.1744L16.3511 20.174C16.3028 20.0694 16.2716 19.9884 16.2537 19.892C16.2363 19.7976 16.2325 19.6928 16.2325 19.5423C16.2325 19.3899 16.2363 19.2858 16.2538 19.1927C16.2717 19.0975 16.3031 19.0184 16.3511 18.9145L16.3512 18.9141C16.5508 18.4859 16.9688 18.133 17.4091 18.0198ZM17.7804 20.3225C17.9617 20.3213 18.1485 20.2429 18.3165 20.0768C18.4973 19.8958 18.5703 19.6754 18.5478 19.465C18.5253 19.2543 18.406 19.045 18.1855 18.8901C18.1027 18.8334 17.9848 18.7936 17.857 18.7789C17.7295 18.7642 17.6012 18.7755 17.4996 18.812C17.4205 18.8416 17.3161 18.9191 17.222 19.0187C17.1275 19.1188 17.0592 19.2247 17.0382 19.2995C16.9928 19.4647 16.9884 19.6045 17.0206 19.7286C17.0527 19.8523 17.1233 19.9687 17.2419 20.0837C17.4116 20.248 17.5991 20.3238 17.7804 20.3225Z" fill="black" stroke="black" stroke-width="0.2"/>
<path d="M17.3849 19.5423C17.3849 19.4933 17.4026 19.4412 17.4235 19.3989C17.4447 19.356 17.4748 19.3113 17.5118 19.2762C17.5468 19.2393 17.5916 19.2091 17.6345 19.188C17.6768 19.1671 17.7288 19.1493 17.7778 19.1493C17.8799 19.1493 17.9771 19.2106 18.0433 19.2768C18.1095 19.3429 18.1707 19.4402 18.1707 19.5423C18.1707 19.6444 18.1095 19.7416 18.0433 19.8078C17.9771 19.874 17.8799 19.9352 17.7778 19.9352C17.6757 19.9352 17.5785 19.874 17.5123 19.8078C17.4461 19.7416 17.3849 19.6444 17.3849 19.5423Z" fill="black" stroke="black" stroke-width="0.2"/>
</svg>
