<svg width="203" height="46" viewBox="0 0 203 46" fill="none" xmlns="http://www.w3.org/2000/svg">
<path d="M10 7.63354C12.8461 10.4962 15.6923 13.3588 18.5351 16.2214H30.8981C32.8284 16.6957 34.0308 17.4995 34.7819 18.1682C35.6746 18.9621 36.1028 19.7198 37.292 20.1744C38.356 20.5795 39.308 20.4708 39.6473 20.428C41.1659 20.2337 42.9349 19.3014 43.7321 17.5983C44.5622 15.8228 43.9495 14.0472 43.7683 13.5301C42.4111 9.61662 37.4271 7.70602 33.7475 7.75543C33.5762 7.75543 33.4346 7.76531 33.3291 7.7686C25.5517 7.72578 17.7775 7.67966 10 7.63354Z" fill="#3E4444"/>
<path d="M18.7295 22.4967H30.6312C31.1912 22.5725 32.051 22.7471 32.9866 23.2115C34.4294 23.9264 35.2628 24.9344 35.5527 25.2737C36.9857 26.957 41.2351 31.2262 47.2436 37.1754C44.4107 37.2611 41.8939 37.3105 39.7593 37.3434C36.0798 37.3994 35.4176 37.3698 34.4459 37.0634C31.6425 36.1839 29.7715 34.1217 28.3286 32.5307C26.9978 31.0648 26.586 30.2215 24.715 28.4262C23.7794 27.5269 23.5752 27.4544 22.5178 26.4925C21.3681 25.4483 20.0702 24.1306 18.7328 22.4967H18.7295Z" fill="white"/>
<path d="M70.1137 33L65.4937 24.84H63.5137V33H59.3137V12.06H67.1737C68.7937 12.06 70.1737 12.35 71.3137 12.93C72.4537 13.49 73.3037 14.26 73.8637 15.24C74.4437 16.2 74.7337 17.28 74.7337 18.48C74.7337 19.86 74.3337 21.11 73.5337 22.23C72.7337 23.33 71.5437 24.09 69.9637 24.51L74.9737 33H70.1137ZM63.5137 21.69H67.0237C68.1637 21.69 69.0137 21.42 69.5737 20.88C70.1337 20.32 70.4137 19.55 70.4137 18.57C70.4137 17.61 70.1337 16.87 69.5737 16.35C69.0137 15.81 68.1637 15.54 67.0237 15.54H63.5137V21.69ZM93.9824 24.33C93.9824 24.93 93.9424 25.47 93.8624 25.95H81.7124C81.8124 27.15 82.2324 28.09 82.9724 28.77C83.7124 29.45 84.6224 29.79 85.7024 29.79C87.2624 29.79 88.3724 29.12 89.0324 27.78H93.5624C93.0824 29.38 92.1624 30.7 90.8024 31.74C89.4424 32.76 87.7724 33.27 85.7924 33.27C84.1924 33.27 82.7524 32.92 81.4724 32.22C80.2124 31.5 79.2224 30.49 78.5024 29.19C77.8024 27.89 77.4524 26.39 77.4524 24.69C77.4524 22.97 77.8024 21.46 78.5024 20.16C79.2024 18.86 80.1824 17.86 81.4424 17.16C82.7024 16.46 84.1524 16.11 85.7924 16.11C87.3724 16.11 88.7824 16.45 90.0224 17.13C91.2824 17.81 92.2524 18.78 92.9324 20.04C93.6324 21.28 93.9824 22.71 93.9824 24.33ZM89.6324 23.13C89.6124 22.05 89.2224 21.19 88.4624 20.55C87.7024 19.89 86.7724 19.56 85.6724 19.56C84.6324 19.56 83.7524 19.88 83.0324 20.52C82.3324 21.14 81.9024 22.01 81.7424 23.13H89.6324ZM106.888 33L101.248 25.92V33H97.048V10.8H101.248V23.43L106.828 16.38H112.288L104.968 24.72L112.348 33H106.888ZM113.488 24.63C113.488 22.95 113.818 21.46 114.478 20.16C115.158 18.86 116.068 17.86 117.208 17.16C118.368 16.46 119.658 16.11 121.078 16.11C122.318 16.11 123.398 16.36 124.318 16.86C125.258 17.36 126.008 17.99 126.568 18.75V16.38H130.798V33H126.568V30.57C126.028 31.35 125.278 32 124.318 32.52C123.378 33.02 122.288 33.27 121.048 33.27C119.648 33.27 118.368 32.91 117.208 32.19C116.068 31.47 115.158 30.46 114.478 29.16C113.818 27.84 113.488 26.33 113.488 24.63ZM126.568 24.69C126.568 23.67 126.368 22.8 125.968 22.08C125.568 21.34 125.028 20.78 124.348 20.4C123.668 20 122.938 19.8 122.158 19.8C121.378 19.8 120.658 19.99 119.998 20.37C119.338 20.75 118.798 21.31 118.378 22.05C117.978 22.77 117.778 23.63 117.778 24.63C117.778 25.63 117.978 26.51 118.378 27.27C118.798 28.01 119.338 28.58 119.998 28.98C120.678 29.38 121.398 29.58 122.158 29.58C122.938 29.58 123.668 29.39 124.348 29.01C125.028 28.61 125.568 28.05 125.968 27.33C126.368 26.59 126.568 25.71 126.568 24.69ZM139.1 18.78C139.64 18.02 140.38 17.39 141.32 16.89C142.28 16.37 143.37 16.11 144.59 16.11C146.01 16.11 147.29 16.46 148.43 17.16C149.59 17.86 150.5 18.86 151.16 20.16C151.84 21.44 152.18 22.93 152.18 24.63C152.18 26.33 151.84 27.84 151.16 29.16C150.5 30.46 149.59 31.47 148.43 32.19C147.29 32.91 146.01 33.27 144.59 33.27C143.37 33.27 142.29 33.02 141.35 32.52C140.43 32.02 139.68 31.39 139.1 30.63V40.92H134.9V16.38H139.1V18.78ZM147.89 24.63C147.89 23.63 147.68 22.77 147.26 22.05C146.86 21.31 146.32 20.75 145.64 20.37C144.98 19.99 144.26 19.8 143.48 19.8C142.72 19.8 142 20 141.32 20.4C140.66 20.78 140.12 21.34 139.7 22.08C139.3 22.82 139.1 23.69 139.1 24.69C139.1 25.69 139.3 26.56 139.7 27.3C140.12 28.04 140.66 28.61 141.32 29.01C142 29.39 142.72 29.58 143.48 29.58C144.26 29.58 144.98 29.38 145.64 28.98C146.32 28.58 146.86 28.01 147.26 27.27C147.68 26.53 147.89 25.65 147.89 24.63Z" fill="#3E4444"/>
<path d="M157.362 14.4C156.622 14.4 156.002 14.17 155.502 13.71C155.022 13.23 154.782 12.64 154.782 11.94C154.782 11.24 155.022 10.66 155.502 10.2C156.002 9.72 156.622 9.48 157.362 9.48C158.102 9.48 158.712 9.72 159.192 10.2C159.692 10.66 159.942 11.24 159.942 11.94C159.942 12.64 159.692 13.23 159.192 13.71C158.712 14.17 158.102 14.4 157.362 14.4ZM159.432 16.38V33H155.232V16.38H159.432ZM172.791 16.14C174.771 16.14 176.371 16.77 177.591 18.03C178.811 19.27 179.421 21.01 179.421 23.25V33H175.221V23.82C175.221 22.5 174.891 21.49 174.231 20.79C173.571 20.07 172.671 19.71 171.531 19.71C170.371 19.71 169.451 20.07 168.771 20.79C168.111 21.49 167.781 22.5 167.781 23.82V33H163.581V16.38H167.781V18.45C168.341 17.73 169.051 17.17 169.911 16.77C170.791 16.35 171.751 16.14 172.791 16.14Z" fill="white"/>
</svg>
