<svg width="20" height="20" viewBox="0 0 20 20" fill="none" xmlns="http://www.w3.org/2000/svg">
<g clip-path="url(#clip0_389_234)">
<path d="M-0.15 19.8725L-0.10388 19.9168L-0.00843186 20.0084L0.0831981 20.1039L0.127474 20.15H0.191406H7.44141H14.6914H14.7553L14.7996 20.1039L14.8923 20.0073C14.9156 19.984 14.9431 19.9552 14.9659 19.9184C14.9905 19.8786 15.0055 19.8364 15.0149 19.7886C15.0315 19.7035 15.0328 19.5817 15.0328 19.3945C15.0328 19.2 15.0327 19.075 15.0138 18.9874C14.9896 18.8753 14.9342 18.8179 14.8776 18.7593L14.8774 18.7591L14.8756 18.7572L14.8756 18.7572C14.8119 18.6935 14.7389 18.6297 14.6431 18.6095C14.5444 18.5888 14.4543 18.6211 14.3762 18.656L14.3761 18.6561C14.2732 18.7023 14.2064 18.7928 14.1666 18.8889C14.1264 18.9858 14.1078 19.1011 14.1078 19.2227V19.225H7.44141H0.775V11.582V3.93906H2.14453H3.47209L3.46345 3.97694C3.42785 4.12091 3.40469 4.42349 3.40469 4.65625C3.40469 4.8377 3.40625 4.95817 3.41913 5.04185C3.42601 5.08661 3.43707 5.12842 3.45686 5.16788C3.47707 5.2082 3.50233 5.2379 3.52675 5.26232C3.54136 5.27693 3.56532 5.29972 3.60476 5.31806C3.6396 5.33425 3.67854 5.34335 3.72147 5.34977C3.80598 5.3624 3.94461 5.36972 4.18545 5.37458C4.67132 5.38437 5.60869 5.38437 7.45165 5.38437H7.45703H11.207H11.2809L11.3259 5.32583L11.4038 5.22453L-0.15 19.8725ZM-0.15 19.8725V19.8086M-0.15 19.8725V19.8086M-0.15 19.8086V11.6016C-0.15 8.96089 -0.14707 6.90202 -0.140721 5.49737C-0.137547 4.79511 -0.133516 4.25599 -0.128563 3.88933C-0.126088 3.70613 -0.123374 3.56526 -0.120396 3.46838C-0.118913 3.42015 -0.117329 3.38157 -0.115592 3.35369C-0.11474 3.34001 -0.113738 3.327 -0.112462 3.31597C-0.111846 3.31065 -0.110909 3.30348 -0.109428 3.29589L-0.109406 3.29577C-0.109083 3.29388 -0.105336 3.27209 -0.0928899 3.24899L-0.0928935 3.24899C-0.0783203 3.22202 -0.0581487 3.19101 -0.0269221 3.16207C0.00440632 3.13305 0.0408607 3.11163 0.0820528 3.09538C0.159025 3.06503 0.26312 3.04902 0.40481 3.03841C0.692151 3.01688 1.20224 3.01406 2.12891 3.01406H3.86007L4.05689 2.76011C4.05694 2.76004 4.05699 2.75997 4.05705 2.7599C4.34158 2.39006 4.68478 2.09079 5.04422 1.89238C5.1396 1.83871 5.18154 1.81016 5.2009 1.7916C5.20115 1.79136 5.20139 1.79112 5.20162 1.7909C5.20299 1.71407 5.22999 1.57148 5.26179 1.46347L-0.15 19.8086ZM14.26 6.16177L14.2607 6.16266C14.4189 6.36513 14.7123 6.36648 14.9019 6.21507C14.9021 6.21498 14.9022 6.21488 14.9023 6.21479L14.9954 6.14104L15.0523 6.096V6.02344V4.69141V3.36328V3.30115L15.0084 3.25722L14.9186 3.16737L14.8287 3.07753L14.7852 3.03398L14.7236 3.0336L12.8408 3.02188L11.0387 3.01066L10.9747 2.91242C10.9745 2.91207 10.9742 2.91171 10.974 2.91136C10.7472 2.55072 10.3608 2.2003 9.90221 1.92655M14.26 6.16177L8.09278 -0.0814991C8.09301 -0.0814323 8.09324 -0.0813675 8.09346 -0.0813007C8.89557 0.152925 9.52636 0.83268 9.68997 1.63811L9.69024 1.63947C9.71566 1.77084 9.72502 1.79429 9.73679 1.81019C9.75156 1.83015 9.77824 1.84959 9.90221 1.92655M14.26 6.16177C14.2355 6.12987 14.2092 6.09192 14.1903 6.03338C14.1733 5.98053 14.1646 5.91768 14.159 5.83652C14.1478 5.67467 14.1469 5.39538 14.1469 4.87891V3.93906H12.7695C12.0507 3.93906 11.6743 3.94008 11.4793 3.94868C11.4662 3.94926 11.4541 3.94987 11.443 3.95049C11.4882 4.17117 11.5172 4.47104 11.5172 4.70703C11.5172 4.83932 11.5136 4.93764 11.4983 5.01606M14.26 6.16177L11.4983 5.01606M9.90221 1.92655C9.90183 1.92632 9.90144 1.92609 9.90106 1.92587L9.82422 2.05469L9.90332 1.92724C9.90295 1.92701 9.90258 1.92678 9.90221 1.92655ZM9.30859 2.48047L9.24424 2.61596C9.16031 2.5761 9.08028 2.53089 9.01741 2.49005C8.98611 2.46972 8.95719 2.44926 8.93344 2.43C8.91601 2.41588 8.88169 2.38731 8.86106 2.35019L8.86094 2.35026L8.85802 2.34443C8.83776 2.3039 8.82302 2.24023 8.81273 2.18736C8.80104 2.12733 8.79054 2.05589 8.78421 1.98624L8.78416 1.98565C8.74176 1.49809 8.47206 1.10393 8.0406 0.896965L8.04059 0.896982L8.03839 0.895884C7.94178 0.84758 7.88397 0.824797 7.8142 0.810535C7.73991 0.795349 7.64652 0.788639 7.47607 0.782749C7.25689 0.777107 7.10437 0.79084 6.9726 0.82873C6.84215 0.866241 6.72228 0.93025 6.57269 1.03922C6.26556 1.26359 6.10274 1.56516 6.05547 2.02699L6.05545 2.02722C6.05413 2.03986 6.05292 2.0525 6.05171 2.06514C6.04043 2.18306 6.02923 2.30018 5.93502 2.40243C5.8885 2.45291 5.82673 2.49554 5.75406 2.53976C5.68914 2.57926 5.60528 2.62595 5.50009 2.68451C5.48573 2.6925 5.47098 2.70071 5.45583 2.70915L5.45579 2.70918C4.84442 3.04964 4.35759 3.79847 4.32164 4.44196L4.32161 4.44258L4.31943 4.47891H7.44141H10.5584L10.5576 4.47061L10.5576 4.47061L10.5574 4.46767C10.5029 3.70129 9.99195 2.97324 9.24392 2.61581L9.30859 2.48047ZM9.30859 2.48047C9.15234 2.40625 9.01172 2.3125 8.99219 2.27734L9.30859 2.48047ZM11.4983 5.01606C11.4812 5.10343 11.4501 5.16465 11.404 5.22427L11.4983 5.01606ZM11.4088 3.81072L11.4095 3.81314L11.4088 3.81072ZM6.75781 0.0898438L6.70934 -0.0521088C6.70939 -0.0521259 6.70943 -0.0521393 6.70948 -0.0521564L6.75781 0.0898438Z" fill="white" stroke="white" stroke-width="0.3"/>
<path d="M7.07445 1.08394L7.07525 1.08369C7.20325 1.04263 7.36468 1.03215 7.519 1.04321C7.67415 1.05433 7.83778 1.08835 7.97124 1.14813C8.26 1.27696 8.49724 1.51546 8.63289 1.81739L8.6329 1.81739L8.63355 1.81887C8.68081 1.92718 8.71391 2.01106 8.72991 2.10584C8.74569 2.19934 8.74348 2.29538 8.73569 2.42615C8.72957 2.54798 8.71806 2.64501 8.69448 2.73588C8.67059 2.82792 8.63594 2.9074 8.58988 2.99534L8.5899 2.99535L8.58859 2.99774C8.20479 3.69917 7.31815 3.89879 6.65355 3.44407L6.65355 3.44407L6.65293 3.44364C6.177 3.11449 5.97659 2.45144 6.18377 1.90423C6.33832 1.48952 6.6302 1.22918 7.07445 1.08394ZM7.61444 1.9901L7.61428 1.99003C7.38061 1.89292 7.16212 1.97484 7.05954 2.17717L7.05959 2.17719L7.05765 2.18077C7.0366 2.21964 7.01729 2.26481 7.00348 2.30455C6.99662 2.3243 6.99168 2.3411 6.98863 2.35375C6.98764 2.3579 6.98698 2.36103 6.98655 2.36324C6.98698 2.36545 6.98764 2.36858 6.98863 2.37272C6.99168 2.38538 6.99662 2.40218 7.00348 2.42193C7.01729 2.46166 7.0366 2.50684 7.05765 2.5457L7.0577 2.54567L7.05967 2.54956C7.21464 2.85664 7.64842 2.85897 7.80797 2.54857L7.80801 2.5485C7.85406 2.45902 7.85827 2.33969 7.8188 2.22665C7.77931 2.11353 7.7033 2.02691 7.61444 1.9901Z" fill="white" stroke="white" stroke-width="0.3"/>
<path d="M18.4997 8.8739C18.8774 9.07739 19.2297 9.27409 19.4941 9.4264C19.6263 9.50253 19.7369 9.56779 19.818 9.61739C19.8584 9.64215 19.8921 9.66333 19.9175 9.6802C19.9398 9.69495 19.9637 9.71145 19.9777 9.72542L19.9778 9.72529L19.9816 9.72961L20.0676 9.82726L20.09 9.85276V9.88672V12.6172V15.3477V15.3827L20.0663 15.4085L19.9804 15.5022L19.9797 15.503C19.9676 15.5159 19.9494 15.5282 19.9372 15.5364C19.9217 15.5467 19.9016 15.5593 19.8777 15.5738C19.8297 15.6029 19.7636 15.6414 19.6824 15.6876C19.5197 15.7801 19.2942 15.9049 19.0272 16.0508C18.4929 16.3428 17.7909 16.7198 17.0891 17.0927C16.3873 17.4656 15.6853 17.8345 15.151 18.1103C14.884 18.2482 14.6585 18.3629 14.4958 18.4433C14.4145 18.4835 14.3483 18.5154 14.3001 18.5374C14.2761 18.5483 14.2556 18.5572 14.2396 18.5636C14.2317 18.5667 14.2236 18.5697 14.2162 18.572L14.2157 18.5722C14.2112 18.5736 14.1964 18.5783 14.1797 18.5783C14.1663 18.5783 14.1556 18.5754 14.1518 18.5743C14.1466 18.5728 14.1418 18.5711 14.1382 18.5697C14.1308 18.5668 14.123 18.5632 14.1153 18.5595C14.0997 18.552 14.0798 18.5415 14.0563 18.5287C14.0091 18.5029 13.9437 18.4654 13.8633 18.4183C13.7022 18.3238 13.4782 18.189 13.2125 18.027C12.6809 17.703 11.981 17.2695 11.2809 16.8317C10.5808 16.3938 9.88013 15.9514 9.34708 15.6093C9.08061 15.4382 8.85569 15.2921 8.69355 15.184C8.61256 15.1301 8.54671 15.0853 8.49901 15.0515C8.47523 15.0346 8.45528 15.02 8.43997 15.0081C8.42842 14.9992 8.41207 14.9862 8.40073 14.973C8.36801 14.9359 8.35156 14.891 8.34077 14.82C8.33013 14.7501 8.32336 14.6425 8.31872 14.4692C8.30941 14.121 8.30844 13.4895 8.30844 12.3203V9.80859V9.77349L8.3322 9.74766L8.42154 9.65056L8.48828 9.71094L8.42205 9.65L8.42189 9.65017C8.43347 9.63748 8.4489 9.62569 8.46233 9.61605C8.47753 9.60514 8.49683 9.59235 8.52008 9.57765C8.56668 9.5482 8.63242 9.50906 8.71989 9.45873C8.89501 9.35798 9.16041 9.2106 9.54088 9.00302C10.302 8.58778 11.526 7.93037 13.4146 6.92063L13.4148 6.92054C13.5988 6.82267 13.7701 6.73355 13.8981 6.66835C13.962 6.63577 14.0154 6.60902 14.0542 6.59008C14.0736 6.58064 14.0897 6.57292 14.102 6.56732C14.1081 6.56455 14.1138 6.56201 14.1188 6.55996L14.1192 6.55979C14.1218 6.55867 14.1318 6.55451 14.1425 6.55237L14.1512 6.55062H14.1602C14.172 6.55062 14.1812 6.55298 14.1838 6.55364L14.1839 6.55366C14.1879 6.55469 14.1914 6.55582 14.1937 6.55663C14.1961 6.55744 14.1984 6.55831 14.2006 6.55919C14.2029 6.5601 14.2051 6.56102 14.2072 6.56189C14.2154 6.56538 14.2256 6.57008 14.237 6.57556C14.2601 6.58663 14.2921 6.60262 14.3314 6.62275C14.4103 6.66309 14.5213 6.7212 14.6559 6.79255C14.9253 6.93531 15.2908 7.13174 15.6874 7.34665L15.6875 7.34673C16.4843 7.78027 17.7498 8.46768 18.4997 8.8739ZM18.4997 8.8739C18.4997 8.8739 18.4997 8.8739 18.4997 8.8739L18.457 8.95312M18.4997 8.8739C18.4998 8.87393 18.4998 8.87396 18.4999 8.87399L18.457 8.95312M18.457 8.95312C17.707 8.54688 16.4414 7.85938 15.6445 7.42578M18.457 8.95312C19.2109 9.35938 19.8633 9.73828 19.9141 9.78906L20 9.88672V12.6172V15.3477L19.9141 15.4414C19.793 15.5703 14.3008 18.4883 14.1797 18.4883C14.0742 18.4883 8.58594 15.0586 8.46875 14.9141L15.6445 7.42578M15.6445 7.42578C14.8516 6.99609 14.1836 6.64062 14.1602 6.64062C14.1406 6.64453 13.8242 6.80469 13.457 7L15.6445 7.42578ZM10.1055 9.47656L10.1479 9.55595C9.83269 9.72431 9.64472 9.82898 9.54099 9.89593C9.53025 9.90287 9.52074 9.90919 9.51235 9.91494C9.5444 9.93384 9.58537 9.95777 9.63454 9.98632C9.76077 10.0596 9.94028 10.1629 10.1599 10.2886C10.5992 10.5399 11.1986 10.8807 11.8528 11.2497C11.8528 11.2497 11.8528 11.2497 11.8528 11.2497L14.1802 12.561L14.9366 12.144C14.9367 12.144 14.9368 12.144 14.9368 12.144C15.1572 12.0211 15.3569 11.9081 15.5013 11.8245C15.5427 11.8005 15.5793 11.779 15.6106 11.7605C15.591 11.7493 15.5691 11.7369 15.5452 11.7234C15.4221 11.6537 15.2439 11.5543 15.0237 11.4322C14.5835 11.1882 13.9763 10.8543 13.3084 10.4891C12.6404 10.1239 12.0311 9.7909 11.5873 9.54873C11.3653 9.42764 11.1849 9.32928 11.0591 9.26096L10.9134 9.182L10.8953 9.17226C10.8883 9.17538 10.8802 9.1791 10.8709 9.18344C10.8302 9.20249 10.7719 9.23128 10.6999 9.26778C10.5561 9.34065 10.3604 9.44288 10.1477 9.55602L10.1055 9.47656ZM10.1055 9.47656C9.47656 9.8125 9.33984 9.90234 9.38281 9.94141L10.9023 9.07422C10.8906 9.06641 10.5312 9.25 10.1055 9.47656ZM13.2283 7.90843C13.1888 7.92988 13.1533 7.94923 13.1233 7.96573C13.1301 7.9703 13.1374 7.97513 13.1453 7.98021C13.2413 8.04265 13.3989 8.13404 13.625 8.25685L13.6257 8.25722C13.9848 8.45634 15.0862 9.06169 16.0746 9.60471L16.0746 9.60474L17.8202 10.5652L18.3978 10.2455L18.3984 10.2452C18.6433 10.1119 18.793 10.0269 18.8764 9.97144C18.8789 9.96982 18.8812 9.96824 18.8835 9.96671C18.8518 9.94854 18.8117 9.92584 18.7637 9.89893C18.6367 9.82771 18.4561 9.72776 18.235 9.60621C17.7928 9.36316 17.1894 9.03414 16.5313 8.67675C15.8751 8.32132 15.2766 7.99815 14.8412 7.76435C14.6235 7.64743 14.4467 7.55293 14.3239 7.48793C14.2624 7.45541 14.2148 7.43041 14.1823 7.41373C14.1784 7.41168 14.1746 7.40978 14.1712 7.40801C14.1671 7.41006 14.1626 7.41228 14.1579 7.4147C14.1259 7.43083 14.0809 7.45409 14.0268 7.48236C13.9187 7.53882 13.7757 7.61462 13.6312 7.6917C13.4869 7.76878 13.3413 7.84704 13.2283 7.90843ZM18.9416 9.92141C18.9423 9.9206 18.9421 9.92067 18.9415 9.92156L18.9416 9.92141ZM16.8478 12.3414L16.8634 12.9336L17.0976 12.8076L17.098 12.8074L17.41 12.6379V11.9531V11.2719L16.3361 10.6807C16.336 10.6807 16.3359 10.6806 16.3358 10.6806C15.9421 10.4676 15.3524 10.1433 14.7845 9.83103C14.4559 9.65038 14.1347 9.47376 13.863 9.32504C13.1236 8.9203 12.4468 8.54869 12.3571 8.49576C12.3569 8.49566 12.3567 8.49555 12.3566 8.49545L12.2453 8.43148L11.9304 8.60606L11.93 8.60624C11.8465 8.65208 11.7705 8.69414 11.7111 8.72805L11.7816 8.76643L12.33 9.06395L12.3716 9.08648C12.8297 9.33492 13.4484 9.67042 14.125 10.0381C14.8243 10.4151 15.4661 10.7648 15.937 11.0242C16.1724 11.1539 16.3654 11.2611 16.5015 11.3379C16.5695 11.3763 16.6237 11.4073 16.662 11.4298C16.6811 11.441 16.6967 11.4503 16.7084 11.4576C16.7141 11.4612 16.7195 11.4647 16.7241 11.4678C16.7265 11.4694 16.7355 11.4754 16.7433 11.4832C16.7715 11.5114 16.7865 11.5484 16.7964 11.5856C16.8066 11.6238 16.814 11.6727 16.82 11.7344C16.8321 11.8582 16.84 12.0489 16.8478 12.3414L16.8478 12.3414ZM11.401 11.8713L11.4009 11.8712C10.7408 11.4963 10.1374 11.1555 9.69718 10.9086C9.47703 10.7851 9.29779 10.6851 9.17269 10.616C9.14311 10.5997 9.11661 10.5851 9.09335 10.5724C9.09304 10.5799 9.09274 10.5878 9.09244 10.5959C9.08863 10.6998 9.08535 10.8506 9.08267 11.0374C9.0773 11.4109 9.07438 11.926 9.07438 12.4922V14.5052L11.4505 16.0099L11.4505 16.0099C12.1164 16.4317 12.7237 16.8145 13.166 17.0917C13.3871 17.2304 13.5669 17.3426 13.692 17.4201C13.7174 17.4358 13.7405 17.45 13.7612 17.4628C13.7614 17.4552 13.7615 17.4474 13.7617 17.4393C13.764 17.3265 13.766 17.163 13.7674 16.9608C13.7704 16.5564 13.7713 15.9981 13.7694 15.3831L13.7579 13.205L11.401 11.8713ZM14.5822 17.5155L14.8914 17.3541C15.0424 17.2724 15.5345 17.0148 16.1526 16.6912C16.517 16.5004 16.9253 16.2867 17.3332 16.0727L19.285 15.0472V12.8242C19.285 12.1975 19.2821 11.6285 19.2772 11.2164C19.2748 11.0103 19.2718 10.8437 19.2686 10.7289C19.2681 10.7134 19.2677 10.6988 19.2672 10.6853C19.243 10.6976 19.2156 10.7117 19.1855 10.7273C19.0694 10.7876 18.9137 10.8703 18.7463 10.9618L18.7462 10.9619L18.1759 11.2722L18.1759 12.1016L18.1759 12.1021C18.174 12.4436 18.1701 12.6714 18.1616 12.821C18.1574 12.8956 18.1519 12.9534 18.1444 12.9973C18.1375 13.0379 18.1269 13.0795 18.1045 13.1109L18.1045 13.1109L18.1023 13.1138C18.0894 13.1304 18.071 13.1455 18.0562 13.1568C18.0393 13.1698 18.0184 13.1845 17.9947 13.2002C17.9472 13.2318 17.8848 13.2704 17.8131 13.3129C17.6696 13.3982 17.4853 13.5014 17.3006 13.6012C17.1158 13.7009 16.9296 13.7976 16.782 13.8695C16.7083 13.9054 16.6433 13.9357 16.5926 13.9571C16.5673 13.9677 16.5443 13.9767 16.5249 13.9832C16.5095 13.9884 16.4845 13.9963 16.4609 13.9963C16.3852 13.9963 16.3099 13.9863 16.245 13.9457C16.1778 13.9038 16.1353 13.8378 16.1075 13.754C16.0802 13.6718 16.0645 13.5653 16.0553 13.4312C16.046 13.2962 16.0428 13.1274 16.0428 12.918C16.0428 12.7505 16.0409 12.5982 16.0375 12.4881C16.037 12.4721 16.0365 12.4572 16.0359 12.4432C15.9995 12.4622 15.9554 12.4854 15.905 12.5121C15.7566 12.5909 15.5549 12.7001 15.3366 12.8209L15.3361 12.8212L14.5822 13.2331V15.4219V17.5155Z" fill="white" stroke="white" stroke-width="0.18"/>
<path d="M1.64687 6.91797V6.84411L1.70542 6.79908L1.80698 6.72095C1.83861 6.69662 1.87654 6.67006 1.93592 6.65114C1.98922 6.63417 2.05311 6.62546 2.13645 6.61987C2.30299 6.6087 2.59284 6.60781 3.13281 6.60781H4.26172H4.32565L4.36993 6.65393L4.46156 6.74938L4.557 6.84101L4.60313 6.88529V6.94922V8.15625C4.60313 8.73543 4.60223 9.04445 4.59111 9.2204C4.58556 9.30818 4.57695 9.37435 4.56023 9.42867C4.5414 9.48981 4.51465 9.52814 4.48999 9.56021L4.41186 9.66177L4.36683 9.72031H4.29297H3.12891C2.57511 9.72031 2.27781 9.71942 2.10967 9.70878C2.02631 9.70351 1.96201 9.6953 1.90977 9.67854C1.8486 9.65893 1.81178 9.6302 1.78218 9.60342L1.78214 9.60346L1.77924 9.60069L1.77922 9.60067C1.75455 9.57712 1.71743 9.54169 1.69285 9.47675C1.67225 9.42235 1.6634 9.35528 1.65792 9.26986C1.64687 9.09756 1.64687 8.78284 1.64687 8.17884V8.16406V6.91797ZM2.53281 8.14453V8.79371L3.11518 8.78751L3.11559 8.78751L3.69982 8.77813L3.70938 8.13133L3.70939 8.1306L3.71569 7.49375H3.125H2.53281V8.14453Z" fill="white" stroke="white" stroke-width="0.3"/>
<path d="M5.08301 7.74768L5.12729 7.70156H5.19122H7.48028H7.48815C8.59838 7.70156 9.17119 7.70156 9.47537 7.71141C9.62542 7.71626 9.72167 7.72369 9.78734 7.73793C9.82238 7.74553 9.85486 7.75626 9.88504 7.77331C9.91598 7.7908 9.93667 7.81066 9.94963 7.82362C10.0304 7.90441 10.0717 8.02782 10.0717 8.14453C10.0717 8.26125 10.0304 8.38465 9.94963 8.46544C9.93666 8.47842 9.91591 8.49833 9.88484 8.51584C9.85458 8.53289 9.822 8.5436 9.78686 8.55117C9.72094 8.56538 9.62414 8.5728 9.47289 8.57766C9.16628 8.5875 8.5886 8.5875 7.46855 8.5875H7.46075H7.45296C6.33291 8.5875 5.75522 8.5875 5.44862 8.57766C5.29736 8.5728 5.20056 8.56538 5.13465 8.55117C5.09951 8.5436 5.06693 8.53289 5.03667 8.51584C5.0056 8.49833 4.98485 8.47842 4.97187 8.46544C4.79649 8.29006 4.81954 8.01159 4.99099 7.84354L5.08301 7.74768Z" fill="white" stroke="white" stroke-width="0.3"/>
<path d="M1.69573 13.5756L1.64687 13.531V13.4648V12.2305V12.2162C1.64687 11.6254 1.64687 11.3146 1.65792 11.1418C1.66344 11.0556 1.67231 10.9887 1.69194 10.934C1.71446 10.8712 1.74757 10.8346 1.77319 10.8078L1.85407 10.7192L1.89868 10.6703H1.96484H3.11328H4.26172H4.32565L4.36993 10.7164L4.46156 10.8119L4.557 10.9035L4.60313 10.9478V11.0117V12.2266V13.4414V13.5053L4.557 13.5496L4.46156 13.6412L4.36993 13.7367L4.32565 13.7828H4.26172H3.12109L3.10608 13.7828C2.55896 13.7828 2.26932 13.7828 2.10696 13.7717C2.02558 13.7662 1.96105 13.7571 1.90734 13.7371C1.84667 13.7144 1.81058 13.6816 1.78432 13.6565L1.69573 13.5756ZM2.57104 11.5663C2.56106 11.5668 2.55203 11.5674 2.54388 11.5681C2.5425 11.6075 2.5414 11.6577 2.54061 11.7168C2.53868 11.8617 2.53867 12.0557 2.54061 12.2638L2.55005 12.8773H3.125H3.69766V12.2266V11.5733L3.13071 11.564C3.13065 11.564 3.13059 11.564 3.13053 11.564C2.85031 11.5601 2.6761 11.5603 2.57104 11.5663Z" fill="white" stroke="white" stroke-width="0.3"/>
<path d="M5.15257 12.6891H5.08864L5.04436 12.6429L4.9516 12.5463C4.87481 12.4691 4.82122 12.3735 4.8162 12.2621C4.8112 12.1513 4.85544 12.0497 4.92512 11.9622L5.00243 11.8617L5.04746 11.8031H5.12132H6.51585H6.52909C7.20284 11.8031 7.55334 11.8031 7.74514 11.8141C7.84023 11.8196 7.91136 11.8282 7.96777 11.8472C8.0347 11.8698 8.07197 11.9039 8.09939 11.9301C8.28177 12.101 8.27415 12.3753 8.11044 12.551L8.02897 12.6402L7.98436 12.6891H7.9182H6.53538H5.15257Z" fill="white" stroke="white" stroke-width="0.3"/>
<path d="M1.70542 17.6931L1.64687 17.6481V17.5742V16.3242C1.64687 15.7293 1.64778 15.4108 1.65837 15.2328C1.66359 15.145 1.67169 15.0781 1.68843 15.025C1.70863 14.961 1.73921 14.9237 1.76893 14.8939C1.79808 14.8648 1.8349 14.8343 1.89727 14.8139C1.94943 14.7968 2.0142 14.7887 2.09749 14.7834C2.2661 14.7728 2.56534 14.7719 3.12109 14.7719H4.29297H4.36683L4.41186 14.8304L4.48999 14.932C4.51465 14.964 4.5414 15.0024 4.56023 15.0635C4.57695 15.1178 4.58556 15.184 4.59111 15.2718C4.60223 15.4477 4.60313 15.7568 4.60313 16.3359V17.543V17.6069L4.557 17.6512L4.46156 17.7428L4.36993 17.8383L4.32565 17.8844H4.26172H3.13281C2.59284 17.8844 2.30299 17.8835 2.13645 17.8723C2.05311 17.8667 1.98922 17.858 1.93592 17.841C1.87654 17.8221 1.83861 17.7956 1.80698 17.7712L1.70542 17.6931ZM2.53281 15.6594V16.3086V16.9594H3.125H3.7157L3.70939 16.3186L3.70938 16.3179L3.69983 15.675L3.11559 15.6656L3.11478 15.6656L2.53281 15.6594Z" fill="white" stroke="white" stroke-width="0.3"/>
<path d="M9.2149 15.8656H9.28827L9.33331 15.9235L9.41476 16.0283C9.41487 16.0284 9.41499 16.0286 9.4151 16.0287C9.56581 16.2204 9.53823 16.4925 9.34976 16.6467C9.30314 16.6858 9.25002 16.7058 9.17805 16.7181C9.11012 16.7297 9.01235 16.7366 8.86514 16.7412C8.56819 16.7506 8.03775 16.7516 7.06647 16.7516H7.05808C6.03817 16.7516 5.51014 16.7516 5.22822 16.7417C5.08921 16.7368 4.99804 16.7294 4.93451 16.7148C4.9004 16.707 4.86888 16.696 4.83954 16.6789C4.80982 16.6617 4.78963 16.6423 4.77681 16.6295C4.60739 16.4601 4.62348 16.1726 4.78041 16.0038L4.86194 15.9145L4.90655 15.8656H4.97272H7.09381H9.2149Z" fill="white" stroke="white" stroke-width="0.3"/>
</g>
<defs>
<clipPath id="clip0_389_234">
<rect width="20" height="20" fill="white"/>
</clipPath>
</defs>
</svg>
