<svg width="22" height="21" viewBox="0 0 22 21" fill="none" xmlns="http://www.w3.org/2000/svg">
<mask id="path-1-outside-1_272_147" maskUnits="userSpaceOnUse" x="0" y="0.015625" width="22" height="21" fill="black">
<rect fill="white" y="0.015625" width="22" height="21"/>
<path d="M15.8303 1.0249C14.8539 1.15374 13.8696 1.64569 13.1588 2.35237C12.7877 2.72719 12.3503 3.35969 12.1901 3.75794L12.0808 4.02734H8.01092H3.94107L3.83171 4.12104L3.72234 4.21475L3.69891 6.45584C3.68329 7.68571 3.67157 9.68473 3.66766 10.899C3.66766 12.1132 3.65204 13.6984 3.63642 14.4207L3.61298 15.7404H2.40609H1.1992L1.10155 15.838L1 15.9395L1.01562 16.9429C1.03125 17.8526 1.03906 17.9697 1.12108 18.2196C1.3359 18.8873 1.8046 19.4339 2.42171 19.7345C2.62091 19.8321 2.89822 19.9375 3.03883 19.9649C3.24193 20.0039 4.39805 20.0156 8.64366 20.0156C13.7173 20.0156 14.0063 20.0117 14.2485 19.9453C14.9672 19.7423 15.5491 19.266 15.8694 18.6218C16.1701 18.0088 16.1623 18.1454 16.1623 13.9209V10.1962H16.4475C17.627 10.1923 18.7714 9.70425 19.6424 8.83359C20.5915 7.88873 21.0602 6.67058 20.9938 5.35482C20.8805 3.25428 19.3729 1.50904 17.2989 1.07956C16.9357 1.00538 16.1858 0.974141 15.8303 1.0249ZM17.0646 1.70816C18.7402 1.99318 20.033 3.30113 20.3025 4.97609C20.3806 5.44461 20.3337 6.22548 20.2087 6.66277C19.8377 7.91997 18.9042 8.90777 17.6934 9.32163C17.1778 9.49732 16.8263 9.54418 16.2209 9.52075C15.6116 9.49732 15.2523 9.41143 14.7289 9.16155C13.6275 8.64227 12.8619 7.69742 12.5612 6.49879C12.444 6.03808 12.4362 5.21035 12.5456 4.74964C12.7994 3.65252 13.4673 2.7389 14.4242 2.18449C15.2327 1.71987 16.1506 1.55198 17.0646 1.70816ZM11.8581 4.8941C11.7527 5.5227 11.8542 6.53393 12.0808 7.1391C12.1354 7.27966 12.1784 7.40069 12.1784 7.4085C12.1784 7.41631 11.4832 7.42412 10.6317 7.42412C9.05377 7.42412 8.98346 7.43193 8.87019 7.57639C8.8077 7.65838 8.8077 7.8536 8.87019 7.93559C8.98346 8.08395 9.04595 8.08786 10.8231 8.08786H12.5573L12.7096 8.3104C12.9244 8.62666 13.4322 9.12251 13.7915 9.36848C14.1704 9.63007 14.7172 9.89166 15.1468 10.0127L15.4788 10.1103L15.4905 13.8897C15.4944 16.4978 15.4866 17.7355 15.4554 17.8799C15.389 18.2118 15.1742 18.5905 14.9203 18.8326C13.9243 19.7853 12.3307 19.4183 11.8191 18.1259C11.741 17.9268 11.7331 17.8175 11.7136 16.9C11.6902 15.8965 11.6902 15.8887 11.5964 15.8146C11.5105 15.7443 11.3894 15.7404 7.89374 15.7404H4.28087L4.30431 11.3558C4.31603 8.94681 4.33946 6.45974 4.35118 5.83114L4.37461 4.69108H8.1359H11.8933L11.8581 4.8941ZM11.0574 17.1537C11.077 18.0127 11.1043 18.165 11.3269 18.6101C11.4558 18.8638 11.6628 19.145 11.823 19.2816L11.9245 19.3714H7.62815C3.94107 19.3714 3.29661 19.3636 3.10523 19.3128C2.46468 19.145 1.96083 18.6764 1.75382 18.0556C1.68352 17.8448 1.6718 17.716 1.6718 17.0874V16.3651H6.35486H11.0379L11.0574 17.1537Z"/>
</mask>
<path d="M15.8303 1.0249C14.8539 1.15374 13.8696 1.64569 13.1588 2.35237C12.7877 2.72719 12.3503 3.35969 12.1901 3.75794L12.0808 4.02734H8.01092H3.94107L3.83171 4.12104L3.72234 4.21475L3.69891 6.45584C3.68329 7.68571 3.67157 9.68473 3.66766 10.899C3.66766 12.1132 3.65204 13.6984 3.63642 14.4207L3.61298 15.7404H2.40609H1.1992L1.10155 15.838L1 15.9395L1.01562 16.9429C1.03125 17.8526 1.03906 17.9697 1.12108 18.2196C1.3359 18.8873 1.8046 19.4339 2.42171 19.7345C2.62091 19.8321 2.89822 19.9375 3.03883 19.9649C3.24193 20.0039 4.39805 20.0156 8.64366 20.0156C13.7173 20.0156 14.0063 20.0117 14.2485 19.9453C14.9672 19.7423 15.5491 19.266 15.8694 18.6218C16.1701 18.0088 16.1623 18.1454 16.1623 13.9209V10.1962H16.4475C17.627 10.1923 18.7714 9.70425 19.6424 8.83359C20.5915 7.88873 21.0602 6.67058 20.9938 5.35482C20.8805 3.25428 19.3729 1.50904 17.2989 1.07956C16.9357 1.00538 16.1858 0.974141 15.8303 1.0249ZM17.0646 1.70816C18.7402 1.99318 20.033 3.30113 20.3025 4.97609C20.3806 5.44461 20.3337 6.22548 20.2087 6.66277C19.8377 7.91997 18.9042 8.90777 17.6934 9.32163C17.1778 9.49732 16.8263 9.54418 16.2209 9.52075C15.6116 9.49732 15.2523 9.41143 14.7289 9.16155C13.6275 8.64227 12.8619 7.69742 12.5612 6.49879C12.444 6.03808 12.4362 5.21035 12.5456 4.74964C12.7994 3.65252 13.4673 2.7389 14.4242 2.18449C15.2327 1.71987 16.1506 1.55198 17.0646 1.70816ZM11.8581 4.8941C11.7527 5.5227 11.8542 6.53393 12.0808 7.1391C12.1354 7.27966 12.1784 7.40069 12.1784 7.4085C12.1784 7.41631 11.4832 7.42412 10.6317 7.42412C9.05377 7.42412 8.98346 7.43193 8.87019 7.57639C8.8077 7.65838 8.8077 7.8536 8.87019 7.93559C8.98346 8.08395 9.04595 8.08786 10.8231 8.08786H12.5573L12.7096 8.3104C12.9244 8.62666 13.4322 9.12251 13.7915 9.36848C14.1704 9.63007 14.7172 9.89166 15.1468 10.0127L15.4788 10.1103L15.4905 13.8897C15.4944 16.4978 15.4866 17.7355 15.4554 17.8799C15.389 18.2118 15.1742 18.5905 14.9203 18.8326C13.9243 19.7853 12.3307 19.4183 11.8191 18.1259C11.741 17.9268 11.7331 17.8175 11.7136 16.9C11.6902 15.8965 11.6902 15.8887 11.5964 15.8146C11.5105 15.7443 11.3894 15.7404 7.89374 15.7404H4.28087L4.30431 11.3558C4.31603 8.94681 4.33946 6.45974 4.35118 5.83114L4.37461 4.69108H8.1359H11.8933L11.8581 4.8941ZM11.0574 17.1537C11.077 18.0127 11.1043 18.165 11.3269 18.6101C11.4558 18.8638 11.6628 19.145 11.823 19.2816L11.9245 19.3714H7.62815C3.94107 19.3714 3.29661 19.3636 3.10523 19.3128C2.46468 19.145 1.96083 18.6764 1.75382 18.0556C1.68352 17.8448 1.6718 17.716 1.6718 17.0874V16.3651H6.35486H11.0379L11.0574 17.1537Z" fill="black"/>
<path d="M15.8303 1.0249C14.8539 1.15374 13.8696 1.64569 13.1588 2.35237C12.7877 2.72719 12.3503 3.35969 12.1901 3.75794L12.0808 4.02734H8.01092H3.94107L3.83171 4.12104L3.72234 4.21475L3.69891 6.45584C3.68329 7.68571 3.67157 9.68473 3.66766 10.899C3.66766 12.1132 3.65204 13.6984 3.63642 14.4207L3.61298 15.7404H2.40609H1.1992L1.10155 15.838L1 15.9395L1.01562 16.9429C1.03125 17.8526 1.03906 17.9697 1.12108 18.2196C1.3359 18.8873 1.8046 19.4339 2.42171 19.7345C2.62091 19.8321 2.89822 19.9375 3.03883 19.9649C3.24193 20.0039 4.39805 20.0156 8.64366 20.0156C13.7173 20.0156 14.0063 20.0117 14.2485 19.9453C14.9672 19.7423 15.5491 19.266 15.8694 18.6218C16.1701 18.0088 16.1623 18.1454 16.1623 13.9209V10.1962H16.4475C17.627 10.1923 18.7714 9.70425 19.6424 8.83359C20.5915 7.88873 21.0602 6.67058 20.9938 5.35482C20.8805 3.25428 19.3729 1.50904 17.2989 1.07956C16.9357 1.00538 16.1858 0.974141 15.8303 1.0249ZM17.0646 1.70816C18.7402 1.99318 20.033 3.30113 20.3025 4.97609C20.3806 5.44461 20.3337 6.22548 20.2087 6.66277C19.8377 7.91997 18.9042 8.90777 17.6934 9.32163C17.1778 9.49732 16.8263 9.54418 16.2209 9.52075C15.6116 9.49732 15.2523 9.41143 14.7289 9.16155C13.6275 8.64227 12.8619 7.69742 12.5612 6.49879C12.444 6.03808 12.4362 5.21035 12.5456 4.74964C12.7994 3.65252 13.4673 2.7389 14.4242 2.18449C15.2327 1.71987 16.1506 1.55198 17.0646 1.70816ZM11.8581 4.8941C11.7527 5.5227 11.8542 6.53393 12.0808 7.1391C12.1354 7.27966 12.1784 7.40069 12.1784 7.4085C12.1784 7.41631 11.4832 7.42412 10.6317 7.42412C9.05377 7.42412 8.98346 7.43193 8.87019 7.57639C8.8077 7.65838 8.8077 7.8536 8.87019 7.93559C8.98346 8.08395 9.04595 8.08786 10.8231 8.08786H12.5573L12.7096 8.3104C12.9244 8.62666 13.4322 9.12251 13.7915 9.36848C14.1704 9.63007 14.7172 9.89166 15.1468 10.0127L15.4788 10.1103L15.4905 13.8897C15.4944 16.4978 15.4866 17.7355 15.4554 17.8799C15.389 18.2118 15.1742 18.5905 14.9203 18.8326C13.9243 19.7853 12.3307 19.4183 11.8191 18.1259C11.741 17.9268 11.7331 17.8175 11.7136 16.9C11.6902 15.8965 11.6902 15.8887 11.5964 15.8146C11.5105 15.7443 11.3894 15.7404 7.89374 15.7404H4.28087L4.30431 11.3558C4.31603 8.94681 4.33946 6.45974 4.35118 5.83114L4.37461 4.69108H8.1359H11.8933L11.8581 4.8941ZM11.0574 17.1537C11.077 18.0127 11.1043 18.165 11.3269 18.6101C11.4558 18.8638 11.6628 19.145 11.823 19.2816L11.9245 19.3714H7.62815C3.94107 19.3714 3.29661 19.3636 3.10523 19.3128C2.46468 19.145 1.96083 18.6764 1.75382 18.0556C1.68352 17.8448 1.6718 17.716 1.6718 17.0874V16.3651H6.35486H11.0379L11.0574 17.1537Z" stroke="black" stroke-width="0.8" mask="url(#path-1-outside-1_272_147)"/>
<mask id="path-2-outside-2_272_147" maskUnits="userSpaceOnUse" x="14.0298" y="1.63379" width="4" height="8" fill="black">
<rect fill="white" x="14.0298" y="1.63379" width="4" height="8"/>
<path d="M16.1429 2.68055C16.0648 2.75863 16.0453 2.81329 16.0453 2.98509V3.19592L15.7953 3.32086C15.5141 3.45751 15.2798 3.69568 15.1391 3.98069C15.0649 4.13687 15.0493 4.22667 15.0493 4.55463C15.0493 4.90602 15.061 4.96459 15.1587 5.152C15.3891 5.59319 15.7602 5.83916 16.2875 5.90553C16.639 5.94848 16.7562 5.99924 16.9124 6.16322C17.3342 6.60832 17.0178 7.34624 16.3968 7.35405C16.018 7.35405 15.7211 7.09245 15.6703 6.70983C15.6352 6.46386 15.518 6.33111 15.3305 6.33111C15.1313 6.33111 15.0298 6.45995 15.0298 6.71373C15.0298 7.17054 15.3696 7.67811 15.8149 7.88113L16.0453 7.98655V8.22471C16.0453 8.42384 16.0609 8.4785 16.1351 8.54878C16.2601 8.66591 16.4515 8.662 16.5726 8.53706C16.6546 8.45898 16.6702 8.40431 16.6702 8.2091C16.6702 7.98655 16.6741 7.97484 16.7796 7.95531C16.9671 7.91237 17.2834 7.70544 17.4279 7.52974C17.6623 7.24082 17.7404 7.02218 17.7443 6.64346C17.7443 6.34282 17.7326 6.28426 17.6154 6.05C17.3967 5.601 17.0061 5.3394 16.4671 5.28084C16.139 5.2418 15.9789 5.17542 15.8344 5.00363C15.5414 4.65224 15.6547 4.10954 16.0648 3.91042C16.5257 3.68787 17.0139 3.95727 17.0999 4.48045C17.1467 4.75766 17.2366 4.86307 17.4358 4.86307C17.5451 4.86307 17.5998 4.83574 17.6701 4.75375C17.7834 4.62491 17.7912 4.46874 17.6896 4.14858C17.5686 3.75424 17.3069 3.46922 16.9163 3.29743L16.6702 3.19202V2.98118C16.6702 2.7313 16.553 2.58294 16.3578 2.58294C16.2835 2.58294 16.2015 2.61808 16.1429 2.68055Z"/>
</mask>
<path d="M16.1429 2.68055C16.0648 2.75863 16.0453 2.81329 16.0453 2.98509V3.19592L15.7953 3.32086C15.5141 3.45751 15.2798 3.69568 15.1391 3.98069C15.0649 4.13687 15.0493 4.22667 15.0493 4.55463C15.0493 4.90602 15.061 4.96459 15.1587 5.152C15.3891 5.59319 15.7602 5.83916 16.2875 5.90553C16.639 5.94848 16.7562 5.99924 16.9124 6.16322C17.3342 6.60832 17.0178 7.34624 16.3968 7.35405C16.018 7.35405 15.7211 7.09245 15.6703 6.70983C15.6352 6.46386 15.518 6.33111 15.3305 6.33111C15.1313 6.33111 15.0298 6.45995 15.0298 6.71373C15.0298 7.17054 15.3696 7.67811 15.8149 7.88113L16.0453 7.98655V8.22471C16.0453 8.42384 16.0609 8.4785 16.1351 8.54878C16.2601 8.66591 16.4515 8.662 16.5726 8.53706C16.6546 8.45898 16.6702 8.40431 16.6702 8.2091C16.6702 7.98655 16.6741 7.97484 16.7796 7.95531C16.9671 7.91237 17.2834 7.70544 17.4279 7.52974C17.6623 7.24082 17.7404 7.02218 17.7443 6.64346C17.7443 6.34282 17.7326 6.28426 17.6154 6.05C17.3967 5.601 17.0061 5.3394 16.4671 5.28084C16.139 5.2418 15.9789 5.17542 15.8344 5.00363C15.5414 4.65224 15.6547 4.10954 16.0648 3.91042C16.5257 3.68787 17.0139 3.95727 17.0999 4.48045C17.1467 4.75766 17.2366 4.86307 17.4358 4.86307C17.5451 4.86307 17.5998 4.83574 17.6701 4.75375C17.7834 4.62491 17.7912 4.46874 17.6896 4.14858C17.5686 3.75424 17.3069 3.46922 16.9163 3.29743L16.6702 3.19202V2.98118C16.6702 2.7313 16.553 2.58294 16.3578 2.58294C16.2835 2.58294 16.2015 2.61808 16.1429 2.68055Z" fill="black"/>
<path d="M16.1429 2.68055C16.0648 2.75863 16.0453 2.81329 16.0453 2.98509V3.19592L15.7953 3.32086C15.5141 3.45751 15.2798 3.69568 15.1391 3.98069C15.0649 4.13687 15.0493 4.22667 15.0493 4.55463C15.0493 4.90602 15.061 4.96459 15.1587 5.152C15.3891 5.59319 15.7602 5.83916 16.2875 5.90553C16.639 5.94848 16.7562 5.99924 16.9124 6.16322C17.3342 6.60832 17.0178 7.34624 16.3968 7.35405C16.018 7.35405 15.7211 7.09245 15.6703 6.70983C15.6352 6.46386 15.518 6.33111 15.3305 6.33111C15.1313 6.33111 15.0298 6.45995 15.0298 6.71373C15.0298 7.17054 15.3696 7.67811 15.8149 7.88113L16.0453 7.98655V8.22471C16.0453 8.42384 16.0609 8.4785 16.1351 8.54878C16.2601 8.66591 16.4515 8.662 16.5726 8.53706C16.6546 8.45898 16.6702 8.40431 16.6702 8.2091C16.6702 7.98655 16.6741 7.97484 16.7796 7.95531C16.9671 7.91237 17.2834 7.70544 17.4279 7.52974C17.6623 7.24082 17.7404 7.02218 17.7443 6.64346C17.7443 6.34282 17.7326 6.28426 17.6154 6.05C17.3967 5.601 17.0061 5.3394 16.4671 5.28084C16.139 5.2418 15.9789 5.17542 15.8344 5.00363C15.5414 4.65224 15.6547 4.10954 16.0648 3.91042C16.5257 3.68787 17.0139 3.95727 17.0999 4.48045C17.1467 4.75766 17.2366 4.86307 17.4358 4.86307C17.5451 4.86307 17.5998 4.83574 17.6701 4.75375C17.7834 4.62491 17.7912 4.46874 17.6896 4.14858C17.5686 3.75424 17.3069 3.46922 16.9163 3.29743L16.6702 3.19202V2.98118C16.6702 2.7313 16.553 2.58294 16.3578 2.58294C16.2835 2.58294 16.2015 2.61808 16.1429 2.68055Z" stroke="black" stroke-width="0.4" mask="url(#path-2-outside-2_272_147)"/>
<mask id="path-3-outside-3_272_147" maskUnits="userSpaceOnUse" x="5.03076" y="5.77344" width="4" height="4" fill="black">
<rect fill="white" x="5.03076" y="5.77344" width="4" height="4"/>
<path d="M6.81583 6.79937C6.33932 6.92041 6.03076 7.29913 6.03076 7.77546C6.03076 8.69688 7.1986 9.12246 7.82353 8.43139C7.90164 8.34549 7.99147 8.21665 8.02272 8.14247C8.10474 7.94335 8.09303 7.55682 7.99538 7.3616C7.90555 7.17029 7.65948 6.93212 7.47591 6.85794C7.30015 6.78376 6.99159 6.75643 6.81583 6.79937ZM7.25328 7.48263C7.59699 7.65833 7.42904 8.12685 7.02284 8.12685C6.85489 8.12685 6.67131 7.94335 6.67131 7.77546C6.67131 7.60757 6.85489 7.42407 7.02284 7.42407C7.08923 7.42407 7.19469 7.4514 7.25328 7.48263Z"/>
</mask>
<path d="M6.81583 6.79937C6.33932 6.92041 6.03076 7.29913 6.03076 7.77546C6.03076 8.69688 7.1986 9.12246 7.82353 8.43139C7.90164 8.34549 7.99147 8.21665 8.02272 8.14247C8.10474 7.94335 8.09303 7.55682 7.99538 7.3616C7.90555 7.17029 7.65948 6.93212 7.47591 6.85794C7.30015 6.78376 6.99159 6.75643 6.81583 6.79937ZM7.25328 7.48263C7.59699 7.65833 7.42904 8.12685 7.02284 8.12685C6.85489 8.12685 6.67131 7.94335 6.67131 7.77546C6.67131 7.60757 6.85489 7.42407 7.02284 7.42407C7.08923 7.42407 7.19469 7.4514 7.25328 7.48263Z" fill="black"/>
<path d="M6.81583 6.79937C6.33932 6.92041 6.03076 7.29913 6.03076 7.77546C6.03076 8.69688 7.1986 9.12246 7.82353 8.43139C7.90164 8.34549 7.99147 8.21665 8.02272 8.14247C8.10474 7.94335 8.09303 7.55682 7.99538 7.3616C7.90555 7.17029 7.65948 6.93212 7.47591 6.85794C7.30015 6.78376 6.99159 6.75643 6.81583 6.79937ZM7.25328 7.48263C7.59699 7.65833 7.42904 8.12685 7.02284 8.12685C6.85489 8.12685 6.67131 7.94335 6.67131 7.77546C6.67131 7.60757 6.85489 7.42407 7.02284 7.42407C7.08923 7.42407 7.19469 7.4514 7.25328 7.48263Z" stroke="black" stroke-width="0.2" mask="url(#path-3-outside-3_272_147)"/>
<mask id="path-4-outside-4_272_147" maskUnits="userSpaceOnUse" x="5.01758" y="8.60205" width="4" height="4" fill="black">
<rect fill="white" x="5.01758" y="8.60205" width="4" height="4"/>
<path d="M6.83509 9.61474C6.34686 9.71235 5.95238 10.2472 6.02659 10.7158C6.06564 10.9539 6.2375 11.2468 6.41326 11.3756C6.5734 11.4927 6.88977 11.6021 7.06162 11.6021C7.41705 11.6021 7.83497 11.3327 7.99902 11.0008C8.09276 10.8017 8.10447 10.4268 8.01855 10.2238C7.83497 9.78263 7.31941 9.51713 6.83509 9.61474ZM7.25301 10.2941C7.3155 10.3253 7.38581 10.3995 7.40924 10.462C7.56157 10.829 7.07334 11.1101 6.78431 10.8251C6.47966 10.5166 6.85852 10.0872 7.25301 10.2941Z"/>
</mask>
<path d="M6.83509 9.61474C6.34686 9.71235 5.95238 10.2472 6.02659 10.7158C6.06564 10.9539 6.2375 11.2468 6.41326 11.3756C6.5734 11.4927 6.88977 11.6021 7.06162 11.6021C7.41705 11.6021 7.83497 11.3327 7.99902 11.0008C8.09276 10.8017 8.10447 10.4268 8.01855 10.2238C7.83497 9.78263 7.31941 9.51713 6.83509 9.61474ZM7.25301 10.2941C7.3155 10.3253 7.38581 10.3995 7.40924 10.462C7.56157 10.829 7.07334 11.1101 6.78431 10.8251C6.47966 10.5166 6.85852 10.0872 7.25301 10.2941Z" fill="black"/>
<path d="M6.83509 9.61474C6.34686 9.71235 5.95238 10.2472 6.02659 10.7158C6.06564 10.9539 6.2375 11.2468 6.41326 11.3756C6.5734 11.4927 6.88977 11.6021 7.06162 11.6021C7.41705 11.6021 7.83497 11.3327 7.99902 11.0008C8.09276 10.8017 8.10447 10.4268 8.01855 10.2238C7.83497 9.78263 7.31941 9.51713 6.83509 9.61474ZM7.25301 10.2941C7.3155 10.3253 7.38581 10.3995 7.40924 10.462C7.56157 10.829 7.07334 11.1101 6.78431 10.8251C6.47966 10.5166 6.85852 10.0872 7.25301 10.2941Z" stroke="black" stroke-width="0.2" mask="url(#path-4-outside-4_272_147)"/>
<mask id="path-5-outside-5_272_147" maskUnits="userSpaceOnUse" x="7.82275" y="8.89893" width="7" height="3" fill="black">
<rect fill="white" x="7.82275" y="8.89893" width="7" height="3"/>
<path d="M8.91714 10.3718C8.79606 10.489 8.79215 10.6569 8.90151 10.7974L8.97963 10.8989H11.2841H13.5885L13.6822 10.8013C13.7447 10.7428 13.7799 10.6608 13.7799 10.5866C13.7799 10.5124 13.7447 10.4304 13.6822 10.3718L13.5885 10.2742H11.2997H9.01088L8.91714 10.3718Z"/>
</mask>
<path d="M8.91714 10.3718C8.79606 10.489 8.79215 10.6569 8.90151 10.7974L8.97963 10.8989H11.2841H13.5885L13.6822 10.8013C13.7447 10.7428 13.7799 10.6608 13.7799 10.5866C13.7799 10.5124 13.7447 10.4304 13.6822 10.3718L13.5885 10.2742H11.2997H9.01088L8.91714 10.3718Z" fill="black"/>
<path d="M8.91714 10.3718C8.79606 10.489 8.79215 10.6569 8.90151 10.7974L8.97963 10.8989H11.2841H13.5885L13.6822 10.8013C13.7447 10.7428 13.7799 10.6608 13.7799 10.5866C13.7799 10.5124 13.7447 10.4304 13.6822 10.3718L13.5885 10.2742H11.2997H9.01088L8.91714 10.3718Z" stroke="black" stroke-width="0.8" mask="url(#path-5-outside-5_272_147)"/>
<mask id="path-6-outside-6_272_147" maskUnits="userSpaceOnUse" x="5.02026" y="11.4131" width="4" height="4" fill="black">
<rect fill="white" x="5.02026" y="11.4131" width="4" height="4"/>
<path d="M6.67113 12.4726C6.59692 12.4961 6.44459 12.6054 6.33132 12.7147C5.9837 13.0544 5.92512 13.476 6.16728 13.9016C6.34304 14.2062 6.70628 14.4131 7.06952 14.4131C7.30387 14.4131 7.61242 14.2764 7.79209 14.0929C7.9991 13.8821 8.07721 13.6947 8.07721 13.4097C8.07331 12.8357 7.64367 12.418 7.06171 12.4258C6.9211 12.4297 6.74534 12.4492 6.67113 12.4726ZM7.25309 13.1051C7.31558 13.1364 7.38589 13.2105 7.40932 13.273C7.56165 13.64 7.07342 13.9211 6.78439 13.6361C6.60863 13.4604 6.63988 13.2262 6.8586 13.109C6.99531 13.0349 7.11639 13.0309 7.25309 13.1051Z"/>
</mask>
<path d="M6.67113 12.4726C6.59692 12.4961 6.44459 12.6054 6.33132 12.7147C5.9837 13.0544 5.92512 13.476 6.16728 13.9016C6.34304 14.2062 6.70628 14.4131 7.06952 14.4131C7.30387 14.4131 7.61242 14.2764 7.79209 14.0929C7.9991 13.8821 8.07721 13.6947 8.07721 13.4097C8.07331 12.8357 7.64367 12.418 7.06171 12.4258C6.9211 12.4297 6.74534 12.4492 6.67113 12.4726ZM7.25309 13.1051C7.31558 13.1364 7.38589 13.2105 7.40932 13.273C7.56165 13.64 7.07342 13.9211 6.78439 13.6361C6.60863 13.4604 6.63988 13.2262 6.8586 13.109C6.99531 13.0349 7.11639 13.0309 7.25309 13.1051Z" fill="black"/>
<path d="M6.67113 12.4726C6.59692 12.4961 6.44459 12.6054 6.33132 12.7147C5.9837 13.0544 5.92512 13.476 6.16728 13.9016C6.34304 14.2062 6.70628 14.4131 7.06952 14.4131C7.30387 14.4131 7.61242 14.2764 7.79209 14.0929C7.9991 13.8821 8.07721 13.6947 8.07721 13.4097C8.07331 12.8357 7.64367 12.418 7.06171 12.4258C6.9211 12.4297 6.74534 12.4492 6.67113 12.4726ZM7.25309 13.1051C7.31558 13.1364 7.38589 13.2105 7.40932 13.273C7.56165 13.64 7.07342 13.9211 6.78439 13.6361C6.60863 13.4604 6.63988 13.2262 6.8586 13.109C6.99531 13.0349 7.11639 13.0309 7.25309 13.1051Z" stroke="black" stroke-width="0.2" mask="url(#path-6-outside-6_272_147)"/>
<mask id="path-7-outside-7_272_147" maskUnits="userSpaceOnUse" x="7.82153" y="11.7437" width="7" height="3" fill="black">
<rect fill="white" x="7.82153" y="11.7437" width="7" height="3"/>
<path d="M9.05389 13.1127C8.83126 13.1947 8.74924 13.4602 8.89375 13.6359L8.96796 13.7296L11.2255 13.7413C12.7917 13.7491 13.5182 13.7374 13.5885 13.71C13.7877 13.6281 13.8346 13.386 13.6862 13.2142L13.5924 13.1049L11.3505 13.0971C10.1202 13.0932 9.08514 13.101 9.05389 13.1127Z"/>
</mask>
<path d="M9.05389 13.1127C8.83126 13.1947 8.74924 13.4602 8.89375 13.6359L8.96796 13.7296L11.2255 13.7413C12.7917 13.7491 13.5182 13.7374 13.5885 13.71C13.7877 13.6281 13.8346 13.386 13.6862 13.2142L13.5924 13.1049L11.3505 13.0971C10.1202 13.0932 9.08514 13.101 9.05389 13.1127Z" fill="black"/>
<path d="M9.05389 13.1127C8.83126 13.1947 8.74924 13.4602 8.89375 13.6359L8.96796 13.7296L11.2255 13.7413C12.7917 13.7491 13.5182 13.7374 13.5885 13.71C13.7877 13.6281 13.8346 13.386 13.6862 13.2142L13.5924 13.1049L11.3505 13.0971C10.1202 13.0932 9.08514 13.101 9.05389 13.1127Z" stroke="black" stroke-width="0.8" mask="url(#path-7-outside-7_272_147)"/>
</svg>
