<svg width="20" height="20" viewBox="0 0 20 20" fill="none" xmlns="http://www.w3.org/2000/svg">
<g clip-path="url(#clip0_256_129)">
<mask id="path-1-outside-1_256_129" maskUnits="userSpaceOnUse" x="-1" y="-1" width="17" height="22" fill="black">
<rect fill="white" x="-1" y="-1" width="17" height="22"/>
<path d="M6.75781 0.0898438C6.10938 0.308594 5.57422 0.867188 5.40625 1.50391C5.375 1.60938 5.35156 1.74219 5.35156 1.79688C5.35156 1.875 5.30469 1.91797 5.11719 2.02344C4.77734 2.21094 4.44922 2.49609 4.17578 2.85156L3.93359 3.16406H2.12891C0.269531 3.16406 0.117188 3.17578 0.0390625 3.32031C0.0117188 3.36719 0 6.32031 0 11.6016V19.8086L0.0976562 19.9023L0.191406 20H7.44141H14.6914L14.7852 19.9023C14.875 19.8125 14.8828 19.7812 14.8828 19.3945C14.8828 18.9883 14.8789 18.9766 14.7695 18.8633C14.6445 18.7383 14.5859 18.7266 14.4375 18.793C14.3242 18.8438 14.2578 19.0078 14.2578 19.2227V19.375H7.44141H0.625V11.582V3.78906H2.14453H3.66016L3.60938 4.01172C3.57812 4.13672 3.55469 4.42578 3.55469 4.65625C3.55469 5.02734 3.5625 5.08594 3.63281 5.15625C3.71094 5.23438 3.76172 5.23438 7.45703 5.23438H11.207L11.2852 5.13281C11.3516 5.04688 11.3672 4.97266 11.3672 4.70703C11.3672 4.42578 11.3242 4.05469 11.2656 3.85547C11.2461 3.79297 11.3359 3.78906 12.7695 3.78906H14.2969V4.87891C14.2969 5.91797 14.3008 5.96875 14.3789 6.07031C14.4766 6.19531 14.6719 6.20703 14.8086 6.09766L14.9023 6.02344V4.69141V3.36328L14.8125 3.27344L14.7227 3.18359L12.8398 3.17188L10.957 3.16016L10.8477 2.99219C10.6367 2.65625 10.2695 2.32031 9.82422 2.05469C9.59766 1.91406 9.58984 1.91016 9.54297 1.66797C9.39062 0.917969 8.80078 0.28125 8.05078 0.0625C7.72266 -0.0351562 7.07812 -0.0195312 6.75781 0.0898438ZM8.10547 0.761719C8.58594 0.992188 8.88672 1.43359 8.93359 1.97266C8.94531 2.10156 8.97266 2.23828 8.99219 2.27734C9.01172 2.3125 9.15234 2.40625 9.30859 2.48047C10.1016 2.85938 10.6484 3.63281 10.707 4.45703L10.7227 4.62891H7.44141H4.16016L4.17188 4.43359C4.21094 3.73438 4.73047 2.94141 5.38281 2.57812C5.89453 2.29297 5.875 2.3125 5.90625 2.01172C5.95703 1.51562 6.13672 1.17188 6.48438 0.917969C6.80078 0.6875 7.02734 0.621094 7.48047 0.632812C7.82031 0.644531 7.90234 0.660156 8.10547 0.761719Z"/>
</mask>
<path d="M6.75781 0.0898438C6.10938 0.308594 5.57422 0.867188 5.40625 1.50391C5.375 1.60938 5.35156 1.74219 5.35156 1.79688C5.35156 1.875 5.30469 1.91797 5.11719 2.02344C4.77734 2.21094 4.44922 2.49609 4.17578 2.85156L3.93359 3.16406H2.12891C0.269531 3.16406 0.117188 3.17578 0.0390625 3.32031C0.0117188 3.36719 0 6.32031 0 11.6016V19.8086L0.0976562 19.9023L0.191406 20H7.44141H14.6914L14.7852 19.9023C14.875 19.8125 14.8828 19.7812 14.8828 19.3945C14.8828 18.9883 14.8789 18.9766 14.7695 18.8633C14.6445 18.7383 14.5859 18.7266 14.4375 18.793C14.3242 18.8438 14.2578 19.0078 14.2578 19.2227V19.375H7.44141H0.625V11.582V3.78906H2.14453H3.66016L3.60938 4.01172C3.57812 4.13672 3.55469 4.42578 3.55469 4.65625C3.55469 5.02734 3.5625 5.08594 3.63281 5.15625C3.71094 5.23438 3.76172 5.23438 7.45703 5.23438H11.207L11.2852 5.13281C11.3516 5.04688 11.3672 4.97266 11.3672 4.70703C11.3672 4.42578 11.3242 4.05469 11.2656 3.85547C11.2461 3.79297 11.3359 3.78906 12.7695 3.78906H14.2969V4.87891C14.2969 5.91797 14.3008 5.96875 14.3789 6.07031C14.4766 6.19531 14.6719 6.20703 14.8086 6.09766L14.9023 6.02344V4.69141V3.36328L14.8125 3.27344L14.7227 3.18359L12.8398 3.17188L10.957 3.16016L10.8477 2.99219C10.6367 2.65625 10.2695 2.32031 9.82422 2.05469C9.59766 1.91406 9.58984 1.91016 9.54297 1.66797C9.39062 0.917969 8.80078 0.28125 8.05078 0.0625C7.72266 -0.0351562 7.07812 -0.0195312 6.75781 0.0898438ZM8.10547 0.761719C8.58594 0.992188 8.88672 1.43359 8.93359 1.97266C8.94531 2.10156 8.97266 2.23828 8.99219 2.27734C9.01172 2.3125 9.15234 2.40625 9.30859 2.48047C10.1016 2.85938 10.6484 3.63281 10.707 4.45703L10.7227 4.62891H7.44141H4.16016L4.17188 4.43359C4.21094 3.73438 4.73047 2.94141 5.38281 2.57812C5.89453 2.29297 5.875 2.3125 5.90625 2.01172C5.95703 1.51562 6.13672 1.17188 6.48438 0.917969C6.80078 0.6875 7.02734 0.621094 7.48047 0.632812C7.82031 0.644531 7.90234 0.660156 8.10547 0.761719Z" fill="black"/>
<path d="M6.75781 0.0898438C6.10938 0.308594 5.57422 0.867188 5.40625 1.50391C5.375 1.60938 5.35156 1.74219 5.35156 1.79688C5.35156 1.875 5.30469 1.91797 5.11719 2.02344C4.77734 2.21094 4.44922 2.49609 4.17578 2.85156L3.93359 3.16406H2.12891C0.269531 3.16406 0.117188 3.17578 0.0390625 3.32031C0.0117188 3.36719 0 6.32031 0 11.6016V19.8086L0.0976562 19.9023L0.191406 20H7.44141H14.6914L14.7852 19.9023C14.875 19.8125 14.8828 19.7812 14.8828 19.3945C14.8828 18.9883 14.8789 18.9766 14.7695 18.8633C14.6445 18.7383 14.5859 18.7266 14.4375 18.793C14.3242 18.8438 14.2578 19.0078 14.2578 19.2227V19.375H7.44141H0.625V11.582V3.78906H2.14453H3.66016L3.60938 4.01172C3.57812 4.13672 3.55469 4.42578 3.55469 4.65625C3.55469 5.02734 3.5625 5.08594 3.63281 5.15625C3.71094 5.23438 3.76172 5.23438 7.45703 5.23438H11.207L11.2852 5.13281C11.3516 5.04688 11.3672 4.97266 11.3672 4.70703C11.3672 4.42578 11.3242 4.05469 11.2656 3.85547C11.2461 3.79297 11.3359 3.78906 12.7695 3.78906H14.2969V4.87891C14.2969 5.91797 14.3008 5.96875 14.3789 6.07031C14.4766 6.19531 14.6719 6.20703 14.8086 6.09766L14.9023 6.02344V4.69141V3.36328L14.8125 3.27344L14.7227 3.18359L12.8398 3.17188L10.957 3.16016L10.8477 2.99219C10.6367 2.65625 10.2695 2.32031 9.82422 2.05469C9.59766 1.91406 9.58984 1.91016 9.54297 1.66797C9.39062 0.917969 8.80078 0.28125 8.05078 0.0625C7.72266 -0.0351562 7.07812 -0.0195312 6.75781 0.0898438ZM8.10547 0.761719C8.58594 0.992188 8.88672 1.43359 8.93359 1.97266C8.94531 2.10156 8.97266 2.23828 8.99219 2.27734C9.01172 2.3125 9.15234 2.40625 9.30859 2.48047C10.1016 2.85938 10.6484 3.63281 10.707 4.45703L10.7227 4.62891H7.44141H4.16016L4.17188 4.43359C4.21094 3.73438 4.73047 2.94141 5.38281 2.57812C5.89453 2.29297 5.875 2.3125 5.90625 2.01172C5.95703 1.51562 6.13672 1.17188 6.48438 0.917969C6.80078 0.6875 7.02734 0.621094 7.48047 0.632812C7.82031 0.644531 7.90234 0.660156 8.10547 0.761719Z" stroke="black" stroke-width="0.6" mask="url(#path-1-outside-1_256_129)"/>
<mask id="path-2-outside-2_256_129" maskUnits="userSpaceOnUse" x="5.25244" y="0.538086" width="4" height="4" fill="black">
<rect fill="white" x="5.25244" y="0.538086" width="4" height="4"/>
<path d="M7.12107 1.22664C6.71482 1.35945 6.46091 1.58992 6.32419 1.95711C6.1406 2.44149 6.32028 3.03133 6.73825 3.32039C7.332 3.72664 8.11716 3.54695 8.457 2.92586C8.54294 2.7618 8.57419 2.65242 8.58591 2.41805C8.60153 2.15633 8.58982 2.09383 8.49607 1.87899C8.37497 1.60945 8.16403 1.39852 7.91013 1.28524C7.68357 1.18367 7.3281 1.16024 7.12107 1.22664ZM7.67185 1.85164C7.94528 1.96492 8.0781 2.35164 7.94138 2.61727C7.72653 3.03524 7.13669 3.03524 6.92575 2.61727C6.87497 2.52352 6.83591 2.40633 6.83591 2.36336C6.83591 2.32039 6.87497 2.2032 6.92575 2.10945C7.06638 1.83211 7.37107 1.72664 7.67185 1.85164Z"/>
</mask>
<path d="M7.12107 1.22664C6.71482 1.35945 6.46091 1.58992 6.32419 1.95711C6.1406 2.44149 6.32028 3.03133 6.73825 3.32039C7.332 3.72664 8.11716 3.54695 8.457 2.92586C8.54294 2.7618 8.57419 2.65242 8.58591 2.41805C8.60153 2.15633 8.58982 2.09383 8.49607 1.87899C8.37497 1.60945 8.16403 1.39852 7.91013 1.28524C7.68357 1.18367 7.3281 1.16024 7.12107 1.22664ZM7.67185 1.85164C7.94528 1.96492 8.0781 2.35164 7.94138 2.61727C7.72653 3.03524 7.13669 3.03524 6.92575 2.61727C6.87497 2.52352 6.83591 2.40633 6.83591 2.36336C6.83591 2.32039 6.87497 2.2032 6.92575 2.10945C7.06638 1.83211 7.37107 1.72664 7.67185 1.85164Z" fill="black"/>
<path d="M7.12107 1.22664C6.71482 1.35945 6.46091 1.58992 6.32419 1.95711C6.1406 2.44149 6.32028 3.03133 6.73825 3.32039C7.332 3.72664 8.11716 3.54695 8.457 2.92586C8.54294 2.7618 8.57419 2.65242 8.58591 2.41805C8.60153 2.15633 8.58982 2.09383 8.49607 1.87899C8.37497 1.60945 8.16403 1.39852 7.91013 1.28524C7.68357 1.18367 7.3281 1.16024 7.12107 1.22664ZM7.67185 1.85164C7.94528 1.96492 8.0781 2.35164 7.94138 2.61727C7.72653 3.03524 7.13669 3.03524 6.92575 2.61727C6.87497 2.52352 6.83591 2.40633 6.83591 2.36336C6.83591 2.32039 6.87497 2.2032 6.92575 2.10945C7.06638 1.83211 7.37107 1.72664 7.67185 1.85164Z" stroke="black" stroke-width="0.6" mask="url(#path-2-outside-2_256_129)"/>
<mask id="path-3-outside-3_256_129" maskUnits="userSpaceOnUse" x="7.39844" y="5.48828" width="13" height="14" fill="black">
<rect fill="white" x="7.39844" y="5.48828" width="13" height="14"/>
<path d="M13.457 7C9.67969 9.01953 8.5625 9.62891 8.48828 9.71094L8.39844 9.80859V12.3203C8.39844 14.6602 8.40234 14.8398 8.46875 14.9141C8.58594 15.0586 14.0742 18.4883 14.1797 18.4883C14.3008 18.4883 19.793 15.5703 19.9141 15.4414L20 15.3477V12.6172V9.88672L19.9141 9.78906C19.8633 9.73828 19.2109 9.35938 18.457 8.95312C17.707 8.54688 16.4414 7.85938 15.6445 7.42578C14.8516 6.99609 14.1836 6.64062 14.1602 6.64062C14.1406 6.64453 13.8242 6.80469 13.457 7ZM16.5742 8.59766C17.8906 9.3125 18.9883 9.91406 19.0156 9.94141C19.0547 9.97656 18.9297 10.0586 18.4414 10.3242L17.8203 10.668L16.0312 9.68359C15.043 9.14062 13.9414 8.53516 13.582 8.33594C13.1289 8.08984 12.9414 7.96484 12.9766 7.94531C13.0352 7.90625 14.1523 7.30859 14.1719 7.30859C14.1797 7.30469 15.2617 7.88672 16.5742 8.59766ZM13.9062 9.24609C14.6484 9.65234 15.7578 10.2656 16.3789 10.6016L17.5 11.2188V11.9531V12.6914L17.1406 12.8867L16.7773 13.082L16.7578 12.3438C16.7422 11.7578 16.7266 11.5938 16.6797 11.5469C16.6484 11.5156 15.4805 10.8711 14.082 10.1172C12.6875 9.35938 11.5391 8.73828 11.5352 8.73438C11.5273 8.72656 11.6875 8.63672 11.8867 8.52734L12.2461 8.32812L12.4023 8.41797C12.4883 8.46875 13.1641 8.83984 13.9062 9.24609ZM13.3516 10.4102C14.6875 11.1406 15.7812 11.7461 15.7812 11.7578C15.7812 11.7695 15.4219 11.9766 14.9805 12.2227L14.1797 12.6641L11.8086 11.3281C10.5 10.5898 9.41016 9.96484 9.38281 9.94141C9.33984 9.90234 9.47656 9.8125 10.1055 9.47656C10.5312 9.25 10.8906 9.06641 10.9023 9.07422C10.9141 9.07812 12.0156 9.67969 13.3516 10.4102ZM11.4453 11.793L13.8477 13.1523L13.8594 15.3828C13.8633 16.6133 13.8555 17.6172 13.8438 17.6172C13.832 17.6172 12.7344 16.9297 11.4023 16.0859L8.98438 14.5547V12.4922C8.98438 11.3594 8.99609 10.4297 9.01562 10.4297C9.03125 10.4297 10.125 11.043 11.4453 11.793ZM19.375 12.8242V15.1016L17.375 16.1523C16.2734 16.7305 15.1719 17.3047 14.9336 17.4336L14.4922 17.6641V15.4219V13.1797L15.293 12.7422C15.7305 12.5 16.1016 12.3047 16.1133 12.3047C16.125 12.3047 16.1328 12.582 16.1328 12.918C16.1328 13.7539 16.1836 13.9062 16.4609 13.9062C16.5742 13.9062 17.9492 13.1641 18.0312 13.0586C18.0703 13.0039 18.082 12.7852 18.0859 12.1016V11.2188L18.7031 10.8828C19.0391 10.6992 19.3281 10.5508 19.3477 10.5469C19.3633 10.5469 19.375 11.5703 19.375 12.8242Z"/>
</mask>
<path d="M13.457 7C9.67969 9.01953 8.5625 9.62891 8.48828 9.71094L8.39844 9.80859V12.3203C8.39844 14.6602 8.40234 14.8398 8.46875 14.9141C8.58594 15.0586 14.0742 18.4883 14.1797 18.4883C14.3008 18.4883 19.793 15.5703 19.9141 15.4414L20 15.3477V12.6172V9.88672L19.9141 9.78906C19.8633 9.73828 19.2109 9.35938 18.457 8.95312C17.707 8.54688 16.4414 7.85938 15.6445 7.42578C14.8516 6.99609 14.1836 6.64062 14.1602 6.64062C14.1406 6.64453 13.8242 6.80469 13.457 7ZM16.5742 8.59766C17.8906 9.3125 18.9883 9.91406 19.0156 9.94141C19.0547 9.97656 18.9297 10.0586 18.4414 10.3242L17.8203 10.668L16.0312 9.68359C15.043 9.14062 13.9414 8.53516 13.582 8.33594C13.1289 8.08984 12.9414 7.96484 12.9766 7.94531C13.0352 7.90625 14.1523 7.30859 14.1719 7.30859C14.1797 7.30469 15.2617 7.88672 16.5742 8.59766ZM13.9062 9.24609C14.6484 9.65234 15.7578 10.2656 16.3789 10.6016L17.5 11.2188V11.9531V12.6914L17.1406 12.8867L16.7773 13.082L16.7578 12.3438C16.7422 11.7578 16.7266 11.5938 16.6797 11.5469C16.6484 11.5156 15.4805 10.8711 14.082 10.1172C12.6875 9.35938 11.5391 8.73828 11.5352 8.73438C11.5273 8.72656 11.6875 8.63672 11.8867 8.52734L12.2461 8.32812L12.4023 8.41797C12.4883 8.46875 13.1641 8.83984 13.9062 9.24609ZM13.3516 10.4102C14.6875 11.1406 15.7812 11.7461 15.7812 11.7578C15.7812 11.7695 15.4219 11.9766 14.9805 12.2227L14.1797 12.6641L11.8086 11.3281C10.5 10.5898 9.41016 9.96484 9.38281 9.94141C9.33984 9.90234 9.47656 9.8125 10.1055 9.47656C10.5312 9.25 10.8906 9.06641 10.9023 9.07422C10.9141 9.07812 12.0156 9.67969 13.3516 10.4102ZM11.4453 11.793L13.8477 13.1523L13.8594 15.3828C13.8633 16.6133 13.8555 17.6172 13.8438 17.6172C13.832 17.6172 12.7344 16.9297 11.4023 16.0859L8.98438 14.5547V12.4922C8.98438 11.3594 8.99609 10.4297 9.01562 10.4297C9.03125 10.4297 10.125 11.043 11.4453 11.793ZM19.375 12.8242V15.1016L17.375 16.1523C16.2734 16.7305 15.1719 17.3047 14.9336 17.4336L14.4922 17.6641V15.4219V13.1797L15.293 12.7422C15.7305 12.5 16.1016 12.3047 16.1133 12.3047C16.125 12.3047 16.1328 12.582 16.1328 12.918C16.1328 13.7539 16.1836 13.9062 16.4609 13.9062C16.5742 13.9062 17.9492 13.1641 18.0312 13.0586C18.0703 13.0039 18.082 12.7852 18.0859 12.1016V11.2188L18.7031 10.8828C19.0391 10.6992 19.3281 10.5508 19.3477 10.5469C19.3633 10.5469 19.375 11.5703 19.375 12.8242Z" fill="black"/>
<path d="M13.457 7C9.67969 9.01953 8.5625 9.62891 8.48828 9.71094L8.39844 9.80859V12.3203C8.39844 14.6602 8.40234 14.8398 8.46875 14.9141C8.58594 15.0586 14.0742 18.4883 14.1797 18.4883C14.3008 18.4883 19.793 15.5703 19.9141 15.4414L20 15.3477V12.6172V9.88672L19.9141 9.78906C19.8633 9.73828 19.2109 9.35938 18.457 8.95312C17.707 8.54688 16.4414 7.85938 15.6445 7.42578C14.8516 6.99609 14.1836 6.64062 14.1602 6.64062C14.1406 6.64453 13.8242 6.80469 13.457 7ZM16.5742 8.59766C17.8906 9.3125 18.9883 9.91406 19.0156 9.94141C19.0547 9.97656 18.9297 10.0586 18.4414 10.3242L17.8203 10.668L16.0312 9.68359C15.043 9.14062 13.9414 8.53516 13.582 8.33594C13.1289 8.08984 12.9414 7.96484 12.9766 7.94531C13.0352 7.90625 14.1523 7.30859 14.1719 7.30859C14.1797 7.30469 15.2617 7.88672 16.5742 8.59766ZM13.9062 9.24609C14.6484 9.65234 15.7578 10.2656 16.3789 10.6016L17.5 11.2188V11.9531V12.6914L17.1406 12.8867L16.7773 13.082L16.7578 12.3438C16.7422 11.7578 16.7266 11.5938 16.6797 11.5469C16.6484 11.5156 15.4805 10.8711 14.082 10.1172C12.6875 9.35938 11.5391 8.73828 11.5352 8.73438C11.5273 8.72656 11.6875 8.63672 11.8867 8.52734L12.2461 8.32812L12.4023 8.41797C12.4883 8.46875 13.1641 8.83984 13.9062 9.24609ZM13.3516 10.4102C14.6875 11.1406 15.7812 11.7461 15.7812 11.7578C15.7812 11.7695 15.4219 11.9766 14.9805 12.2227L14.1797 12.6641L11.8086 11.3281C10.5 10.5898 9.41016 9.96484 9.38281 9.94141C9.33984 9.90234 9.47656 9.8125 10.1055 9.47656C10.5312 9.25 10.8906 9.06641 10.9023 9.07422C10.9141 9.07812 12.0156 9.67969 13.3516 10.4102ZM11.4453 11.793L13.8477 13.1523L13.8594 15.3828C13.8633 16.6133 13.8555 17.6172 13.8438 17.6172C13.832 17.6172 12.7344 16.9297 11.4023 16.0859L8.98438 14.5547V12.4922C8.98438 11.3594 8.99609 10.4297 9.01562 10.4297C9.03125 10.4297 10.125 11.043 11.4453 11.793ZM19.375 12.8242V15.1016L17.375 16.1523C16.2734 16.7305 15.1719 17.3047 14.9336 17.4336L14.4922 17.6641V15.4219V13.1797L15.293 12.7422C15.7305 12.5 16.1016 12.3047 16.1133 12.3047C16.125 12.3047 16.1328 12.582 16.1328 12.918C16.1328 13.7539 16.1836 13.9062 16.4609 13.9062C16.5742 13.9062 17.9492 13.1641 18.0312 13.0586C18.0703 13.0039 18.082 12.7852 18.0859 12.1016V11.2188L18.7031 10.8828C19.0391 10.6992 19.3281 10.5508 19.3477 10.5469C19.3633 10.5469 19.375 11.5703 19.375 12.8242Z" stroke="black" stroke-width="0.36" mask="url(#path-3-outside-3_256_129)"/>
<mask id="path-4-outside-4_256_129" maskUnits="userSpaceOnUse" x="0.796875" y="5.57031" width="4" height="5" fill="black">
<rect fill="white" x="0.796875" y="5.57031" width="4" height="5"/>
<path d="M1.89844 6.83984L1.79688 6.91797V8.16406C1.79688 9.39844 1.79688 9.41016 1.88281 9.49219C1.96484 9.56641 2.01562 9.57031 3.12891 9.57031H4.29297L4.37109 9.46875C4.44922 9.36719 4.45312 9.32031 4.45312 8.15625V6.94922L4.35547 6.85547L4.26172 6.75781H3.13281C2.04688 6.75781 2 6.76172 1.89844 6.83984ZM3.85938 8.13281L3.84766 8.92578L3.11719 8.9375L2.38281 8.94531V8.14453V7.34375H3.125H3.86719L3.85938 8.13281Z"/>
</mask>
<path d="M1.89844 6.83984L1.79688 6.91797V8.16406C1.79688 9.39844 1.79688 9.41016 1.88281 9.49219C1.96484 9.56641 2.01562 9.57031 3.12891 9.57031H4.29297L4.37109 9.46875C4.44922 9.36719 4.45312 9.32031 4.45312 8.15625V6.94922L4.35547 6.85547L4.26172 6.75781H3.13281C2.04688 6.75781 2 6.76172 1.89844 6.83984ZM3.85938 8.13281L3.84766 8.92578L3.11719 8.9375L2.38281 8.94531V8.14453V7.34375H3.125H3.86719L3.85938 8.13281Z" fill="black"/>
<path d="M1.89844 6.83984L1.79688 6.91797V8.16406C1.79688 9.39844 1.79688 9.41016 1.88281 9.49219C1.96484 9.56641 2.01562 9.57031 3.12891 9.57031H4.29297L4.37109 9.46875C4.44922 9.36719 4.45312 9.32031 4.45312 8.15625V6.94922L4.35547 6.85547L4.26172 6.75781H3.13281C2.04688 6.75781 2 6.76172 1.89844 6.83984ZM3.85938 8.13281L3.84766 8.92578L3.11719 8.9375L2.38281 8.94531V8.14453V7.34375H3.125H3.86719L3.85938 8.13281Z" stroke="black" stroke-width="0.6" mask="url(#path-4-outside-4_256_129)"/>
<mask id="path-5-outside-5_256_129" maskUnits="userSpaceOnUse" x="4.00098" y="7.4375" width="7" height="2" fill="black">
<rect fill="white" x="4.00098" y="7.4375" width="7" height="2"/>
<path d="M5.09747 7.94922C4.97638 8.06641 4.96857 8.25 5.07794 8.35938C5.15607 8.4375 5.20685 8.4375 7.46075 8.4375C9.71466 8.4375 9.76544 8.4375 9.84357 8.35938C9.89044 8.3125 9.92169 8.23047 9.92169 8.14453C9.92169 8.05859 9.89044 7.97656 9.84357 7.92969C9.76544 7.85156 9.71466 7.85156 7.48028 7.85156H5.19122L5.09747 7.94922Z"/>
</mask>
<path d="M5.09747 7.94922C4.97638 8.06641 4.96857 8.25 5.07794 8.35938C5.15607 8.4375 5.20685 8.4375 7.46075 8.4375C9.71466 8.4375 9.76544 8.4375 9.84357 8.35938C9.89044 8.3125 9.92169 8.23047 9.92169 8.14453C9.92169 8.05859 9.89044 7.97656 9.84357 7.92969C9.76544 7.85156 9.71466 7.85156 7.48028 7.85156H5.19122L5.09747 7.94922Z" fill="black"/>
<path d="M5.09747 7.94922C4.97638 8.06641 4.96857 8.25 5.07794 8.35938C5.15607 8.4375 5.20685 8.4375 7.46075 8.4375C9.71466 8.4375 9.76544 8.4375 9.84357 8.35938C9.89044 8.3125 9.92169 8.23047 9.92169 8.14453C9.92169 8.05859 9.89044 7.97656 9.84357 7.92969C9.76544 7.85156 9.71466 7.85156 7.48028 7.85156H5.19122L5.09747 7.94922Z" stroke="black" stroke-width="0.6" mask="url(#path-5-outside-5_256_129)"/>
<mask id="path-6-outside-6_256_129" maskUnits="userSpaceOnUse" x="0.796875" y="9.63281" width="4" height="5" fill="black">
<rect fill="white" x="0.796875" y="9.63281" width="4" height="5"/>
<path d="M1.88281 10.9102C1.79688 11 1.79688 11.0234 1.79688 12.2305V13.4648L1.88672 13.5469C1.97656 13.6328 2 13.6328 3.12109 13.6328H4.26172L4.35547 13.5352L4.45312 13.4414V12.2266V11.0117L4.35547 10.918L4.26172 10.8203H3.11328H1.96484L1.88281 10.9102ZM3.84766 12.2266V13.0273H3.125H2.40234L2.39062 12.2656C2.38672 11.8477 2.39062 11.4844 2.40234 11.457C2.41406 11.4141 2.57422 11.4062 3.13281 11.4141L3.84766 11.4258V12.2266Z"/>
</mask>
<path d="M1.88281 10.9102C1.79688 11 1.79688 11.0234 1.79688 12.2305V13.4648L1.88672 13.5469C1.97656 13.6328 2 13.6328 3.12109 13.6328H4.26172L4.35547 13.5352L4.45312 13.4414V12.2266V11.0117L4.35547 10.918L4.26172 10.8203H3.11328H1.96484L1.88281 10.9102ZM3.84766 12.2266V13.0273H3.125H2.40234L2.39062 12.2656C2.38672 11.8477 2.39062 11.4844 2.40234 11.457C2.41406 11.4141 2.57422 11.4062 3.13281 11.4141L3.84766 11.4258V12.2266Z" fill="black"/>
<path d="M1.88281 10.9102C1.79688 11 1.79688 11.0234 1.79688 12.2305V13.4648L1.88672 13.5469C1.97656 13.6328 2 13.6328 3.12109 13.6328H4.26172L4.35547 13.5352L4.45312 13.4414V12.2266V11.0117L4.35547 10.918L4.26172 10.8203H3.11328H1.96484L1.88281 10.9102ZM3.84766 12.2266V13.0273H3.125H2.40234L2.39062 12.2656C2.38672 11.8477 2.39062 11.4844 2.40234 11.457C2.41406 11.4141 2.57422 11.4062 3.13281 11.4141L3.84766 11.4258V12.2266Z" stroke="black" stroke-width="0.6" mask="url(#path-6-outside-6_256_129)"/>
<mask id="path-7-outside-7_256_129" maskUnits="userSpaceOnUse" x="3.96582" y="11.5391" width="5" height="2" fill="black">
<rect fill="white" x="3.96582" y="11.5391" width="5" height="2"/>
<path d="M5.0432 12.0547C4.93382 12.1914 4.94163 12.3242 5.05882 12.4414L5.15257 12.5391H6.53538H7.9182L8.00023 12.4492C8.11351 12.3281 8.11351 12.1484 7.99632 12.0391C7.90648 11.9531 7.88695 11.9531 6.51585 11.9531H5.12132L5.0432 12.0547Z"/>
</mask>
<path d="M5.0432 12.0547C4.93382 12.1914 4.94163 12.3242 5.05882 12.4414L5.15257 12.5391H6.53538H7.9182L8.00023 12.4492C8.11351 12.3281 8.11351 12.1484 7.99632 12.0391C7.90648 11.9531 7.88695 11.9531 6.51585 11.9531H5.12132L5.0432 12.0547Z" fill="black"/>
<path d="M5.0432 12.0547C4.93382 12.1914 4.94163 12.3242 5.05882 12.4414L5.15257 12.5391H6.53538H7.9182L8.00023 12.4492C8.11351 12.3281 8.11351 12.1484 7.99632 12.0391C7.90648 11.9531 7.88695 11.9531 6.51585 11.9531H5.12132L5.0432 12.0547Z" stroke="black" stroke-width="0.6" mask="url(#path-7-outside-7_256_129)"/>
<mask id="path-8-outside-8_256_129" maskUnits="userSpaceOnUse" x="0.796875" y="13.7344" width="4" height="5" fill="black">
<rect fill="white" x="0.796875" y="13.7344" width="4" height="5"/>
<path d="M1.875 15C1.80078 15.0742 1.79688 15.1289 1.79688 16.3242V17.5742L1.89844 17.6523C2 17.7305 2.04688 17.7344 3.13281 17.7344H4.26172L4.35547 17.6367L4.45312 17.543V16.3359C4.45312 15.1719 4.44922 15.125 4.37109 15.0234L4.29297 14.9219H3.12109C2.00391 14.9219 1.94922 14.9258 1.875 15ZM3.85938 16.3164L3.86719 17.1094H3.125H2.38281V16.3086V15.5078L3.11719 15.5156L3.84766 15.5273L3.85938 16.3164Z"/>
</mask>
<path d="M1.875 15C1.80078 15.0742 1.79688 15.1289 1.79688 16.3242V17.5742L1.89844 17.6523C2 17.7305 2.04688 17.7344 3.13281 17.7344H4.26172L4.35547 17.6367L4.45312 17.543V16.3359C4.45312 15.1719 4.44922 15.125 4.37109 15.0234L4.29297 14.9219H3.12109C2.00391 14.9219 1.94922 14.9258 1.875 15ZM3.85938 16.3164L3.86719 17.1094H3.125H2.38281V16.3086V15.5078L3.11719 15.5156L3.84766 15.5273L3.85938 16.3164Z" fill="black"/>
<path d="M1.875 15C1.80078 15.0742 1.79688 15.1289 1.79688 16.3242V17.5742L1.89844 17.6523C2 17.7305 2.04688 17.7344 3.13281 17.7344H4.26172L4.35547 17.6367L4.45312 17.543V16.3359C4.45312 15.1719 4.44922 15.125 4.37109 15.0234L4.29297 14.9219H3.12109C2.00391 14.9219 1.94922 14.9258 1.875 15ZM3.85938 16.3164L3.86719 17.1094H3.125H2.38281V16.3086V15.5078L3.11719 15.5156L3.84766 15.5273L3.85938 16.3164Z" stroke="black" stroke-width="0.6" mask="url(#path-8-outside-8_256_129)"/>
<mask id="path-9-outside-9_256_129" maskUnits="userSpaceOnUse" x="3.80615" y="15.6016" width="6" height="2" fill="black">
<rect fill="white" x="3.80615" y="15.6016" width="6" height="2"/>
<path d="M4.89068 16.1055C4.78131 16.2227 4.7774 16.418 4.88287 16.5234C4.961 16.6016 5.01178 16.6016 7.06647 16.6016C9.01178 16.6016 9.17584 16.5977 9.25397 16.5312C9.37897 16.4297 9.3985 16.25 9.29694 16.1211L9.2149 16.0156H7.09381H4.97272L4.89068 16.1055Z"/>
</mask>
<path d="M4.89068 16.1055C4.78131 16.2227 4.7774 16.418 4.88287 16.5234C4.961 16.6016 5.01178 16.6016 7.06647 16.6016C9.01178 16.6016 9.17584 16.5977 9.25397 16.5312C9.37897 16.4297 9.3985 16.25 9.29694 16.1211L9.2149 16.0156H7.09381H4.97272L4.89068 16.1055Z" fill="black"/>
<path d="M4.89068 16.1055C4.78131 16.2227 4.7774 16.418 4.88287 16.5234C4.961 16.6016 5.01178 16.6016 7.06647 16.6016C9.01178 16.6016 9.17584 16.5977 9.25397 16.5312C9.37897 16.4297 9.3985 16.25 9.29694 16.1211L9.2149 16.0156H7.09381H4.97272L4.89068 16.1055Z" stroke="black" stroke-width="0.6" mask="url(#path-9-outside-9_256_129)"/>
</g>
<defs>
<clipPath id="clip0_256_129">
<rect width="20" height="20" fill="white"/>
</clipPath>
</defs>
</svg>
