<svg width="22" height="20" viewBox="0 0 22 20" fill="none" xmlns="http://www.w3.org/2000/svg">
<path d="M16.3623 9.88839V13.4131C16.3623 13.5243 16.3623 13.6325 16.3623 13.7378C16.3624 15.628 16.3625 16.5822 16.3283 17.1303C16.31 17.4219 16.2816 17.6116 16.2337 17.7721C16.1916 17.9132 16.1356 18.0265 16.0732 18.1528C16.0652 18.169 16.0571 18.1854 16.0489 18.2021L16.0485 18.203C15.7021 18.8996 15.0738 19.4122 14.3029 19.63L14.3029 19.63L14.3014 19.6304C14.1506 19.6718 13.9897 19.6884 13.2604 19.6975C12.5221 19.7068 11.1797 19.7078 8.64366 19.7078C6.52097 19.7078 5.16964 19.7049 4.32346 19.6971C3.90053 19.6932 3.60242 19.688 3.39675 19.6814C3.19755 19.6749 3.07037 19.6668 3.00107 19.6535L3.00067 19.6534C2.83475 19.6211 2.53924 19.507 2.33392 19.4064C1.66677 19.0813 1.16198 18.4914 0.930872 17.7736C0.837605 17.4893 0.831098 17.3379 0.815652 16.4385L0.815647 16.4382L0.800024 15.4348L0.798706 15.3501L0.858605 15.2902L0.960156 15.1887L1.0578 15.0911L1.11638 15.0326H1.1992H2.40609H3.4165L3.43645 13.9093L3.43646 13.9086C3.45205 13.1881 3.46766 11.6044 3.46766 10.3912L3.46766 10.3905C3.47157 9.17612 3.48329 7.17655 3.49892 5.94573C3.49892 5.94565 3.49893 5.94557 3.49893 5.94549L3.52236 3.70484L3.5233 3.6141L3.59221 3.55506L3.70158 3.46136L3.81094 3.36765L3.86711 3.31952H3.94107H8.01092H11.9461L12.0046 3.17551C12.0046 3.17546 12.0046 3.17541 12.0046 3.17535C12.1769 2.74703 12.6315 2.09294 13.0166 1.70385L13.0178 1.70273C13.7584 0.966402 14.7822 0.453911 15.8031 0.318943M16.3623 9.88839L19.7838 8.46722C20.7727 7.48263 21.2628 6.2095 21.1936 4.83692L21.1935 4.83623C21.0753 2.64422 19.5016 0.823626 17.3395 0.3759L17.3389 0.37579C17.1418 0.335531 16.8511 0.308619 16.5694 0.297712C16.289 0.286856 15.9989 0.291119 15.8031 0.318943M16.3623 9.88839H16.4475H16.4481C17.6829 9.8843 18.877 9.3735 19.7835 8.46751L16.3623 9.88839ZM15.8031 0.318943C15.8028 0.318993 15.8024 0.319044 15.8021 0.319094L15.8303 0.517084L15.8042 0.318804C15.8038 0.31885 15.8035 0.318897 15.8031 0.318943ZM11.4501 18.6636C11.5084 18.7382 11.568 18.8065 11.6257 18.8636H7.62815C3.94107 18.8636 3.29661 18.8558 3.10523 18.805L11.4501 18.6636ZM11.4501 18.6636H7.62815C5.78415 18.6636 4.70272 18.6616 4.05837 18.6534C3.73587 18.6492 3.5256 18.6435 3.38502 18.6359C3.24105 18.6281 3.18282 18.6187 3.1565 18.6117L3.15593 18.6116C2.57974 18.4605 2.12886 18.0403 1.94355 17.4846C1.885 17.309 1.8718 17.2118 1.8718 16.5796V16.0573H6.35486H10.8428L10.8575 16.6505C10.8575 16.6506 10.8575 16.6506 10.8575 16.6507C10.8672 17.077 10.8788 17.3461 10.9194 17.5656C10.9615 17.794 11.0337 17.963 11.1481 18.1917L11.1486 18.1928C11.2282 18.3495 11.3366 18.5184 11.4501 18.6636ZM2.42171 19.2267C2.62091 19.3243 2.89822 19.4297 3.03883 19.4571C3.24193 19.4961 4.39805 19.5078 8.64366 19.5078C13.7173 19.5078 14.0063 19.5039 14.2485 19.4375C14.9672 19.2345 15.5491 18.7582 15.8694 18.114L2.42171 19.2267ZM17.031 1.39751L17.0309 1.39749C16.1636 1.24929 15.2928 1.40823 14.5239 1.85008C13.6163 2.37613 12.9821 3.24261 12.7404 4.28692L12.7401 4.28802C12.6907 4.49648 12.6656 4.80074 12.6684 5.11458C12.6713 5.42835 12.7019 5.73284 12.755 5.94168L12.7552 5.9423C13.0417 7.08434 13.7684 7.97979 14.8142 8.47283L14.8151 8.47325C15.3124 8.71071 15.6448 8.79064 16.2286 8.81308L16.2286 8.81309C16.8125 8.83568 17.1392 8.79138 17.6287 8.62457C18.776 8.23241 19.6633 7.29567 20.0167 6.09911C20.0735 5.89995 20.115 5.61186 20.1321 5.31195C20.1492 5.01172 20.1409 4.71548 20.1052 4.50117L20.105 4.50005C19.8491 2.90947 18.6221 1.66815 17.031 1.39751ZM11.6459 5.53739C11.6056 5.13212 11.6043 4.71609 11.656 4.38326H8.1359H4.57055L4.55114 5.32706C4.55114 5.3271 4.55114 5.32714 4.55114 5.32718C4.53945 5.95444 4.51602 8.44008 4.50431 10.849L4.50431 10.849L4.48195 15.0326H7.89374C9.64031 15.0326 10.5473 15.0335 11.0278 15.0433C11.2659 15.0482 11.4088 15.0553 11.4993 15.0672C11.5452 15.0732 11.5873 15.0816 11.6258 15.0959C11.6698 15.1123 11.7 15.133 11.7231 15.1519L11.7232 15.152C11.748 15.1715 11.7956 15.2091 11.8295 15.2764C11.8602 15.3371 11.8724 15.4067 11.8803 15.4797C11.8957 15.6242 11.9018 15.8815 11.9129 16.3585L11.9136 16.3875L11.9136 16.3879C11.9334 17.3212 11.9433 17.3872 12.0051 17.5446C12.4662 18.7091 13.892 19.0316 14.782 18.1803L14.7823 18.18C15.0084 17.9645 15.2015 17.6219 15.2593 17.3329L15.2592 17.3329L15.2598 17.3302C15.2596 17.3313 15.2605 17.3266 15.262 17.3122C15.2634 17.2981 15.2649 17.279 15.2664 17.2541C15.2694 17.2044 15.2722 17.1364 15.2747 17.0488C15.2797 16.8737 15.2835 16.6256 15.2861 16.2992C15.2915 15.6468 15.2925 14.6862 15.2905 13.3822L15.2793 9.75229L15.0926 9.69739C15.0922 9.69728 15.0918 9.69717 15.0914 9.69706C14.6396 9.56959 14.0737 9.2985 13.6782 9.02548C13.3015 8.76749 12.7753 8.25502 12.5444 7.91534C12.5443 7.91522 12.5442 7.91509 12.5442 7.91497L12.4518 7.78004H10.8231C9.93966 7.78004 9.46908 7.77924 9.20724 7.75895C9.07793 7.74893 8.97603 7.73295 8.89445 7.698C8.79839 7.65684 8.74778 7.59702 8.71123 7.54914L8.71113 7.54901C8.64136 7.45747 8.62332 7.33625 8.62332 7.24817C8.62332 7.1601 8.64136 7.03888 8.71113 6.94734L8.71111 6.94732L8.7128 6.94517C8.74934 6.89857 8.79925 6.8416 8.88983 6.80119C8.96867 6.76602 9.06495 6.74945 9.18429 6.73903C9.42434 6.71805 9.84796 6.7163 10.6317 6.7163C11.0569 6.7163 11.4429 6.71435 11.7223 6.71143C11.7863 6.71076 11.8447 6.71004 11.8965 6.70929C11.8958 6.70746 11.8951 6.70563 11.8944 6.7038L11.8944 6.7038L11.8935 6.7014C11.7722 6.37749 11.6875 5.95514 11.6459 5.53739Z" fill="black" stroke="black" stroke-width="0.4"/>
<path d="M15.0488 3.42971L15.0488 3.42972C15.009 3.51343 14.9828 3.5843 14.9676 3.67949C14.9531 3.77108 14.9493 3.88263 14.9493 4.04658C14.9493 4.22067 14.952 4.3324 14.969 4.4249C14.9869 4.5219 15.0199 4.59407 15.07 4.69015L15.07 4.69024C15.317 5.16303 15.7181 5.4266 16.275 5.4967L16.2753 5.49674C16.4497 5.51804 16.5553 5.54026 16.6348 5.57327C16.7106 5.60477 16.7678 5.64837 16.84 5.72414L16.9124 5.65516M15.0488 3.42971L15.7734 7.46406L15.8148 7.37308L15.7733 7.46401L15.7733 7.46403C15.2953 7.24606 14.9298 6.70474 14.9298 6.20568C14.9298 6.06803 14.9569 5.94631 15.0269 5.85737C15.1003 5.764 15.2078 5.72305 15.3305 5.72305C15.4505 5.72305 15.5546 5.76678 15.6321 5.85355C15.707 5.93731 15.7501 6.05327 15.7693 6.18763L15.7693 6.18762L15.7695 6.18862C15.8137 6.52222 16.0687 6.7457 16.3962 6.74599C16.9321 6.73876 17.1998 6.10382 16.8398 5.72395L16.9124 5.65516M15.0488 3.42971L15.0495 3.42839C15.1994 3.12456 15.4492 2.86995 15.7511 2.72312C15.7513 2.72303 15.7514 2.72295 15.7516 2.72286L15.9453 2.62605V2.47703C15.9453 2.38985 15.9499 2.3196 15.9698 2.25861C15.991 2.19362 16.0266 2.14756 16.0712 2.10286C16.1474 2.02224 16.2547 1.97488 16.3578 1.97488C16.4833 1.97488 16.5915 2.02395 16.6658 2.1185C16.7378 2.21 16.7702 2.33404 16.7702 2.47312V2.61801L16.9557 2.69746L16.9557 2.69745L16.9565 2.69784C17.372 2.88057 17.6549 3.18722 17.7851 3.61073C17.8367 3.77364 17.8644 3.90584 17.8604 4.01844C17.8561 4.13661 17.8171 4.22975 17.7456 4.31125C17.7062 4.35714 17.6643 4.396 17.6103 4.42151C17.5559 4.44726 17.4985 4.45502 17.4358 4.45502C17.3169 4.45502 17.2131 4.42249 17.1353 4.33339C17.0633 4.2508 17.0254 4.13212 17.0013 3.98906L17.0012 3.9886C16.9628 3.75486 16.8362 3.58429 16.6747 3.49531C16.5137 3.4066 16.3107 3.39471 16.1084 3.49235C15.7578 3.66263 15.6592 4.12909 15.911 4.43136C15.9745 4.50677 16.0385 4.55615 16.1217 4.5922C16.2075 4.62939 16.3182 4.65433 16.4785 4.67343C17.0477 4.73542 17.4699 5.01517 17.7051 5.49768C17.7638 5.61506 17.8011 5.69794 17.8216 5.7927C17.8417 5.88609 17.8443 5.98613 17.8443 6.1354L17.8443 6.13643C17.8423 6.33244 17.821 6.49375 17.7667 6.64584C17.7124 6.79804 17.6272 6.93479 17.5056 7.08468L17.5056 7.08468L17.5052 7.08521C17.4243 7.18359 17.3001 7.28564 17.1747 7.36788C17.0503 7.44944 16.9127 7.51936 16.8019 7.54473L16.8019 7.54482L16.7978 7.54559C16.7881 7.54738 16.7807 7.54886 16.7748 7.55022C16.7738 7.55671 16.773 7.56521 16.7723 7.57639C16.7705 7.60545 16.7702 7.6447 16.7702 7.70104C16.7702 7.79797 16.7668 7.87394 16.748 7.93733C16.7274 8.00697 16.6908 8.05429 16.6429 8.10008C16.4839 8.26266 16.2312 8.26777 16.0667 8.11368L16.0667 8.11369L16.0664 8.11333C16.0203 8.06969 15.9854 8.02349 15.966 7.95383C15.9488 7.89174 15.9453 7.81559 15.9453 7.71666V7.54271L15.0488 3.42971ZM16.9124 5.65516C17.3342 6.10026 17.0178 6.83818 16.3968 6.84599L15.1587 4.64394C15.3891 5.08513 15.7602 5.3311 16.2875 5.39748C16.639 5.44043 16.7562 5.49118 16.9124 5.65516Z" fill="black" stroke="black" stroke-width="0.2"/>
<path d="M6.80352 6.24322L6.80396 6.24311C6.89919 6.21984 7.02631 6.21624 7.15029 6.22724C7.27427 6.23823 7.40074 6.26432 7.495 6.30403C7.59499 6.34453 7.7076 6.42729 7.80559 6.52225C7.90369 6.61731 7.99197 6.72927 8.04038 6.83211C8.09356 6.93876 8.12141 7.09202 8.1264 7.24121C8.1314 7.39067 8.11375 7.54506 8.06895 7.65382L8.0688 7.65419C8.03449 7.73563 7.94062 7.86925 7.86055 7.9573C7.20708 8.67983 5.98076 8.23814 5.98076 7.26777C5.98076 6.76705 6.30634 6.36951 6.80352 6.24322ZM7.23052 7.01946L7.23052 7.01947L7.22976 7.01906C7.20517 7.00596 7.16827 6.99253 7.1286 6.98239C7.08886 6.97223 7.05034 6.96638 7.02284 6.96638C6.9561 6.96638 6.8802 7.00374 6.81944 7.06448C6.75868 7.12522 6.72131 7.20108 6.72131 7.26777C6.72131 7.33446 6.75868 7.41032 6.81944 7.47106C6.8802 7.5318 6.9561 7.56916 7.02284 7.56916C7.20552 7.56916 7.32975 7.46464 7.3722 7.34608C7.39347 7.28667 7.39427 7.224 7.37269 7.16758C7.35128 7.11158 7.30653 7.05832 7.23052 7.01946Z" fill="black" stroke="black" stroke-width="0.1"/>
<path d="M6.83509 9.10668C6.34686 9.20429 5.95238 9.73919 6.02659 10.2077C6.06564 10.4459 6.2375 10.7387 6.41326 10.8675C6.5734 10.9847 6.88977 11.094 7.06162 11.094C7.41705 11.094 7.83497 10.8246 7.99902 10.4927C8.09276 10.2936 8.10447 9.91879 8.01855 9.71576C7.83497 9.27457 7.31941 9.00907 6.83509 9.10668ZM6.83509 9.10668L6.82521 9.05767C6.82522 9.05767 6.82523 9.05766 6.82525 9.05766C6.82526 9.05766 6.82527 9.05766 6.82528 9.05765L6.83509 9.10668ZM7.23065 9.83076L7.23065 9.83077L7.22978 9.83032C7.05301 9.73759 6.88473 9.78851 6.79397 9.89135C6.74839 9.94301 6.72258 10.0074 6.72354 10.0741C6.72449 10.1402 6.75176 10.2128 6.81965 10.2817C6.94623 10.4063 7.11529 10.4073 7.23724 10.3367C7.35844 10.2666 7.42803 10.1296 7.36306 9.97309L7.36303 9.9731L7.36243 9.97149C7.35377 9.94841 7.33482 9.91974 7.30926 9.89243C7.28386 9.86529 7.25529 9.84308 7.23065 9.83076Z" fill="black" stroke="black" stroke-width="0.1"/>
<path d="M8.97963 10.5911H8.88117L8.82113 10.5131L8.74331 10.412C8.66442 10.3104 8.61883 10.1887 8.62302 10.0615C8.62722 9.93379 8.68125 9.81531 8.77515 9.72313L8.86662 9.62788L8.92565 9.56642H9.01088H11.2997H13.5885H13.6737L13.7327 9.62788L13.8233 9.72217C13.921 9.81592 13.9799 9.94779 13.9799 10.0788C13.9799 10.2097 13.921 10.3416 13.8233 10.4354L13.7327 10.5296L13.6737 10.5911H13.5885H11.2841H8.97963Z" fill="black" stroke="black" stroke-width="0.4"/>
<path d="M7.82804 13.62C7.73296 13.7171 7.60531 13.8005 7.47181 13.8596C7.33849 13.9187 7.19577 13.9552 7.06976 13.9552C6.68923 13.9552 6.30919 13.7392 6.12422 13.4187L6.12421 13.4187L6.12406 13.4184C5.99854 13.1978 5.94926 12.975 5.97885 12.7612C6.00845 12.5473 6.11628 12.3472 6.29662 12.171L6.29684 12.1708C6.35534 12.1143 6.42365 12.0581 6.48706 12.0128C6.54897 11.9686 6.6111 11.9313 6.65632 11.917C6.73759 11.8914 6.91929 11.8718 7.06056 11.8679L7.06056 11.8679L7.06128 11.8678C7.6705 11.8597 8.12336 12.2992 8.12746 12.9014V12.9017C8.12746 13.049 8.10726 13.174 8.05867 13.2904C8.01013 13.4068 7.93454 13.5115 7.82804 13.62ZM7.82804 13.62C7.82803 13.62 7.82802 13.62 7.82801 13.62L7.79234 13.585L7.82806 13.62C7.82805 13.62 7.82805 13.62 7.82804 13.62ZM7.23098 12.6419L7.23097 12.6419L7.22949 12.6411C7.16711 12.6073 7.11108 12.5927 7.05685 12.5935C7.00243 12.5943 6.9459 12.6107 6.8827 12.645L6.88245 12.6452C6.78473 12.6975 6.73397 12.7728 6.72334 12.8495C6.71268 12.9265 6.74107 13.0139 6.81986 13.0927C6.94646 13.2174 7.11557 13.2185 7.23757 13.1479C7.35877 13.0777 7.42835 12.9408 7.36339 12.7843L7.36336 12.7843L7.36275 12.7826C7.35409 12.7596 7.33514 12.7309 7.30959 12.7036C7.28419 12.6765 7.25561 12.6542 7.23098 12.6419Z" fill="black" stroke="black" stroke-width="0.1"/>
<path d="M8.87059 13.4214L8.96668 13.4219L11.2242 13.4336L11.2243 13.4336C12.0077 13.4375 12.5824 13.4365 12.9705 13.4311C13.1644 13.4284 13.3133 13.4246 13.4191 13.4196C13.4717 13.4172 13.5158 13.4143 13.5504 13.4109L13.5505 13.4109C13.5746 13.4085 13.6219 13.4039 13.6608 13.3888L13.6644 13.3873L13.6644 13.3873C14.0066 13.2465 14.0627 12.837 13.8375 12.5761C13.8375 12.576 13.8374 12.5759 13.8373 12.5757L13.744 12.467L13.6844 12.3975L13.5929 12.3972L11.351 12.3894L11.3509 12.3894C10.7352 12.3874 10.1682 12.3884 9.75089 12.3913C9.54235 12.3928 9.37066 12.3948 9.24882 12.3971C9.18806 12.3983 9.13868 12.3995 9.10297 12.4009C9.08533 12.4016 9.06943 12.4024 9.05653 12.4034C9.05027 12.4038 9.0427 12.4045 9.03508 12.4054C9.03132 12.4059 9.02574 12.4066 9.01933 12.4078L9.01928 12.4078C9.01522 12.4086 9.00122 12.4112 8.98453 12.4173C8.98417 12.4174 8.98381 12.4176 8.98345 12.4177L9.05365 12.605C8.83102 12.687 8.74899 12.9525 8.89351 13.1282L8.87059 13.4214ZM8.87059 13.4214L8.81093 13.346L8.73775 13.2536L8.87059 13.4214Z" fill="black" stroke="black" stroke-width="0.4"/>
</svg>
