<svg width="42" height="42" viewBox="0 0 42 42" fill="none" xmlns="http://www.w3.org/2000/svg">
<mask id="path-1-outside-1_289_132" maskUnits="userSpaceOnUse" x="0" y="-0.0258789" width="42" height="42" fill="black">
<rect fill="white" y="-0.0258789" width="42" height="42"/>
<path d="M4.02563 1.12632C2.61798 1.50114 1.5185 2.6256 1.14368 4.04992C0.952106 4.76625 0.952106 37.2007 1.14368 37.917C1.5185 39.358 2.6263 40.4741 4.05895 40.849C4.49208 40.9572 6.49945 40.9739 21.0092 40.9739C38.9589 40.9739 37.8761 40.9989 38.8506 40.5075C39.442 40.2076 40.175 39.483 40.4915 38.8999C41.0329 37.8837 40.9996 38.8166 40.9996 23.7572C40.9996 12.2043 40.9829 10.0221 40.883 9.79717C40.7331 9.45566 32.4537 1.19296 32.1455 1.07635C31.9872 1.01804 27.5477 0.993052 18.1939 1.00138C6.49112 1.00138 4.40878 1.01804 4.02563 1.12632ZM13.0297 8.00636C13.0546 12.3376 13.0546 12.3626 13.2462 12.7374C13.5377 13.3371 13.8709 13.687 14.4456 13.9952L14.9704 14.2784H21.0092H27.0479L27.4727 14.0535C28.1058 13.7203 28.364 13.4704 28.6805 12.8874L28.9637 12.3626L28.9887 8.00636L29.0137 3.65845H30.0715H31.1293L34.7359 7.26505L38.3342 10.8633L38.3175 24.1653C38.2926 37.4506 38.2926 37.4673 38.1176 37.6921C37.7095 38.2419 37.6345 38.2669 35.9104 38.2919L34.3361 38.3168V33.4192C34.3361 29.3378 34.3111 28.4382 34.2112 28.0384C33.8364 26.5975 32.7286 25.4813 31.2959 25.1065C30.5629 24.9233 11.4637 24.9149 10.7391 25.1065C9.29811 25.4813 8.18198 26.5891 7.80716 28.0218C7.69888 28.4382 7.68222 29.2878 7.68222 33.4192V38.3168L6.10797 38.2919C4.3838 38.2669 4.30883 38.2419 3.90069 37.6921L3.72578 37.4673L3.70079 21.2084C3.69246 12.2627 3.70079 4.83288 3.72578 4.68295C3.78408 4.34978 4.13392 3.92498 4.47542 3.77506C4.66699 3.69176 5.60821 3.66677 8.86498 3.65845H13.0047L13.0297 8.00636ZM26.34 7.65653V11.6546H21.0092H15.6784V7.65653V3.65845H21.0092H26.34V7.65653ZM31.0544 27.8635C31.1793 27.9551 31.3625 28.1384 31.4542 28.2633C31.6291 28.4882 31.6291 28.5882 31.6541 33.4025L31.6707 38.3085H21.0092H10.3476V33.5275C10.3476 30.3373 10.3809 28.6631 10.4392 28.5049C10.5558 28.1967 10.8307 27.8968 11.1389 27.7636C11.3471 27.6719 13.1379 27.6553 21.1091 27.6719C30.7795 27.6886 30.8295 27.6886 31.0544 27.8635Z"/>
</mask>
<path d="M4.02563 1.12632C2.61798 1.50114 1.5185 2.6256 1.14368 4.04992C0.952106 4.76625 0.952106 37.2007 1.14368 37.917C1.5185 39.358 2.6263 40.4741 4.05895 40.849C4.49208 40.9572 6.49945 40.9739 21.0092 40.9739C38.9589 40.9739 37.8761 40.9989 38.8506 40.5075C39.442 40.2076 40.175 39.483 40.4915 38.8999C41.0329 37.8837 40.9996 38.8166 40.9996 23.7572C40.9996 12.2043 40.9829 10.0221 40.883 9.79717C40.7331 9.45566 32.4537 1.19296 32.1455 1.07635C31.9872 1.01804 27.5477 0.993052 18.1939 1.00138C6.49112 1.00138 4.40878 1.01804 4.02563 1.12632ZM13.0297 8.00636C13.0546 12.3376 13.0546 12.3626 13.2462 12.7374C13.5377 13.3371 13.8709 13.687 14.4456 13.9952L14.9704 14.2784H21.0092H27.0479L27.4727 14.0535C28.1058 13.7203 28.364 13.4704 28.6805 12.8874L28.9637 12.3626L28.9887 8.00636L29.0137 3.65845H30.0715H31.1293L34.7359 7.26505L38.3342 10.8633L38.3175 24.1653C38.2926 37.4506 38.2926 37.4673 38.1176 37.6921C37.7095 38.2419 37.6345 38.2669 35.9104 38.2919L34.3361 38.3168V33.4192C34.3361 29.3378 34.3111 28.4382 34.2112 28.0384C33.8364 26.5975 32.7286 25.4813 31.2959 25.1065C30.5629 24.9233 11.4637 24.9149 10.7391 25.1065C9.29811 25.4813 8.18198 26.5891 7.80716 28.0218C7.69888 28.4382 7.68222 29.2878 7.68222 33.4192V38.3168L6.10797 38.2919C4.3838 38.2669 4.30883 38.2419 3.90069 37.6921L3.72578 37.4673L3.70079 21.2084C3.69246 12.2627 3.70079 4.83288 3.72578 4.68295C3.78408 4.34978 4.13392 3.92498 4.47542 3.77506C4.66699 3.69176 5.60821 3.66677 8.86498 3.65845H13.0047L13.0297 8.00636ZM26.34 7.65653V11.6546H21.0092H15.6784V7.65653V3.65845H21.0092H26.34V7.65653ZM31.0544 27.8635C31.1793 27.9551 31.3625 28.1384 31.4542 28.2633C31.6291 28.4882 31.6291 28.5882 31.6541 33.4025L31.6707 38.3085H21.0092H10.3476V33.5275C10.3476 30.3373 10.3809 28.6631 10.4392 28.5049C10.5558 28.1967 10.8307 27.8968 11.1389 27.7636C11.3471 27.6719 13.1379 27.6553 21.1091 27.6719C30.7795 27.6886 30.8295 27.6886 31.0544 27.8635Z" fill="black"/>
<path d="M4.02563 1.12632C2.61798 1.50114 1.5185 2.6256 1.14368 4.04992C0.952106 4.76625 0.952106 37.2007 1.14368 37.917C1.5185 39.358 2.6263 40.4741 4.05895 40.849C4.49208 40.9572 6.49945 40.9739 21.0092 40.9739C38.9589 40.9739 37.8761 40.9989 38.8506 40.5075C39.442 40.2076 40.175 39.483 40.4915 38.8999C41.0329 37.8837 40.9996 38.8166 40.9996 23.7572C40.9996 12.2043 40.9829 10.0221 40.883 9.79717C40.7331 9.45566 32.4537 1.19296 32.1455 1.07635C31.9872 1.01804 27.5477 0.993052 18.1939 1.00138C6.49112 1.00138 4.40878 1.01804 4.02563 1.12632ZM13.0297 8.00636C13.0546 12.3376 13.0546 12.3626 13.2462 12.7374C13.5377 13.3371 13.8709 13.687 14.4456 13.9952L14.9704 14.2784H21.0092H27.0479L27.4727 14.0535C28.1058 13.7203 28.364 13.4704 28.6805 12.8874L28.9637 12.3626L28.9887 8.00636L29.0137 3.65845H30.0715H31.1293L34.7359 7.26505L38.3342 10.8633L38.3175 24.1653C38.2926 37.4506 38.2926 37.4673 38.1176 37.6921C37.7095 38.2419 37.6345 38.2669 35.9104 38.2919L34.3361 38.3168V33.4192C34.3361 29.3378 34.3111 28.4382 34.2112 28.0384C33.8364 26.5975 32.7286 25.4813 31.2959 25.1065C30.5629 24.9233 11.4637 24.9149 10.7391 25.1065C9.29811 25.4813 8.18198 26.5891 7.80716 28.0218C7.69888 28.4382 7.68222 29.2878 7.68222 33.4192V38.3168L6.10797 38.2919C4.3838 38.2669 4.30883 38.2419 3.90069 37.6921L3.72578 37.4673L3.70079 21.2084C3.69246 12.2627 3.70079 4.83288 3.72578 4.68295C3.78408 4.34978 4.13392 3.92498 4.47542 3.77506C4.66699 3.69176 5.60821 3.66677 8.86498 3.65845H13.0047L13.0297 8.00636ZM26.34 7.65653V11.6546H21.0092H15.6784V7.65653V3.65845H21.0092H26.34V7.65653ZM31.0544 27.8635C31.1793 27.9551 31.3625 28.1384 31.4542 28.2633C31.6291 28.4882 31.6291 28.5882 31.6541 33.4025L31.6707 38.3085H21.0092H10.3476V33.5275C10.3476 30.3373 10.3809 28.6631 10.4392 28.5049C10.5558 28.1967 10.8307 27.8968 11.1389 27.7636C11.3471 27.6719 13.1379 27.6553 21.1091 27.6719C30.7795 27.6886 30.8295 27.6886 31.0544 27.8635Z" stroke="black" mask="url(#path-1-outside-1_289_132)"/>
</svg>
