<svg width="42" height="42" viewBox="0 0 42 42" fill="none" xmlns="http://www.w3.org/2000/svg">
<g clip-path="url(#clip0_205_162)">
<path d="M4.02563 1.1265C2.61798 1.50132 1.5185 2.62579 1.14368 4.0501C0.952107 4.76643 0.952107 37.2009 1.14368 37.9173C1.5185 39.3582 2.6263 40.4744 4.05895 40.8492C4.49208 40.9575 6.49945 40.9741 21.0092 40.9741C38.9589 40.9741 37.8761 40.9991 38.8506 40.5077C39.442 40.2078 40.175 39.4832 40.4915 38.9001C41.0329 37.8839 40.9996 38.8168 40.9996 23.7574C40.9996 12.2046 40.9829 10.0223 40.883 9.79735C40.7331 9.45585 32.4537 1.19314 32.1455 1.07653C31.9872 1.01823 27.5477 0.993234 18.1939 1.00156C6.49112 1.00156 4.40878 1.01822 4.02563 1.1265ZM13.0297 8.00654C13.0546 12.3378 13.0546 12.3628 13.2462 12.7377C13.5377 13.3374 13.8709 13.6872 14.4456 13.9954L14.9704 14.2786H21.0092H27.0479L27.4727 14.0537C28.1058 13.7205 28.364 13.4706 28.6805 12.8876L28.9637 12.3628L28.9887 8.00654L29.0137 3.65863H30.0715H31.1293L34.7359 7.26523L38.3342 10.8635L38.3175 24.1655C38.2926 37.4508 38.2926 37.4675 38.1176 37.6924C37.7095 38.2421 37.6345 38.2671 35.9104 38.2921L34.3361 38.3171V33.4194C34.3361 29.338 34.3111 28.4385 34.2112 28.0387C33.8364 26.5977 32.7286 25.4815 31.2959 25.1067C30.5629 24.9235 11.4637 24.9152 10.7391 25.1067C9.29811 25.4815 8.18198 26.5894 7.80716 28.022C7.69888 28.4385 7.68222 29.2881 7.68222 33.4194V38.3171L6.10797 38.2921C4.3838 38.2671 4.30883 38.2421 3.90069 37.6924L3.72578 37.4675L3.70079 21.2086C3.69246 12.2629 3.70079 4.83306 3.72578 4.68314C3.78408 4.34996 4.13392 3.92517 4.47542 3.77524C4.66699 3.69194 5.60821 3.66696 8.86498 3.65863H13.0047L13.0297 8.00654ZM26.34 7.65671V11.6548H21.0092H15.6784V7.65671V3.65863H21.0092H26.34V7.65671ZM31.0544 27.8637C31.1793 27.9554 31.3625 28.1386 31.4542 28.2636C31.6291 28.4884 31.6291 28.5884 31.6541 33.4028L31.6707 38.3087H21.0092H10.3476V33.5277C10.3476 30.3376 10.3809 28.6634 10.4392 28.5051C10.5558 28.1969 10.8307 27.8971 11.1389 27.7638C11.3471 27.6722 13.1379 27.6555 21.1091 27.6722C30.7795 27.6888 30.8295 27.6888 31.0544 27.8637Z" fill="#849493"/>
<mask id="mask0_205_162" style="mask-type:luminance" maskUnits="userSpaceOnUse" x="0" y="-1" width="42" height="43">
<path d="M42 -0.0257568H0V41.9742H42V-0.0257568Z" fill="white"/>
<path d="M4.02563 1.1265C2.61798 1.50132 1.5185 2.62579 1.14368 4.0501C0.952107 4.76643 0.952107 37.2009 1.14368 37.9173C1.5185 39.3582 2.6263 40.4744 4.05895 40.8492C4.49208 40.9575 6.49945 40.9741 21.0092 40.9741C38.9589 40.9741 37.8761 40.9991 38.8506 40.5077C39.442 40.2078 40.175 39.4832 40.4915 38.9001C41.0329 37.8839 40.9996 38.8168 40.9996 23.7574C40.9996 12.2046 40.9829 10.0223 40.883 9.79735C40.7331 9.45585 32.4537 1.19314 32.1455 1.07653C31.9872 1.01823 27.5477 0.993234 18.1939 1.00156C6.49112 1.00156 4.40878 1.01822 4.02563 1.1265ZM13.0297 8.00654C13.0546 12.3378 13.0546 12.3628 13.2462 12.7377C13.5377 13.3374 13.8709 13.6872 14.4456 13.9954L14.9704 14.2786H21.0092H27.0479L27.4727 14.0537C28.1058 13.7205 28.364 13.4706 28.6805 12.8876L28.9637 12.3628L28.9887 8.00654L29.0137 3.65863H30.0715H31.1293L34.7359 7.26523L38.3342 10.8635L38.3175 24.1655C38.2926 37.4508 38.2926 37.4675 38.1176 37.6924C37.7095 38.2421 37.6345 38.2671 35.9104 38.2921L34.3361 38.3171V33.4194C34.3361 29.338 34.3111 28.4385 34.2112 28.0387C33.8364 26.5977 32.7286 25.4815 31.2959 25.1067C30.5629 24.9235 11.4637 24.9152 10.7391 25.1067C9.29811 25.4815 8.18198 26.5894 7.80716 28.022C7.69888 28.4385 7.68222 29.2881 7.68222 33.4194V38.3171L6.10797 38.2921C4.3838 38.2671 4.30883 38.2421 3.90069 37.6924L3.72578 37.4675L3.70079 21.2086C3.69246 12.2629 3.70079 4.83306 3.72578 4.68314C3.78408 4.34996 4.13392 3.92517 4.47542 3.77524C4.66699 3.69194 5.60821 3.66696 8.86498 3.65863H13.0047L13.0297 8.00654ZM26.34 7.65671V11.6548H21.0092H15.6784V7.65671V3.65863H21.0092H26.34V7.65671ZM31.0544 27.8637C31.1793 27.9554 31.3625 28.1386 31.4542 28.2636C31.6291 28.4884 31.6291 28.5884 31.6541 33.4028L31.6707 38.3087H21.0092H10.3476V33.5277C10.3476 30.3376 10.3809 28.6634 10.4392 28.5051C10.5558 28.1969 10.8307 27.8971 11.1389 27.7638C11.3471 27.6722 13.1379 27.6555 21.1091 27.6722C30.7795 27.6888 30.8295 27.6888 31.0544 27.8637Z" fill="black"/>
</mask>
<g mask="url(#mask0_205_162)">
<path d="M4.02563 1.1265L4.16163 1.60771L4.15429 1.60967L4.02563 1.1265ZM1.14368 4.0501L1.62722 4.17735L1.62671 4.17929L1.14368 4.0501ZM1.14368 37.9173L1.62672 37.7881L1.62758 37.7914L1.14368 37.9173ZM4.05895 40.8492L3.93768 41.3343L3.9324 41.3329L4.05895 40.8492ZM38.8506 40.5077L39.0767 40.9536L39.0758 40.9541L38.8506 40.5077ZM40.4915 38.9001L40.9328 39.1352L40.9309 39.1387L40.4915 38.9001ZM40.883 9.79735L40.4261 10.0005L40.4252 9.99835L40.883 9.79735ZM32.1455 1.07653L32.3184 0.607339L32.3225 0.608886L32.1455 1.07653ZM13.2462 12.7377L13.6915 12.51L13.6959 12.5191L13.2462 12.7377ZM14.4456 13.9954L14.6819 13.5547L14.6831 13.5554L14.4456 13.9954ZM14.9704 14.2786V14.7786H14.8441L14.7329 14.7186L14.9704 14.2786ZM27.0479 14.2786L27.2819 14.7205L27.1721 14.7786H27.0479V14.2786ZM27.4727 14.0537L27.2388 13.6118L27.2399 13.6112L27.4727 14.0537ZM28.6805 12.8876L29.1205 13.125L29.1199 13.1261L28.6805 12.8876ZM28.9637 12.3628L29.4637 12.3657L29.463 12.4905L29.4037 12.6003L28.9637 12.3628ZM29.0137 3.65863L28.5137 3.65575L28.5165 3.15863H29.0137V3.65863ZM31.1293 3.65863V3.15863H31.3364L31.4829 3.30507L31.1293 3.65863ZM38.3342 10.8635L38.6878 10.51L38.8345 10.6567L38.8342 10.8642L38.3342 10.8635ZM38.1176 37.6924L37.7161 37.3942L37.723 37.3854L38.1176 37.6924ZM34.3361 38.3171L34.3441 38.817L33.8361 38.8251V38.3171H34.3361ZM34.2112 28.0387L34.6951 27.9128L34.6963 27.9174L34.2112 28.0387ZM31.2959 25.1067L31.4172 24.6216L31.4225 24.623L31.2959 25.1067ZM10.7391 25.1067L10.8669 25.5901L10.865 25.5906L10.7391 25.1067ZM7.68222 38.3171H8.18222V38.8251L7.67428 38.817L7.68222 38.3171ZM3.90069 37.6924L4.29547 37.3853L4.30215 37.3943L3.90069 37.6924ZM3.72578 37.4675L3.3311 37.7744L3.22604 37.6394L3.22578 37.4682L3.72578 37.4675ZM3.72578 4.68314L3.23257 4.60093L3.23326 4.59695L3.72578 4.68314ZM4.47542 3.77524L4.27442 3.31741L4.27606 3.3167L4.47542 3.77524ZM8.86498 3.65863L8.86371 3.15863H8.86498V3.65863ZM13.0047 3.65863V3.15863H13.5018L13.5047 3.65575L13.0047 3.65863ZM26.34 11.6548H26.84V12.1548H26.34V11.6548ZM15.6784 11.6548V12.1548H15.1784V11.6548H15.6784ZM15.6784 3.65863H15.1784V3.15863H15.6784V3.65863ZM26.34 3.65863V3.15863H26.84V3.65863H26.34ZM31.0544 27.8637L30.7587 28.2669L30.753 28.2628L30.7474 28.2584L31.0544 27.8637ZM31.4542 28.2636L31.0595 28.5705L31.0552 28.5649L31.051 28.5592L31.4542 28.2636ZM31.6707 38.3087L32.1707 38.307L32.1724 38.8087H31.6707V38.3087ZM10.3476 38.3087V38.8087H9.84761V38.3087H10.3476ZM10.4392 28.5051L9.97004 28.3322L9.97159 28.3282L10.4392 28.5051ZM11.1389 27.7638L11.3403 28.2215L11.3374 28.2227L11.1389 27.7638ZM4.15429 1.60967C2.92536 1.9369 1.95765 2.92169 1.62722 4.17735L0.660144 3.92286C1.07935 2.32988 2.31059 1.06575 3.89698 0.643337L4.15429 1.60967ZM1.62671 4.17929C1.63589 4.14492 1.63179 4.1444 1.62513 4.24223C1.62001 4.31727 1.61481 4.42296 1.60965 4.55952C1.59935 4.83184 1.58969 5.21362 1.58073 5.691C1.56282 6.64503 1.54787 7.97138 1.53591 9.5471C1.51197 12.6981 1.5 16.8406 1.5 20.9837C1.5 25.1268 1.51197 29.2693 1.53591 32.4203C1.54787 33.996 1.56282 35.3223 1.58073 36.2764C1.58969 36.7537 1.59935 37.1355 1.60965 37.4078C1.61481 37.5444 1.62001 37.6501 1.62513 37.7251C1.63179 37.823 1.6359 37.8224 1.62672 37.7881L0.660657 38.0464C0.639494 37.9673 0.632 37.8601 0.627438 37.7931C0.621325 37.7033 0.615676 37.5862 0.610363 37.4456C0.599706 37.1638 0.589908 36.7746 0.580909 36.2951C0.562896 35.3355 0.547913 34.0048 0.535935 32.4279C0.511975 29.2735 0.5 25.1283 0.5 20.9837C0.5 16.8391 0.511975 12.6939 0.535935 9.53951C0.547913 7.96258 0.562896 6.63186 0.580909 5.67223C0.589908 5.19278 0.599706 4.80357 0.610363 4.52173C0.615676 4.38121 0.621325 4.26402 0.627438 4.17427C0.632 4.1073 0.639494 4.00005 0.660657 3.92092L1.62671 4.17929ZM1.62758 37.7914C1.9573 39.059 2.92975 40.0369 4.18551 40.3655L3.9324 41.3329C2.32286 40.9118 1.0797 39.6575 0.659784 38.0431L1.62758 37.7914ZM4.18022 40.3641C4.2286 40.3762 4.38149 40.3976 4.86735 40.4147C5.33561 40.4312 6.0745 40.4434 7.25907 40.4523C9.62647 40.47 13.7536 40.4741 21.0092 40.4741V41.4741C13.755 41.4741 9.6236 41.47 7.2516 41.4523C6.06648 41.4434 5.31546 41.4311 4.83209 41.4141C4.36632 41.3976 4.10586 41.3763 3.93768 41.3343L4.18022 40.3641ZM21.0092 40.4741C29.99 40.4741 34.1963 40.4803 36.2824 40.4254C37.3343 40.3977 37.8075 40.3547 38.0726 40.2987C38.3057 40.2494 38.3361 40.2072 38.6255 40.0612L39.0758 40.9541C38.8779 41.0539 38.6782 41.1928 38.2793 41.2771C37.9124 41.3546 37.3517 41.3975 36.3088 41.425C34.2053 41.4804 29.9781 41.4741 21.0092 41.4741V40.4741ZM38.6245 40.0617C38.8596 39.9425 39.1494 39.7229 39.4237 39.4534C39.6976 39.1843 39.9246 38.8964 40.0521 38.6616L40.9309 39.1387C40.7419 39.4869 40.4441 39.8528 40.1246 40.1668C39.8054 40.4803 39.4331 40.773 39.0767 40.9536L38.6245 40.0617ZM40.0502 38.665C40.21 38.3651 40.2609 38.3144 40.3144 38.1013C40.3729 37.8683 40.4191 37.4681 40.4489 36.5783C40.5078 34.813 40.4996 31.2949 40.4996 23.7574H41.4996C41.4996 31.2793 41.508 34.8244 41.4483 36.6117C41.4187 37.4981 41.3718 37.9964 41.2842 38.3449C41.1917 38.7133 41.0437 38.927 40.9328 39.1352L40.0502 38.665ZM40.4996 23.7574C40.4996 17.9803 40.4954 14.5488 40.4788 12.5335C40.4705 11.5249 40.459 10.8764 40.4437 10.4676C40.436 10.2624 40.4276 10.1251 40.419 10.036C40.4078 9.91975 40.4004 9.94253 40.4261 10.0005L41.3399 9.59428C41.3906 9.70839 41.4056 9.84857 41.4144 9.93985C41.4258 10.0583 41.4351 10.2186 41.443 10.4302C41.4589 10.8548 41.4704 11.5161 41.4788 12.5253C41.4954 14.5456 41.4996 17.9817 41.4996 23.7574H40.4996ZM40.4252 9.99835C40.4497 10.0543 40.4775 10.0835 40.4518 10.0508C40.4394 10.0349 40.4182 10.0093 40.3862 9.97248C40.3229 9.89966 40.2307 9.79825 40.1114 9.67033C39.8737 9.41535 39.5397 9.06708 39.1395 8.6557C38.3397 7.83359 37.2829 6.76695 36.2204 5.70651C35.1579 4.64605 34.0912 3.59347 33.2717 2.79941C32.8616 2.40206 32.5154 2.07131 32.2631 1.83721C32.1366 1.71972 32.0369 1.62956 31.966 1.56839C31.9301 1.53739 31.906 1.51764 31.8918 1.5067C31.8845 1.50108 31.8843 1.50122 31.8892 1.5045C31.8918 1.50623 31.8988 1.51075 31.909 1.51651C31.9176 1.52135 31.9388 1.53291 31.9686 1.54417L32.3225 0.608886C32.3823 0.631545 32.4277 0.661674 32.4422 0.671303C32.4645 0.68606 32.4853 0.701529 32.5027 0.714972C32.5379 0.74216 32.5778 0.775466 32.6195 0.811482C32.7039 0.884326 32.8138 0.983975 32.9434 1.10425C33.2035 1.34566 33.5558 1.68224 33.9676 2.08125C34.7919 2.87991 35.8622 3.93622 36.9268 4.99871C37.9914 6.0612 39.0518 7.13156 39.8562 7.95839C40.2581 8.37149 40.5979 8.72568 40.8428 8.98839C40.9649 9.11932 41.0663 9.23056 41.1409 9.31635C41.1778 9.35887 41.2117 9.3991 41.2394 9.43451C41.2539 9.45306 41.3069 9.51907 41.3408 9.59636L40.4252 9.99835ZM31.9727 1.5457C32.0071 1.55838 32.0337 1.5635 32.0388 1.56449C32.0437 1.56545 32.0473 1.56605 32.0493 1.56636C32.0514 1.56669 32.0526 1.56685 32.0528 1.56687C32.0529 1.56689 32.0509 1.56663 32.046 1.56615C32.0413 1.56569 32.035 1.56512 32.0267 1.56448C31.9924 1.56181 31.9392 1.55885 31.8641 1.55582C31.715 1.5498 31.4965 1.54416 31.2053 1.53897C30.6238 1.52861 29.7642 1.5203 28.6153 1.51405C26.3181 1.50157 22.871 1.4974 18.1943 1.50156L18.1934 0.501562C22.8706 0.497397 26.3202 0.501561 28.6207 0.514065C29.7707 0.520315 30.6353 0.528657 31.2231 0.539126C31.5165 0.544352 31.7439 0.550156 31.9044 0.556633C31.9841 0.559848 32.0516 0.563397 32.1043 0.567494C32.1302 0.569511 32.1576 0.572043 32.1835 0.57545C32.1942 0.576868 32.2548 0.583922 32.3184 0.607339L31.9727 1.5457ZM18.1943 1.50156C12.3421 1.50156 8.89791 1.50573 6.86926 1.52341C5.8541 1.53225 5.19864 1.54445 4.77478 1.56092C4.56261 1.56917 4.41425 1.57828 4.31068 1.5879C4.25916 1.59269 4.22208 1.5973 4.19592 1.60135C4.16887 1.60555 4.15963 1.60827 4.16163 1.60771L3.88966 0.645347C4.05377 0.598966 4.31953 0.57786 4.73594 0.561676C5.176 0.544572 5.84438 0.532299 6.86054 0.523445C8.89453 0.505722 12.3428 0.501562 18.1934 0.501562L18.1943 1.50156ZM13.5296 8.00366C13.5422 10.1766 13.5485 11.2514 13.575 11.833C13.5883 12.1254 13.6057 12.2627 13.6231 12.3407C13.6361 12.3992 13.648 12.4247 13.6915 12.51L12.801 12.9652C12.7488 12.863 12.6887 12.745 12.647 12.5581C12.6097 12.3906 12.5897 12.1807 12.576 11.8785C12.5483 11.2712 12.5421 10.1678 12.5297 8.00943L13.5296 8.00366ZM13.6959 12.5191C13.9427 13.0267 14.2024 13.2976 14.6819 13.5547L14.2094 14.436C13.5395 14.0768 13.1328 13.648 12.7965 12.9562L13.6959 12.5191ZM14.6831 13.5554L15.2079 13.8386L14.7329 14.7186L14.2082 14.4354L14.6831 13.5554ZM14.9704 13.7786H21.0092V14.7786H14.9704V13.7786ZM21.0092 13.7786H27.0479V14.7786H21.0092V13.7786ZM26.814 13.8367L27.2388 13.6118L27.7067 14.4956L27.2819 14.7205L26.814 13.8367ZM27.2399 13.6112C27.5377 13.4545 27.7135 13.3346 27.8479 13.2047C27.9805 13.0767 28.0957 12.9169 28.2411 12.649L29.1199 13.1261C28.9488 13.4414 28.7766 13.698 28.5427 13.924C28.3106 14.1481 28.0408 14.3197 27.7056 14.4961L27.2399 13.6112ZM28.2405 12.6501L28.5237 12.1254L29.4037 12.6003L29.1205 13.125L28.2405 12.6501ZM28.4637 12.36L28.4887 8.00367L29.4887 8.00941L29.4637 12.3657L28.4637 12.36ZM28.4887 8.00367L28.5137 3.65575L29.5137 3.6615L29.4887 8.00941L28.4887 8.00367ZM29.0137 3.15863H30.0715V4.15863H29.0137V3.15863ZM30.0715 3.15863H31.1293V4.15863H30.0715V3.15863ZM31.4829 3.30507L35.0895 6.91168L34.3824 7.61878L30.7758 4.01218L31.4829 3.30507ZM35.0895 6.91168L38.6878 10.51L37.9807 11.2171L34.3824 7.61878L35.0895 6.91168ZM38.8342 10.8642L38.8175 24.1661L37.8175 24.1649L37.8342 10.8629L38.8342 10.8642ZM38.8175 24.1661C38.8051 30.8062 38.7988 34.1369 38.7738 35.834C38.7613 36.6764 38.7442 37.1372 38.7165 37.4038C38.7027 37.5362 38.6836 37.6533 38.6473 37.7568C38.6032 37.8828 38.5436 37.9592 38.5123 37.9993L37.723 37.3854C37.7355 37.3693 37.7141 37.396 37.7035 37.4262C37.7009 37.4338 37.7106 37.4089 37.7218 37.3006C37.7441 37.0856 37.7613 36.6698 37.7739 35.8192C37.7988 34.1305 37.805 30.81 37.8175 24.1649L38.8175 24.1661ZM38.5191 37.9904C38.4206 38.1231 38.3099 38.2702 38.1725 38.3906C38.0197 38.5244 37.8492 38.6139 37.6395 38.6713C37.2771 38.7705 36.7464 38.78 35.9176 38.792L35.9024 37.7921C36.7979 37.7792 37.1674 37.7637 37.3755 37.7067C37.4511 37.686 37.4836 37.6646 37.5136 37.6384C37.5589 37.5986 37.6106 37.5364 37.7161 37.3942L38.5191 37.9904ZM35.9176 38.792L34.3441 38.817L34.3282 37.8171L35.9024 37.7921L35.9176 38.792ZM33.8361 38.3171V33.4194H34.8361V38.3171H33.8361ZM33.8361 33.4194C33.8361 31.3776 33.8299 30.1384 33.8113 29.3604C33.7923 28.5669 33.7605 28.2974 33.7261 28.1599L34.6963 27.9174C34.7618 28.1798 34.7925 28.5599 34.811 29.3365C34.8299 30.1285 34.8361 31.3798 34.8361 33.4194H33.8361ZM33.7273 28.1645C33.3976 26.8969 32.4251 25.919 31.1694 25.5904L31.4225 24.623C33.032 25.0441 34.2752 26.2984 34.6951 27.9128L33.7273 28.1645ZM31.1746 25.5918C31.1854 25.5945 31.123 25.5848 30.9243 25.5736C30.7505 25.5639 30.5125 25.5547 30.2173 25.546C29.6276 25.5288 28.8219 25.5142 27.8704 25.5024C25.9681 25.4789 23.4915 25.4667 21.0143 25.4662C18.537 25.4657 16.061 25.4768 14.1598 25.5001C13.2089 25.5117 12.404 25.5264 11.8153 25.544C11.5206 25.5528 11.2833 25.5623 11.1102 25.5723C11.0234 25.5773 10.9564 25.5823 10.9082 25.587C10.8492 25.5928 10.8458 25.5957 10.8669 25.5901L10.6113 24.6233C10.6777 24.6058 10.7555 24.5971 10.8112 24.5917C10.8778 24.5852 10.9593 24.5794 11.0524 24.574C11.2391 24.5632 11.4871 24.5534 11.7854 24.5444C12.3828 24.5266 13.1946 24.5118 14.1476 24.5002C16.0543 24.4768 18.5348 24.4656 21.0145 24.4662C23.4942 24.4667 25.9751 24.4789 27.8828 24.5025C28.8363 24.5143 29.6485 24.529 30.2465 24.5465C30.5451 24.5552 30.7933 24.5648 30.9801 24.5752C31.1421 24.5843 31.3148 24.596 31.4172 24.6216L31.1746 25.5918ZM10.865 25.5906C9.59736 25.9203 8.61942 26.8928 8.29088 28.1486L7.32325 27.8962C7.74435 26.2867 8.99886 25.0428 10.6132 24.6228L10.865 25.5906ZM8.29088 28.1486C8.25364 28.2919 8.22183 28.5502 8.20395 29.339C8.18641 30.113 8.18222 31.352 8.18222 33.4194H7.18222C7.18222 31.3555 7.18636 30.104 7.20421 29.3163C7.22173 28.5433 7.25221 28.1694 7.32325 27.8962L8.29088 28.1486ZM8.18222 33.4194V38.3171H7.18222V33.4194H8.18222ZM7.67428 38.817L6.10004 38.792L6.11522 37.7921L7.69015 37.8171L7.67428 38.817ZM6.10004 38.792C5.2713 38.78 4.74125 38.7705 4.37881 38.6713C4.16916 38.6139 3.99862 38.5244 3.84582 38.3906C3.70847 38.2702 3.59778 38.1231 3.49924 37.9904L4.30215 37.3943C4.40768 37.5365 4.45941 37.5986 4.50478 37.6384C4.53471 37.6646 4.5672 37.686 4.64282 37.7067C4.85095 37.7637 5.21978 37.7792 6.11522 37.7921L6.10004 38.792ZM3.50602 37.9993L3.3311 37.7744L4.12045 37.1605L4.29547 37.3853L3.50602 37.9993ZM3.22578 37.4682L3.20079 21.2094L4.20079 21.2078L4.22578 37.4667L3.22578 37.4682ZM3.20079 21.2094C3.19663 16.7363 3.19663 12.6417 3.20079 9.64673C3.20287 8.14935 3.206 6.92634 3.21017 6.06806C3.21225 5.63907 3.2146 5.30037 3.21722 5.06381C3.21853 4.94574 3.21992 4.85172 3.22141 4.78411C3.22215 4.75057 3.22296 4.72148 3.22388 4.69838C3.22416 4.69137 3.22547 4.64353 3.23257 4.60093L4.21898 4.76534C4.22451 4.7321 4.2243 4.70786 4.22309 4.73831C4.22251 4.75266 4.22186 4.7749 4.22117 4.80619C4.2198 4.86826 4.21845 4.95797 4.21716 5.07488C4.21457 5.30828 4.21224 5.64451 4.21015 6.07292C4.20599 6.92945 4.20287 8.1511 4.20079 9.64812C4.19663 12.642 4.19663 16.7352 4.20079 21.2078L3.20079 21.2094ZM3.23326 4.59695C3.28256 4.31525 3.43934 4.04758 3.60871 3.84228C3.78065 3.63388 4.01287 3.43224 4.27442 3.31741L4.67641 4.23306C4.59647 4.26816 4.48302 4.35389 4.38009 4.47866C4.27459 4.60654 4.2273 4.71785 4.21829 4.76933L3.23326 4.59695ZM4.27606 3.3167C4.41031 3.25833 4.58577 3.23817 4.74157 3.22486C4.92257 3.2094 5.1717 3.19792 5.50748 3.189C6.18075 3.17111 7.23611 3.16279 8.86371 3.15863L8.86626 4.15863C7.23709 4.16279 6.19345 4.17113 5.53403 4.18865C5.20346 4.19743 4.97781 4.20833 4.82668 4.22124C4.65035 4.2363 4.63632 4.2505 4.67478 4.23377L4.27606 3.3167ZM8.86498 3.15863H13.0047V4.15863H8.86498V3.15863ZM13.5047 3.65575L13.5296 8.00366L12.5297 8.00943L12.5047 3.6615L13.5047 3.65575ZM26.84 7.65671V11.6548H25.84V7.65671H26.84ZM26.34 12.1548H21.0092V11.1548H26.34V12.1548ZM21.0092 12.1548H15.6784V11.1548H21.0092V12.1548ZM15.1784 11.6548V7.65671H16.1784V11.6548H15.1784ZM15.1784 7.65671V3.65863H16.1784V7.65671H15.1784ZM15.6784 3.15863H21.0092V4.15863H15.6784V3.15863ZM21.0092 3.15863H26.34V4.15863H21.0092V3.15863ZM26.84 3.65863V7.65671H25.84V3.65863H26.84ZM31.35 27.4605C31.5161 27.5823 31.7356 27.8018 31.8574 27.9679L31.051 28.5592C30.9895 28.4754 30.8425 28.3284 30.7587 28.2669L31.35 27.4605ZM31.8488 27.9566C31.8761 27.9916 31.9199 28.0492 31.9594 28.1283C31.999 28.2078 32.0254 28.2905 32.0445 28.3793C32.0797 28.5428 32.0975 28.7663 32.11 29.093C32.1354 29.7586 32.1416 30.9991 32.1541 33.4002L31.1541 33.4054C31.1416 30.992 31.1353 29.7754 31.1107 29.1312C31.0982 28.803 31.0817 28.6585 31.0669 28.5895C31.061 28.5621 31.0585 28.5625 31.0645 28.5747C31.0704 28.5864 31.076 28.5917 31.0595 28.5705L31.8488 27.9566ZM32.1541 33.4002L32.1707 38.307L31.1707 38.3104L31.1541 33.4054L32.1541 33.4002ZM31.6707 38.8087H21.0092V37.8087H31.6707V38.8087ZM21.0092 38.8087H10.3476V37.8087H21.0092V38.8087ZM9.84761 38.3087V33.5277H10.8476V38.3087H9.84761ZM9.84761 33.5277C9.84761 31.9316 9.85594 30.7119 9.87164 29.8701C9.87948 29.4498 9.88923 29.12 9.90093 28.8833C9.90675 28.7655 9.91329 28.6658 9.92087 28.5874C9.92599 28.5344 9.93638 28.4236 9.97004 28.3322L10.9084 28.678C10.9275 28.6262 10.9241 28.6023 10.9162 28.6836C10.9108 28.7395 10.9052 28.8215 10.8997 28.9327C10.8888 29.1542 10.8792 29.472 10.8715 29.8888C10.8559 30.7212 10.8476 31.9337 10.8476 33.5277H9.84761ZM9.97159 28.3282C10.1335 27.9002 10.5016 27.4946 10.9404 27.3049L11.3374 28.2227C11.1598 28.2995 10.9782 28.4937 10.9069 28.682L9.97159 28.3282ZM10.9375 27.3061C11.0436 27.2595 11.1678 27.2443 11.2461 27.2358C11.3463 27.2249 11.4768 27.2162 11.6416 27.209C11.9726 27.1944 12.4725 27.1842 13.2083 27.1774C14.6818 27.1638 17.1253 27.1638 21.1102 27.1722L21.1083 28.1722C17.122 28.1638 14.6843 28.1638 13.2175 28.1774C12.4832 28.1841 11.9981 28.1942 11.6857 28.208C11.5288 28.2149 11.423 28.2225 11.3542 28.2299C11.2636 28.2398 11.2863 28.2453 11.3403 28.2215L10.9375 27.3061ZM21.1102 27.1722C25.9421 27.1805 28.3783 27.1846 29.6334 27.2087C30.254 27.2206 30.6114 27.2375 30.8312 27.2667C30.9436 27.2816 31.0483 27.303 31.1454 27.342C31.2545 27.3858 31.3249 27.4407 31.3613 27.4691L30.7474 28.2584C30.7276 28.243 30.7473 28.2597 30.7728 28.27C30.7864 28.2754 30.7747 28.268 30.6997 28.258C30.5447 28.2375 30.243 28.2206 29.6142 28.2085C28.3705 28.1847 25.9468 28.1805 21.1083 28.1722L21.1102 27.1722Z" fill="#849493"/>
</g>
</g>
<defs>
<clipPath id="clip0_205_162">
<rect width="42" height="42" fill="white"/>
</clipPath>
</defs>
</svg>
