<svg width="42" height="42" viewBox="0 0 42 42" fill="none" xmlns="http://www.w3.org/2000/svg">
<path d="M3.99831 41.0918L3.99832 41.0917C4.13655 41.1263 4.37011 41.1476 4.8409 41.1643C5.3205 41.1812 6.06849 41.1934 7.25347 41.2023C9.62432 41.22 13.7547 41.2242 21.0092 41.2242C21.8815 41.2242 22.7089 41.2242 23.4939 41.2243C30.782 41.2248 34.4071 41.2251 36.3022 41.1751C37.3474 41.1476 37.8862 41.1047 38.2276 41.0325C38.5123 40.9724 38.6701 40.8873 38.8341 40.799C38.876 40.7764 38.9183 40.7536 38.9632 40.7309L38.9637 40.7307C39.2897 40.5654 39.6414 40.291 39.9494 39.9885C40.2575 39.6857 40.5376 39.3393 40.7112 39.0194L40.7122 39.0177C40.7374 38.9703 40.7627 38.9254 40.7876 38.881C40.8843 38.709 40.976 38.546 41.0418 38.284C41.122 37.9644 41.1688 37.4906 41.1984 36.6033C41.251 35.0292 41.2506 32.084 41.2498 26.2294C41.2497 25.4572 41.2496 24.6344 41.2496 23.7574C41.2496 17.9814 41.2454 14.5464 41.2288 12.5274C41.2204 11.5183 41.209 10.8603 41.1932 10.4396C41.1853 10.2296 41.1763 10.075 41.1655 9.96395C41.1562 9.8669 41.1432 9.76795 41.1119 9.69691C41.1117 9.69657 41.1116 9.69622 41.1114 9.69588L40.883 9.79741C40.7331 9.45591 32.4537 1.1932 32.1455 1.07659L3.99831 41.0918ZM3.99831 41.0918L3.99567 41.0911C2.47474 40.6932 1.29934 39.5081 0.901855 37.9807M3.99831 41.0918L18.1936 0.751625C12.3428 0.751625 8.89535 0.755787 6.86272 0.773499C5.84681 0.782352 5.18166 0.794605 4.74565 0.81155C4.32345 0.827961 4.08978 0.849064 3.95947 0.885475C2.46333 1.28458 1.29876 2.47851 0.901913 3.98655C0.888511 4.03735 0.881915 4.11711 0.87686 4.19132C0.870997 4.2774 0.86546 4.39171 0.860184 4.53124C0.849618 4.8107 0.839854 5.19805 0.830865 5.67699C0.812878 6.63522 0.797903 7.96484 0.785928 9.54147C0.761974 12.695 0.75 16.8395 0.75 20.9837C0.75 25.1279 0.761974 29.2725 0.785928 32.426C0.797903 34.0026 0.812878 35.3322 0.830865 36.2905C0.839854 36.7694 0.849618 37.1567 0.860184 37.4362C0.86546 37.5757 0.870997 37.6901 0.87686 37.7761C0.881908 37.8502 0.888491 37.9299 0.901855 37.9807M0.901855 37.9807C0.901959 37.9811 0.902064 37.9815 0.902169 37.9819L1.14368 37.9173M0.901855 37.9807C0.901814 37.9805 0.901773 37.9804 0.901732 37.9802L1.14368 37.9173M1.14368 37.9173C1.5185 39.3583 2.6263 40.4744 4.05895 40.8492L4.02564 1.12656C2.61798 1.50138 1.5185 2.62585 1.14368 4.05017C0.952106 4.76649 0.952106 37.201 1.14368 37.9173ZM34.5861 38.0631V33.4194C34.5861 31.3793 34.5799 30.131 34.5611 29.3425C34.5424 28.5617 34.5115 28.2092 34.4537 27.978L34.4531 27.9757C34.0558 26.4481 32.8803 25.2629 31.3592 24.8649L31.3566 24.8642L31.3565 24.8642C31.2824 24.8457 31.1373 24.8344 30.9662 24.8248C30.7826 24.8146 30.537 24.8051 30.2392 24.7964C29.6433 24.7789 28.8327 24.7643 27.8797 24.7525C25.9734 24.7289 23.4935 24.7167 21.0144 24.7162C18.5353 24.7157 16.056 24.7269 14.1507 24.7502C13.1982 24.7618 12.3881 24.7765 11.7929 24.7943C11.4955 24.8032 11.2501 24.813 11.0669 24.8236C10.9754 24.8289 10.8975 24.8345 10.8355 24.8406C10.7791 24.8461 10.7201 24.8532 10.6757 24.8649M34.5861 38.0631L7.80716 28.022C7.69888 28.4385 7.68222 29.2881 7.68222 33.4194V38.0671L7.43222 38.0631M34.5861 38.0631L35.9064 38.0421L35.9067 38.0421C36.7855 38.0294 37.1948 38.0154 37.4415 37.9479C37.5506 37.918 37.6177 37.8796 37.6783 37.8265C37.7467 37.7666 37.8131 37.6832 37.9169 37.5434L37.9169 37.5433L37.9203 37.5389C37.9362 37.5185 37.9364 37.5177 37.9388 37.5107L37.9395 37.5088C37.9465 37.4887 37.9586 37.4407 37.9705 37.3264C37.9941 37.0985 38.0113 36.6714 38.0238 35.8229C38.0488 34.1323 38.0551 30.8096 38.0676 24.1671V24.1652V24.1651L38.0841 10.967L34.5592 7.44207L31.0258 3.90869H30.0715H29.2622L34.5861 38.0631ZM10.6757 24.8649C10.6755 24.865 10.6753 24.865 10.6752 24.8651L10.7391 25.1067L10.6762 24.8648C10.676 24.8648 10.6758 24.8649 10.6757 24.8649ZM10.6757 24.8649C9.14823 25.2624 7.96321 26.4378 7.5653 27.9587L7.5652 27.9591C7.50261 28.1998 7.47176 28.545 7.45415 29.322C7.43637 30.1063 7.43222 31.3546 7.43222 33.4194V38.0631M7.43222 38.0631V38.3131L28.6805 12.8876C28.364 13.4707 28.1058 13.7205 27.4727 14.0537L27.5897 14.2747L27.5897 14.2747C27.5895 14.2748 27.5893 14.2749 27.5892 14.2749L27.1649 14.4995L27.11 14.5286H27.0479H21.0092H14.9704H14.9072L14.8517 14.4986L14.3275 14.2157C14.3274 14.2156 14.3272 14.2156 14.3271 14.2155C13.7057 13.8822 13.3361 13.4935 13.0225 12.8492C12.9728 12.7521 12.9253 12.6574 12.8911 12.5037C12.8587 12.3587 12.8394 12.1669 12.8257 11.8672C12.7985 11.2686 12.7922 10.1786 12.7798 8.03333L12.7797 8.00805L12.7561 3.90869H8.86562C7.23684 3.91285 6.19028 3.92119 5.52739 3.93879C5.19552 3.94761 4.964 3.95866 4.8054 3.9722C4.72607 3.97898 4.66859 3.98609 4.62782 3.9931C4.58868 3.99983 4.57457 4.00491 4.57454 4.00482C4.44952 4.06009 4.30699 4.17448 4.18724 4.31963C4.06926 4.46264 3.99544 4.60864 3.97381 4.71681C3.97367 4.71947 3.97349 4.72326 3.97329 4.72839C3.97262 4.74493 3.97193 4.76888 3.97123 4.80073C3.96983 4.86419 3.96847 4.95497 3.96717 5.07217C3.96458 5.30636 3.96224 5.64321 3.96016 6.07177C3.956 6.92873 3.95287 8.15072 3.95079 9.64783C3.94663 12.642 3.94663 16.7356 3.95079 21.2084L3.97565 37.3816L4.09803 37.5389L4.09808 37.5389L4.10142 37.5434C4.2052 37.6832 4.27168 37.7666 4.34004 37.8265C4.40069 37.8796 4.46769 37.918 4.57682 37.9479C4.82352 38.0154 5.23283 38.0294 6.11159 38.0421L6.11194 38.0421L7.43222 38.0631ZM30.9065 28.0654L30.9065 28.0654C31.0109 28.1419 31.176 28.307 31.2526 28.4114L31.2568 28.4171L31.2568 28.4171C31.276 28.4417 31.2828 28.4521 31.2882 28.4631C31.2936 28.4738 31.3021 28.4942 31.3113 28.537C31.3312 28.6296 31.348 28.7938 31.3605 29.1217C31.3852 29.7685 31.3915 30.9836 31.4039 33.374L31.4041 33.4036L31.4041 33.4041L31.4199 38.0588H21.0092H10.5976V33.5277C10.5976 31.9332 10.6059 30.7189 10.6215 29.8841C10.6293 29.4665 10.6389 29.1456 10.65 28.9204C10.6556 28.8075 10.6614 28.7211 10.6674 28.6596C10.6726 28.6056 10.6768 28.5857 10.6764 28.585C10.772 28.3404 10.9967 28.0985 11.236 27.9942M30.9065 28.0654L11.236 27.9942M30.9065 28.0654L30.9009 28.0611M30.9065 28.0654L30.9009 28.0611M11.236 27.9942C11.2353 27.9945 11.2349 27.9947 11.2349 27.9948M11.236 27.9942L11.2349 27.9948M30.9009 28.0611C30.8769 28.0425 30.8741 28.0413 30.866 28.038C30.8518 28.0323 30.8169 28.0214 30.7326 28.0102C30.5614 27.9875 30.2457 27.9706 29.619 27.9586C28.373 27.9347 25.9478 27.9305 21.1156 27.9222L21.1087 27.9222L21.1086 27.9222M30.9009 28.0611L21.1086 27.9222M21.1086 27.9222C17.1227 27.9139 14.6837 27.9139 13.2152 27.9274M21.1086 27.9222L13.2152 27.9274M13.2152 27.9274C12.4805 27.9341 11.9917 27.9443 11.6747 27.9583M13.2152 27.9274L11.6747 27.9583M11.6747 27.9583C11.5158 27.9653 11.4038 27.9731 11.3272 27.9814M11.6747 27.9583L11.3272 27.9814M11.3272 27.9814C11.2585 27.9889 11.2351 27.9953 11.2349 27.9948M11.3272 27.9814L11.2349 27.9948M21.0092 11.4049H26.09V7.65677V3.90869H21.0092H15.9284V7.65677V11.4049H21.0092ZM11.2396 27.9926L11.2381 27.9933L11.2396 27.9926Z" fill="#849493" stroke="#6D7A79" stroke-width="0.5"/>
</svg>
