<svg width="22" height="22" viewBox="0 0 22 22" fill="none" xmlns="http://www.w3.org/2000/svg">
<mask id="path-1-outside-1_123_238" maskUnits="userSpaceOnUse" x="0" y="0.00427246" width="22" height="22" fill="black">
<rect fill="white" y="0.00427246" width="22" height="22"/>
<path d="M9.76712 1.01993C9.57143 1.07081 9.32877 1.21171 9.17613 1.36435C8.92172 1.61484 8.8591 1.82228 8.74168 2.74987C8.68689 3.21171 8.62035 3.60701 8.60078 3.63441C8.58121 3.66181 8.50294 3.70095 8.42466 3.72443C8.34638 3.75183 8.0998 3.84967 7.87671 3.94752L7.47358 4.12756L7.32877 4.01014C6.65166 3.47394 6.13894 3.09429 5.99022 3.01993C5.75147 2.8986 5.36791 2.8712 5.06654 2.96122C4.84344 3.02384 4.80431 3.05907 3.92759 3.93187C3.05479 4.80858 3.01957 4.84772 2.95695 5.07081C2.86693 5.37609 2.89432 5.75574 3.01566 5.99449C3.06654 6.09234 3.31311 6.43284 3.5636 6.7577C4.18591 7.55222 4.14286 7.4622 4.00587 7.73617C3.93933 7.86533 3.83757 8.10408 3.77886 8.26455C3.72016 8.42502 3.64971 8.57766 3.62622 8.60114C3.60274 8.62462 3.20352 8.69116 2.74168 8.74987C1.81018 8.86729 1.61057 8.92991 1.36008 9.1804C1.27789 9.25868 1.1683 9.41523 1.10568 9.52873L1 9.73226V10.9847V12.2371L1.10176 12.4563C1.16047 12.5777 1.27006 12.742 1.35225 12.8242C1.61057 13.0826 1.82192 13.1491 2.71037 13.2587C3.14481 13.3096 3.54012 13.3683 3.58317 13.3878C3.63014 13.4074 3.69276 13.5053 3.73581 13.6305C3.77495 13.7479 3.88063 13.9945 3.96673 14.1824C4.07241 14.4211 4.11155 14.5424 4.08415 14.5737C4.06458 14.6011 3.83366 14.8986 3.57534 15.2313C3.31703 15.564 3.06654 15.9162 3.01566 16.0141C2.89432 16.2528 2.86693 16.6325 2.95695 16.9377C3.01957 17.1608 3.05479 17.2 3.92759 18.0767C4.80431 18.9495 4.84344 18.9847 5.06654 19.0473C5.36791 19.1373 5.75147 19.1099 5.99022 18.9886C6.13894 18.9143 6.65166 18.5346 7.32877 17.9984L7.47358 17.881L7.87671 18.061C8.0998 18.1589 8.34638 18.2567 8.42466 18.2841C8.50294 18.3076 8.58121 18.3467 8.60078 18.3741C8.62035 18.4015 8.68689 18.7968 8.74168 19.2587C8.8591 20.1902 8.92172 20.3937 9.18004 20.652C9.26223 20.7342 9.42661 20.8438 9.54795 20.9025L9.76712 21.0043H11H12.2329L12.4521 20.9025C12.5734 20.8438 12.7378 20.7342 12.82 20.652C13.0822 20.3898 13.1448 20.1824 13.2583 19.2548C13.3131 18.7968 13.3796 18.4015 13.4031 18.378C13.4266 18.3546 13.5793 18.2841 13.7397 18.2254C13.9002 18.1667 14.1389 18.0649 14.2681 17.9984C14.5421 17.8614 14.4521 17.8184 15.2466 18.4407C15.5714 18.6912 15.9119 18.9377 16.0098 18.9886C16.2485 19.1099 16.6282 19.1373 16.9335 19.0473C17.1566 18.9847 17.1957 18.9495 18.0724 18.0767C18.9452 17.2 18.9804 17.1608 19.0431 16.9377C19.1331 16.6325 19.1057 16.2528 18.9843 16.0141C18.9139 15.8771 18.546 15.38 17.9159 14.5777C17.8924 14.5424 17.9354 14.4015 18.0568 14.1276C18.1546 13.9045 18.2524 13.6579 18.2798 13.5796C18.3033 13.5013 18.3425 13.4231 18.3699 13.4035C18.3973 13.3839 18.7926 13.3174 19.2544 13.2626C20.1859 13.1452 20.3894 13.0826 20.6477 12.8242C20.7299 12.742 20.8395 12.5777 20.8982 12.4563L21 12.2371V11.0043V9.7714L20.8982 9.55222C20.8395 9.43089 20.7299 9.2665 20.6477 9.18431C20.3894 8.92599 20.182 8.86337 19.2427 8.73813C18.7769 8.67942 18.3816 8.61288 18.362 8.59331C18.3425 8.57374 18.2798 8.42502 18.2211 8.26455C18.1624 8.10408 18.0607 7.86533 17.9941 7.73617C17.8571 7.4622 17.8141 7.55222 18.4364 6.7577C18.6869 6.43284 18.9335 6.09234 18.9843 5.99449C19.1057 5.75574 19.1331 5.37609 19.0431 5.07081C18.9804 4.84772 18.9452 4.80858 18.0724 3.93187C17.1957 3.05907 17.1566 3.02384 16.9335 2.96122C16.6282 2.8712 16.2485 2.8986 16.0098 3.01993C15.9119 3.07081 15.5714 3.31738 15.2466 3.56787C14.4521 4.19018 14.5421 4.14713 14.2681 4.01014C14.1389 3.94361 13.9002 3.84185 13.7397 3.78314C13.5793 3.72443 13.4266 3.65398 13.4031 3.6305C13.3796 3.60701 13.3131 3.21171 13.2583 2.74987C13.1409 1.81836 13.0783 1.61875 12.82 1.35652C12.7378 1.27433 12.5734 1.16474 12.4521 1.10603L12.2329 1.00427L11.0587 0.996445C10.4129 0.992531 9.83366 1.00427 9.76712 1.01993ZM12.092 1.8575C12.3033 1.96318 12.3307 2.04928 12.4677 3.11778C12.5656 3.89273 12.6125 4.14713 12.6673 4.22149C12.7221 4.29194 12.8787 4.36631 13.2153 4.48764C13.4736 4.57766 13.8767 4.74596 14.1115 4.85946C14.4834 5.0395 14.5499 5.05907 14.6556 5.02776C14.7221 5.00819 15.137 4.71073 15.5793 4.36631C16.6556 3.52873 16.4834 3.51308 17.4853 4.51895C18.4912 5.52091 18.4795 5.34087 17.6262 6.44067C17.2779 6.89077 16.9804 7.31347 16.9648 7.37218C16.9491 7.4622 16.9883 7.57962 17.1448 7.90447C17.2583 8.13147 17.4188 8.51112 17.5049 8.74596C17.6888 9.26259 17.7084 9.30564 17.818 9.36435C17.865 9.39175 18.3542 9.47003 18.9022 9.54048C19.955 9.67355 20.0411 9.70095 20.1468 9.9123C20.2172 10.0454 20.2172 11.9632 20.1468 12.0962C20.0411 12.3076 19.955 12.335 18.8982 12.4681C18.3503 12.5424 17.865 12.6207 17.818 12.6442C17.7084 12.7029 17.6849 12.746 17.501 13.2665C17.4188 13.5053 17.2544 13.8849 17.1448 14.1158C16.9609 14.4876 16.9413 14.5463 16.9765 14.6598C16.9961 14.7264 17.2935 15.1413 17.638 15.5835C18.4755 16.6598 18.4912 16.4876 17.4853 17.4896C16.4834 18.4955 16.6634 18.4837 15.5636 17.6305C15.1135 17.2822 14.6908 16.9847 14.6321 16.969C14.5421 16.9534 14.4247 16.9925 14.0998 17.1491C13.8728 17.2626 13.4892 17.4231 13.2505 17.5092C13.0157 17.5953 12.7808 17.6892 12.7339 17.7205C12.6125 17.7988 12.5812 17.9436 12.4521 18.9847C12.3307 19.9514 12.3033 20.0454 12.092 20.151C11.9589 20.2215 10.0411 20.2215 9.90802 20.151C9.69667 20.0415 9.66928 19.9593 9.5362 18.8947C9.43444 18.108 9.39139 17.8653 9.33268 17.7871C9.27789 17.7166 9.12524 17.6422 8.78865 17.5209C8.52642 17.4309 8.1272 17.2626 7.89628 17.153C7.56751 16.9925 7.45401 16.9534 7.36399 16.973C7.30137 16.9847 6.90998 17.2626 6.49511 17.5835C6.07632 17.9084 5.68493 18.2019 5.62622 18.2332C5.3953 18.3507 5.32094 18.2998 4.50294 17.4818C3.51272 16.4876 3.52446 16.6638 4.37378 15.5679C4.72211 15.1178 5.01957 14.699 5.03131 14.6403C5.05088 14.5581 5.00783 14.4289 4.85519 14.1158C4.7456 13.8849 4.58121 13.5013 4.49902 13.2626C4.41292 13.0199 4.31507 12.7851 4.28376 12.7381C4.20548 12.6168 4.06067 12.5855 3.01957 12.4563C2.05284 12.335 1.9589 12.3076 1.85323 12.0962C1.78278 11.9632 1.78278 10.0454 1.85323 9.9123C1.9589 9.70095 2.05284 9.67355 3.01957 9.55222C4.06067 9.42306 4.20548 9.39175 4.28376 9.27042C4.31507 9.22345 4.409 8.98862 4.49511 8.75378C4.58121 8.51504 4.74168 8.13147 4.85519 7.90055C5.03914 7.52482 5.05871 7.4622 5.02348 7.35261C5.00391 7.28216 4.70646 6.86729 4.36204 6.42502C3.52446 5.3487 3.50881 5.52091 4.51468 4.51895C5.51663 3.51308 5.34442 3.52873 6.42074 4.36631C6.86301 4.71073 7.27789 5.00819 7.34442 5.02776C7.45401 5.06298 7.52055 5.04341 7.91585 4.84772C8.15851 4.7303 8.54207 4.56983 8.76908 4.48764C8.99609 4.40936 9.21918 4.31934 9.26614 4.29194C9.38748 4.20975 9.41879 4.06494 9.54795 3.02384C9.66928 2.05711 9.69667 1.96318 9.90802 1.8575C9.97456 1.82228 10.2838 1.80662 11 1.80662C11.7162 1.80662 12.0254 1.82228 12.092 1.8575Z"/>
</mask>
<path d="M9.76712 1.01993C9.57143 1.07081 9.32877 1.21171 9.17613 1.36435C8.92172 1.61484 8.8591 1.82228 8.74168 2.74987C8.68689 3.21171 8.62035 3.60701 8.60078 3.63441C8.58121 3.66181 8.50294 3.70095 8.42466 3.72443C8.34638 3.75183 8.0998 3.84967 7.87671 3.94752L7.47358 4.12756L7.32877 4.01014C6.65166 3.47394 6.13894 3.09429 5.99022 3.01993C5.75147 2.8986 5.36791 2.8712 5.06654 2.96122C4.84344 3.02384 4.80431 3.05907 3.92759 3.93187C3.05479 4.80858 3.01957 4.84772 2.95695 5.07081C2.86693 5.37609 2.89432 5.75574 3.01566 5.99449C3.06654 6.09234 3.31311 6.43284 3.5636 6.7577C4.18591 7.55222 4.14286 7.4622 4.00587 7.73617C3.93933 7.86533 3.83757 8.10408 3.77886 8.26455C3.72016 8.42502 3.64971 8.57766 3.62622 8.60114C3.60274 8.62462 3.20352 8.69116 2.74168 8.74987C1.81018 8.86729 1.61057 8.92991 1.36008 9.1804C1.27789 9.25868 1.1683 9.41523 1.10568 9.52873L1 9.73226V10.9847V12.2371L1.10176 12.4563C1.16047 12.5777 1.27006 12.742 1.35225 12.8242C1.61057 13.0826 1.82192 13.1491 2.71037 13.2587C3.14481 13.3096 3.54012 13.3683 3.58317 13.3878C3.63014 13.4074 3.69276 13.5053 3.73581 13.6305C3.77495 13.7479 3.88063 13.9945 3.96673 14.1824C4.07241 14.4211 4.11155 14.5424 4.08415 14.5737C4.06458 14.6011 3.83366 14.8986 3.57534 15.2313C3.31703 15.564 3.06654 15.9162 3.01566 16.0141C2.89432 16.2528 2.86693 16.6325 2.95695 16.9377C3.01957 17.1608 3.05479 17.2 3.92759 18.0767C4.80431 18.9495 4.84344 18.9847 5.06654 19.0473C5.36791 19.1373 5.75147 19.1099 5.99022 18.9886C6.13894 18.9143 6.65166 18.5346 7.32877 17.9984L7.47358 17.881L7.87671 18.061C8.0998 18.1589 8.34638 18.2567 8.42466 18.2841C8.50294 18.3076 8.58121 18.3467 8.60078 18.3741C8.62035 18.4015 8.68689 18.7968 8.74168 19.2587C8.8591 20.1902 8.92172 20.3937 9.18004 20.652C9.26223 20.7342 9.42661 20.8438 9.54795 20.9025L9.76712 21.0043H11H12.2329L12.4521 20.9025C12.5734 20.8438 12.7378 20.7342 12.82 20.652C13.0822 20.3898 13.1448 20.1824 13.2583 19.2548C13.3131 18.7968 13.3796 18.4015 13.4031 18.378C13.4266 18.3546 13.5793 18.2841 13.7397 18.2254C13.9002 18.1667 14.1389 18.0649 14.2681 17.9984C14.5421 17.8614 14.4521 17.8184 15.2466 18.4407C15.5714 18.6912 15.9119 18.9377 16.0098 18.9886C16.2485 19.1099 16.6282 19.1373 16.9335 19.0473C17.1566 18.9847 17.1957 18.9495 18.0724 18.0767C18.9452 17.2 18.9804 17.1608 19.0431 16.9377C19.1331 16.6325 19.1057 16.2528 18.9843 16.0141C18.9139 15.8771 18.546 15.38 17.9159 14.5777C17.8924 14.5424 17.9354 14.4015 18.0568 14.1276C18.1546 13.9045 18.2524 13.6579 18.2798 13.5796C18.3033 13.5013 18.3425 13.4231 18.3699 13.4035C18.3973 13.3839 18.7926 13.3174 19.2544 13.2626C20.1859 13.1452 20.3894 13.0826 20.6477 12.8242C20.7299 12.742 20.8395 12.5777 20.8982 12.4563L21 12.2371V11.0043V9.7714L20.8982 9.55222C20.8395 9.43089 20.7299 9.2665 20.6477 9.18431C20.3894 8.92599 20.182 8.86337 19.2427 8.73813C18.7769 8.67942 18.3816 8.61288 18.362 8.59331C18.3425 8.57374 18.2798 8.42502 18.2211 8.26455C18.1624 8.10408 18.0607 7.86533 17.9941 7.73617C17.8571 7.4622 17.8141 7.55222 18.4364 6.7577C18.6869 6.43284 18.9335 6.09234 18.9843 5.99449C19.1057 5.75574 19.1331 5.37609 19.0431 5.07081C18.9804 4.84772 18.9452 4.80858 18.0724 3.93187C17.1957 3.05907 17.1566 3.02384 16.9335 2.96122C16.6282 2.8712 16.2485 2.8986 16.0098 3.01993C15.9119 3.07081 15.5714 3.31738 15.2466 3.56787C14.4521 4.19018 14.5421 4.14713 14.2681 4.01014C14.1389 3.94361 13.9002 3.84185 13.7397 3.78314C13.5793 3.72443 13.4266 3.65398 13.4031 3.6305C13.3796 3.60701 13.3131 3.21171 13.2583 2.74987C13.1409 1.81836 13.0783 1.61875 12.82 1.35652C12.7378 1.27433 12.5734 1.16474 12.4521 1.10603L12.2329 1.00427L11.0587 0.996445C10.4129 0.992531 9.83366 1.00427 9.76712 1.01993ZM12.092 1.8575C12.3033 1.96318 12.3307 2.04928 12.4677 3.11778C12.5656 3.89273 12.6125 4.14713 12.6673 4.22149C12.7221 4.29194 12.8787 4.36631 13.2153 4.48764C13.4736 4.57766 13.8767 4.74596 14.1115 4.85946C14.4834 5.0395 14.5499 5.05907 14.6556 5.02776C14.7221 5.00819 15.137 4.71073 15.5793 4.36631C16.6556 3.52873 16.4834 3.51308 17.4853 4.51895C18.4912 5.52091 18.4795 5.34087 17.6262 6.44067C17.2779 6.89077 16.9804 7.31347 16.9648 7.37218C16.9491 7.4622 16.9883 7.57962 17.1448 7.90447C17.2583 8.13147 17.4188 8.51112 17.5049 8.74596C17.6888 9.26259 17.7084 9.30564 17.818 9.36435C17.865 9.39175 18.3542 9.47003 18.9022 9.54048C19.955 9.67355 20.0411 9.70095 20.1468 9.9123C20.2172 10.0454 20.2172 11.9632 20.1468 12.0962C20.0411 12.3076 19.955 12.335 18.8982 12.4681C18.3503 12.5424 17.865 12.6207 17.818 12.6442C17.7084 12.7029 17.6849 12.746 17.501 13.2665C17.4188 13.5053 17.2544 13.8849 17.1448 14.1158C16.9609 14.4876 16.9413 14.5463 16.9765 14.6598C16.9961 14.7264 17.2935 15.1413 17.638 15.5835C18.4755 16.6598 18.4912 16.4876 17.4853 17.4896C16.4834 18.4955 16.6634 18.4837 15.5636 17.6305C15.1135 17.2822 14.6908 16.9847 14.6321 16.969C14.5421 16.9534 14.4247 16.9925 14.0998 17.1491C13.8728 17.2626 13.4892 17.4231 13.2505 17.5092C13.0157 17.5953 12.7808 17.6892 12.7339 17.7205C12.6125 17.7988 12.5812 17.9436 12.4521 18.9847C12.3307 19.9514 12.3033 20.0454 12.092 20.151C11.9589 20.2215 10.0411 20.2215 9.90802 20.151C9.69667 20.0415 9.66928 19.9593 9.5362 18.8947C9.43444 18.108 9.39139 17.8653 9.33268 17.7871C9.27789 17.7166 9.12524 17.6422 8.78865 17.5209C8.52642 17.4309 8.1272 17.2626 7.89628 17.153C7.56751 16.9925 7.45401 16.9534 7.36399 16.973C7.30137 16.9847 6.90998 17.2626 6.49511 17.5835C6.07632 17.9084 5.68493 18.2019 5.62622 18.2332C5.3953 18.3507 5.32094 18.2998 4.50294 17.4818C3.51272 16.4876 3.52446 16.6638 4.37378 15.5679C4.72211 15.1178 5.01957 14.699 5.03131 14.6403C5.05088 14.5581 5.00783 14.4289 4.85519 14.1158C4.7456 13.8849 4.58121 13.5013 4.49902 13.2626C4.41292 13.0199 4.31507 12.7851 4.28376 12.7381C4.20548 12.6168 4.06067 12.5855 3.01957 12.4563C2.05284 12.335 1.9589 12.3076 1.85323 12.0962C1.78278 11.9632 1.78278 10.0454 1.85323 9.9123C1.9589 9.70095 2.05284 9.67355 3.01957 9.55222C4.06067 9.42306 4.20548 9.39175 4.28376 9.27042C4.31507 9.22345 4.409 8.98862 4.49511 8.75378C4.58121 8.51504 4.74168 8.13147 4.85519 7.90055C5.03914 7.52482 5.05871 7.4622 5.02348 7.35261C5.00391 7.28216 4.70646 6.86729 4.36204 6.42502C3.52446 5.3487 3.50881 5.52091 4.51468 4.51895C5.51663 3.51308 5.34442 3.52873 6.42074 4.36631C6.86301 4.71073 7.27789 5.00819 7.34442 5.02776C7.45401 5.06298 7.52055 5.04341 7.91585 4.84772C8.15851 4.7303 8.54207 4.56983 8.76908 4.48764C8.99609 4.40936 9.21918 4.31934 9.26614 4.29194C9.38748 4.20975 9.41879 4.06494 9.54795 3.02384C9.66928 2.05711 9.69667 1.96318 9.90802 1.8575C9.97456 1.82228 10.2838 1.80662 11 1.80662C11.7162 1.80662 12.0254 1.82228 12.092 1.8575Z" fill="black"/>
<path d="M9.76712 1.01993C9.57143 1.07081 9.32877 1.21171 9.17613 1.36435C8.92172 1.61484 8.8591 1.82228 8.74168 2.74987C8.68689 3.21171 8.62035 3.60701 8.60078 3.63441C8.58121 3.66181 8.50294 3.70095 8.42466 3.72443C8.34638 3.75183 8.0998 3.84967 7.87671 3.94752L7.47358 4.12756L7.32877 4.01014C6.65166 3.47394 6.13894 3.09429 5.99022 3.01993C5.75147 2.8986 5.36791 2.8712 5.06654 2.96122C4.84344 3.02384 4.80431 3.05907 3.92759 3.93187C3.05479 4.80858 3.01957 4.84772 2.95695 5.07081C2.86693 5.37609 2.89432 5.75574 3.01566 5.99449C3.06654 6.09234 3.31311 6.43284 3.5636 6.7577C4.18591 7.55222 4.14286 7.4622 4.00587 7.73617C3.93933 7.86533 3.83757 8.10408 3.77886 8.26455C3.72016 8.42502 3.64971 8.57766 3.62622 8.60114C3.60274 8.62462 3.20352 8.69116 2.74168 8.74987C1.81018 8.86729 1.61057 8.92991 1.36008 9.1804C1.27789 9.25868 1.1683 9.41523 1.10568 9.52873L1 9.73226V10.9847V12.2371L1.10176 12.4563C1.16047 12.5777 1.27006 12.742 1.35225 12.8242C1.61057 13.0826 1.82192 13.1491 2.71037 13.2587C3.14481 13.3096 3.54012 13.3683 3.58317 13.3878C3.63014 13.4074 3.69276 13.5053 3.73581 13.6305C3.77495 13.7479 3.88063 13.9945 3.96673 14.1824C4.07241 14.4211 4.11155 14.5424 4.08415 14.5737C4.06458 14.6011 3.83366 14.8986 3.57534 15.2313C3.31703 15.564 3.06654 15.9162 3.01566 16.0141C2.89432 16.2528 2.86693 16.6325 2.95695 16.9377C3.01957 17.1608 3.05479 17.2 3.92759 18.0767C4.80431 18.9495 4.84344 18.9847 5.06654 19.0473C5.36791 19.1373 5.75147 19.1099 5.99022 18.9886C6.13894 18.9143 6.65166 18.5346 7.32877 17.9984L7.47358 17.881L7.87671 18.061C8.0998 18.1589 8.34638 18.2567 8.42466 18.2841C8.50294 18.3076 8.58121 18.3467 8.60078 18.3741C8.62035 18.4015 8.68689 18.7968 8.74168 19.2587C8.8591 20.1902 8.92172 20.3937 9.18004 20.652C9.26223 20.7342 9.42661 20.8438 9.54795 20.9025L9.76712 21.0043H11H12.2329L12.4521 20.9025C12.5734 20.8438 12.7378 20.7342 12.82 20.652C13.0822 20.3898 13.1448 20.1824 13.2583 19.2548C13.3131 18.7968 13.3796 18.4015 13.4031 18.378C13.4266 18.3546 13.5793 18.2841 13.7397 18.2254C13.9002 18.1667 14.1389 18.0649 14.2681 17.9984C14.5421 17.8614 14.4521 17.8184 15.2466 18.4407C15.5714 18.6912 15.9119 18.9377 16.0098 18.9886C16.2485 19.1099 16.6282 19.1373 16.9335 19.0473C17.1566 18.9847 17.1957 18.9495 18.0724 18.0767C18.9452 17.2 18.9804 17.1608 19.0431 16.9377C19.1331 16.6325 19.1057 16.2528 18.9843 16.0141C18.9139 15.8771 18.546 15.38 17.9159 14.5777C17.8924 14.5424 17.9354 14.4015 18.0568 14.1276C18.1546 13.9045 18.2524 13.6579 18.2798 13.5796C18.3033 13.5013 18.3425 13.4231 18.3699 13.4035C18.3973 13.3839 18.7926 13.3174 19.2544 13.2626C20.1859 13.1452 20.3894 13.0826 20.6477 12.8242C20.7299 12.742 20.8395 12.5777 20.8982 12.4563L21 12.2371V11.0043V9.7714L20.8982 9.55222C20.8395 9.43089 20.7299 9.2665 20.6477 9.18431C20.3894 8.92599 20.182 8.86337 19.2427 8.73813C18.7769 8.67942 18.3816 8.61288 18.362 8.59331C18.3425 8.57374 18.2798 8.42502 18.2211 8.26455C18.1624 8.10408 18.0607 7.86533 17.9941 7.73617C17.8571 7.4622 17.8141 7.55222 18.4364 6.7577C18.6869 6.43284 18.9335 6.09234 18.9843 5.99449C19.1057 5.75574 19.1331 5.37609 19.0431 5.07081C18.9804 4.84772 18.9452 4.80858 18.0724 3.93187C17.1957 3.05907 17.1566 3.02384 16.9335 2.96122C16.6282 2.8712 16.2485 2.8986 16.0098 3.01993C15.9119 3.07081 15.5714 3.31738 15.2466 3.56787C14.4521 4.19018 14.5421 4.14713 14.2681 4.01014C14.1389 3.94361 13.9002 3.84185 13.7397 3.78314C13.5793 3.72443 13.4266 3.65398 13.4031 3.6305C13.3796 3.60701 13.3131 3.21171 13.2583 2.74987C13.1409 1.81836 13.0783 1.61875 12.82 1.35652C12.7378 1.27433 12.5734 1.16474 12.4521 1.10603L12.2329 1.00427L11.0587 0.996445C10.4129 0.992531 9.83366 1.00427 9.76712 1.01993ZM12.092 1.8575C12.3033 1.96318 12.3307 2.04928 12.4677 3.11778C12.5656 3.89273 12.6125 4.14713 12.6673 4.22149C12.7221 4.29194 12.8787 4.36631 13.2153 4.48764C13.4736 4.57766 13.8767 4.74596 14.1115 4.85946C14.4834 5.0395 14.5499 5.05907 14.6556 5.02776C14.7221 5.00819 15.137 4.71073 15.5793 4.36631C16.6556 3.52873 16.4834 3.51308 17.4853 4.51895C18.4912 5.52091 18.4795 5.34087 17.6262 6.44067C17.2779 6.89077 16.9804 7.31347 16.9648 7.37218C16.9491 7.4622 16.9883 7.57962 17.1448 7.90447C17.2583 8.13147 17.4188 8.51112 17.5049 8.74596C17.6888 9.26259 17.7084 9.30564 17.818 9.36435C17.865 9.39175 18.3542 9.47003 18.9022 9.54048C19.955 9.67355 20.0411 9.70095 20.1468 9.9123C20.2172 10.0454 20.2172 11.9632 20.1468 12.0962C20.0411 12.3076 19.955 12.335 18.8982 12.4681C18.3503 12.5424 17.865 12.6207 17.818 12.6442C17.7084 12.7029 17.6849 12.746 17.501 13.2665C17.4188 13.5053 17.2544 13.8849 17.1448 14.1158C16.9609 14.4876 16.9413 14.5463 16.9765 14.6598C16.9961 14.7264 17.2935 15.1413 17.638 15.5835C18.4755 16.6598 18.4912 16.4876 17.4853 17.4896C16.4834 18.4955 16.6634 18.4837 15.5636 17.6305C15.1135 17.2822 14.6908 16.9847 14.6321 16.969C14.5421 16.9534 14.4247 16.9925 14.0998 17.1491C13.8728 17.2626 13.4892 17.4231 13.2505 17.5092C13.0157 17.5953 12.7808 17.6892 12.7339 17.7205C12.6125 17.7988 12.5812 17.9436 12.4521 18.9847C12.3307 19.9514 12.3033 20.0454 12.092 20.151C11.9589 20.2215 10.0411 20.2215 9.90802 20.151C9.69667 20.0415 9.66928 19.9593 9.5362 18.8947C9.43444 18.108 9.39139 17.8653 9.33268 17.7871C9.27789 17.7166 9.12524 17.6422 8.78865 17.5209C8.52642 17.4309 8.1272 17.2626 7.89628 17.153C7.56751 16.9925 7.45401 16.9534 7.36399 16.973C7.30137 16.9847 6.90998 17.2626 6.49511 17.5835C6.07632 17.9084 5.68493 18.2019 5.62622 18.2332C5.3953 18.3507 5.32094 18.2998 4.50294 17.4818C3.51272 16.4876 3.52446 16.6638 4.37378 15.5679C4.72211 15.1178 5.01957 14.699 5.03131 14.6403C5.05088 14.5581 5.00783 14.4289 4.85519 14.1158C4.7456 13.8849 4.58121 13.5013 4.49902 13.2626C4.41292 13.0199 4.31507 12.7851 4.28376 12.7381C4.20548 12.6168 4.06067 12.5855 3.01957 12.4563C2.05284 12.335 1.9589 12.3076 1.85323 12.0962C1.78278 11.9632 1.78278 10.0454 1.85323 9.9123C1.9589 9.70095 2.05284 9.67355 3.01957 9.55222C4.06067 9.42306 4.20548 9.39175 4.28376 9.27042C4.31507 9.22345 4.409 8.98862 4.49511 8.75378C4.58121 8.51504 4.74168 8.13147 4.85519 7.90055C5.03914 7.52482 5.05871 7.4622 5.02348 7.35261C5.00391 7.28216 4.70646 6.86729 4.36204 6.42502C3.52446 5.3487 3.50881 5.52091 4.51468 4.51895C5.51663 3.51308 5.34442 3.52873 6.42074 4.36631C6.86301 4.71073 7.27789 5.00819 7.34442 5.02776C7.45401 5.06298 7.52055 5.04341 7.91585 4.84772C8.15851 4.7303 8.54207 4.56983 8.76908 4.48764C8.99609 4.40936 9.21918 4.31934 9.26614 4.29194C9.38748 4.20975 9.41879 4.06494 9.54795 3.02384C9.66928 2.05711 9.69667 1.96318 9.90802 1.8575C9.97456 1.82228 10.2838 1.80662 11 1.80662C11.7162 1.80662 12.0254 1.82228 12.092 1.8575Z" stroke="black" mask="url(#path-1-outside-1_123_238)"/>
<path d="M6.99689 9.14772L6.99675 9.14803C6.19924 10.8386 6.57356 12.8595 7.92166 14.1661L7.92199 14.1664C9.25055 15.4495 11.2051 15.7928 12.8484 15.011C13.8319 14.5481 14.5435 13.8367 15.0027 12.8605M6.99689 9.14772L8.09565 13.9866C9.35201 15.1999 11.1955 15.5208 12.7414 14.785C13.673 14.3467 14.3422 13.6774 14.7767 12.7537C15.7904 10.6089 14.7845 8.06095 12.5536 7.13336C11.9782 6.89461 11.1289 6.77719 10.5223 6.85547M6.99689 9.14772C7.65918 7.74864 8.96091 6.79836 10.4908 6.60746M6.99689 9.14772L7.22286 9.25469C7.84908 7.93179 9.07804 7.03551 10.5223 6.85547M15.0027 12.8605C15.0028 12.8604 15.0028 12.8602 15.0029 12.8601L14.7767 12.7537L15.0027 12.8605C15.0027 12.8605 15.0027 12.8605 15.0027 12.8605ZM15.0027 12.8605C16.0792 10.5828 15.0083 7.88325 12.6496 6.90252L12.6494 6.90245C12.0351 6.64753 11.1421 6.52355 10.4908 6.60746M10.4908 6.60746C10.491 6.60744 10.4912 6.60741 10.4913 6.60739L10.5223 6.85547M10.4908 6.60746C10.4906 6.60748 10.4905 6.6075 10.4903 6.60753L10.5223 6.85547M13.7747 9.16467C14.1544 9.73218 14.3266 10.3154 14.3266 11.0199C14.3227 12.151 13.7904 13.1373 12.8354 13.7792C12.4714 14.0257 11.9861 14.2214 11.5634 14.2958C11.4107 14.3232 11.1054 14.3349 10.8276 14.3232L9.29722 13.8692C8.9254 13.65 8.42051 13.1647 8.18959 12.8046C7.99781 12.511 7.80603 12.0375 7.72775 11.6696C7.6573 11.3408 7.6573 10.6676 7.72775 10.3388C8.00563 9.03551 9.01151 8.02181 10.3148 7.7361C10.6279 7.66565 11.3481 7.66565 11.6651 7.73218C12.5301 7.91614 13.2776 8.42494 13.7747 9.16467ZM13.7747 9.16467L13.5672 9.3041C13.5672 9.30402 13.5671 9.30394 13.567 9.30385M13.7747 9.16467L13.5669 9.30367C13.567 9.30373 13.567 9.30379 13.567 9.30385M13.567 9.30385C13.9178 9.8283 14.0765 10.3625 14.0766 11.0194M13.567 9.30385C13.1058 8.61753 12.4138 8.1471 11.6135 7.97679C11.4809 7.949 11.2426 7.93229 10.989 7.93277C10.7346 7.93325 10.4986 7.95099 10.3697 7.98L10.3684 7.9803C9.16102 8.24497 8.22971 9.18344 7.97225 10.391L7.9722 10.3912C7.94241 10.5302 7.92491 10.7604 7.92491 11.0042C7.92491 11.248 7.94241 11.4782 7.9722 11.6172L7.97227 11.6175C8.04473 11.9581 8.22546 12.4024 8.39888 12.6679L8.39889 12.6678L8.40003 12.6696C8.60962 12.9964 9.0858 13.4543 9.42417 13.6538L9.42434 13.6539C9.88624 13.9267 10.308 14.0516 10.8378 14.0734L10.8381 14.0734C11.1091 14.0849 11.3932 14.0723 11.5192 14.0497L11.52 14.0496C11.9079 13.9813 12.3603 13.799 12.6952 13.5722L12.6959 13.5717C13.5832 12.9753 14.0728 12.0659 14.0766 11.0194M14.0766 11.0194C14.0766 11.0193 14.0766 11.0191 14.0766 11.019L14.3265 11.0199H14.0766C14.0766 11.0197 14.0766 11.0196 14.0766 11.0194Z" fill="black" stroke="black" stroke-width="0.5"/>
</svg>
