<svg width="22" height="26" viewBox="0 0 22 26" fill="none" xmlns="http://www.w3.org/2000/svg">
<mask id="path-1-outside-1_162_113" maskUnits="userSpaceOnUse" x="-0.534912" y="0.000854492" width="23" height="26" fill="black">
<rect fill="white" x="-0.534912" y="0.000854492" width="23" height="26"/>
<path d="M7.77036 1.04539C7.17036 1.16257 6.56567 1.63132 6.31254 2.17508C6.13911 2.54539 6.07817 2.85945 6.07817 3.38914V3.80632H4.25473C3.21411 3.80632 2.32817 3.82508 2.18286 3.8532C1.30629 4.02195 0.635982 4.7157 0.49067 5.6157C0.350045 6.46414 0.800045 7.35476 1.57348 7.76258L1.89692 7.93132L1.92504 8.2032C1.94379 8.34851 2.22973 11.7798 2.56254 15.8298C2.90004 19.8751 3.19067 23.2688 3.21411 23.3673C3.38286 24.0938 4.04379 24.7501 4.78442 24.9235C5.21098 25.0266 16.7891 25.0266 17.2157 24.9235C17.9563 24.7501 18.6172 24.0938 18.786 23.3673C18.8094 23.2688 19.1 19.8751 19.4375 15.8298C19.7704 11.7798 20.0563 8.34851 20.075 8.2032L20.1032 7.93132L20.4266 7.76258C21.2 7.35476 21.65 6.46414 21.5094 5.6157C21.3641 4.7157 20.6938 4.02195 19.8172 3.8532C19.6719 3.82508 18.786 3.80632 17.7454 3.80632H15.9219V3.38914C15.9219 3.16414 15.8985 2.86414 15.875 2.72351C15.7157 1.87976 15.036 1.20008 14.1922 1.0407C13.8829 0.984449 8.07036 0.984449 7.77036 1.04539ZM14.1407 2.49382C14.4219 2.63914 14.5157 2.85945 14.5157 3.38445V3.80632H11H7.48442V3.38445C7.48442 2.86882 7.57817 2.63914 7.85004 2.49851C8.01879 2.40945 8.13129 2.40476 10.9907 2.40007C13.8735 2.40007 13.9625 2.40476 14.1407 2.49382ZM19.7657 5.30632C19.9766 5.41414 20.1407 5.68132 20.1407 5.9157C20.1407 6.15007 19.9766 6.41726 19.7657 6.52507C19.5829 6.61882 19.5079 6.61882 11 6.61882C2.49223 6.61882 2.41723 6.61882 2.23442 6.52507C2.02348 6.41726 1.85942 6.15007 1.85942 5.9157C1.85942 5.6907 2.02348 5.41414 2.22504 5.31101C2.39379 5.21726 2.52973 5.21726 10.9907 5.21257C19.5125 5.21257 19.5829 5.21257 19.7657 5.30632ZM18.6594 8.22195C18.65 8.33445 18.3641 11.7235 18.0313 15.7501C17.375 23.6907 17.4266 23.2407 17.1266 23.4657L16.9954 23.5641H11H5.00473L4.87348 23.4657C4.57348 23.2407 4.62504 23.6907 3.96879 15.7501C3.63598 11.7235 3.35004 8.33445 3.34067 8.22195L3.31254 8.02507H11H18.6875L18.6594 8.22195Z"/>
</mask>
<path d="M7.77036 1.04539C7.17036 1.16257 6.56567 1.63132 6.31254 2.17508C6.13911 2.54539 6.07817 2.85945 6.07817 3.38914V3.80632H4.25473C3.21411 3.80632 2.32817 3.82508 2.18286 3.8532C1.30629 4.02195 0.635982 4.7157 0.49067 5.6157C0.350045 6.46414 0.800045 7.35476 1.57348 7.76258L1.89692 7.93132L1.92504 8.2032C1.94379 8.34851 2.22973 11.7798 2.56254 15.8298C2.90004 19.8751 3.19067 23.2688 3.21411 23.3673C3.38286 24.0938 4.04379 24.7501 4.78442 24.9235C5.21098 25.0266 16.7891 25.0266 17.2157 24.9235C17.9563 24.7501 18.6172 24.0938 18.786 23.3673C18.8094 23.2688 19.1 19.8751 19.4375 15.8298C19.7704 11.7798 20.0563 8.34851 20.075 8.2032L20.1032 7.93132L20.4266 7.76258C21.2 7.35476 21.65 6.46414 21.5094 5.6157C21.3641 4.7157 20.6938 4.02195 19.8172 3.8532C19.6719 3.82508 18.786 3.80632 17.7454 3.80632H15.9219V3.38914C15.9219 3.16414 15.8985 2.86414 15.875 2.72351C15.7157 1.87976 15.036 1.20008 14.1922 1.0407C13.8829 0.984449 8.07036 0.984449 7.77036 1.04539ZM14.1407 2.49382C14.4219 2.63914 14.5157 2.85945 14.5157 3.38445V3.80632H11H7.48442V3.38445C7.48442 2.86882 7.57817 2.63914 7.85004 2.49851C8.01879 2.40945 8.13129 2.40476 10.9907 2.40007C13.8735 2.40007 13.9625 2.40476 14.1407 2.49382ZM19.7657 5.30632C19.9766 5.41414 20.1407 5.68132 20.1407 5.9157C20.1407 6.15007 19.9766 6.41726 19.7657 6.52507C19.5829 6.61882 19.5079 6.61882 11 6.61882C2.49223 6.61882 2.41723 6.61882 2.23442 6.52507C2.02348 6.41726 1.85942 6.15007 1.85942 5.9157C1.85942 5.6907 2.02348 5.41414 2.22504 5.31101C2.39379 5.21726 2.52973 5.21726 10.9907 5.21257C19.5125 5.21257 19.5829 5.21257 19.7657 5.30632ZM18.6594 8.22195C18.65 8.33445 18.3641 11.7235 18.0313 15.7501C17.375 23.6907 17.4266 23.2407 17.1266 23.4657L16.9954 23.5641H11H5.00473L4.87348 23.4657C4.57348 23.2407 4.62504 23.6907 3.96879 15.7501C3.63598 11.7235 3.35004 8.33445 3.34067 8.22195L3.31254 8.02507H11H18.6875L18.6594 8.22195Z" fill="#FF2732"/>
<path d="M7.77036 1.04539L7.83008 1.33939L7.82786 1.33982L7.77036 1.04539ZM6.31254 2.17508L6.58452 2.30168L6.58422 2.30232L6.31254 2.17508ZM6.07817 3.80632H6.37817V4.10633H6.07817V3.80632ZM2.18286 3.8532L2.23986 4.14773L2.23957 4.14779L2.18286 3.8532ZM0.49067 5.6157L0.786837 5.66352L0.786632 5.66475L0.49067 5.6157ZM1.57348 7.76258L1.43471 8.02855L1.43356 8.02794L1.57348 7.76258ZM1.89692 7.93132L2.03569 7.66535L2.17873 7.73998L2.19533 7.90045L1.89692 7.93132ZM1.92504 8.2032L1.62742 8.2416L1.62664 8.23407L1.92504 8.2032ZM2.56254 15.8298L2.26358 15.8547L2.26355 15.8543L2.56254 15.8298ZM3.21411 23.3673L3.50595 23.2978L3.50633 23.2994L3.21411 23.3673ZM4.78442 24.9235L4.85282 24.6314L4.85492 24.6319L4.78442 24.9235ZM17.2157 24.9235L17.1452 24.6319L17.1473 24.6314L17.2157 24.9235ZM18.786 23.3673L18.4938 23.2994L18.4941 23.2978L18.786 23.3673ZM19.4375 15.8298L19.7365 15.8543L19.7365 15.8547L19.4375 15.8298ZM20.075 8.2032L20.3735 8.23408L20.3726 8.24159L20.075 8.2032ZM20.1032 7.93132L19.8048 7.90045L19.8214 7.73998L19.9644 7.66535L20.1032 7.93132ZM20.4266 7.76258L20.5665 8.02795L20.5654 8.02855L20.4266 7.76258ZM21.5094 5.6157L21.2135 5.66475L21.2133 5.66352L21.5094 5.6157ZM19.8172 3.8532L19.7605 4.14779L19.7602 4.14773L19.8172 3.8532ZM15.9219 3.80632V4.10633H15.6219V3.80632H15.9219ZM15.875 2.72351L16.1699 2.66782L16.171 2.67419L15.875 2.72351ZM14.1922 1.0407L14.2459 0.745531L14.2479 0.745913L14.1922 1.0407ZM14.1407 2.49382L14.2748 2.22547L14.2784 2.2273L14.1407 2.49382ZM14.5157 3.80632H14.8157V4.10633H14.5157V3.80632ZM7.48442 3.80632V4.10633H7.18442V3.80632H7.48442ZM7.85004 2.49851L7.99008 2.76384L7.98787 2.76498L7.85004 2.49851ZM10.9907 2.40007L10.9902 2.10007H10.9907V2.40007ZM19.7657 5.30632L19.6291 5.57346L19.6288 5.57327L19.7657 5.30632ZM19.7657 6.52507L19.6288 6.25813L19.6291 6.25794L19.7657 6.52507ZM2.23442 6.52507L2.37095 6.25794L2.37131 6.25813L2.23442 6.52507ZM2.22504 5.31101L2.37082 5.57341L2.36169 5.57809L2.22504 5.31101ZM10.9907 5.21257L10.9905 4.91257H10.9907V5.21257ZM18.6594 8.22195L18.3605 8.19703L18.3612 8.18825L18.3624 8.17952L18.6594 8.22195ZM18.0313 15.7501L17.7323 15.7254V15.7254L18.0313 15.7501ZM16.9954 23.5641L17.1754 23.8041L17.0954 23.8641H16.9954V23.5641ZM5.00473 23.5641V23.8641H4.90473L4.82473 23.8041L5.00473 23.5641ZM3.96879 15.7501L4.26777 15.7254L4.26778 15.7254L3.96879 15.7501ZM3.34067 8.22195L3.63765 8.17952L3.6389 8.18825L3.63963 8.19703L3.34067 8.22195ZM3.31254 8.02507L3.01556 8.0675L2.96664 7.72507H3.31254V8.02507ZM18.6875 8.02507V7.72507H19.0334L18.9845 8.0675L18.6875 8.02507ZM7.82786 1.33982C7.32001 1.43901 6.79624 1.84687 6.58452 2.30168L6.04057 2.04847C6.3351 1.41578 7.0207 0.886135 7.71285 0.75095L7.82786 1.33982ZM6.58422 2.30232C6.43401 2.62303 6.37817 2.89118 6.37817 3.38914H5.77817C5.77817 2.82772 5.8442 2.46774 6.04086 2.04783L6.58422 2.30232ZM6.37817 3.38914V3.80632H5.77817V3.38914H6.37817ZM6.07817 4.10633H4.25473V3.50632H6.07817V4.10633ZM4.25473 4.10633C3.73595 4.10633 3.25662 4.111 2.88971 4.11914C2.70607 4.12321 2.55201 4.12813 2.43585 4.13367C2.37767 4.13644 2.33055 4.13931 2.29478 4.14216C2.27691 4.14359 2.26302 4.14492 2.25269 4.1461C2.2415 4.14738 2.23811 4.14807 2.23986 4.14773L2.12585 3.55867C2.18761 3.54671 2.29353 3.53978 2.40726 3.53435C2.5306 3.52847 2.69031 3.52342 2.8764 3.51929C3.24894 3.51102 3.73289 3.50632 4.25473 3.50632V4.10633ZM2.23957 4.14779C1.48882 4.29232 0.912408 4.88577 0.786834 5.66352L0.194505 5.56788C0.359556 4.54563 1.12376 3.75158 2.12614 3.55861L2.23957 4.14779ZM0.786632 5.66475C0.667672 6.38248 1.05134 7.14811 1.7134 7.4972L1.43356 8.02794C0.548753 7.56141 0.032417 6.5458 0.194707 5.56664L0.786632 5.66475ZM1.71225 7.4966L2.03569 7.66535L1.75815 8.1973L1.43471 8.02855L1.71225 7.4966ZM2.19533 7.90045L2.22345 8.17233L1.62664 8.23407L1.59851 7.96219L2.19533 7.90045ZM2.22258 8.16481C2.24251 8.3193 2.5294 11.7634 2.86154 15.8052L2.26355 15.8543C2.09715 13.8294 1.94248 11.9592 1.82706 10.5772C1.76935 9.88614 1.72147 9.31727 1.68685 8.91217C1.66954 8.70957 1.65556 8.54818 1.64534 8.43303C1.64023 8.37541 1.63609 8.32972 1.63295 8.29638C1.63138 8.27968 1.6301 8.26646 1.6291 8.25658C1.6286 8.25164 1.6282 8.24783 1.6279 8.24502C1.62756 8.24194 1.62744 8.24106 1.62751 8.24159L2.22258 8.16481ZM2.86151 15.8048C3.03024 17.8273 3.18725 19.6868 3.30499 21.0528C3.36387 21.7359 3.41289 22.2952 3.44865 22.6898C3.46654 22.8872 3.48105 23.0427 3.49178 23.1516C3.49716 23.2062 3.50149 23.2482 3.50477 23.2775C3.50936 23.3184 3.50985 23.3142 3.50595 23.2978L2.92226 23.4367C2.91543 23.4081 2.91091 23.3658 2.9085 23.3442C2.90478 23.311 2.90014 23.266 2.89467 23.2105C2.8837 23.0992 2.86903 22.9418 2.8511 22.7439C2.81522 22.3481 2.76611 21.7877 2.70721 21.1044C2.5894 19.7376 2.43234 17.8775 2.26358 15.8547L2.86151 15.8048ZM3.50633 23.2994C3.64869 23.9124 4.22104 24.4835 4.85282 24.6314L4.71602 25.2156C3.86655 25.0167 3.11702 24.2753 2.92189 23.4351L3.50633 23.2994ZM4.85492 24.6319C4.84813 24.6303 4.88548 24.6358 5.00523 24.642C5.10989 24.6475 5.25347 24.6526 5.43164 24.6575C5.78754 24.6671 6.27464 24.6751 6.85013 24.6815C8.00073 24.6944 9.50012 24.7009 11 24.7009C12.5 24.7009 13.9994 24.6944 15.15 24.6815C15.7254 24.6751 16.2125 24.6671 16.5684 24.6575C16.7466 24.6526 16.8902 24.6475 16.9949 24.642C17.1146 24.6358 17.152 24.6303 17.1452 24.6319L17.2862 25.2151C17.2261 25.2296 17.123 25.2362 17.026 25.2412C16.914 25.2471 16.7647 25.2524 16.5846 25.2572C16.224 25.267 15.7333 25.275 15.1567 25.2815C14.0031 25.2944 12.5013 25.3009 11 25.3009C9.49879 25.3009 7.99701 25.2944 6.84342 25.2815C6.26681 25.275 5.77605 25.267 5.41546 25.2572C5.23538 25.2524 5.08606 25.2471 4.97404 25.2412C4.87712 25.2362 4.77402 25.2296 4.71392 25.2151L4.85492 24.6319ZM17.1473 24.6314C17.779 24.4835 18.3514 23.9124 18.4938 23.2994L19.0782 23.4351C18.8831 24.2753 18.1335 25.0167 17.2841 25.2156L17.1473 24.6314ZM18.4941 23.2978C18.4902 23.3142 18.4907 23.3184 18.4953 23.2775C18.4986 23.2482 18.5029 23.2062 18.5083 23.1516C18.519 23.0427 18.5336 22.8872 18.5514 22.6898C18.5872 22.2952 18.6362 21.7359 18.6951 21.0528C18.8128 19.6868 18.9698 17.8273 19.1386 15.8048L19.7365 15.8547C19.5677 17.8775 19.4107 19.7376 19.2929 21.1044C19.234 21.7877 19.1849 22.3481 19.149 22.7439C19.1311 22.9418 19.1164 23.0992 19.1054 23.2105C19.0999 23.266 19.0953 23.311 19.0916 23.3442C19.0892 23.3658 19.0847 23.4081 19.0778 23.4367L18.4941 23.2978ZM19.1386 15.8052C19.4707 11.7634 19.7576 8.3193 19.7775 8.16481L20.3726 8.24159C20.3726 8.24106 20.3725 8.24194 20.3722 8.24502C20.3719 8.24783 20.3715 8.25164 20.371 8.25658C20.37 8.26646 20.3687 8.27968 20.3671 8.29638C20.364 8.32972 20.3599 8.37541 20.3547 8.43303C20.3445 8.54818 20.3305 8.70957 20.3132 8.91217C20.2786 9.31727 20.2307 9.88614 20.173 10.5772C20.0576 11.9592 19.9029 13.8294 19.7365 15.8543L19.1386 15.8052ZM19.7766 8.17233L19.8048 7.90045L20.4016 7.96219L20.3735 8.23407L19.7766 8.17233ZM19.9644 7.66535L20.2878 7.4966L20.5654 8.02855L20.2419 8.1973L19.9644 7.66535ZM20.2867 7.4972C20.9488 7.14811 21.3324 6.38248 21.2135 5.66475L21.8054 5.56664C21.9677 6.5458 21.4513 7.56141 20.5665 8.02794L20.2867 7.4972ZM21.2133 5.66352C21.0877 4.88577 20.5113 4.29232 19.7605 4.14779L19.8739 3.55861C20.8763 3.75158 21.6405 4.54563 21.8056 5.56788L21.2133 5.66352ZM19.7602 4.14773C19.762 4.14807 19.7586 4.14738 19.7474 4.1461C19.7371 4.14492 19.7232 4.14359 19.7053 4.14216C19.6695 4.13931 19.6224 4.13644 19.5642 4.13367C19.4481 4.12813 19.294 4.12321 19.1104 4.11914C18.7435 4.111 18.2641 4.10633 17.7454 4.10633V3.50632C18.2672 3.50632 18.7512 3.51102 19.1237 3.51929C19.3098 3.52342 19.4695 3.52847 19.5928 3.53435C19.7066 3.53978 19.8125 3.54671 19.8742 3.55867L19.7602 4.14773ZM17.7454 4.10633H15.9219V3.50632H17.7454V4.10633ZM15.6219 3.80632V3.38914H16.2219V3.80632H15.6219ZM15.6219 3.38914C15.6219 3.17646 15.5992 2.89348 15.5791 2.77283L16.171 2.67419C16.1977 2.8348 16.2219 3.15182 16.2219 3.38914H15.6219ZM15.5803 2.77919C15.4438 2.05675 14.859 1.47195 14.1365 1.33549L14.2479 0.745913C15.213 0.928202 15.9875 1.70277 16.1698 2.66783L15.5803 2.77919ZM14.1386 1.33586C14.1417 1.33643 14.1209 1.33371 14.057 1.33042C14.0007 1.32752 13.925 1.32474 13.8314 1.32214C13.6447 1.31694 13.3929 1.31258 13.097 1.30911C12.5054 1.30217 11.7418 1.29881 10.9779 1.2991C10.214 1.29939 9.45098 1.30334 8.86073 1.31101C8.56542 1.31485 8.31455 1.3196 8.12885 1.32524C8.03583 1.32807 7.96079 1.33108 7.9054 1.3342C7.84117 1.33782 7.82362 1.34069 7.83007 1.33938L7.71064 0.75139C7.7546 0.742462 7.81761 0.738195 7.87163 0.735149C7.9345 0.731606 8.0154 0.728416 8.11063 0.725521C8.30143 0.719721 8.5563 0.714916 8.85293 0.711061C9.44657 0.70335 10.2123 0.699392 10.9777 0.699099C11.7431 0.698805 12.5093 0.702177 13.104 0.709152C13.4012 0.712639 13.6566 0.717037 13.8481 0.722368C13.9437 0.725029 14.0248 0.727961 14.0879 0.731211C14.1432 0.734066 14.2041 0.73794 14.2459 0.745539L14.1386 1.33586ZM14.2784 2.2273C14.4699 2.32626 14.6196 2.46568 14.71 2.68013C14.7928 2.8762 14.8157 3.11223 14.8157 3.38445H14.2157C14.2157 3.13167 14.1917 2.99504 14.1572 2.91338C14.1305 2.85009 14.0927 2.8067 14.003 2.76035L14.2784 2.2273ZM14.8157 3.38445V3.80632H14.2157V3.38445H14.8157ZM14.5157 4.10633H11V3.50632H14.5157V4.10633ZM11 4.10633H7.48442V3.50632H11V4.10633ZM7.18442 3.80632V3.38445H7.78442V3.80632H7.18442ZM7.18442 3.38445C7.18442 3.11596 7.20756 2.88167 7.28788 2.68663C7.37535 2.4742 7.5206 2.33116 7.71222 2.23205L7.98787 2.76498C7.90761 2.80649 7.87005 2.84861 7.84268 2.91508C7.80815 2.99895 7.78442 3.13731 7.78442 3.38445H7.18442ZM7.71002 2.2332C7.86206 2.15295 7.9966 2.13065 8.40187 2.1178C8.81426 2.10473 9.56327 2.10242 10.9902 2.10007L10.9912 2.70008C9.5587 2.70242 8.82176 2.70479 8.42088 2.7175C8.01286 2.73044 8.00677 2.75501 7.99007 2.76383L7.71002 2.2332ZM10.9907 2.10007C12.4293 2.10007 13.1783 2.10121 13.589 2.11369C13.7926 2.11987 13.9278 2.12912 14.0276 2.14562C14.1425 2.1646 14.2104 2.19326 14.2748 2.2255L14.0065 2.76215C13.9819 2.74986 13.9718 2.74453 13.9298 2.73759C13.8727 2.72815 13.7722 2.71953 13.5708 2.71341C13.1718 2.70128 12.4349 2.70008 10.9907 2.70008V2.10007ZM19.9022 5.03919C20.0659 5.12288 20.1976 5.25967 20.2878 5.4064C20.378 5.553 20.4407 5.73213 20.4407 5.9157H19.8407C19.8407 5.86489 19.8213 5.79324 19.7767 5.7207C19.7322 5.64829 19.6763 5.59758 19.6291 5.57345L19.9022 5.03919ZM20.4407 5.9157C20.4407 6.09927 20.378 6.2784 20.2878 6.425C20.1976 6.57173 20.0659 6.70852 19.9022 6.7922L19.6291 6.25794C19.6763 6.23382 19.7322 6.18311 19.7767 6.11069C19.8213 6.03816 19.8407 5.9665 19.8407 5.9157H20.4407ZM19.9026 6.79202C19.8702 6.80861 19.8258 6.8303 19.7577 6.84719C19.6981 6.86198 19.6281 6.87125 19.5391 6.87833C19.3615 6.89246 19.0589 6.90125 18.5079 6.90709C17.4008 6.91883 15.2527 6.91883 11 6.91883V6.31882C15.2552 6.31882 17.3985 6.31882 18.5016 6.30712C19.0556 6.30125 19.3378 6.29245 19.4915 6.28022C19.5682 6.27412 19.6005 6.26801 19.6132 6.26485C19.6175 6.26379 19.6154 6.26498 19.6288 6.25813L19.9026 6.79202ZM11 6.91883C6.74734 6.91883 4.59932 6.91883 3.49218 6.90709C2.94118 6.90125 2.63859 6.89246 2.46096 6.87833C2.37197 6.87125 2.30196 6.86198 2.24236 6.84719C2.17429 6.8303 2.12987 6.80861 2.09752 6.79202L2.37131 6.25813C2.38468 6.26498 2.38258 6.26379 2.38684 6.26485C2.39957 6.26801 2.43188 6.27412 2.50856 6.28022C2.66228 6.29245 2.94445 6.30125 3.49854 6.30712C4.60155 6.31882 6.74493 6.31882 11 6.31882V6.91883ZM2.09789 6.7922C1.93415 6.70852 1.80251 6.57173 1.71227 6.425C1.62212 6.2784 1.55942 6.09927 1.55942 5.9157H2.15942C2.15942 5.9665 2.17875 6.03816 2.22336 6.11069C2.26789 6.18311 2.32375 6.23382 2.37095 6.25794L2.09789 6.7922ZM1.55942 5.9157C1.55942 5.73592 1.62269 5.55755 1.70952 5.4131C1.79624 5.26883 1.92504 5.12752 2.0884 5.04394L2.36169 5.57809C2.32349 5.59763 2.26948 5.64617 2.22377 5.7222C2.17818 5.79806 2.15942 5.87048 2.15942 5.9157H1.55942ZM2.07935 5.04877C2.1156 5.02863 2.16142 5.00602 2.23123 4.9888C2.29128 4.97398 2.36251 4.96474 2.45254 4.95766C2.63291 4.94349 2.9401 4.93455 3.49497 4.92841C4.60971 4.91609 6.76122 4.91492 10.9905 4.91257L10.9908 5.51258C6.75918 5.51492 4.61225 5.51609 3.5016 5.52838C2.94378 5.53455 2.65654 5.54348 2.49955 5.55582C2.42091 5.562 2.38773 5.56818 2.37499 5.57132C2.37201 5.57205 2.37668 5.56996 2.37074 5.57326L2.07935 5.04877ZM10.9907 4.91257C15.2504 4.91257 17.4008 4.91257 18.5085 4.92431C19.0598 4.93015 19.3622 4.93894 19.5397 4.95307C19.6286 4.96016 19.6985 4.96943 19.7581 4.98425C19.8261 5.00119 19.8705 5.02295 19.9026 5.03938L19.6288 5.57327C19.6151 5.56627 19.6173 5.56752 19.6132 5.56651C19.6007 5.56338 19.5686 5.55728 19.492 5.55118C19.3385 5.53895 19.0565 5.53015 18.5021 5.52428C17.3985 5.51258 15.2528 5.51258 10.9907 5.51258V4.91257ZM18.9584 8.24686C18.949 8.3599 18.6631 11.7483 18.3303 15.7748L17.7323 15.7254C18.0651 11.6988 18.3511 8.309 18.3605 8.19703L18.9584 8.24686ZM18.3303 15.7748C18.0025 19.7404 17.8507 21.6213 17.7433 22.5362C17.691 22.9816 17.6458 23.2384 17.5789 23.3979C17.5392 23.4927 17.4882 23.564 17.421 23.6221C17.3923 23.647 17.3644 23.666 17.3471 23.6777C17.3271 23.6912 17.3179 23.6972 17.3066 23.7057L16.9466 23.2257C16.9728 23.206 16.9984 23.1892 17.0109 23.1807C17.0261 23.1704 17.0285 23.1683 17.0284 23.1684C17.0184 23.1771 17.0177 23.1846 17.0256 23.1658C17.0539 23.0983 17.0931 22.9291 17.1474 22.4663C17.2533 21.5648 17.4038 19.7004 17.7323 15.7254L18.3303 15.7748ZM17.3066 23.7057L17.1754 23.8041L16.8154 23.3241L16.9466 23.2257L17.3066 23.7057ZM16.9954 23.8641H11V23.2641H16.9954V23.8641ZM11 23.8641H5.00473V23.2641H11V23.8641ZM4.82473 23.8041L4.69348 23.7057L5.05348 23.2257L5.18473 23.3241L4.82473 23.8041ZM4.69348 23.7057C4.6822 23.6972 4.673 23.6912 4.65298 23.6777C4.63572 23.666 4.60783 23.647 4.57907 23.6221C4.51192 23.564 4.46093 23.4927 4.42119 23.3979C4.35431 23.2384 4.30907 22.9816 4.25678 22.5362C4.14935 21.6213 3.99755 19.7404 3.66981 15.7748L4.26778 15.7254C4.59629 19.7004 4.74684 21.5648 4.85268 22.4663C4.90703 22.9291 4.94617 23.0983 4.97451 23.1658C4.98237 23.1846 4.9817 23.1771 4.97172 23.1684C4.97154 23.1683 4.97395 23.1704 4.9892 23.1807C5.00171 23.1892 5.02726 23.206 5.05348 23.2257L4.69348 23.7057ZM3.66981 15.7748C3.337 11.7483 3.05113 8.3599 3.04171 8.24686L3.63963 8.19703C3.64896 8.309 3.93496 11.6988 4.26777 15.7254L3.66981 15.7748ZM3.04368 8.26438L3.01556 8.0675L3.60953 7.98265L3.63765 8.17952L3.04368 8.26438ZM3.31254 7.72507H11V8.32508H3.31254V7.72507ZM11 7.72507H18.6875V8.32508H11V7.72507ZM18.9845 8.0675L18.9564 8.26438L18.3624 8.17952L18.3906 7.98265L18.9845 8.0675Z" fill="#FF2732" mask="url(#path-1-outside-1_162_113)"/>
<path d="M5.91913 10.0311L5.9167 9.99163L5.93406 9.95607L6.03189 9.75577C6.10594 9.59702 6.22193 9.47376 6.3694 9.39692C6.50141 9.32696 6.63509 9.28846 6.77411 9.28772C6.9131 9.28699 7.04763 9.32405 7.18124 9.39086L7.18125 9.39084L7.18326 9.39189C7.19321 9.39705 7.20524 9.40242 7.21877 9.40846C7.28534 9.43817 7.38808 9.48403 7.45708 9.60102C7.49573 9.66655 7.52401 9.75001 7.54808 9.85716C7.57238 9.96534 7.59427 10.1065 7.61589 10.2929C7.69351 10.9617 7.77375 12.2685 7.93435 14.8843C7.95204 15.1724 7.9707 15.4763 7.99044 15.7971C7.99044 15.7971 7.99044 15.7971 7.99044 15.7971L8.34669 21.5814L8.34912 21.6209L8.33176 21.6565L8.23362 21.8574C8.23356 21.8575 8.23351 21.8576 8.23346 21.8578C8.15472 22.0207 8.04348 22.1392 7.88633 22.2207L7.88635 22.2207L7.88331 22.2222C7.74968 22.2877 7.62024 22.3254 7.48447 22.3254C7.3487 22.3254 7.21926 22.2877 7.08564 22.2222L7.08562 22.2222L7.08256 22.2207C7.07261 22.2155 7.06058 22.2101 7.04705 22.2041C6.98048 22.1744 6.87774 22.1285 6.80874 22.0115C6.77009 21.946 6.74181 21.8625 6.71774 21.7554C6.69344 21.6472 6.67155 21.506 6.64993 21.3197C6.57231 20.6509 6.49207 19.3441 6.33147 16.7282C6.31378 16.4402 6.29512 16.1362 6.27538 15.8155C6.27538 15.8155 6.27538 15.8155 6.27538 15.8155L5.91913 10.0311Z" fill="#FF2732" stroke="#FF2732" stroke-width="0.3"/>
<path d="M10.2568 9.73851C10.2435 9.76455 10.2284 9.79558 10.2156 9.83974C10.2033 9.88229 10.1944 9.93245 10.1873 9.99876C10.1733 10.1297 10.1645 10.3431 10.1586 10.7227C10.1469 11.4844 10.1469 12.9394 10.1469 15.8024V15.8063V15.8102C10.1469 18.6755 10.1469 20.1305 10.1586 20.8916C10.1645 21.2709 10.1733 21.4839 10.1873 21.6145C10.1944 21.6807 10.2033 21.7307 10.2156 21.7732C10.2285 21.8175 10.2438 21.8486 10.2571 21.8746C10.3259 22.0092 10.4412 22.1219 10.5693 22.2006C10.6974 22.2794 10.8496 22.3313 11 22.3313C11.1504 22.3313 11.3026 22.2794 11.4307 22.2006C11.5588 22.1219 11.674 22.0092 11.7428 21.8747C11.7429 21.8747 11.7429 21.8746 11.7429 21.8745L11.6094 21.8063C11.7031 21.6235 11.7031 21.5438 11.7031 15.8063C11.7031 10.0688 11.7031 9.98909 11.6094 9.80628L10.2568 9.73851ZM10.2568 9.73851C10.3274 9.59778 10.4576 9.46761 10.5925 9.39704C11.0122 9.17362 11.5284 9.31565 11.7428 9.73783L10.2568 9.73851Z" fill="#FF2732" stroke="#FF2732" stroke-width="0.3"/>
<path d="M14.0098 15.7971L14.0098 15.797C14.0311 15.4518 14.0512 15.126 14.0701 14.8185C14.2279 12.2572 14.3072 10.9685 14.3831 10.3043C14.4247 9.93989 14.4673 9.7349 14.5379 9.61049C14.6056 9.4911 14.7058 9.44455 14.7718 9.41395C14.7847 9.40793 14.7964 9.40253 14.8062 9.39731C15.2381 9.16731 15.7547 9.32276 15.9674 9.75397L15.9677 9.75451L16.0661 9.95607L16.0835 9.99163L16.0811 10.0311L15.7248 15.8155C15.7248 15.8155 15.7248 15.8155 15.7248 15.8155C15.7051 16.1362 15.6864 16.4402 15.6687 16.7282C15.5081 19.3441 15.4279 20.6509 15.3503 21.3197C15.3286 21.506 15.3068 21.6472 15.2825 21.7554C15.2584 21.8625 15.2301 21.946 15.1915 22.0115C15.1225 22.1285 15.0197 22.1744 14.9531 22.2041C14.9396 22.2101 14.9276 22.2155 14.9176 22.2207L14.9176 22.2207L14.9146 22.2222C14.7809 22.2877 14.6515 22.3254 14.5157 22.3254C14.38 22.3254 14.2505 22.2877 14.1169 22.2222L14.1169 22.2222L14.1139 22.2207C13.9567 22.1392 13.8455 22.0207 13.7667 21.8577L13.6684 21.6565L13.6511 21.6209L13.6535 21.5814L14.0098 15.7971Z" fill="#FF2732" stroke="#FF2732" stroke-width="0.3"/>
</svg>
