<svg width="22" height="22" viewBox="0 0 22 22" fill="none" xmlns="http://www.w3.org/2000/svg">
<mask id="path-1-outside-1_272_172" maskUnits="userSpaceOnUse" x="2.40234" y="0.267578" width="6" height="6" fill="black">
<rect fill="white" x="2.40234" y="0.267578" width="6" height="6"/>
<path d="M5.32242 0.697779C4.61705 0.835412 3.9977 1.28702 3.68372 1.89777C3.31813 2.59884 3.30953 3.2784 3.65361 3.98377C4.07082 4.83968 4.92672 5.33 5.87295 5.26118C6.29875 5.23107 6.64714 5.10634 7.00842 4.86118C7.46433 4.55151 7.79121 4.087 7.92885 3.55367C8.02347 3.17518 7.99336 2.50852 7.86433 2.17734C7.61917 1.54078 7.07724 1.01606 6.43639 0.796703C6.16542 0.706381 5.56328 0.654769 5.32242 0.697779ZM6.39768 1.45476C6.76327 1.6225 7.01703 1.87626 7.20197 2.25475C7.35681 2.56013 7.36541 2.60744 7.36541 2.96873C7.36541 3.31711 7.34821 3.39023 7.22778 3.64829C6.8923 4.35796 6.21703 4.72785 5.44715 4.62033C4.92242 4.55151 4.4063 4.15581 4.16974 3.64829C4.06651 3.43324 4.05361 3.34722 4.05361 2.97303C4.05361 2.59884 4.07082 2.51282 4.16544 2.30207C4.35899 1.88917 4.66436 1.601 5.10306 1.41605C5.30951 1.33003 5.39984 1.31713 5.75252 1.33003C6.0837 1.33863 6.20843 1.36444 6.39768 1.45476Z"/>
</mask>
<path d="M5.32242 0.697779C4.61705 0.835412 3.9977 1.28702 3.68372 1.89777C3.31813 2.59884 3.30953 3.2784 3.65361 3.98377C4.07082 4.83968 4.92672 5.33 5.87295 5.26118C6.29875 5.23107 6.64714 5.10634 7.00842 4.86118C7.46433 4.55151 7.79121 4.087 7.92885 3.55367C8.02347 3.17518 7.99336 2.50852 7.86433 2.17734C7.61917 1.54078 7.07724 1.01606 6.43639 0.796703C6.16542 0.706381 5.56328 0.654769 5.32242 0.697779ZM6.39768 1.45476C6.76327 1.6225 7.01703 1.87626 7.20197 2.25475C7.35681 2.56013 7.36541 2.60744 7.36541 2.96873C7.36541 3.31711 7.34821 3.39023 7.22778 3.64829C6.8923 4.35796 6.21703 4.72785 5.44715 4.62033C4.92242 4.55151 4.4063 4.15581 4.16974 3.64829C4.06651 3.43324 4.05361 3.34722 4.05361 2.97303C4.05361 2.59884 4.07082 2.51282 4.16544 2.30207C4.35899 1.88917 4.66436 1.601 5.10306 1.41605C5.30951 1.33003 5.39984 1.31713 5.75252 1.33003C6.0837 1.33863 6.20843 1.36444 6.39768 1.45476Z" fill="black"/>
<path d="M5.32242 0.697779C4.61705 0.835412 3.9977 1.28702 3.68372 1.89777C3.31813 2.59884 3.30953 3.2784 3.65361 3.98377C4.07082 4.83968 4.92672 5.33 5.87295 5.26118C6.29875 5.23107 6.64714 5.10634 7.00842 4.86118C7.46433 4.55151 7.79121 4.087 7.92885 3.55367C8.02347 3.17518 7.99336 2.50852 7.86433 2.17734C7.61917 1.54078 7.07724 1.01606 6.43639 0.796703C6.16542 0.706381 5.56328 0.654769 5.32242 0.697779ZM6.39768 1.45476C6.76327 1.6225 7.01703 1.87626 7.20197 2.25475C7.35681 2.56013 7.36541 2.60744 7.36541 2.96873C7.36541 3.31711 7.34821 3.39023 7.22778 3.64829C6.8923 4.35796 6.21703 4.72785 5.44715 4.62033C4.92242 4.55151 4.4063 4.15581 4.16974 3.64829C4.06651 3.43324 4.05361 3.34722 4.05361 2.97303C4.05361 2.59884 4.07082 2.51282 4.16544 2.30207C4.35899 1.88917 4.66436 1.601 5.10306 1.41605C5.30951 1.33003 5.39984 1.31713 5.75252 1.33003C6.0837 1.33863 6.20843 1.36444 6.39768 1.45476Z" stroke="black" stroke-width="0.6" mask="url(#path-1-outside-1_272_172)"/>
<mask id="path-2-outside-2_272_172" maskUnits="userSpaceOnUse" x="0" y="5.56445" width="14" height="16" fill="black">
<rect fill="white" y="5.56445" width="14" height="16"/>
<path d="M3.04299 6.03125C2.29031 6.22909 1.63655 6.75812 1.28387 7.45919C1 8.02693 1 8.00542 1 10.7151V13.1667L1.12043 13.4118C1.4043 13.9882 2.06236 14.2763 2.63439 14.0699C2.72902 14.0355 2.81934 14.0054 2.83654 14.0054C2.85375 14.0054 2.87525 15.2183 2.87955 16.7021L2.89246 19.4032L3.01289 19.6655C3.15912 19.9795 3.44729 20.2763 3.77417 20.444C3.98922 20.5516 4.05374 20.5645 4.44083 20.5645C4.95265 20.5602 5.1634 20.4827 5.49028 20.1774L5.69673 19.9838L5.87308 20.1516C5.9677 20.2419 6.16125 20.3752 6.29888 20.4397C6.51823 20.5516 6.59565 20.5645 6.95694 20.5645C7.33113 20.5645 7.39134 20.5516 7.65371 20.4225C8.00209 20.2505 8.29026 19.9494 8.42789 19.6053L8.52682 19.3602L8.53972 13.9107L8.54832 8.46133L10.5397 8.44843C12.7719 8.43122 12.6773 8.44843 13.0515 8.10435C13.3096 7.86349 13.4171 7.63983 13.4429 7.29145C13.473 6.88285 13.3698 6.60758 13.0902 6.32802C12.6988 5.93662 13.0816 5.96243 7.86446 5.96673C4.01073 5.96673 3.24084 5.97963 3.04299 6.03125ZM12.4322 6.62479C12.7676 6.76242 12.9139 7.11941 12.7676 7.44199C12.6085 7.80327 12.7289 7.78607 10.273 7.81618L8.10531 7.83768L8.00639 7.95811L7.90317 8.07424V13.657V19.2354L7.79564 19.4548C7.67091 19.6999 7.46446 19.8677 7.17629 19.9408C6.70748 20.0655 6.17845 19.7473 6.05802 19.2698C6.02791 19.1494 6.01071 18.3838 6.01071 17.0849C6.01071 15.1365 6.00641 15.0763 5.92469 14.9946C5.81716 14.8871 5.5763 14.8828 5.48168 14.986C5.42147 15.0548 5.41287 15.3 5.39996 17.1451L5.38706 19.2311L5.28383 19.4376C4.94405 20.1257 3.93331 20.1257 3.59783 19.4376L3.4946 19.2311L3.4817 14.4914L3.4688 9.75164L3.35697 9.66562C3.21073 9.54949 3.10321 9.5538 2.97848 9.68283L2.87095 9.78605V11.386C2.87095 12.8957 2.86665 12.9989 2.78493 13.1667C2.62579 13.4892 2.2258 13.6054 1.91182 13.4118C1.61075 13.2226 1.61935 13.3 1.63225 10.5989C1.64516 8.19467 1.64516 8.17746 1.74408 7.93661C2.01935 7.24844 2.61289 6.74952 3.32256 6.60758C3.41718 6.59038 5.47308 6.57318 7.89456 6.56888C11.5203 6.56457 12.316 6.57318 12.4322 6.62479Z"/>
</mask>
<path d="M3.04299 6.03125C2.29031 6.22909 1.63655 6.75812 1.28387 7.45919C1 8.02693 1 8.00542 1 10.7151V13.1667L1.12043 13.4118C1.4043 13.9882 2.06236 14.2763 2.63439 14.0699C2.72902 14.0355 2.81934 14.0054 2.83654 14.0054C2.85375 14.0054 2.87525 15.2183 2.87955 16.7021L2.89246 19.4032L3.01289 19.6655C3.15912 19.9795 3.44729 20.2763 3.77417 20.444C3.98922 20.5516 4.05374 20.5645 4.44083 20.5645C4.95265 20.5602 5.1634 20.4827 5.49028 20.1774L5.69673 19.9838L5.87308 20.1516C5.9677 20.2419 6.16125 20.3752 6.29888 20.4397C6.51823 20.5516 6.59565 20.5645 6.95694 20.5645C7.33113 20.5645 7.39134 20.5516 7.65371 20.4225C8.00209 20.2505 8.29026 19.9494 8.42789 19.6053L8.52682 19.3602L8.53972 13.9107L8.54832 8.46133L10.5397 8.44843C12.7719 8.43122 12.6773 8.44843 13.0515 8.10435C13.3096 7.86349 13.4171 7.63983 13.4429 7.29145C13.473 6.88285 13.3698 6.60758 13.0902 6.32802C12.6988 5.93662 13.0816 5.96243 7.86446 5.96673C4.01073 5.96673 3.24084 5.97963 3.04299 6.03125ZM12.4322 6.62479C12.7676 6.76242 12.9139 7.11941 12.7676 7.44199C12.6085 7.80327 12.7289 7.78607 10.273 7.81618L8.10531 7.83768L8.00639 7.95811L7.90317 8.07424V13.657V19.2354L7.79564 19.4548C7.67091 19.6999 7.46446 19.8677 7.17629 19.9408C6.70748 20.0655 6.17845 19.7473 6.05802 19.2698C6.02791 19.1494 6.01071 18.3838 6.01071 17.0849C6.01071 15.1365 6.00641 15.0763 5.92469 14.9946C5.81716 14.8871 5.5763 14.8828 5.48168 14.986C5.42147 15.0548 5.41287 15.3 5.39996 17.1451L5.38706 19.2311L5.28383 19.4376C4.94405 20.1257 3.93331 20.1257 3.59783 19.4376L3.4946 19.2311L3.4817 14.4914L3.4688 9.75164L3.35697 9.66562C3.21073 9.54949 3.10321 9.5538 2.97848 9.68283L2.87095 9.78605V11.386C2.87095 12.8957 2.86665 12.9989 2.78493 13.1667C2.62579 13.4892 2.2258 13.6054 1.91182 13.4118C1.61075 13.2226 1.61935 13.3 1.63225 10.5989C1.64516 8.19467 1.64516 8.17746 1.74408 7.93661C2.01935 7.24844 2.61289 6.74952 3.32256 6.60758C3.41718 6.59038 5.47308 6.57318 7.89456 6.56888C11.5203 6.56457 12.316 6.57318 12.4322 6.62479Z" fill="black"/>
<path d="M3.04299 6.03125C2.29031 6.22909 1.63655 6.75812 1.28387 7.45919C1 8.02693 1 8.00542 1 10.7151V13.1667L1.12043 13.4118C1.4043 13.9882 2.06236 14.2763 2.63439 14.0699C2.72902 14.0355 2.81934 14.0054 2.83654 14.0054C2.85375 14.0054 2.87525 15.2183 2.87955 16.7021L2.89246 19.4032L3.01289 19.6655C3.15912 19.9795 3.44729 20.2763 3.77417 20.444C3.98922 20.5516 4.05374 20.5645 4.44083 20.5645C4.95265 20.5602 5.1634 20.4827 5.49028 20.1774L5.69673 19.9838L5.87308 20.1516C5.9677 20.2419 6.16125 20.3752 6.29888 20.4397C6.51823 20.5516 6.59565 20.5645 6.95694 20.5645C7.33113 20.5645 7.39134 20.5516 7.65371 20.4225C8.00209 20.2505 8.29026 19.9494 8.42789 19.6053L8.52682 19.3602L8.53972 13.9107L8.54832 8.46133L10.5397 8.44843C12.7719 8.43122 12.6773 8.44843 13.0515 8.10435C13.3096 7.86349 13.4171 7.63983 13.4429 7.29145C13.473 6.88285 13.3698 6.60758 13.0902 6.32802C12.6988 5.93662 13.0816 5.96243 7.86446 5.96673C4.01073 5.96673 3.24084 5.97963 3.04299 6.03125ZM12.4322 6.62479C12.7676 6.76242 12.9139 7.11941 12.7676 7.44199C12.6085 7.80327 12.7289 7.78607 10.273 7.81618L8.10531 7.83768L8.00639 7.95811L7.90317 8.07424V13.657V19.2354L7.79564 19.4548C7.67091 19.6999 7.46446 19.8677 7.17629 19.9408C6.70748 20.0655 6.17845 19.7473 6.05802 19.2698C6.02791 19.1494 6.01071 18.3838 6.01071 17.0849C6.01071 15.1365 6.00641 15.0763 5.92469 14.9946C5.81716 14.8871 5.5763 14.8828 5.48168 14.986C5.42147 15.0548 5.41287 15.3 5.39996 17.1451L5.38706 19.2311L5.28383 19.4376C4.94405 20.1257 3.93331 20.1257 3.59783 19.4376L3.4946 19.2311L3.4817 14.4914L3.4688 9.75164L3.35697 9.66562C3.21073 9.54949 3.10321 9.5538 2.97848 9.68283L2.87095 9.78605V11.386C2.87095 12.8957 2.86665 12.9989 2.78493 13.1667C2.62579 13.4892 2.2258 13.6054 1.91182 13.4118C1.61075 13.2226 1.61935 13.3 1.63225 10.5989C1.64516 8.19467 1.64516 8.17746 1.74408 7.93661C2.01935 7.24844 2.61289 6.74952 3.32256 6.60758C3.41718 6.59038 5.47308 6.57318 7.89456 6.56888C11.5203 6.56457 12.316 6.57318 12.4322 6.62479Z" stroke="black" stroke-width="0.6" mask="url(#path-2-outside-2_272_172)"/>
<mask id="path-3-outside-3_272_172" maskUnits="userSpaceOnUse" x="8.15039" y="8.31738" width="14" height="14" fill="black">
<rect fill="white" x="8.15039" y="8.31738" width="14" height="14"/>
<path d="M12.3848 9.44632C12.3074 9.46352 12.2041 9.51513 12.1568 9.55815C11.9418 9.75169 11.9461 9.70008 11.9461 12.457V15.0377H10.8622C10.2644 15.0377 9.69662 15.0592 9.602 15.0807C9.49447 15.1065 9.37835 15.1753 9.29232 15.2699L9.15039 15.4248V18.1645C9.15039 20.8398 9.15469 20.9129 9.23641 21.0505C9.40845 21.3344 9.06867 21.3172 15.0944 21.3172C20.4449 21.3172 20.5739 21.3129 20.7073 21.2312C21.017 21.0462 20.9998 21.2183 20.9998 18.1989C20.9998 15.6914 20.9954 15.4807 20.9223 15.3516C20.7718 15.0764 20.703 15.0592 19.3783 15.0463L18.1826 15.0334V12.4097V9.7904L18.0449 9.63556C17.9546 9.54094 17.8385 9.47212 17.731 9.44632C17.5245 9.39901 12.5869 9.39901 12.3848 9.44632ZM14.3116 10.8872C14.3116 11.67 14.3159 11.7302 14.3977 11.8119C14.4966 11.9108 14.6944 11.9237 14.7891 11.842C14.8278 11.8162 14.9482 11.6786 15.0643 11.5409L15.2751 11.2872L15.4256 11.4764C15.7955 11.928 15.946 11.9968 16.1482 11.8033C16.2428 11.713 16.2471 11.6915 16.2471 10.8786V10.0485H16.9138H17.5804V12.5431V15.0377H15.0643H12.5482V12.5431V10.0485H13.4299H14.3116V10.8872ZM15.6019 10.371V10.6893L15.4944 10.5861C15.3611 10.4485 15.2106 10.4485 15.0471 10.5904L14.9138 10.7022V10.3753V10.0485H15.2579H15.6019V10.371ZM11.3009 16.5215C11.3009 17.3043 11.3052 17.3645 11.3869 17.4462C11.4342 17.4936 11.5289 17.5323 11.6063 17.5323C11.7396 17.5323 11.7396 17.528 12.1482 17.0635L12.2729 16.9172L12.4966 17.2011C12.6213 17.3559 12.7504 17.4936 12.7891 17.5065C12.9224 17.5581 13.0643 17.5323 13.1504 17.4376C13.2321 17.3516 13.2364 17.2914 13.2364 16.5129V15.6828H13.9891H14.7417V18.1774V20.672H12.2471H9.75254V18.1774V15.6828H10.5267H11.3009V16.5215ZM12.6342 16.0097V16.3366L12.5009 16.2248C12.4278 16.1645 12.3246 16.1129 12.2686 16.1129C12.2127 16.1129 12.1095 16.1645 12.0364 16.2248L11.9031 16.3366V16.0097V15.6828H12.2686H12.6342V16.0097ZM16.8923 16.4957C16.8923 17.2484 16.8966 17.3129 16.9826 17.4204C17.0471 17.5022 17.1116 17.5323 17.2148 17.5323C17.3439 17.5323 17.3912 17.4979 17.6105 17.2312L17.86 16.9301L18.131 17.2312C18.432 17.5624 18.5568 17.6054 18.746 17.4505C18.8492 17.3688 18.8492 17.3516 18.8621 16.5258L18.8793 15.6828H19.6277H20.3761V18.1774V20.672H17.8815H15.3869V18.1774V15.6828H16.1396H16.8923V16.4957ZM18.2256 16.0097V16.3366L18.0922 16.2248C17.9245 16.0828 17.7955 16.0828 17.6492 16.2248L17.5374 16.3409V16.0097V15.6828H17.8815H18.2256V16.0097Z"/>
</mask>
<path d="M12.3848 9.44632C12.3074 9.46352 12.2041 9.51513 12.1568 9.55815C11.9418 9.75169 11.9461 9.70008 11.9461 12.457V15.0377H10.8622C10.2644 15.0377 9.69662 15.0592 9.602 15.0807C9.49447 15.1065 9.37835 15.1753 9.29232 15.2699L9.15039 15.4248V18.1645C9.15039 20.8398 9.15469 20.9129 9.23641 21.0505C9.40845 21.3344 9.06867 21.3172 15.0944 21.3172C20.4449 21.3172 20.5739 21.3129 20.7073 21.2312C21.017 21.0462 20.9998 21.2183 20.9998 18.1989C20.9998 15.6914 20.9954 15.4807 20.9223 15.3516C20.7718 15.0764 20.703 15.0592 19.3783 15.0463L18.1826 15.0334V12.4097V9.7904L18.0449 9.63556C17.9546 9.54094 17.8385 9.47212 17.731 9.44632C17.5245 9.39901 12.5869 9.39901 12.3848 9.44632ZM14.3116 10.8872C14.3116 11.67 14.3159 11.7302 14.3977 11.8119C14.4966 11.9108 14.6944 11.9237 14.7891 11.842C14.8278 11.8162 14.9482 11.6786 15.0643 11.5409L15.2751 11.2872L15.4256 11.4764C15.7955 11.928 15.946 11.9968 16.1482 11.8033C16.2428 11.713 16.2471 11.6915 16.2471 10.8786V10.0485H16.9138H17.5804V12.5431V15.0377H15.0643H12.5482V12.5431V10.0485H13.4299H14.3116V10.8872ZM15.6019 10.371V10.6893L15.4944 10.5861C15.3611 10.4485 15.2106 10.4485 15.0471 10.5904L14.9138 10.7022V10.3753V10.0485H15.2579H15.6019V10.371ZM11.3009 16.5215C11.3009 17.3043 11.3052 17.3645 11.3869 17.4462C11.4342 17.4936 11.5289 17.5323 11.6063 17.5323C11.7396 17.5323 11.7396 17.528 12.1482 17.0635L12.2729 16.9172L12.4966 17.2011C12.6213 17.3559 12.7504 17.4936 12.7891 17.5065C12.9224 17.5581 13.0643 17.5323 13.1504 17.4376C13.2321 17.3516 13.2364 17.2914 13.2364 16.5129V15.6828H13.9891H14.7417V18.1774V20.672H12.2471H9.75254V18.1774V15.6828H10.5267H11.3009V16.5215ZM12.6342 16.0097V16.3366L12.5009 16.2248C12.4278 16.1645 12.3246 16.1129 12.2686 16.1129C12.2127 16.1129 12.1095 16.1645 12.0364 16.2248L11.9031 16.3366V16.0097V15.6828H12.2686H12.6342V16.0097ZM16.8923 16.4957C16.8923 17.2484 16.8966 17.3129 16.9826 17.4204C17.0471 17.5022 17.1116 17.5323 17.2148 17.5323C17.3439 17.5323 17.3912 17.4979 17.6105 17.2312L17.86 16.9301L18.131 17.2312C18.432 17.5624 18.5568 17.6054 18.746 17.4505C18.8492 17.3688 18.8492 17.3516 18.8621 16.5258L18.8793 15.6828H19.6277H20.3761V18.1774V20.672H17.8815H15.3869V18.1774V15.6828H16.1396H16.8923V16.4957ZM18.2256 16.0097V16.3366L18.0922 16.2248C17.9245 16.0828 17.7955 16.0828 17.6492 16.2248L17.5374 16.3409V16.0097V15.6828H17.8815H18.2256V16.0097Z" fill="black"/>
<path d="M12.3848 9.44632C12.3074 9.46352 12.2041 9.51513 12.1568 9.55815C11.9418 9.75169 11.9461 9.70008 11.9461 12.457V15.0377H10.8622C10.2644 15.0377 9.69662 15.0592 9.602 15.0807C9.49447 15.1065 9.37835 15.1753 9.29232 15.2699L9.15039 15.4248V18.1645C9.15039 20.8398 9.15469 20.9129 9.23641 21.0505C9.40845 21.3344 9.06867 21.3172 15.0944 21.3172C20.4449 21.3172 20.5739 21.3129 20.7073 21.2312C21.017 21.0462 20.9998 21.2183 20.9998 18.1989C20.9998 15.6914 20.9954 15.4807 20.9223 15.3516C20.7718 15.0764 20.703 15.0592 19.3783 15.0463L18.1826 15.0334V12.4097V9.7904L18.0449 9.63556C17.9546 9.54094 17.8385 9.47212 17.731 9.44632C17.5245 9.39901 12.5869 9.39901 12.3848 9.44632ZM14.3116 10.8872C14.3116 11.67 14.3159 11.7302 14.3977 11.8119C14.4966 11.9108 14.6944 11.9237 14.7891 11.842C14.8278 11.8162 14.9482 11.6786 15.0643 11.5409L15.2751 11.2872L15.4256 11.4764C15.7955 11.928 15.946 11.9968 16.1482 11.8033C16.2428 11.713 16.2471 11.6915 16.2471 10.8786V10.0485H16.9138H17.5804V12.5431V15.0377H15.0643H12.5482V12.5431V10.0485H13.4299H14.3116V10.8872ZM15.6019 10.371V10.6893L15.4944 10.5861C15.3611 10.4485 15.2106 10.4485 15.0471 10.5904L14.9138 10.7022V10.3753V10.0485H15.2579H15.6019V10.371ZM11.3009 16.5215C11.3009 17.3043 11.3052 17.3645 11.3869 17.4462C11.4342 17.4936 11.5289 17.5323 11.6063 17.5323C11.7396 17.5323 11.7396 17.528 12.1482 17.0635L12.2729 16.9172L12.4966 17.2011C12.6213 17.3559 12.7504 17.4936 12.7891 17.5065C12.9224 17.5581 13.0643 17.5323 13.1504 17.4376C13.2321 17.3516 13.2364 17.2914 13.2364 16.5129V15.6828H13.9891H14.7417V18.1774V20.672H12.2471H9.75254V18.1774V15.6828H10.5267H11.3009V16.5215ZM12.6342 16.0097V16.3366L12.5009 16.2248C12.4278 16.1645 12.3246 16.1129 12.2686 16.1129C12.2127 16.1129 12.1095 16.1645 12.0364 16.2248L11.9031 16.3366V16.0097V15.6828H12.2686H12.6342V16.0097ZM16.8923 16.4957C16.8923 17.2484 16.8966 17.3129 16.9826 17.4204C17.0471 17.5022 17.1116 17.5323 17.2148 17.5323C17.3439 17.5323 17.3912 17.4979 17.6105 17.2312L17.86 16.9301L18.131 17.2312C18.432 17.5624 18.5568 17.6054 18.746 17.4505C18.8492 17.3688 18.8492 17.3516 18.8621 16.5258L18.8793 15.6828H19.6277H20.3761V18.1774V20.672H17.8815H15.3869V18.1774V15.6828H16.1396H16.8923V16.4957ZM18.2256 16.0097V16.3366L18.0922 16.2248C17.9245 16.0828 17.7955 16.0828 17.6492 16.2248L17.5374 16.3409V16.0097V15.6828H17.8815H18.2256V16.0097Z" stroke="black" stroke-width="0.6" mask="url(#path-3-outside-3_272_172)"/>
<mask id="path-4-outside-4_272_172" maskUnits="userSpaceOnUse" x="12.1255" y="13.6934" width="3" height="2" fill="black">
<rect fill="white" x="12.1255" y="13.6934" width="3" height="2"/>
<path d="M13.2453 14.1643C13.1076 14.2805 13.0861 14.4396 13.1937 14.5772L13.284 14.6934H13.9635C14.7291 14.6934 14.785 14.6719 14.785 14.3794C14.785 14.1213 14.699 14.0912 13.9635 14.0912C13.4259 14.0912 13.3184 14.1041 13.2453 14.1643Z"/>
</mask>
<path d="M13.2453 14.1643C13.1076 14.2805 13.0861 14.4396 13.1937 14.5772L13.284 14.6934H13.9635C14.7291 14.6934 14.785 14.6719 14.785 14.3794C14.785 14.1213 14.699 14.0912 13.9635 14.0912C13.4259 14.0912 13.3184 14.1041 13.2453 14.1643Z" fill="black"/>
<path d="M13.2453 14.1643C13.1076 14.2805 13.0861 14.4396 13.1937 14.5772L13.284 14.6934H13.9635C14.7291 14.6934 14.785 14.6719 14.785 14.3794C14.785 14.1213 14.699 14.0912 13.9635 14.0912C13.4259 14.0912 13.3184 14.1041 13.2453 14.1643Z" stroke="black" stroke-width="0.6" mask="url(#path-4-outside-4_272_172)"/>
<mask id="path-5-outside-5_272_172" maskUnits="userSpaceOnUse" x="9.10352" y="19.3281" width="4" height="2" fill="black">
<rect fill="white" x="9.10352" y="19.3281" width="4" height="2"/>
<path d="M10.2042 19.8335C10.0752 19.9625 10.0709 20.0658 10.187 20.2163L10.273 20.3281H10.9569H11.6408L11.7268 20.2163C11.8429 20.0658 11.8386 19.9625 11.7096 19.8335C11.6107 19.7303 11.5892 19.726 10.9569 19.726C10.3247 19.726 10.3032 19.7303 10.2042 19.8335Z"/>
</mask>
<path d="M10.2042 19.8335C10.0752 19.9625 10.0709 20.0658 10.187 20.2163L10.273 20.3281H10.9569H11.6408L11.7268 20.2163C11.8429 20.0658 11.8386 19.9625 11.7096 19.8335C11.6107 19.7303 11.5892 19.726 10.9569 19.726C10.3247 19.726 10.3032 19.7303 10.2042 19.8335Z" fill="black"/>
<path d="M10.2042 19.8335C10.0752 19.9625 10.0709 20.0658 10.187 20.2163L10.273 20.3281H10.9569H11.6408L11.7268 20.2163C11.8429 20.0658 11.8386 19.9625 11.7096 19.8335C11.6107 19.7303 11.5892 19.726 10.9569 19.726C10.3247 19.726 10.3032 19.7303 10.2042 19.8335Z" stroke="black" stroke-width="0.6" mask="url(#path-5-outside-5_272_172)"/>
<mask id="path-6-outside-6_272_172" maskUnits="userSpaceOnUse" x="14.7358" y="19.3281" width="3" height="2" fill="black">
<rect fill="white" x="14.7358" y="19.3281" width="3" height="2"/>
<path d="M15.8257 19.8249C15.7096 19.9496 15.7053 20.1303 15.8171 20.2421C15.8945 20.3195 15.959 20.3281 16.5698 20.3281C17.1805 20.3281 17.245 20.3195 17.3225 20.2421C17.4386 20.126 17.4343 19.9367 17.3096 19.8206C17.2149 19.7303 17.1676 19.726 16.5655 19.726C15.9461 19.726 15.916 19.7303 15.8257 19.8249Z"/>
</mask>
<path d="M15.8257 19.8249C15.7096 19.9496 15.7053 20.1303 15.8171 20.2421C15.8945 20.3195 15.959 20.3281 16.5698 20.3281C17.1805 20.3281 17.245 20.3195 17.3225 20.2421C17.4386 20.126 17.4343 19.9367 17.3096 19.8206C17.2149 19.7303 17.1676 19.726 16.5655 19.726C15.9461 19.726 15.916 19.7303 15.8257 19.8249Z" fill="black"/>
<path d="M15.8257 19.8249C15.7096 19.9496 15.7053 20.1303 15.8171 20.2421C15.8945 20.3195 15.959 20.3281 16.5698 20.3281C17.1805 20.3281 17.245 20.3195 17.3225 20.2421C17.4386 20.126 17.4343 19.9367 17.3096 19.8206C17.2149 19.7303 17.1676 19.726 16.5655 19.726C15.9461 19.726 15.916 19.7303 15.8257 19.8249Z" stroke="black" stroke-width="0.6" mask="url(#path-6-outside-6_272_172)"/>
</svg>
