<svg width="22" height="22" viewBox="0 0 22 22" fill="none" xmlns="http://www.w3.org/2000/svg">
<path d="M5.29369 0.550781L5.29369 0.5508C4.54621 0.69665 3.88685 1.17513 3.55052 1.82904C3.16319 2.57205 3.15386 3.30162 3.51878 4.04974L5.29369 0.550781ZM5.29369 0.550781L5.29605 0.550359M5.29369 0.550781L5.29605 0.550359M5.29605 0.550359C5.43715 0.525163 5.66457 0.529055 5.88122 0.548059C6.09943 0.5672 6.33156 0.603891 6.48382 0.654644L6.48382 0.65464L6.48496 0.65503C7.16818 0.888885 7.74323 1.44602 8.0042 2.1234C8.07721 2.31093 8.11816 2.57887 8.1303 2.84106C8.1425 3.10448 8.12652 3.3817 8.07437 3.59029L8.07437 3.59029L8.07409 3.59139C7.92734 4.16004 7.57879 4.65534 7.09271 4.98551L7.09265 4.98555M5.29605 0.550359L7.09265 4.98555M7.09265 4.98555C6.71062 5.24478 6.33703 5.37899 5.88353 5.41105L5.87295 5.26142L5.88383 5.41103M7.09265 4.98555L5.88383 5.41103M5.88383 5.41103C4.87662 5.48428 3.96294 4.96091 3.5188 4.04978L5.88383 5.41103ZM6.33512 1.59134L6.33512 1.59136L6.33307 1.59038C6.24628 1.54896 6.18004 1.52495 6.09954 1.50921C6.01602 1.49288 5.91225 1.48448 5.74863 1.48023L5.74863 1.48023L5.74704 1.48018C5.57039 1.47371 5.47125 1.47438 5.39284 1.48487C5.31904 1.49473 5.25866 1.51398 5.16105 1.55464C4.75532 1.72575 4.47877 1.98792 4.30177 2.36487C4.25675 2.46525 4.23485 2.52581 4.22191 2.60171C4.20816 2.68238 4.20361 2.78582 4.20361 2.97327C4.20361 3.16187 4.20715 3.26466 4.22086 3.34551C4.23363 3.42085 4.25604 3.48169 4.30497 3.58363L4.30498 3.58362L4.3057 3.58517C4.52245 4.05019 4.99701 4.41025 5.46665 4.47184L5.46665 4.47184L5.4679 4.47201C6.17148 4.57028 6.78398 4.236 7.09199 3.5848C7.15172 3.4568 7.17932 3.3878 7.19483 3.3124C7.21076 3.23495 7.21541 3.14352 7.21541 2.96897C7.21541 2.78493 7.21261 2.70003 7.19545 2.62408C7.17861 2.54959 7.14638 2.47704 7.06819 2.32283L7.06817 2.32284L7.0672 2.32085C6.89651 1.97153 6.66729 1.74375 6.33512 1.59134ZM5.75252 1.33028C6.0837 1.33888 6.20843 1.36468 6.39768 1.45501L5.75252 1.33028Z" fill="white" stroke="white" stroke-width="0.3"/>
<path d="M3.00513 5.8861L3.00486 5.88617C2.21044 6.09499 1.52184 6.65238 1.14987 7.39178L1.1497 7.39211L1.14101 7.4095C1.07512 7.5412 1.01953 7.65229 0.977407 7.7791C0.932688 7.91371 0.904455 8.06119 0.886058 8.2708C0.849999 8.68165 0.849999 9.35856 0.85 10.6968V10.7151V13.1667V13.2015L0.865367 13.2328L0.985796 13.478L0.985866 13.4781C1.30018 14.1163 2.03459 14.4458 2.68532 14.211L2.68566 14.2109C2.69027 14.2092 2.69486 14.2075 2.69942 14.2059C2.69961 14.2115 2.69981 14.2172 2.7 14.223C2.70446 14.3587 2.70888 14.5557 2.71291 14.7998C2.72096 15.2877 2.72741 15.9612 2.72955 16.7026L2.72956 16.7028L2.74246 19.4039L2.74261 19.4363L2.75613 19.4657L2.87656 19.7281L2.87691 19.7289L2.87691 19.7289C3.03784 20.0744 3.35047 20.3952 3.70569 20.5775L3.70708 20.5782L3.70709 20.5782C3.81762 20.6335 3.90304 20.6715 4.01608 20.6921C4.12302 20.7116 4.24953 20.7145 4.44083 20.7145H4.44209V20.7144C4.70341 20.7123 4.90476 20.6916 5.08679 20.6246C5.27089 20.5567 5.42231 20.4461 5.59268 20.287L5.59288 20.2868L5.69599 20.1901L5.76951 20.2601L5.76969 20.2602L5.87308 20.1516C5.9677 20.2419 6.16125 20.3752 6.29888 20.4397C6.51823 20.5516 6.59565 20.5645 6.95694 20.5645C7.33113 20.5645 7.39134 20.5516 7.65371 20.4225L3.00513 5.8861ZM3.00513 5.8861C3.07099 5.86892 3.17011 5.85805 3.32997 5.8496C3.49322 5.84097 3.73083 5.83449 4.08069 5.82965C4.78083 5.81995 5.93777 5.81673 7.86433 5.81673L3.00513 5.8861ZM6.05802 19.2698L6.20346 19.2332C6.30407 19.632 6.75216 19.8984 7.13772 19.7958L7.1394 19.7954C7.38627 19.7328 7.55676 19.5929 7.66146 19.3877L7.75317 19.2006V13.657V8.07424V8.01721L7.79105 7.97458L7.89234 7.86063L7.98941 7.74247L8.03383 7.68838L8.10383 7.68769L10.2712 7.66619C10.2712 7.66619 10.2713 7.66619 10.2713 7.66619C10.369 7.66499 10.4625 7.66386 10.5519 7.66279C11.5961 7.65023 12.0983 7.64419 12.3593 7.60494C12.4986 7.58399 12.5352 7.55747 12.5498 7.54279C12.5584 7.53419 12.5677 7.52123 12.5808 7.49458C12.59 7.47571 12.5978 7.45749 12.6077 7.43415C12.614 7.41921 12.6213 7.40217 12.6304 7.38152L12.6304 7.38152L12.631 7.38005C12.7408 7.13784 12.6351 6.8702 12.3752 6.76356L12.3752 6.76362L12.3738 6.76299C12.3737 6.76317 12.3632 6.76002 12.3333 6.75615C12.2987 6.75168 12.2482 6.74737 12.1759 6.74345C12.0317 6.73564 11.8107 6.72988 11.4777 6.72585C10.8122 6.7178 9.70796 6.71672 7.89483 6.71887C6.68432 6.72103 5.56532 6.7264 4.73725 6.73339C4.32317 6.73688 3.98212 6.74077 3.73885 6.74486C3.61715 6.74691 3.52041 6.74899 3.45141 6.75109C3.41684 6.75214 3.38992 6.75317 3.3706 6.75416C3.35525 6.75495 3.34856 6.75556 3.34727 6.75562C2.69065 6.88862 2.13967 7.35152 1.88336 7.99232L1.88283 7.99359C1.85882 8.05206 1.84511 8.08688 1.83396 8.14456C1.82205 8.20623 1.8127 8.29698 1.80578 8.46275C1.79195 8.79417 1.78871 9.39564 1.78225 10.5998C1.7819 10.6722 1.78156 10.7425 1.78123 10.811C1.77534 12.0245 1.77245 12.6184 1.80356 12.9325C1.82004 13.0988 1.8443 13.1596 1.86384 13.1887C1.88226 13.2161 1.90267 13.2289 1.97918 13.277C1.98301 13.2794 1.98697 13.2819 1.99108 13.2845C2.23049 13.4316 2.53067 13.3426 2.65025 13.1006C2.67857 13.0425 2.69798 12.9971 2.70876 12.7724C2.71983 12.5415 2.72095 12.1429 2.72095 11.386V9.78605V9.72212L2.76707 9.67784L2.87268 9.57646C2.94695 9.5002 3.03838 9.43751 3.15303 9.43244C3.26633 9.42742 3.36491 9.48057 3.44931 9.54741L3.56025 9.63275L3.61859 9.67763L3.6188 9.75124L3.6317 14.491L3.64451 19.1955L3.73199 19.3705L3.732 19.3705L3.73266 19.3719C4.01302 19.9469 4.86423 19.9486 5.14933 19.3712L5.14967 19.3705L5.23728 19.1953L5.24996 17.1442L5.24997 17.1441C5.25641 16.2225 5.26179 15.6972 5.27319 15.3938C5.27885 15.2431 5.28617 15.1408 5.29707 15.0701C5.30746 15.0027 5.32425 14.9381 5.3688 14.8872L5.36876 14.8872L5.37111 14.8846C5.45895 14.7888 5.59315 14.7593 5.70118 14.7613C5.81133 14.7634 5.94097 14.7988 6.03075 14.8885C6.04414 14.9019 6.06326 14.922 6.08058 14.951C6.09783 14.9798 6.10954 15.011 6.11813 15.0453C6.13412 15.1093 6.14257 15.1992 6.14821 15.3335C6.15967 15.6063 6.16071 16.1127 6.16071 17.0849C6.16071 17.7339 6.16501 18.2488 6.17304 18.616C6.17706 18.7998 6.18199 18.9456 6.18771 19.0523C6.19058 19.1057 6.19359 19.1483 6.19666 19.1804C6.1982 19.1964 6.19968 19.209 6.20104 19.2186L6.2028 19.2298C6.20327 19.2323 6.20355 19.2335 6.20355 19.2335L6.20354 19.2335L6.05802 19.2698ZM6.05802 19.2698C6.02791 19.1494 6.01071 18.3838 6.01071 17.0849C6.01071 15.1365 6.00641 15.0763 5.92469 14.9946C5.81716 14.8871 5.5763 14.8828 5.48168 14.986M6.05802 19.2698C6.17845 19.7473 6.70748 20.0655 7.17629 19.9408C7.46446 19.8677 7.67091 19.6999 7.79564 19.4548L5.48168 14.986M5.48168 14.986C5.42147 15.0548 5.41287 15.3 5.39996 17.1451L5.48168 14.986Z" fill="white" stroke="white" stroke-width="0.3"/>
<mask id="path-3-outside-1_389_226" maskUnits="userSpaceOnUse" x="8.15039" y="8.31738" width="14" height="14" fill="black">
<rect fill="white" x="8.15039" y="8.31738" width="14" height="14"/>
<path d="M12.3848 9.44632C12.3074 9.46352 12.2041 9.51513 12.1568 9.55815C11.9418 9.75169 11.9461 9.70008 11.9461 12.457V15.0377H10.8622C10.2644 15.0377 9.69662 15.0592 9.602 15.0807C9.49447 15.1065 9.37835 15.1753 9.29232 15.2699L9.15039 15.4248V18.1645C9.15039 20.8398 9.15469 20.9129 9.23641 21.0505C9.40845 21.3344 9.06867 21.3172 15.0944 21.3172C20.4449 21.3172 20.5739 21.3129 20.7073 21.2312C21.017 21.0462 20.9998 21.2183 20.9998 18.1989C20.9998 15.6914 20.9954 15.4807 20.9223 15.3516C20.7718 15.0764 20.703 15.0592 19.3783 15.0463L18.1826 15.0334V12.4097V9.7904L18.0449 9.63556C17.9546 9.54094 17.8385 9.47212 17.731 9.44632C17.5245 9.39901 12.5869 9.39901 12.3848 9.44632ZM14.3116 10.8872C14.3116 11.67 14.3159 11.7302 14.3977 11.8119C14.4966 11.9108 14.6944 11.9237 14.7891 11.842C14.8278 11.8162 14.9482 11.6786 15.0643 11.5409L15.2751 11.2872L15.4256 11.4764C15.7955 11.928 15.946 11.9968 16.1482 11.8033C16.2428 11.713 16.2471 11.6915 16.2471 10.8786V10.0485H16.9138H17.5804V12.5431V15.0377H15.0643H12.5482V12.5431V10.0485H13.4299H14.3116V10.8872ZM15.6019 10.371V10.6893L15.4944 10.5861C15.3611 10.4485 15.2106 10.4485 15.0471 10.5904L14.9138 10.7022V10.3753V10.0485H15.2579H15.6019V10.371ZM11.3009 16.5215C11.3009 17.3043 11.3052 17.3645 11.3869 17.4462C11.4342 17.4936 11.5289 17.5323 11.6063 17.5323C11.7396 17.5323 11.7396 17.528 12.1482 17.0635L12.2729 16.9172L12.4966 17.2011C12.6213 17.3559 12.7504 17.4936 12.7891 17.5065C12.9224 17.5581 13.0643 17.5323 13.1504 17.4376C13.2321 17.3516 13.2364 17.2914 13.2364 16.5129V15.6828H13.9891H14.7417V18.1774V20.672H12.2471H9.75254V18.1774V15.6828H10.5267H11.3009V16.5215ZM12.6342 16.0097V16.3366L12.5009 16.2248C12.4278 16.1645 12.3246 16.1129 12.2686 16.1129C12.2127 16.1129 12.1095 16.1645 12.0364 16.2248L11.9031 16.3366V16.0097V15.6828H12.2686H12.6342V16.0097ZM16.8923 16.4957C16.8923 17.2484 16.8966 17.3129 16.9826 17.4204C17.0471 17.5022 17.1116 17.5323 17.2148 17.5323C17.3439 17.5323 17.3912 17.4979 17.6105 17.2312L17.86 16.9301L18.131 17.2312C18.432 17.5624 18.5568 17.6054 18.746 17.4505C18.8492 17.3688 18.8492 17.3516 18.8621 16.5258L18.8793 15.6828H19.6277H20.3761V18.1774V20.672H17.8815H15.3869V18.1774V15.6828H16.1396H16.8923V16.4957ZM18.2256 16.0097V16.3366L18.0922 16.2248C17.9245 16.0828 17.7955 16.0828 17.6492 16.2248L17.5374 16.3409V16.0097V15.6828H17.8815H18.2256V16.0097Z"/>
</mask>
<path d="M12.3848 9.44632C12.3074 9.46352 12.2041 9.51513 12.1568 9.55815C11.9418 9.75169 11.9461 9.70008 11.9461 12.457V15.0377H10.8622C10.2644 15.0377 9.69662 15.0592 9.602 15.0807C9.49447 15.1065 9.37835 15.1753 9.29232 15.2699L9.15039 15.4248V18.1645C9.15039 20.8398 9.15469 20.9129 9.23641 21.0505C9.40845 21.3344 9.06867 21.3172 15.0944 21.3172C20.4449 21.3172 20.5739 21.3129 20.7073 21.2312C21.017 21.0462 20.9998 21.2183 20.9998 18.1989C20.9998 15.6914 20.9954 15.4807 20.9223 15.3516C20.7718 15.0764 20.703 15.0592 19.3783 15.0463L18.1826 15.0334V12.4097V9.7904L18.0449 9.63556C17.9546 9.54094 17.8385 9.47212 17.731 9.44632C17.5245 9.39901 12.5869 9.39901 12.3848 9.44632ZM14.3116 10.8872C14.3116 11.67 14.3159 11.7302 14.3977 11.8119C14.4966 11.9108 14.6944 11.9237 14.7891 11.842C14.8278 11.8162 14.9482 11.6786 15.0643 11.5409L15.2751 11.2872L15.4256 11.4764C15.7955 11.928 15.946 11.9968 16.1482 11.8033C16.2428 11.713 16.2471 11.6915 16.2471 10.8786V10.0485H16.9138H17.5804V12.5431V15.0377H15.0643H12.5482V12.5431V10.0485H13.4299H14.3116V10.8872ZM15.6019 10.371V10.6893L15.4944 10.5861C15.3611 10.4485 15.2106 10.4485 15.0471 10.5904L14.9138 10.7022V10.3753V10.0485H15.2579H15.6019V10.371ZM11.3009 16.5215C11.3009 17.3043 11.3052 17.3645 11.3869 17.4462C11.4342 17.4936 11.5289 17.5323 11.6063 17.5323C11.7396 17.5323 11.7396 17.528 12.1482 17.0635L12.2729 16.9172L12.4966 17.2011C12.6213 17.3559 12.7504 17.4936 12.7891 17.5065C12.9224 17.5581 13.0643 17.5323 13.1504 17.4376C13.2321 17.3516 13.2364 17.2914 13.2364 16.5129V15.6828H13.9891H14.7417V18.1774V20.672H12.2471H9.75254V18.1774V15.6828H10.5267H11.3009V16.5215ZM12.6342 16.0097V16.3366L12.5009 16.2248C12.4278 16.1645 12.3246 16.1129 12.2686 16.1129C12.2127 16.1129 12.1095 16.1645 12.0364 16.2248L11.9031 16.3366V16.0097V15.6828H12.2686H12.6342V16.0097ZM16.8923 16.4957C16.8923 17.2484 16.8966 17.3129 16.9826 17.4204C17.0471 17.5022 17.1116 17.5323 17.2148 17.5323C17.3439 17.5323 17.3912 17.4979 17.6105 17.2312L17.86 16.9301L18.131 17.2312C18.432 17.5624 18.5568 17.6054 18.746 17.4505C18.8492 17.3688 18.8492 17.3516 18.8621 16.5258L18.8793 15.6828H19.6277H20.3761V18.1774V20.672H17.8815H15.3869V18.1774V15.6828H16.1396H16.8923V16.4957ZM18.2256 16.0097V16.3366L18.0922 16.2248C17.9245 16.0828 17.7955 16.0828 17.6492 16.2248L17.5374 16.3409V16.0097V15.6828H17.8815H18.2256V16.0097Z" fill="white"/>
<path d="M12.3848 9.44632C12.3074 9.46352 12.2041 9.51513 12.1568 9.55815C11.9418 9.75169 11.9461 9.70008 11.9461 12.457V15.0377H10.8622C10.2644 15.0377 9.69662 15.0592 9.602 15.0807C9.49447 15.1065 9.37835 15.1753 9.29232 15.2699L9.15039 15.4248V18.1645C9.15039 20.8398 9.15469 20.9129 9.23641 21.0505C9.40845 21.3344 9.06867 21.3172 15.0944 21.3172C20.4449 21.3172 20.5739 21.3129 20.7073 21.2312C21.017 21.0462 20.9998 21.2183 20.9998 18.1989C20.9998 15.6914 20.9954 15.4807 20.9223 15.3516C20.7718 15.0764 20.703 15.0592 19.3783 15.0463L18.1826 15.0334V12.4097V9.7904L18.0449 9.63556C17.9546 9.54094 17.8385 9.47212 17.731 9.44632C17.5245 9.39901 12.5869 9.39901 12.3848 9.44632ZM14.3116 10.8872C14.3116 11.67 14.3159 11.7302 14.3977 11.8119C14.4966 11.9108 14.6944 11.9237 14.7891 11.842C14.8278 11.8162 14.9482 11.6786 15.0643 11.5409L15.2751 11.2872L15.4256 11.4764C15.7955 11.928 15.946 11.9968 16.1482 11.8033C16.2428 11.713 16.2471 11.6915 16.2471 10.8786V10.0485H16.9138H17.5804V12.5431V15.0377H15.0643H12.5482V12.5431V10.0485H13.4299H14.3116V10.8872ZM15.6019 10.371V10.6893L15.4944 10.5861C15.3611 10.4485 15.2106 10.4485 15.0471 10.5904L14.9138 10.7022V10.3753V10.0485H15.2579H15.6019V10.371ZM11.3009 16.5215C11.3009 17.3043 11.3052 17.3645 11.3869 17.4462C11.4342 17.4936 11.5289 17.5323 11.6063 17.5323C11.7396 17.5323 11.7396 17.528 12.1482 17.0635L12.2729 16.9172L12.4966 17.2011C12.6213 17.3559 12.7504 17.4936 12.7891 17.5065C12.9224 17.5581 13.0643 17.5323 13.1504 17.4376C13.2321 17.3516 13.2364 17.2914 13.2364 16.5129V15.6828H13.9891H14.7417V18.1774V20.672H12.2471H9.75254V18.1774V15.6828H10.5267H11.3009V16.5215ZM12.6342 16.0097V16.3366L12.5009 16.2248C12.4278 16.1645 12.3246 16.1129 12.2686 16.1129C12.2127 16.1129 12.1095 16.1645 12.0364 16.2248L11.9031 16.3366V16.0097V15.6828H12.2686H12.6342V16.0097ZM16.8923 16.4957C16.8923 17.2484 16.8966 17.3129 16.9826 17.4204C17.0471 17.5022 17.1116 17.5323 17.2148 17.5323C17.3439 17.5323 17.3912 17.4979 17.6105 17.2312L17.86 16.9301L18.131 17.2312C18.432 17.5624 18.5568 17.6054 18.746 17.4505C18.8492 17.3688 18.8492 17.3516 18.8621 16.5258L18.8793 15.6828H19.6277H20.3761V18.1774V20.672H17.8815H15.3869V18.1774V15.6828H16.1396H16.8923V16.4957ZM18.2256 16.0097V16.3366L18.0922 16.2248C17.9245 16.0828 17.7955 16.0828 17.6492 16.2248L17.5374 16.3409V16.0097V15.6828H17.8815H18.2256V16.0097Z" stroke="white" stroke-width="0.6" mask="url(#path-3-outside-1_389_226)"/>
<path d="M13.0753 14.6697C13.0007 14.574 12.9638 14.4607 12.9787 14.3439C12.9935 14.2282 13.0569 14.1273 13.1485 14.0499L13.1485 14.0499L13.1499 14.0488C13.2194 13.9916 13.2988 13.9683 13.4147 13.9562C13.5271 13.9445 13.6964 13.9415 13.9635 13.9415C14.1475 13.9415 14.2948 13.9433 14.4114 13.9505C14.5257 13.9575 14.6226 13.9702 14.6997 13.9972C14.7829 14.0264 14.8529 14.076 14.8943 14.1586C14.9306 14.2313 14.935 14.3123 14.935 14.3796C14.935 14.4509 14.9329 14.5344 14.9037 14.6076C14.8686 14.6955 14.8026 14.7529 14.715 14.7864C14.6371 14.8162 14.5386 14.8287 14.4236 14.8354C14.3057 14.8423 14.1545 14.8436 13.9635 14.8436H13.284H13.2106L13.1656 14.7857L13.0753 14.6697ZM13.0753 14.6697C13.0754 14.6697 13.0754 14.6698 13.0755 14.6698L13.1937 14.5775M13.0753 14.6697L13.0753 14.6696L13.1937 14.5775M13.1937 14.5775L13.284 14.6936H13.9635C14.7291 14.6936 14.785 14.6721 14.785 14.3796C14.785 14.1216 14.699 14.0915 13.9635 14.0915C13.4259 14.0915 13.3184 14.1044 13.2453 14.1646C13.1076 14.2807 13.0861 14.4398 13.1937 14.5775Z" fill="white" stroke="white" stroke-width="0.3"/>
<path d="M10.1992 20.478H10.273H10.9569H11.6408H11.7146L11.7597 20.4195L11.8456 20.3078L11.8457 20.3076L11.7268 20.2162C11.8429 20.0656 11.8386 19.9624 11.7096 19.8334L10.1992 20.478ZM10.1992 20.478L10.1542 20.4195L10.0682 20.3077C10.0023 20.2223 9.94882 20.1236 9.95384 20.0101C9.95892 19.8952 10.022 19.8038 10.097 19.7285C10.1214 19.703 10.154 19.6695 10.1996 19.6432C10.2476 19.6154 10.2996 19.601 10.3591 19.5925C10.4695 19.5765 10.6471 19.5759 10.9569 19.5759C11.2667 19.5759 11.4444 19.5765 11.5547 19.5925C11.6142 19.601 11.6662 19.6154 11.7142 19.6432C11.7598 19.6695 11.7924 19.703 11.8168 19.7285L10.1992 20.478Z" fill="white" stroke="white" stroke-width="0.3"/>
<path d="M15.7159 19.7226L15.7159 19.7226L15.7172 19.7212C15.7412 19.696 15.7735 19.6632 15.8206 19.6376C15.8679 19.6119 15.9194 19.5989 15.9773 19.5912C16.0861 19.5766 16.2615 19.5759 16.5655 19.5759C16.8615 19.5759 17.0358 19.5766 17.1464 19.5905C17.2047 19.5977 17.256 19.6097 17.3032 19.6325C17.351 19.6556 17.385 19.6852 17.4125 19.7114C17.5965 19.8834 17.6066 20.17 17.4285 20.348C17.4015 20.375 17.368 20.4035 17.3187 20.4253C17.2726 20.4456 17.2214 20.4563 17.1634 20.463C17.0506 20.4761 16.8715 20.478 16.5698 20.478C16.2681 20.478 16.089 20.4761 15.9762 20.463C15.9181 20.4563 15.8669 20.4456 15.8209 20.4253C15.7716 20.4035 15.738 20.375 15.711 20.348C15.5345 20.1715 15.5524 19.8982 15.7159 19.7226Z" fill="white" stroke="white" stroke-width="0.3"/>
</svg>
